<svg width="111" height="113" viewBox="0 0 111 113" fill="none" xmlns="http://www.w3.org/2000/svg">
<path d="M55.3105 72.6485C64.5246 72.6485 71.9941 65.3155 71.9941 56.2697C71.9941 47.2239 64.5246 39.8909 55.3105 39.8909C46.0965 39.8909 38.627 47.2239 38.627 56.2697C38.627 65.3155 46.0965 72.6485 55.3105 72.6485Z" fill="#2C5E77"/>
<path d="M51.8787 50.0134C51.6572 50.0134 51.4367 50.0731 51.2393 50.1915C50.8716 50.4122 50.6521 50.7964 50.6521 51.2195V61.3198C50.6521 61.7428 50.8716 62.1271 51.2393 62.3477C51.607 62.5683 52.0553 62.5848 52.4389 62.3921L62.4793 57.3419C62.8973 57.1317 63.147 56.7308 63.147 56.2696C63.147 55.8084 62.8973 55.4076 62.4793 55.1973L52.4389 50.1472C52.2612 50.0579 52.0696 50.0134 51.8787 50.0134Z" fill="white"/>
</svg>
