<svg width="68" height="54" viewBox="0 0 68 54" fill="none" xmlns="http://www.w3.org/2000/svg">
<g clip-path="url(#clip0_117_5531)">
<path d="M68 9.36497C67.4607 10.5505 66.5258 10.9586 65.2361 10.941C61.6757 10.8936 58.1136 10.9323 54.5515 10.9147C54.0796 10.9129 53.8809 11.0413 53.7266 11.5092C52.5309 15.1556 49.1426 17.5673 45.302 17.5567C41.472 17.5461 38.1156 15.1539 36.9306 11.5338C36.7567 11.0009 36.4889 10.9129 35.9886 10.9147C24.8605 10.927 13.7341 10.927 2.60594 10.9147C2.15358 10.9147 1.66928 10.8549 1.25417 10.6877C0.344124 10.3254 -0.113561 9.41774 0.0230351 8.43973C0.143665 7.57253 0.855029 6.86189 1.78459 6.71413C2.13229 6.6596 2.48886 6.65081 2.84188 6.65081C13.8139 6.64729 24.7877 6.64201 35.7598 6.66488C36.4534 6.66488 36.7621 6.51185 37.0069 5.81352C38.2309 2.32011 41.715 -0.133712 45.7384 0.00524987C49.2331 0.126622 52.5664 2.55934 53.7177 6.03515C53.8827 6.5312 54.0973 6.66312 54.5958 6.6596C58.1136 6.6385 61.6314 6.67895 65.1474 6.63322C66.4424 6.61563 67.4287 6.97623 68.0017 8.17939V9.36497H68ZM45.3055 13.321C47.8476 13.3228 49.9285 11.2612 49.9072 8.76515C49.8841 6.28845 47.8192 4.24096 45.3321 4.2304C42.8148 4.21985 40.7535 6.28317 40.7588 8.80736C40.7641 11.3104 42.7882 13.3192 45.3073 13.3228L45.3055 13.321Z" fill="#2C5E77"/>
<path d="M68 45.8382C67.4395 47.0062 66.4922 47.402 65.2131 47.3844C61.674 47.3386 58.135 47.3773 54.5941 47.358C54.0974 47.3545 53.881 47.4846 53.7142 47.9807C52.5044 51.6271 49.1356 54.0071 45.2701 54C41.4578 53.993 38.1086 51.5902 36.92 47.9525C36.7515 47.4371 36.4978 47.358 36.0224 47.358C24.9616 47.3685 13.8991 47.3668 2.8384 47.365C2.52973 47.365 2.21751 47.3685 1.91238 47.3263C0.748656 47.168 -0.00350945 46.3061 0.0124563 45.175C0.0284221 44.0757 0.856868 43.2102 2.00995 43.0994C2.22992 43.0783 2.45167 43.0906 2.67342 43.0906C13.7785 43.0906 24.8836 43.0871 35.9904 43.0994C36.4907 43.0994 36.7568 43.0079 36.9306 42.4767C38.1121 38.8602 41.4702 36.4662 45.3003 36.4556C49.1445 36.445 52.5292 38.8549 53.7249 42.5013C53.8792 42.9692 54.0743 43.0994 54.548 43.0976C58.1101 43.0783 61.6723 43.1187 65.2326 43.0713C66.5241 43.0537 67.459 43.4618 67.9983 44.6491V45.8347L68 45.8382ZM40.7589 45.1997C40.75 47.7238 42.8043 49.7907 45.3215 49.7872C47.8051 49.7837 49.8753 47.7414 49.9073 45.2612C49.9392 42.7968 47.8725 40.7107 45.3836 40.6966C42.8096 40.6808 40.7678 42.6684 40.7589 45.1997Z" fill="#2C5E77"/>
<path d="M68 27.5356C67.5086 28.7194 66.6269 29.1363 65.3372 29.1328C54.2304 29.1011 43.1253 29.1187 32.0185 29.1029C31.5058 29.1029 31.2592 29.2155 31.0889 29.7379C29.895 33.3931 26.4251 35.8575 22.6057 35.81C18.7651 35.7625 15.3821 33.2436 14.2237 29.5761C14.1776 29.4318 14.1173 29.2911 14.0534 29.1152C12.1677 29.1152 10.289 29.1152 8.41039 29.1152C6.35258 29.1152 4.29477 29.1187 2.23873 29.1152C0.940185 29.1117 0.0177184 28.2357 0.0141705 27.0202C0.0106225 25.7924 0.922446 24.9076 2.21745 24.9076C5.91264 24.9041 9.60605 24.8936 13.3012 24.92C13.8654 24.9235 14.1244 24.8056 14.316 24.2234C15.5063 20.6315 18.946 18.1988 22.7157 18.2128C26.5049 18.2251 29.9056 20.6561 31.0765 24.2638C31.2645 24.8443 31.5448 24.9164 32.061 24.9164C43.0561 24.9059 54.0512 24.9252 65.0481 24.8848C66.3608 24.8795 67.372 25.1592 68 26.3553V27.5409V27.5356ZM22.6661 22.4855C20.1488 22.5013 18.1123 24.5189 18.1087 27.0044C18.1034 29.5092 20.1843 31.5497 22.7246 31.5321C25.2915 31.5145 27.2748 29.5075 27.2553 26.9463C27.2358 24.4433 25.2046 22.4696 22.6661 22.4855Z" fill="#2C5E77"/>
</g>
<defs>
<clipPath id="clip0_117_5531">
<rect width="68" height="54" fill="white"/>
</clipPath>
</defs>
</svg>
