<svg width="24" height="52" viewBox="0 0 24 52" fill="none" xmlns="http://www.w3.org/2000/svg">
<path d="M21.6262 51.9049C21.9012 51.9065 22.1739 51.852 22.4285 51.7444C22.6831 51.6367 22.9146 51.4782 23.1099 51.2778C23.3058 51.0768 23.4612 50.8376 23.5673 50.5741C23.6734 50.3106 23.728 50.028 23.728 49.7425C23.728 49.4571 23.6734 49.1744 23.5673 48.9109C23.4612 48.6474 23.3058 48.4083 23.1099 48.2073L6.03707 30.541C4.86307 29.3247 4.20365 27.6759 4.20365 25.9569C4.20365 24.2378 4.86307 22.589 6.03707 21.3727L23.1099 3.70644C23.5034 3.29926 23.7245 2.74701 23.7245 2.17118C23.7245 1.59535 23.5034 1.0431 23.1099 0.635924C22.7164 0.228749 22.1827 0 21.6262 0C21.0697 0 20.536 0.228749 20.1425 0.635924L3.0697 18.3022C2.09667 19.3065 1.32467 20.4996 0.797935 21.8131C0.271198 23.1266 6.29425e-05 24.5347 6.29425e-05 25.9569C6.29425e-05 27.379 0.271198 28.7871 0.797935 30.1006C1.32467 31.4141 2.09667 32.6072 3.0697 33.6115L20.1425 51.2778C20.3378 51.4782 20.5694 51.6367 20.824 51.7444C21.0786 51.852 21.3512 51.9065 21.6262 51.9049Z" fill="black"/>
</svg>
