<svg width="24" height="52" viewBox="0 0 24 52" fill="none" xmlns="http://www.w3.org/2000/svg">
<path d="M2.10181 -7.24792e-05C1.8268 -0.00171661 1.55417 0.0528259 1.29957 0.160435C1.04496 0.268044 0.81339 0.426601 0.618129 0.627007C0.422265 0.828026 0.266804 1.06718 0.160713 1.33068C0.0546215 1.59418 0 1.87681 0 2.16226C0 2.44772 0.0546215 2.73035 0.160713 2.99385C0.266804 3.25735 0.422265 3.4965 0.618129 3.69752L17.691 21.3638C18.865 22.5801 19.5244 24.2289 19.5244 25.9479C19.5244 27.667 18.865 29.3158 17.691 30.5321L0.618129 48.1983C0.224631 48.6055 0.00356628 49.1578 0.00356628 49.7336C0.00356628 50.3094 0.224631 50.8617 0.618129 51.2689C1.01163 51.676 1.54532 51.9048 2.10181 51.9048C2.6583 51.9048 3.192 51.676 3.5855 51.2689L20.6583 33.6026C21.6314 32.5983 22.4034 31.4052 22.9301 30.0917C23.4568 28.7782 23.728 27.37 23.728 25.9479C23.728 24.5258 23.4568 23.1177 22.9301 21.8042C22.4034 20.4907 21.6314 19.2976 20.6583 18.2933L3.5855 0.627007C3.39024 0.426601 3.15867 0.268044 2.90406 0.160435C2.64946 0.0528259 2.37683 -0.00171661 2.10181 -7.24792e-05Z" fill="black"/>
</svg>
