<svg width="32" height="20" viewBox="0 0 32 20" fill="none" xmlns="http://www.w3.org/2000/svg">
<g clip-path="url(#clip0_467_376)">
<path d="M15.9061 19.9888C11.4299 19.9888 6.95278 19.9898 2.47662 19.9888C1.27817 19.9888 0.421322 19.3839 0.16609 18.3514C0.114275 18.1404 0.113316 17.9146 0.113316 17.6962C0.109478 12.571 0.126749 7.44668 0.0989231 2.32331C0.091247 0.986014 1.04117 -0.000928669 2.49293 6.55752e-07C11.4462 0.00743525 20.3995 0.00278863 29.3528 0.00371795C30.5647 0.00371795 31.4196 0.609638 31.6816 1.66628C31.7334 1.87724 31.7353 2.10306 31.7353 2.32145C31.7382 7.44575 31.719 12.57 31.7506 17.6934C31.7583 18.9192 30.8544 20.0093 29.3365 19.9991C24.8603 19.9693 20.3832 19.9888 15.907 19.9888H15.9061ZM29.1868 18.8969C26.4147 15.6777 23.6907 12.5143 20.9512 9.33321C20.0119 10.0599 19.109 10.7634 18.2003 11.4595C16.7764 12.5487 15.0703 12.5487 13.6522 11.4632C13.0515 11.0032 12.4566 10.5367 11.8579 10.0739C11.5431 9.83133 11.2274 9.59063 10.8935 9.336C8.14547 12.5282 5.4233 15.6898 2.6618 18.8978H29.1858L29.1868 18.8969ZM2.13407 1.12262C2.23386 1.21463 2.26456 1.24808 2.30102 1.27596C6.28016 4.36039 10.2574 7.44575 14.2384 10.5265C15.3956 11.4223 16.4559 11.4195 17.6159 10.5218C21.5788 7.45504 25.5387 4.38363 29.4977 1.31314C29.5553 1.26853 29.5994 1.20812 29.6819 1.12262H2.13407ZM30.5963 1.85772C27.6353 4.15222 24.7433 6.39283 21.8244 8.6548C24.6636 11.9558 27.4923 15.2437 30.3344 18.5465C30.6222 18.2659 30.6309 17.9434 30.6309 17.62C30.6309 12.5319 30.6309 7.44482 30.6309 2.35677C30.6309 2.22109 30.6136 2.08448 30.5973 1.85772H30.5963ZM1.38276 18.5056C1.42978 18.5103 1.4768 18.5149 1.52381 18.5196C4.35344 15.2344 7.18307 11.9502 10.0242 8.65201C7.10247 6.38818 4.20663 4.14572 1.25323 1.85772C1.23596 2.0566 1.21772 2.16904 1.21677 2.28149C1.21581 7.42531 1.21293 12.57 1.22252 17.7139C1.22252 17.9778 1.32615 18.2417 1.3818 18.5056H1.38276Z" fill="white"/>
</g>
<defs>
<clipPath id="clip0_467_376">
<rect width="31.6517" height="20" fill="white" transform="translate(0.0991211)"/>
</clipPath>
</defs>
</svg>
