<svg width="56" height="55" viewBox="0 0 56 55" fill="none" xmlns="http://www.w3.org/2000/svg">
<path d="M43.4631 17.9999V13.1956C42.7679 13.111 42.0564 13.0021 41.3408 12.9457C38.7564 12.7482 36.2211 12.9457 33.8249 14.0138C31.3591 15.1101 30.0383 16.9278 30.0997 19.6726C30.1528 22.0989 30.1119 24.5293 30.1078 26.9557C30.1078 28.0036 29.7071 28.3946 28.6439 28.3986C27.1473 28.4026 25.6466 28.3986 24.1499 28.3986C23.9373 28.3986 23.7288 28.3986 23.4793 28.3986V33.5133C23.7124 33.5133 23.9209 33.5133 24.1336 33.5133C25.6507 33.5133 27.1677 33.5092 28.6848 33.5133C29.6662 33.5173 30.1078 33.9445 30.1078 34.8957C30.1078 41.1107 30.1078 47.3257 30.1078 53.5407C30.1078 54.4033 29.6744 54.8265 28.8034 54.8265C24.1704 54.8265 19.5415 54.8466 14.9084 54.8184C7.74423 54.7741 1.76178 49.6554 0.694511 42.6746C0.575925 41.9088 0.547301 41.1269 0.547301 40.353C0.539123 31.8285 0.539125 23.3 0.543214 14.7755C0.543214 7.48037 5.48292 1.69259 12.7739 0.459263C13.5263 0.330287 14.3032 0.298044 15.0679 0.294013C23.8392 0.281922 32.6063 0.273861 41.3776 0.294013C48.6358 0.306105 54.606 5.3563 55.7224 12.4217C55.8368 13.1472 55.8737 13.8929 55.8737 14.6264C55.8818 23.2476 55.89 31.8729 55.8737 40.4941C55.8655 47.3822 51.1875 53.0772 44.3586 54.5242C43.5162 54.7015 42.6452 54.7862 41.7824 54.8104C40.1467 54.8547 38.5111 54.8305 36.8754 54.8265C36.078 54.8265 35.5955 54.3348 35.5955 53.5528C35.6078 47.5313 35.616 41.5138 35.6282 35.4922C35.6282 35.2988 35.6282 35.1053 35.6282 34.9078C35.6405 33.9405 36.0576 33.5173 37.0349 33.5133C38.646 33.5052 40.2612 33.5133 41.9174 33.5133C42.1954 31.8164 42.4653 30.1559 42.7474 28.3986C42.4898 28.3986 42.2854 28.3986 42.0809 28.3986C40.4044 28.3986 38.7319 28.3986 37.0553 28.3986C36.0289 28.3986 35.6282 28.0036 35.6282 26.9839C35.6282 25.1218 35.5587 23.2517 35.665 21.3976C35.7918 19.1849 37.1821 17.9999 39.4148 17.9999C40.5189 17.9999 41.6229 17.9999 42.727 17.9999H43.4549H43.4631ZM27.7157 35.8469C25.9165 35.8469 24.1827 35.8469 22.4529 35.8469C21.5247 35.8469 21.0872 35.4439 21.0831 34.5531C21.0708 32.1631 21.0708 29.777 21.0831 27.3869C21.0872 26.5043 21.5329 26.0851 22.4529 26.077C23.9128 26.0649 25.3685 26.077 26.8283 26.077C27.1187 26.077 27.4049 26.077 27.7443 26.077C27.7443 25.7949 27.7443 25.5853 27.7443 25.3757C27.7443 23.3766 27.732 21.3734 27.7525 19.3743C27.7607 18.7577 27.8056 18.1289 27.9324 17.5243C28.509 14.8118 30.2673 13.0384 32.7494 11.9461C36.6096 10.2453 40.6252 10.2695 44.6816 11.0715C45.5894 11.2529 45.8593 11.6036 45.8593 12.5265C45.8593 14.6425 45.8634 16.7585 45.8593 18.8786C45.8593 19.9467 45.4504 20.3336 44.3422 20.3336C42.7066 20.3336 41.0709 20.3336 39.4352 20.3336C38.4334 20.3336 38.0613 20.6117 38.0122 21.6193C37.9509 22.9131 37.9958 24.2149 37.9999 25.5128C37.9999 25.682 38.0204 25.8513 38.0367 26.077C38.2821 26.077 38.4947 26.077 38.7074 26.077C40.4412 26.077 42.175 26.069 43.9088 26.077C44.8493 26.0811 45.4177 26.6131 45.295 27.4151C44.9188 29.8697 44.5262 32.3243 44.1132 34.7708C43.9824 35.5446 43.5735 35.8389 42.7474 35.8429C41.3858 35.8469 40.0282 35.8429 38.6665 35.8429C38.4579 35.8429 38.2494 35.8429 38.0326 35.8429V52.4928C39.1694 52.4928 40.2694 52.4969 41.3653 52.4928C48.1819 52.4646 53.4979 47.225 53.5101 40.5021C53.5224 31.8809 53.5183 23.2557 53.5101 14.6345C53.5101 13.9372 53.4692 13.2319 53.3465 12.5467C52.2547 6.638 47.3682 2.62363 41.2794 2.6196C32.5695 2.61154 23.8596 2.61557 15.1497 2.62363C14.4423 2.62363 13.7267 2.65588 13.0315 2.77679C7.10632 3.78038 2.92311 8.65727 2.91493 14.574C2.90266 23.2355 2.90675 31.897 2.91902 40.5586C2.91902 41.2357 2.964 41.9209 3.08667 42.5859C4.19892 48.4946 9.0732 52.4848 15.1783 52.4928C19.1571 52.4969 23.1399 52.4928 27.1187 52.4928C27.3109 52.4928 27.5031 52.4928 27.7198 52.4928V35.8429L27.7157 35.8469Z" fill="white"/>
</svg>
