<svg width="59" height="54" viewBox="0 0 59 54" fill="none" xmlns="http://www.w3.org/2000/svg">
<g filter="url(#filter0_d_467_315)">
<path d="M4.82206 26.528C4.82206 22.3766 4.82206 18.2293 4.82206 14.0779C4.82615 7.00839 9.65953 1.35765 16.7174 0.18881C17.4657 0.0638651 18.2386 0.0356516 19.0033 0.0316211C27.4597 0.0195297 35.9119 0.0195297 44.3683 0.0275907C51.4876 0.0356516 57.2206 4.83596 58.3819 11.7684C58.5046 12.4899 58.5373 13.2315 58.5373 13.965C58.5495 22.3202 58.5495 30.6754 58.5414 39.0306C58.5332 46.0356 53.6344 51.7105 46.6174 52.839C45.8486 52.964 45.0553 52.9882 44.2743 52.9922C35.8751 53.0043 27.4801 53.0003 19.081 52.9962C11.9004 52.9962 6.19192 48.2523 4.98562 41.2796C4.85477 40.5219 4.82614 39.74 4.82614 38.9701C4.80978 34.8187 4.81796 30.6714 4.81796 26.52L4.82206 26.528ZM31.6837 50.7392C35.9487 50.7392 40.2178 50.7512 44.4828 50.7392C51.0664 50.715 56.2351 45.6204 56.2433 39.1233C56.2596 30.7278 56.2555 22.3323 56.2433 13.9408C56.2351 7.40741 51.0705 2.30885 44.4501 2.30078C35.9365 2.28869 27.4228 2.28869 18.9092 2.30078C12.2929 2.31288 7.12425 7.41547 7.11607 13.9408C7.1038 22.3363 7.1079 30.7318 7.12016 39.1233C7.12016 39.8004 7.16514 40.4856 7.2919 41.1466C8.39189 46.8941 13.1108 50.7311 19.0523 50.7392C23.2601 50.7392 27.4719 50.7392 31.6797 50.7392H31.6837Z" fill="white"/>
<path d="M44.9531 26.532C44.9203 33.8071 38.9093 39.6835 31.5406 39.6352C24.2251 39.5868 18.3122 33.6821 18.3408 26.4514C18.3694 19.1684 24.3519 13.3483 31.7655 13.3886C39.036 13.4289 44.9817 19.3538 44.9531 26.532ZM42.659 26.4756C42.6263 20.442 37.6744 15.6175 31.5406 15.6497C25.5009 15.682 20.6062 20.575 20.6389 26.5603C20.6716 32.5617 25.6359 37.4103 31.7124 37.37C37.7561 37.3297 42.6918 32.4246 42.659 26.4756Z" fill="white"/>
<path d="M51.1277 11.0953C51.1359 13.2113 49.3857 14.9525 47.243 14.9525C45.1248 14.9525 43.3828 13.2436 43.3664 11.1477C43.3501 9.00755 45.0675 7.2825 47.2184 7.27444C49.3775 7.26638 51.1195 8.96725 51.1277 11.0953ZM47.2757 9.53554C46.3842 9.51942 45.6687 10.2127 45.6605 11.0953C45.6564 11.97 46.372 12.6914 47.2471 12.6914C48.1017 12.6914 48.8132 12.0022 48.8377 11.1518C48.8623 10.2772 48.163 9.55167 47.2757 9.53957V9.53554Z" fill="white"/>
</g>
<defs>
<filter id="filter0_d_467_315" x="0.815918" y="0.0219727" width="61.7312" height="60.9783" filterUnits="userSpaceOnUse" color-interpolation-filters="sRGB">
<feFlood flood-opacity="0" result="BackgroundImageFix"/>
<feColorMatrix in="SourceAlpha" type="matrix" values="0 0 0 0 0 0 0 0 0 0 0 0 0 0 0 0 0 0 127 0" result="hardAlpha"/>
<feOffset dy="4"/>
<feGaussianBlur stdDeviation="2"/>
<feComposite in2="hardAlpha" operator="out"/>
<feColorMatrix type="matrix" values="0 0 0 0 0 0 0 0 0 0 0 0 0 0 0 0 0 0 0.25 0"/>
<feBlend mode="normal" in2="BackgroundImageFix" result="effect1_dropShadow_467_315"/>
<feBlend mode="normal" in="SourceGraphic" in2="effect1_dropShadow_467_315" result="shape"/>
</filter>
</defs>
</svg>
