<svg width="27" height="24" viewBox="0 0 27 24" fill="none" xmlns="http://www.w3.org/2000/svg">
<g clip-path="url(#clip0_467_371)">
<path d="M20.1887 24C18.9923 24.0042 17.9348 23.7434 16.8742 23.5105C13.8697 22.8513 11.1254 21.6998 8.72264 19.9252C5.4519 17.5089 2.81811 14.66 1.37306 11.0108C0.818981 9.6125 0.38769 8.18217 0.165906 6.7115C-0.0865754 5.0364 0.368505 3.52471 1.67312 2.26961C2.1658 1.79607 2.68458 1.34409 3.19645 0.886555C4.54557 -0.321268 7.24075 -0.32544 8.54383 1.05344C9.66503 2.2404 10.7809 3.43293 11.856 4.65396C12.7455 5.66361 12.7209 7.18086 11.8376 8.21485C11.0103 9.18208 10.1562 10.1305 9.30435 11.0797C9.16698 11.2334 9.16237 11.3391 9.28056 11.5052C10.4877 13.213 12.0325 14.6114 13.9211 15.7038C14.1 15.8074 14.2174 15.8206 14.3931 15.6912C15.3739 14.9674 16.3677 14.2581 17.3546 13.5405C18.7413 12.5323 20.4035 12.5358 21.7742 13.5614C22.9491 14.4403 24.0971 15.3505 25.2951 16.2037C27.0509 17.4547 27.0594 20.0511 25.5414 21.334C25.1278 21.6831 24.7379 22.0551 24.3381 22.4174C23.1686 23.4785 21.758 24.0083 20.1902 23.9993L20.1887 24ZM19.6369 22.4028C21.2147 22.416 22.2162 22.0711 23.0412 21.3257C23.4617 20.9453 23.8661 20.549 24.3074 20.1888C25.0756 19.5616 25.0917 18.0923 24.1585 17.4303C22.9437 16.5681 21.778 15.6495 20.5916 14.756C19.9577 14.2783 19.1872 14.2672 18.5395 14.7338C17.3385 15.5981 16.1413 16.4673 14.9426 17.3337C14.489 17.6612 14.192 17.6911 13.6802 17.4282C10.9873 16.048 8.87996 14.1371 7.3574 11.6999C7.09111 11.273 7.12718 10.9907 7.47021 10.6027C8.43486 9.51167 9.40258 8.42345 10.3634 7.32967C10.8699 6.75392 10.8591 6.05439 10.3442 5.49464C9.35039 4.41406 8.32819 3.35366 7.36814 2.24944C6.6483 1.42128 5.01063 1.4185 4.31688 2.12775C3.95466 2.49768 3.5533 2.83632 3.15961 3.17912C2.15583 4.05318 1.73682 5.12471 1.90488 6.36243C2.08829 7.71698 2.48735 9.0291 2.98387 10.3162C3.9631 12.8528 5.59924 15.0056 7.6659 16.9158C10.2728 19.3251 13.3249 21.0454 16.9548 21.8771C17.9739 22.1107 19.0099 22.2825 19.6377 22.4042L19.6369 22.4028Z" fill="white"/>
<path d="M16.4506 0.020149C21.1595 0.127233 25.3542 3.28412 26.3749 7.52506C26.5307 8.17243 26.5713 8.84553 26.6251 9.50959C26.6673 10.0304 26.2981 10.3906 25.7817 10.401C25.256 10.4122 24.8884 10.0798 24.8761 9.55618C24.8354 7.88038 24.3243 6.33949 23.2277 4.98217C21.5002 2.84327 19.155 1.72932 16.2281 1.60902C16.0132 1.59998 15.7837 1.57287 15.5926 1.4922C15.2412 1.3434 15.0808 0.97695 15.1652 0.634143C15.2481 0.297594 15.5742 0.0430955 15.9618 0.022235C16.1245 0.0131955 16.2879 0.0208443 16.4506 0.0208443V0.020149Z" fill="white"/>
<path d="M22.2002 9.32253C22.2002 9.46091 22.2201 9.60206 22.1963 9.73696C22.1226 10.1535 21.7435 10.4198 21.2777 10.4003C20.8311 10.3815 20.508 10.0547 20.4458 9.64031C20.3706 9.13687 20.3323 8.60702 20.1227 8.14669C19.3906 6.54252 18.0192 5.70602 16.103 5.61006C15.5566 5.58294 15.1875 5.31314 15.1514 4.88272C15.1092 4.3772 15.5228 3.98989 16.1145 4.01214C18.515 4.10184 20.3123 5.09758 21.4903 6.98824C21.9392 7.70862 22.1633 8.49506 22.2002 9.32253Z" fill="white"/>
</g>
<defs>
<clipPath id="clip0_467_371">
<rect width="26.5466" height="24" fill="white" transform="translate(0.0991211)"/>
</clipPath>
</defs>
</svg>
