<svg width="34" height="31" viewBox="0 0 34 31" fill="none" xmlns="http://www.w3.org/2000/svg">
<g clip-path="url(#clip0_467_367)">
<path d="M17.6288 0C18.3443 0.141519 19.0782 0.228048 19.7716 0.433453C23.6864 1.5931 26.3293 5.13675 26.0481 8.84536C25.9637 9.96215 25.5277 11.0045 25.0821 12.0356C23.9958 14.5514 22.5974 16.9241 21.1428 19.2709C20.9327 19.6105 20.7218 19.9494 20.4967 20.3117C21.2825 20.4257 22.0366 20.5203 22.7855 20.6465C23.9624 20.8454 25.1252 21.1066 26.1913 21.6217C26.6317 21.8344 27.0641 22.0988 27.4192 22.4167C28.2841 23.1906 28.2621 24.2629 27.4087 25.0521C26.7415 25.67 25.8934 26.0023 25.0162 26.2708C23.2583 26.8094 21.4381 27.052 19.5976 27.1741C17.373 27.3221 15.1485 27.3051 12.9318 27.0593C11.1115 26.8571 9.30358 26.583 7.63977 25.8277C7.17657 25.6174 6.7292 25.3303 6.36092 24.998C5.54352 24.2604 5.55583 23.2197 6.33719 22.4506C6.98584 21.8118 7.83225 21.4745 8.70679 21.198C10.0489 20.7734 11.4359 20.5349 12.8448 20.3941C12.9854 20.3804 13.1252 20.3553 13.315 20.3286C13.2429 20.2065 13.1858 20.1046 13.1243 20.0052C11.5554 17.5096 10.0208 14.9954 8.85709 12.313C8.44135 11.3539 8.06781 10.3608 7.84983 9.35079C7.49826 7.72453 7.87444 6.15002 8.69536 4.69359C10.2229 1.9837 12.6567 0.431836 15.9597 0.0493296C16.0344 0.0404341 16.1074 0.0169823 16.1812 0C16.6637 0 17.1463 0 17.6288 0ZM24.1162 8.26553C24.0758 7.93559 24.0564 7.60161 23.9931 7.27571C23.4552 4.51325 21.1498 2.42685 18.0665 1.90202C15.2618 1.4249 12.2454 2.69534 10.7406 5.02919C9.7158 6.61906 9.37126 8.31325 10.0683 10.1012C10.404 10.9625 10.7547 11.8221 11.1625 12.6559C12.6514 15.7022 14.4717 18.5851 16.35 21.4382C16.6989 21.9678 17.119 21.9719 17.46 21.4382C18.3478 20.0488 19.2522 18.6676 20.1047 17.2597C21.4152 15.0949 22.6686 12.9017 23.5774 10.5598C23.8648 9.81982 24.1285 9.07017 24.1171 8.26473L24.1162 8.26553ZM26.0665 23.7704C26.0692 23.7291 26.0709 23.6871 26.0736 23.6458C25.6851 23.4534 25.3124 23.227 24.9055 23.0757C23.2733 22.4676 21.5462 22.2679 19.8121 22.0932C19.4499 22.0568 19.2706 22.17 19.0922 22.449C18.4453 23.4574 17.2843 23.8739 16.1408 23.5391C15.4438 23.3353 14.956 22.9027 14.6229 22.318C14.5156 22.1296 14.3847 22.0625 14.1553 22.0899C13.5585 22.1619 12.9564 22.2007 12.3605 22.2808C11.0685 22.4539 9.79139 22.6908 8.59692 23.1986C8.29721 23.3256 8.0265 23.51 7.65471 23.7178C8.00452 23.9184 8.24799 24.089 8.51782 24.2079C9.78787 24.7667 11.1537 25.0101 12.5336 25.1823C15.6152 25.5665 18.6976 25.5511 21.7721 25.116C22.9753 24.9462 24.1636 24.7085 25.2702 24.2184C25.5488 24.0947 25.802 23.9216 26.0674 23.7712L26.0665 23.7704Z" fill="white"/>
<path d="M33.7511 25.4847C33.3468 27.1708 31.9686 28.0289 30.4393 28.7324C28.5927 29.5823 26.6107 30.0514 24.5891 30.387C20.8238 31.0129 17.0303 31.1374 13.2219 30.8592C10.0991 30.6312 7.02462 30.163 4.10921 29.0462C2.92881 28.5941 1.8152 28.0337 0.952975 27.1328C-0.231821 25.8939 -0.242368 24.4149 0.921334 23.1622C1.49264 22.5476 2.19754 22.0883 2.971 21.7179C3.43595 21.4947 3.99671 21.6597 4.25687 22.0689C4.51791 22.4789 4.39486 22.9932 3.95803 23.2738C3.58976 23.5099 3.19337 23.7113 2.84531 23.9693C1.77214 24.765 1.77038 25.4831 2.83476 26.2926C3.82356 27.0447 4.99781 27.4701 6.19843 27.8299C8.57593 28.5424 11.0299 28.8852 13.5164 29.0607C15.8165 29.2233 18.1176 29.2273 20.416 29.0518C23.4509 28.8206 26.4402 28.3871 29.2554 27.2444C29.9699 26.9541 30.6494 26.6048 31.2101 26.0937C31.9625 25.4087 31.9704 24.8127 31.1837 24.1577C30.7979 23.8358 30.34 23.5851 29.9075 23.3134C29.5498 23.0886 29.3591 22.7385 29.4268 22.3867C29.5006 22.0009 29.8029 21.6953 30.2266 21.6435C30.4217 21.6201 30.6564 21.6395 30.8278 21.7211C31.6926 22.1303 32.5048 22.6285 33.0532 23.3789C33.3573 23.7946 33.5226 24.296 33.7502 24.7585V25.4847H33.7511Z" fill="white"/>
<path d="M16.9212 4.47439C18.9524 4.48086 20.5942 5.99956 20.5898 7.86842C20.5854 9.73163 18.9278 11.2544 16.9045 11.2544C14.8689 11.2544 13.2112 9.71707 13.22 7.83769C13.2279 5.9753 14.8873 4.46792 16.9221 4.47439H16.9212ZM15.1941 7.86761C15.1976 8.73371 15.9719 9.44212 16.9115 9.43888C17.8511 9.43565 18.6184 8.7232 18.6158 7.85467C18.614 6.98534 17.8476 6.28826 16.8974 6.29068C15.9491 6.29311 15.1906 6.99586 15.1932 7.86761H15.1941Z" fill="white"/>
</g>
<defs>
<clipPath id="clip0_467_367">
<rect width="33.6938" height="31" fill="white" transform="translate(0.0571289)"/>
</clipPath>
</defs>
</svg>
