<svg width="76" height="55" viewBox="0 0 76 55" fill="none" xmlns="http://www.w3.org/2000/svg">
<path d="M-0.00030537 13.4654C0.142815 12.8044 0.26549 12.1394 0.433146 11.4824C2.19557 4.58223 8.04307 0.0277872 15.2645 0.0156958C30.3863 -0.00848713 45.508 -0.00848713 60.6338 0.0156958C67.9615 0.0277872 73.8867 4.68703 75.551 11.7444C75.8127 12.8488 75.9027 14.0136 75.9068 15.1502C75.9354 23.3844 75.9354 31.6187 75.9191 39.849C75.9027 46.4952 72.0098 51.9969 65.643 54.1572C64.085 54.6852 62.3594 54.9431 60.7074 54.9512C45.5366 55.0117 30.3617 55.0076 15.1909 54.9754C7.45015 54.9593 1.206 49.5262 0.138726 42.0093C0.114191 41.8481 0.0446754 41.6909 -0.00439453 41.5297C-0.00030537 32.179 -0.00030537 22.8202 -0.00030537 13.4654ZM37.8817 51.9283C45.3689 51.9283 52.8562 51.9364 60.3394 51.9163C61.3208 51.9163 62.3267 51.8639 63.2795 51.6583C68.9102 50.4451 72.7745 45.7818 72.799 40.0868C72.8399 31.6832 72.8154 23.2797 72.799 14.8761C72.799 14.0781 72.7132 13.2639 72.5414 12.486C71.2819 6.81109 66.5181 3.0708 60.5315 3.06677C45.4834 3.05468 30.4394 3.05871 15.3913 3.07483C14.459 3.07483 13.5062 3.13932 12.5984 3.34085C6.99625 4.57014 3.14426 9.21326 3.11564 14.868C3.07065 23.2958 3.09928 31.7235 3.11564 40.1513C3.11564 40.9251 3.19742 41.7111 3.36099 42.4688C4.60409 48.1437 9.37614 51.9082 15.3422 51.9243C22.854 51.9404 30.3658 51.9243 37.8776 51.9243L37.8817 51.9283Z" fill="white"/>
<path d="M27.884 28.3099C27.884 24.3157 27.884 20.3215 27.884 16.3313C27.884 14.5176 29.0208 13.8687 30.6074 14.7836C37.5058 18.7658 44.4042 22.7479 51.3027 26.734C52.8484 27.6288 52.8565 28.9145 51.3231 29.7972C44.4247 33.7833 37.5263 37.7614 30.6279 41.7435C29.0494 42.6544 27.8881 42.0096 27.8881 40.22C27.8881 36.25 27.8881 32.284 27.8881 28.314L27.884 28.3099ZM47.8391 28.2696C42.1879 25.0049 36.6471 21.8047 31.0409 18.5683V37.9629C36.6553 34.7224 42.1797 31.5343 47.8391 28.2696Z" fill="white"/>
</svg>
