<svg width="178" height="76" viewBox="0 0 178 76" fill="none" xmlns="http://www.w3.org/2000/svg">
<path d="M114.624 41.1883C110.728 39.5031 108.51 36.9276 109.082 32.5032C109.143 32.0259 109.036 31.3148 109.294 31.1103C112.622 28.4549 112.143 24.0987 113.654 20.6582C115.43 16.6099 119.326 16.4092 122.12 16.2514C123.905 13.5415 124.903 10.74 126.82 9.36454C132.367 5.38438 139.018 9.27687 139.09 16.4073C139.217 28.8406 139.195 41.2779 139.072 53.7112C139.039 57.0134 138.148 60.263 134.894 61.7417C131.208 63.4171 127.836 62.5346 124.707 59.9123C122.501 58.0616 120.208 56.2458 117.736 54.8373C112.327 51.7533 111.433 49.5012 113.763 43.5397C114.018 42.8832 114.248 42.215 114.624 41.1902V41.1883ZM115.494 27.7107C114.732 28.1782 114.26 28.4822 113.777 28.7627C111.228 30.2492 109.855 32.3474 110.912 35.4781C111.996 38.6907 114.232 39.3277 117.232 38.6128C118.183 38.3848 119.341 39.1076 120.403 39.3959C119.641 40.2901 119.041 41.5234 118.091 42.024C113.499 44.4476 112.969 49.6843 117.105 52.893C121.665 56.4329 128.467 53.797 129.82 48.042C130.013 47.2179 130.689 46.3744 131.368 45.8912C131.648 45.6925 132.936 46.3179 133.035 46.7523C133.214 47.5316 133.035 48.5641 132.664 49.2927C130.755 53.0157 127.873 55.3243 123.697 55.4938C125.099 59.6026 128.158 61.8488 131.427 61.28C135.316 60.6039 137.288 57.9564 137.299 53.3469C137.312 47.3017 137.43 41.2506 137.22 35.2132C137.158 33.4384 136.534 31.3596 135.485 30.0056C131.765 25.2033 127.163 23.7909 122.203 29.2868C120.844 30.7908 119.488 31.3382 117.874 29.1465C123.982 22.698 130.404 24.3422 137.292 28.3224C137.292 23.4714 137.174 19.3782 137.333 15.2987C137.447 12.3336 135.831 10.6289 133.63 9.87886C131.114 9.01971 128.342 9.0314 126.316 11.4101C124.181 13.9175 124.463 16.1598 126.947 18.3691C127.527 18.8834 127.987 19.5497 128.501 20.1439C128.381 20.5218 128.259 20.8978 128.14 21.2758C126.877 20.9212 125.261 20.968 124.417 20.14C121.754 17.5314 119.017 17.5859 116.376 19.6335C113.744 21.6732 113.877 24.539 115.493 27.7087L115.494 27.7107Z" fill="white"/>
<path d="M142.066 60.4331C143.146 60.026 144.201 59.4103 145.314 59.2467C154.117 57.9375 160.153 52.8741 163.359 44.2437C166.611 35.4904 164.718 27.3879 159.318 20.3335C155.63 15.5156 150.506 12.9206 144.512 12.4394C143.72 12.3751 142.981 11.5978 142.219 11.1517C142.997 10.7581 143.833 9.93014 144.543 10.0353C155.851 11.7342 164.011 19.1568 166.286 30.6998C169.048 44.7171 160.875 58.1693 147.587 61.0819C145.866 61.4598 144.089 61.5455 142.338 61.7676C142.248 61.3234 142.156 60.8793 142.066 60.4351V60.4331Z" fill="white"/>
<path d="M146.465 66.5014H132.019C132.016 66.1332 132.01 65.765 132.007 65.3968C136.81 64.6097 141.637 64.9195 146.463 65.2487C146.463 65.6656 146.463 66.0845 146.465 66.5014Z" fill="white"/>
<path d="M146.437 70.8187H131.988C131.988 70.4992 131.986 70.1797 131.984 69.8602H146.485L146.437 70.8187Z" fill="white"/>
<path d="M131.981 74.1809H146.518C146.518 74.4907 146.515 74.8024 146.513 75.1121H131.975C131.975 74.8024 131.979 74.4907 131.981 74.1809Z" fill="white"/>
<path d="M171.542 33.9395C171.921 33.6803 172.328 33.166 172.672 33.2089C174.275 33.4115 175.86 33.77 177.45 34.0719C177.297 34.4888 177.159 35.2584 176.99 35.2662C175.173 35.3538 173.353 35.3207 171.533 35.3207C171.537 34.8609 171.538 34.4012 171.542 33.9395Z" fill="white"/>
<path d="M167.158 10.9527C167.017 11.3131 166.971 11.7982 166.718 12.0106C165.463 13.0587 164.155 14.0328 162.865 15.0342C162.664 14.6329 162.224 13.9451 162.3 13.875C163.654 12.6184 165.069 11.4378 166.474 10.2397C166.702 10.4774 166.93 10.715 167.158 10.9527Z" fill="white"/>
<path d="M163.069 54.4616C164.591 55.8253 166.111 57.191 167.633 58.5548C167.262 59.0087 166.89 59.4646 166.516 59.9185C165.007 58.4924 163.498 57.0644 161.989 55.6383C162.349 55.2467 162.708 54.8532 163.069 54.4616Z" fill="white"/>
<path d="M142.714 0.132477V6.27513C142.478 6.25954 142.243 6.24396 142.007 6.22837V0C142.243 0.0448084 142.478 0.0876686 142.714 0.132477Z" fill="white"/>
<path d="M126.443 43.3999C126.601 41.6816 126.301 39.7022 127.017 38.2995C128.254 35.8759 129.765 33.2167 133.666 34.3291C128.095 35.009 127.709 39.184 127.948 43.7876C127.446 43.657 126.943 43.5284 126.441 43.3979L126.443 43.3999Z" fill="white"/>
<path d="M132.636 23.9253C135.756 21.3323 135.907 18.4528 133.803 15.3513C134.188 15.2695 134.57 15.1857 134.955 15.1039C135.415 16.5027 136.369 17.9677 136.212 19.2847C136.002 21.0576 134.935 22.7194 134.236 24.4279C133.702 24.2604 133.17 24.0928 132.636 23.9253Z" fill="white"/>
<g clip-path="url(#clip0_672_3033)">
<path d="M60.8538 58.5383C61.235 58.1439 61.0942 57.6371 61.1066 57.1832C61.3138 50.1053 61.146 43.0275 61.1087 35.9474C61.1004 34.1515 61.0631 32.349 61.3863 30.5729C61.4567 30.1829 61.5727 29.7907 61.7302 29.4293C61.956 28.9137 62.3849 28.7043 62.9132 28.7043C63.4705 28.7043 63.7854 29.0283 64.0071 29.5439C64.7508 31.2715 64.7135 33.1423 64.7322 34.9514C64.8047 42.5074 64.8088 50.0657 64.7363 57.6217C64.7135 59.92 64.6037 62.2425 63.9988 64.488C63.8082 65.1953 63.6134 65.896 63.2716 66.5395C62.3952 68.1944 60.6094 68.5645 59.2254 67.3614C58.2144 66.4844 57.5597 65.3165 56.9589 64.1134C54.8084 59.8098 53.553 55.1515 52.2146 50.5284C51.1601 46.8859 50.118 43.239 48.8832 39.6582C48.7486 39.2682 48.6698 38.5895 48.2368 38.6754C47.781 38.7658 47.9924 39.4269 47.9903 39.8301C47.9675 44.2328 47.9675 48.6355 47.9571 53.0361C47.9468 57.2537 47.8826 61.4691 47.6547 65.6823C47.6319 66.1142 47.5366 66.5505 47.4185 66.967C47.2548 67.5487 46.8695 67.877 46.279 67.9145C45.6679 67.952 45.1934 67.7184 44.922 67.1212C44.5242 66.2486 44.3979 65.3099 44.3171 64.3535C44.0995 61.7908 44.2155 59.2303 44.2611 56.6631C44.3544 51.3812 44.2984 46.097 44.3771 40.8151C44.4186 37.9967 44.4828 35.1696 45.1209 32.4019C45.3115 31.5756 45.5663 30.7845 45.9517 30.0441C46.6996 28.6096 47.9758 28.1689 49.3804 28.8718C50.4184 29.3918 51.1352 30.2887 51.7195 31.2957C53.2505 33.94 54.3029 36.809 55.0633 39.7904C56.5964 45.8084 58.2393 51.7844 60.3587 57.604C60.4768 57.928 60.4933 58.329 60.8559 58.5295L60.8538 58.5383Z" fill="white"/>
<path d="M25.2298 50.0172C25.2298 54.3825 25.2401 58.7477 25.2236 63.1152C25.2194 64.2897 25.0703 65.4576 24.7719 66.5924C24.5627 67.3879 24.1711 67.9961 23.2637 67.9564C22.3542 67.9168 22.1698 67.1697 21.9958 66.4624C21.743 65.4267 21.7409 64.358 21.7306 63.2937C21.6519 55.8478 21.5876 48.402 21.4758 40.9584C21.4405 38.6865 21.2727 36.419 21.1526 34.1494C21.1318 33.7616 21.1712 33.2657 20.7051 33.1446C20.3052 33.041 20.0939 33.4442 19.9116 33.7351C19.0124 35.1696 18.1444 36.624 17.2494 38.0607C16.9842 38.4882 16.7045 38.9113 16.3792 39.2881C15.4428 40.37 14.7115 40.4648 13.5492 39.6913C12.2481 38.8253 11.2351 37.6134 10.1557 36.4807C9.95886 36.2736 9.77033 36.0577 9.56108 35.8682C8.99549 35.3569 8.46098 34.5174 7.62606 34.9515C6.87194 35.3437 6.85536 36.289 6.86365 37.0999C6.92166 43.812 7.01696 50.524 7.05218 57.2383C7.06668 59.8715 7.32565 62.518 6.87401 65.1403C6.84915 65.2835 6.84086 65.4333 6.80978 65.5744C6.4638 67.1235 5.72626 67.9762 4.66759 68.0622C3.65035 68.1437 2.91695 67.4738 2.40108 65.8873C1.81271 64.0715 1.54131 62.1721 1.51644 60.2682C1.41493 52.3442 1.31548 44.4202 1.50194 36.4962C1.54752 34.5526 1.80856 32.6223 2.33064 30.7493C2.87137 28.8146 3.84924 28.2042 5.69104 28.711C8.3491 29.4426 10.2199 31.4214 12.07 33.4068C12.6521 34.0304 13.2115 34.6848 13.7336 35.3657C14.3386 36.1546 14.7757 35.9783 15.2149 35.1983C16.17 33.4993 17.1499 31.8246 18.3868 30.3218C20.4565 27.8075 22.9902 28.1601 24.2374 31.223C24.9605 32.9969 25.1966 34.903 25.2153 36.8135C25.2588 41.2162 25.2298 45.6189 25.2298 50.0194V50.0172Z" fill="white"/>
<path d="M85.7315 46.3681C85.7211 41.5291 85.7874 36.6945 86.1665 31.8687C86.3198 29.9252 86.8398 29.3082 88.6133 28.8873C89.2617 28.733 89.9143 28.7308 90.5669 28.7308C92.8769 28.7286 95.189 28.7308 97.499 28.7463C97.9465 28.7485 98.3982 28.7639 98.8395 28.8366C100.093 29.0371 100.652 29.6563 100.559 30.7118C100.451 31.9348 99.5584 31.9657 98.7255 32.0053C97.0723 32.0846 95.419 32.1111 93.7657 32.1728C92.301 32.2279 91.9923 32.4835 91.8763 34.0128C91.5386 38.4397 91.6981 42.8777 91.7831 47.309C91.8141 48.9221 92.3404 49.3451 93.8652 49.398C95.2429 49.4465 96.6227 49.4355 98.0025 49.4663C98.4479 49.4751 98.8954 49.5214 99.3388 49.5765C100.217 49.6823 100.609 50.2354 100.563 51.1521C100.518 52.0401 100.103 52.5822 99.2476 52.7012C97.3954 52.959 95.5309 52.8819 93.6704 52.9281C92.2865 52.9634 91.8929 53.3644 91.8804 54.8452C91.8597 57.3749 91.8494 59.9046 91.8597 62.4343C91.868 64.4814 92.2326 64.8362 94.1925 64.8296C95.8478 64.8252 97.5032 64.8252 99.1585 64.8075C99.8567 64.8009 100.404 65.0191 100.534 65.8212C100.663 66.5968 100.341 67.1984 99.7075 67.5598C99.1523 67.8771 98.5225 67.9234 97.8968 67.93C94.9674 67.9696 92.0379 68.0269 89.1084 68.0534C87.393 68.0688 86.8896 67.5862 86.4649 65.7903C86.0816 64.1729 86.0526 62.5114 86.0236 60.8786C85.9345 56.044 85.9925 51.2049 85.9925 46.3659C85.9055 46.3659 85.8205 46.3659 85.7335 46.3659L85.7315 46.3681Z" fill="white"/>
<path d="M35.4893 28.7065C37.3228 28.8123 39.0879 28.5721 40.8344 28.9203C41.5036 29.0525 41.9843 29.3654 42.0754 30.1653C42.2163 31.4191 41.8724 31.9149 40.6148 31.9876C38.8248 32.0912 37.0307 32.1661 35.2386 32.1595C34.1136 32.1551 33.5833 32.706 33.4693 33.8276C33.4175 34.3366 33.3512 34.8479 33.3512 35.3591C33.3409 39.1735 33.3347 42.9878 33.3512 46.8044C33.3595 48.8096 33.8671 49.3583 35.7275 49.4112C37.2793 49.4575 38.8331 49.4156 40.3849 49.4883C41.7522 49.5522 42.0837 49.9401 42.0941 51.1212C42.1044 52.1811 41.5968 52.6284 40.6542 52.7276C38.8663 52.9171 37.0721 52.8928 35.28 52.9281C33.9355 52.9545 33.5191 53.3402 33.4859 54.7394C33.4238 57.2691 33.3802 59.7988 33.3844 62.3285C33.3885 64.3117 33.9334 64.8339 35.8083 64.8295C37.4637 64.8251 39.1211 64.8185 40.7764 64.8141C41.3586 64.8141 41.9242 64.8956 42.0526 65.6404C42.1914 66.4535 42.0568 67.1983 41.2674 67.595C40.6956 67.8837 40.072 67.9255 39.4464 67.9343C36.5853 67.974 33.7221 68.0291 30.861 68.0577C28.9239 68.0754 28.3065 67.4672 27.9709 65.4113C27.6808 63.633 27.6622 61.8305 27.6063 60.0434C27.3929 53.3357 27.2644 46.6237 27.4074 39.9139C27.4654 37.2409 27.6166 34.568 27.7616 31.8973C27.8652 29.9714 28.4287 29.2949 30.2001 28.9115C31.9756 28.5258 33.7801 28.841 35.4893 28.7087V28.7065Z" fill="white"/>
<path d="M72.7187 48.8383C72.7187 44.1425 72.7187 39.4489 72.7187 34.7531C72.7187 32.8471 72.2753 32.3513 70.4729 32.2763C69.2671 32.2279 68.0572 32.3028 66.868 32.0031C66.1471 31.8224 65.5359 31.4853 65.5172 30.5884C65.5007 29.729 66.0145 29.2575 66.7437 29.0371C67.1063 28.9269 67.4833 28.8101 67.8563 28.8013C72.9258 28.6779 77.9954 28.5413 83.0609 28.9203C83.3654 28.9424 83.6803 29.0107 83.9662 29.1208C84.5691 29.3544 85.1016 29.6717 85.1181 30.4893C85.1368 31.3619 84.5961 31.7277 83.9414 31.948C82.7128 32.3623 81.4283 32.3645 80.1563 32.424C78.5983 32.4989 78.2772 32.825 78.3228 34.4843C78.5776 43.541 78.4844 52.5998 78.4906 61.6586C78.4906 63.243 78.3953 64.8141 77.7779 66.2883C77.2475 67.5576 76.4748 68.1371 75.4285 68.0666C74.2352 67.9851 73.7173 67.1279 73.3816 66.0503C72.9756 64.7436 72.8823 63.3928 72.8803 62.0332C72.872 57.6327 72.8782 53.2322 72.8782 48.8339C72.8243 48.8339 72.7705 48.8339 72.7166 48.8339L72.7187 48.8383Z" fill="white"/>
<path d="M39.0257 20.6768C39.0257 18.7134 39.0112 16.7478 39.036 14.7844C39.0422 14.3437 38.7833 13.676 39.3178 13.5108C40.0678 13.2772 40.8882 13.3058 41.6589 13.5174C41.9282 13.5923 41.8578 13.9559 41.8578 14.2005C41.864 17.9774 41.8557 21.7543 41.8702 25.5312C41.8723 26.146 41.6547 26.3201 41.0829 26.3686C40.0367 26.4545 39.2971 26.157 38.63 25.2073C37.2688 23.2726 35.7668 21.448 34.3124 19.5882C34.155 19.3855 34.0224 19.0021 33.6847 19.1827C33.4319 19.3172 33.5521 19.6477 33.55 19.8901C33.5396 21.686 33.5148 23.4841 33.5583 25.28C33.5769 26.0821 33.3532 26.3884 32.5638 26.3619C30.4507 26.2892 30.7366 26.6132 30.7262 24.4471C30.7117 21.2938 30.7055 18.1405 30.7386 14.9872C30.7448 14.4649 30.3885 13.6011 31.1157 13.4821C31.9299 13.3499 32.8684 13.0546 33.5852 14.0242C35.1183 16.1 36.7198 18.1162 38.2964 20.1545C38.4476 20.3506 38.6134 20.5357 38.7708 20.7252C38.8537 20.7098 38.9386 20.6944 39.0215 20.679L39.0257 20.6768Z" fill="white"/>
<path d="M19.1513 19.8813C19.1513 18.0127 19.17 16.1441 19.141 14.2777C19.1306 13.61 19.3482 13.3896 19.98 13.3962C22.4952 13.4271 25.0103 13.4403 27.5254 13.3918C28.5198 13.372 28.3189 14.0617 28.3168 14.6457C28.3126 15.223 28.5323 15.9436 27.5337 15.9105C25.984 15.8598 24.4322 15.9259 22.8826 15.8841C22.23 15.8664 21.9006 16.0559 21.9731 16.7985C22.0041 17.1247 21.9938 17.4574 21.9731 17.7857C21.9358 18.4027 22.1865 18.6187 22.7666 18.6033C24.0759 18.568 25.3873 18.6473 26.6925 18.5746C27.689 18.5195 27.5896 19.1696 27.6082 19.8483C27.629 20.5534 27.573 21.0492 26.6925 21.0029C25.3873 20.9346 24.0738 21.0095 22.7666 20.9743C22.1885 20.9589 21.9917 21.1682 21.9627 21.7852C21.8653 23.8896 21.8446 23.8896 23.8211 23.8896C25.1304 23.8896 26.4419 23.9337 27.7491 23.8764C28.7415 23.8323 28.5364 24.5397 28.5405 25.128C28.5447 25.7208 28.7291 26.384 27.7408 26.3642C25.1574 26.3113 22.5718 26.3201 19.9883 26.3642C19.2508 26.3774 19.1327 26.0337 19.143 25.377C19.1679 23.5458 19.1513 21.7147 19.1513 19.8835V19.8813Z" fill="white"/>
<path d="M95.4665 13.4645C96.5977 13.0833 97.041 13.7862 97.4347 14.758C98.8704 18.2837 100.345 21.7918 101.841 25.291C102.198 26.1262 102.055 26.4457 101.185 26.3532C100.946 26.3289 100.698 26.3179 100.462 26.3532C99.5748 26.4964 98.9947 26.1769 98.8062 25.1963C98.5596 23.9138 97.8635 23.4158 96.608 23.5701C95.5887 23.6957 94.5425 23.6362 93.5108 23.5811C92.854 23.5458 92.4562 23.7728 92.2905 24.4515C92.247 24.6278 92.1703 24.7952 92.1061 24.9627C91.6296 26.1901 90.2229 26.8247 89.0523 26.3355C88.5593 26.1306 88.8576 25.8133 88.9716 25.5378C89.6718 23.8257 90.3741 22.1157 91.0827 20.4079C91.8617 18.5327 92.6966 16.6839 93.4155 14.7845C93.8132 13.7334 94.3043 13.0613 95.4644 13.4623L95.4665 13.4645ZM95.5473 16.8029C95.4603 16.8029 95.3712 16.8029 95.2842 16.8051C94.7808 18.0788 94.2794 19.3502 93.776 20.6239C93.6371 20.9743 93.5874 21.2761 94.0867 21.2783C94.9776 21.2828 95.8705 21.2828 96.7614 21.2806C97.1674 21.2806 97.2151 21.0293 97.0866 20.701C96.579 19.3987 96.0632 18.103 95.5494 16.8029H95.5473Z" fill="white"/>
<path d="M6.98168 26.578C3.56328 26.5691 1.09167 24.7314 0.279545 21.88C-0.526368 19.0528 0.449429 16.0141 2.68278 14.3923C5.00937 12.7021 8.62044 12.7815 10.7523 14.5707C11.6514 15.3266 11.6038 15.4301 10.8393 16.3292C10.1701 17.1137 9.72262 17.2216 8.85662 16.5011C7.37946 15.2737 4.97208 15.7012 3.7891 17.1798C2.58541 18.6848 2.65792 21.3269 3.94241 22.7438C5.25176 24.1871 7.48305 24.3524 9.05551 23.1602C9.3352 22.9487 9.55895 22.3691 9.9588 22.6402C10.5306 23.0236 11.092 23.4974 11.4028 24.1651C11.5706 24.5264 11.2101 24.7534 10.9843 24.9627C9.72469 26.124 8.22266 26.5537 6.98375 26.578H6.98168Z" fill="white"/>
<path d="M84.018 13.1847C85.2652 13.2133 86.7279 13.6364 87.973 14.7624C88.5137 15.2516 88.551 15.6196 88.0061 16.1771C87.31 16.8911 86.8273 17.312 85.8184 16.4812C84.2936 15.2252 81.8862 15.7364 80.697 17.3075C79.5845 18.7751 79.6798 21.3026 80.8979 22.6908C82.1907 24.1628 84.4075 24.3722 86.0007 23.2065C86.3094 22.9817 86.5518 22.3779 87.0283 22.6975C87.5752 23.0632 88.1097 23.5282 88.3998 24.1474C88.609 24.5925 88.1242 24.8415 87.8466 25.0861C85.6961 26.9724 82.1037 27.0892 79.7025 25.366C77.4257 23.7331 76.4582 20.6878 77.2931 17.7901C78.1052 14.9784 80.6017 13.1737 84.0159 13.1847H84.018Z" fill="white"/>
<path d="M61.0359 19.8504C61.0359 18.0193 61.0566 16.1881 61.0256 14.3592C61.0131 13.6606 61.2224 13.383 61.9102 13.3918C64.4233 13.4249 66.9404 13.4425 69.4535 13.3874C70.5412 13.3632 70.2283 14.1344 70.2573 14.7228C70.2863 15.3442 70.3858 15.9678 69.4162 15.9193C67.8707 15.84 66.3168 15.9215 64.7672 15.8884C64.1539 15.8752 63.9053 16.0625 63.9198 16.7522C63.982 19.7535 63.5842 19.1145 66.0827 19.1828C66.9777 19.207 67.8748 19.2092 68.7698 19.1828C69.785 19.1519 69.4742 19.9474 69.5053 20.4983C69.5364 21.069 69.642 21.7125 68.7429 21.6838C67.4004 21.6441 66.0558 21.6926 64.7133 21.6662C64.1394 21.6552 63.9053 21.8689 63.924 22.4925C63.953 23.5172 63.9157 24.544 63.9364 25.5687C63.9467 26.1262 63.7416 26.362 63.2092 26.3576C60.5511 26.3333 61.0794 26.6132 61.0421 24.2488C61.0194 22.7856 61.038 21.3202 61.038 19.8549L61.0359 19.8504Z" fill="white"/>
<path d="M48.6325 13.4072C50.1159 13.4072 51.6013 13.4623 53.0806 13.3896C54.1309 13.3367 53.9217 14.0595 53.9362 14.6853C53.9528 15.3508 54.0605 16.0559 53.0412 15.9413C52.3596 15.8642 51.6593 15.9722 50.9736 15.9171C50.2236 15.8576 50.033 16.2035 50.0413 16.9439C50.0703 19.694 50.0206 22.444 50.0703 25.1941C50.0869 26.0997 49.8465 26.406 48.9681 26.3686C46.9274 26.2782 47.1947 26.5999 47.1843 24.5043C47.1719 21.9747 47.1595 19.4428 47.1926 16.9131C47.203 16.1506 46.9792 15.8532 46.2458 15.9149C45.5601 15.9744 44.864 15.8818 44.1782 15.9369C43.0968 16.025 43.3847 15.2009 43.3619 14.6082C43.3391 14.0022 43.2045 13.3433 44.1844 13.3896C45.6637 13.4601 47.1491 13.4072 48.6325 13.4094V13.4072Z" fill="white"/>
<path d="M74.9727 19.8438C74.9727 21.6772 74.9436 23.5128 74.9872 25.3461C75.0037 26.0909 74.8173 26.3862 74.0694 26.3598C71.7531 26.276 72.1261 26.7035 72.1095 24.2598C72.0867 21.0316 72.1302 17.8033 72.0867 14.5751C72.0743 13.6849 72.2835 13.3521 73.1744 13.383C74.9706 13.4425 74.9727 13.3896 74.9727 15.3309C74.9727 16.836 74.9727 18.3388 74.9727 19.8438Z" fill="white"/>
<path d="M16.3357 19.9078C16.3357 21.6992 16.3067 23.4907 16.3502 25.2822C16.3689 26.0755 16.1576 26.3928 15.3662 26.3642C13.2343 26.2849 13.4891 26.6793 13.4809 24.403C13.4684 21.1484 13.5037 17.8937 13.4622 14.6412C13.4498 13.7246 13.6445 13.2376 14.5975 13.3962C14.8669 13.4425 15.1507 13.4315 15.4221 13.3984C16.1659 13.3103 16.3647 13.6849 16.3502 14.4231C16.315 16.2498 16.3378 18.0788 16.3399 19.9078H16.3357Z" fill="white"/>
<path d="M58.1728 13.5482C58.1915 17.724 58.2101 21.9019 58.2288 26.0777C57.3421 26.4942 56.4056 26.1724 55.4982 26.2782C55.4526 26.2231 55.4091 26.1658 55.3635 26.1107C55.3801 22.79 55.4008 19.4692 55.4091 16.1484C55.4146 14.2108 56.3359 13.344 58.1728 13.5482Z" fill="white"/>
<path d="M55.4506 12.2109C55.9561 11.389 56.6812 10.7786 57.2841 10.0492C57.7171 9.52475 58.2909 9.74511 58.813 9.70324C59.1839 9.67459 59.5568 9.6768 59.9297 9.66357C59.9628 9.84647 59.996 10.0294 60.0291 10.2145C59.9608 10.2828 59.8945 10.3489 59.8261 10.4172C59.5754 10.4326 59.4097 10.5626 59.3392 10.8226C59.2294 10.9152 59.1196 11.01 59.0098 11.1025C58.7591 11.1091 58.6017 11.2457 58.5209 11.4925C58.3386 11.6534 58.1542 11.8143 57.9719 11.9773C57.6963 12.136 57.4229 12.2968 57.1473 12.4555C56.6646 12.4489 56.1819 12.4423 55.6971 12.4379C55.6722 12.2902 55.5935 12.2087 55.4485 12.2109H55.4506Z" fill="white"/>
</g>
<defs>
<clipPath id="clip0_672_3033">
<rect width="102.024" height="58.412" fill="white" transform="translate(0 9.66559)"/>
</clipPath>
</defs>
</svg>
