<svg width="169" height="58" viewBox="0 0 169 58" fill="none" xmlns="http://www.w3.org/2000/svg">
<path d="M169 33.8005H29.1537V51.9031H169V33.8005Z" fill="white"/>
<path d="M142.477 46.0876V43.9099C141.883 44.2412 141.437 44.597 141.146 44.9712C140.952 45.2227 140.861 45.4803 140.861 45.7318C140.861 45.9465 140.945 46.1367 141.107 46.2962C141.23 46.425 141.404 46.4864 141.624 46.4864C141.87 46.4864 142.154 46.3514 142.477 46.0876ZM142.477 46.6091C141.637 47.3145 140.881 47.6703 140.208 47.6703C139.814 47.6703 139.484 47.5476 139.226 47.3022C138.967 47.0569 138.838 46.7501 138.838 46.3821C138.838 45.8852 139.064 45.4313 139.517 45.0325C139.969 44.6338 140.958 44.1062 142.477 43.4437V42.7873C142.477 42.2966 142.452 41.9837 142.393 41.8549C142.335 41.7261 142.232 41.6157 142.07 41.5175C141.909 41.4194 141.734 41.3764 141.534 41.3764C141.21 41.3764 140.945 41.4439 140.739 41.5789C140.609 41.6648 140.545 41.7629 140.545 41.8733C140.545 41.9715 140.616 42.088 140.751 42.2353C140.939 42.4377 141.029 42.6279 141.029 42.818C141.029 43.045 140.939 43.2413 140.758 43.4008C140.577 43.5603 140.344 43.64 140.053 43.64C139.743 43.64 139.484 43.5541 139.278 43.3762C139.071 43.1983 138.961 42.9898 138.961 42.7567C138.961 42.4193 139.103 42.1003 139.381 41.7936C139.665 41.493 140.053 41.2538 140.558 41.0881C141.062 40.9286 141.585 40.8428 142.122 40.8428C142.775 40.8428 143.298 40.9716 143.673 41.2354C144.055 41.4991 144.3 41.7813 144.417 42.088C144.488 42.2843 144.52 42.7321 144.52 43.4376V45.9711C144.52 46.2655 144.533 46.4557 144.559 46.5354C144.585 46.6091 144.617 46.6704 144.669 46.7072C144.72 46.744 144.772 46.7624 144.837 46.7624C144.966 46.7624 145.102 46.6765 145.238 46.5109L145.457 46.6765C145.212 47.0262 144.953 47.2777 144.695 47.4311C144.43 47.5906 144.132 47.6703 143.796 47.6703C143.402 47.6703 143.092 47.5844 142.872 47.4065C142.652 47.2286 142.516 46.9649 142.464 46.6091H142.477ZM134.817 41.0268V42.5174C135.276 41.8427 135.677 41.3948 136.02 41.174C136.362 40.9532 136.692 40.8428 137.009 40.8428C137.28 40.8428 137.506 40.9225 137.668 41.082C137.83 41.2415 137.914 41.4685 137.914 41.7629C137.914 42.0758 137.836 42.315 137.675 42.4868C137.513 42.6585 137.325 42.7444 137.099 42.7444C136.841 42.7444 136.614 42.6647 136.427 42.5052C136.233 42.3457 136.123 42.2537 136.091 42.2414C136.039 42.2107 135.987 42.1984 135.923 42.1984C135.781 42.1984 135.645 42.2475 135.522 42.3518C135.322 42.5113 135.166 42.7383 135.063 43.0327C134.908 43.4867 134.83 43.9835 134.83 44.5295V46.0324V46.425C134.83 46.6949 134.85 46.8667 134.882 46.9403C134.94 47.0691 135.031 47.1612 135.147 47.2164C135.263 47.2777 135.464 47.3145 135.742 47.3268V47.5722H131.992V47.3268C132.296 47.3022 132.497 47.2225 132.607 47.0937C132.71 46.9587 132.768 46.6091 132.768 46.0386V42.4131C132.768 42.0328 132.749 41.7936 132.71 41.6893C132.665 41.5543 132.587 41.4623 132.497 41.3948C132.406 41.3335 132.238 41.2906 131.999 41.266V41.0207H134.824L134.817 41.0268ZM130.454 41.0268V46.2165C130.454 46.6827 130.512 46.9833 130.622 47.1121C130.738 47.2409 130.965 47.3145 131.294 47.3329V47.5783H127.532V47.3329C127.842 47.3206 128.075 47.2409 128.23 47.0753C128.334 46.9648 128.379 46.6765 128.379 46.2103V42.3825C128.379 41.9163 128.321 41.6157 128.204 41.4869C128.088 41.358 127.862 41.2844 127.532 41.266V41.0207H130.448L130.454 41.0268ZM129.413 37.8615C129.73 37.8615 130.002 37.9657 130.221 38.1804C130.441 38.3951 130.551 38.6466 130.551 38.9472C130.551 39.2478 130.441 39.4993 130.215 39.714C129.989 39.9226 129.724 40.0269 129.407 40.0269C129.09 40.0269 128.825 39.9226 128.599 39.714C128.379 39.5055 128.269 39.2478 128.269 38.9472C128.269 38.6466 128.379 38.3951 128.599 38.1804C128.819 37.9657 129.09 37.8615 129.407 37.8615H129.413ZM125.095 43.6093C125.095 42.861 125.05 42.3457 124.966 42.0635C124.875 41.7813 124.746 41.5727 124.565 41.4255C124.462 41.3396 124.326 41.2967 124.151 41.2967C123.899 41.2967 123.686 41.4132 123.524 41.6525C123.234 42.0696 123.091 42.634 123.091 43.364V43.6093H125.102H125.095ZM126.905 44.0694H123.111C123.156 44.9344 123.402 45.6214 123.841 46.1244C124.184 46.5109 124.591 46.7072 125.069 46.7072C125.367 46.7072 125.632 46.6275 125.877 46.4741C126.117 46.3207 126.382 46.0386 126.653 45.6337L126.905 45.7932C126.53 46.5109 126.117 47.0262 125.664 47.3206C125.212 47.6212 124.688 47.7685 124.093 47.7685C123.072 47.7685 122.296 47.3943 121.766 46.652C121.346 46.0508 121.133 45.3086 121.133 44.413C121.133 43.321 121.443 42.4561 122.07 41.812C122.691 41.1679 123.421 40.8428 124.261 40.8428C124.959 40.8428 125.567 41.1127 126.078 41.6525C126.588 42.1923 126.866 43.002 126.912 44.0633L126.905 44.0694ZM117.48 41.0268V42.5174C117.939 41.8427 118.34 41.3948 118.683 41.174C119.025 40.9532 119.355 40.8428 119.672 40.8428C119.943 40.8428 120.169 40.9225 120.331 41.082C120.493 41.2415 120.577 41.4685 120.577 41.7629C120.577 42.0758 120.499 42.315 120.338 42.4868C120.176 42.6585 119.988 42.7444 119.762 42.7444C119.504 42.7444 119.277 42.6647 119.09 42.5052C118.896 42.3457 118.786 42.2537 118.754 42.2414C118.702 42.2107 118.65 42.1984 118.586 42.1984C118.444 42.1984 118.308 42.2475 118.185 42.3518C117.985 42.5113 117.829 42.7383 117.732 43.0327C117.577 43.4867 117.5 43.9835 117.5 44.5295V46.0324V46.425C117.5 46.6949 117.519 46.8667 117.551 46.9403C117.61 47.0691 117.7 47.1612 117.817 47.2164C117.933 47.2777 118.133 47.3145 118.411 47.3268V47.5722H114.662V47.3268C114.966 47.3022 115.166 47.2225 115.276 47.0937C115.38 46.9587 115.438 46.6091 115.438 46.0386V42.4131C115.438 42.0328 115.418 41.7936 115.38 41.6893C115.334 41.5543 115.257 41.4623 115.166 41.3948C115.076 41.3335 114.908 41.2906 114.668 41.266V41.0207H117.493L117.48 41.0268ZM111.953 43.6093C111.953 42.861 111.908 42.3457 111.824 42.0635C111.734 41.7813 111.604 41.5727 111.423 41.4255C111.32 41.3396 111.184 41.2967 111.01 41.2967C110.758 41.2967 110.544 41.4132 110.383 41.6525C110.092 42.0696 109.95 42.634 109.95 43.364V43.6093H111.96H111.953ZM113.763 44.0694H109.969C110.014 44.9344 110.26 45.6214 110.699 46.1244C111.042 46.5109 111.449 46.7072 111.928 46.7072C112.225 46.7072 112.49 46.6275 112.736 46.4741C112.975 46.3207 113.24 46.0386 113.511 45.6337L113.763 45.7932C113.389 46.5109 112.975 47.0262 112.522 47.3206C112.07 47.6212 111.546 47.7685 110.952 47.7685C109.93 47.7685 109.154 47.3943 108.624 46.652C108.204 46.0508 107.991 45.3086 107.991 44.413C107.991 43.321 108.301 42.4561 108.928 41.812C109.549 41.1679 110.279 40.8428 111.12 40.8428C111.818 40.8428 112.425 41.1127 112.936 41.6525C113.447 42.1923 113.725 43.002 113.77 44.0633L113.763 44.0694ZM102.257 38.6221V42.7383C102.419 42.7505 102.542 42.7505 102.626 42.7505C103.227 42.7505 103.692 42.5788 104.015 42.2414C104.339 41.904 104.507 41.3764 104.507 40.6649C104.507 39.9533 104.345 39.4441 104.015 39.1129C103.692 38.7877 103.201 38.6221 102.555 38.6221H102.251H102.257ZM102.257 43.2781V45.9159C102.257 46.4373 102.29 46.7624 102.361 46.8912C102.425 47.0262 102.542 47.1305 102.716 47.2164C102.884 47.2961 103.195 47.3329 103.653 47.3329V47.5783H98.5597V47.3329C99.0251 47.3329 99.3354 47.29 99.5035 47.2102C99.6715 47.1305 99.7879 47.0201 99.8525 46.8912C99.9236 46.7624 99.956 46.4373 99.956 45.9159V39.7386C99.956 39.2171 99.9236 38.892 99.8525 38.7632C99.7879 38.6282 99.6715 38.524 99.5035 38.4381C99.3354 38.3583 99.0251 38.3215 98.5662 38.3215V38.0762H102.929C104.365 38.0762 105.399 38.3215 106.026 38.8061C106.653 39.2908 106.963 39.8981 106.963 40.6281C106.963 41.2476 106.763 41.7752 106.356 42.2168C105.955 42.6585 105.399 42.953 104.688 43.1125C104.209 43.2229 103.401 43.2781 102.264 43.2781H102.257ZM92.2377 43.6093C92.2377 42.861 92.1925 42.3457 92.1084 42.0635C92.0179 41.7813 91.8886 41.5727 91.7076 41.4255C91.6042 41.3396 91.4685 41.2967 91.2939 41.2967C91.0418 41.2967 90.8285 41.4132 90.6669 41.6525C90.376 42.0696 90.2338 42.634 90.2338 43.364V43.6093H92.2442H92.2377ZM94.0541 44.0694H90.2597C90.3049 44.9344 90.5506 45.6214 90.9901 46.1244C91.3327 46.5109 91.74 46.7072 92.2183 46.7072C92.5157 46.7072 92.7807 46.6275 93.0263 46.4741C93.2655 46.3207 93.5305 46.0386 93.802 45.6337L94.0541 45.7932C93.6792 46.5109 93.2655 47.0262 92.813 47.3206C92.3605 47.6212 91.8369 47.7685 91.2422 47.7685C90.2209 47.7685 89.4452 47.3943 88.9151 46.652C88.4949 46.0508 88.2816 45.3086 88.2816 44.413C88.2816 43.321 88.5919 42.4561 89.2189 41.812C89.8395 41.1679 90.57 40.8428 91.4103 40.8428C92.1084 40.8428 92.7161 41.1127 93.2267 41.6525C93.7374 42.1923 94.0154 43.002 94.0606 44.0633L94.0541 44.0694ZM84.429 42.5174C84.067 41.8549 83.6274 41.5298 83.1038 41.5298C82.9228 41.5298 82.7741 41.5727 82.6578 41.6709C82.4768 41.8181 82.3281 42.0696 82.2117 42.4316C82.0954 42.7935 82.0372 43.3517 82.0372 44.1001C82.0372 44.9221 82.1019 45.5355 82.2311 45.9281C82.354 46.3269 82.5285 46.6091 82.7483 46.787C82.8646 46.8728 83.0133 46.9219 83.2072 46.9219C83.6403 46.9219 84.0411 46.5968 84.4225 45.9588V42.5236L84.429 42.5174ZM86.4975 38.0762V45.6153C86.4975 46.1183 86.5104 46.4189 86.5428 46.5109C86.5815 46.6643 86.6591 46.7808 86.769 46.8544C86.8789 46.928 87.0728 46.971 87.3443 46.9955V47.2409L84.429 47.7685V46.7317C84.0799 47.1305 83.7696 47.4065 83.4981 47.5537C83.2266 47.701 82.9163 47.7685 82.5737 47.7685C81.6946 47.7685 81.0029 47.3943 80.4923 46.652C80.085 46.0447 79.8782 45.3024 79.8782 44.4252C79.8782 43.7198 80.0075 43.0941 80.2596 42.5358C80.5117 41.9776 80.8607 41.5605 81.3068 41.2722C81.7528 40.99 82.2247 40.8489 82.7353 40.8489C83.065 40.8489 83.3559 40.9102 83.608 41.0329C83.8601 41.1556 84.1316 41.3642 84.4225 41.6709V39.6772C84.4225 39.1803 84.4031 38.8859 84.3579 38.7816C84.2997 38.6466 84.2092 38.5485 84.0928 38.4872C83.9765 38.4197 83.7502 38.389 83.427 38.389V38.0884H86.491L86.4975 38.0762Z" fill="#00733A"/>
<path d="M88.7211 54.4977V57.798H88.0165L86.672 55.5651C86.672 55.6203 86.672 55.6571 86.672 55.6755C86.6784 55.7307 86.6849 55.7798 86.6849 55.8166V57.7919H86.0449V54.4916H86.9241L88.1005 56.4423C88.0876 56.3442 88.0876 56.2705 88.0876 56.2215V54.4916H88.7211V54.4977ZM84.681 53.3629L84.8749 53.7677L83.7566 54.2217L83.6273 53.9518L84.681 53.3629ZM84.041 55.0743C83.6144 55.0743 83.4011 55.4301 83.4011 56.1479C83.4011 56.8656 83.6144 57.2214 84.041 57.2214C84.4677 57.2214 84.6616 56.8656 84.6616 56.1479C84.6616 55.4301 84.4547 55.0743 84.041 55.0743ZM84.0216 57.8532C83.5562 57.8532 83.1878 57.6876 82.9356 57.3502C82.6771 57.0189 82.5543 56.6141 82.5543 56.1356C82.5543 55.6571 82.6835 55.2522 82.9421 54.9271C83.2007 54.602 83.5691 54.4425 84.054 54.4425C84.5388 54.4425 84.9072 54.6143 85.1529 54.9578C85.3985 55.3013 85.5213 55.6939 85.5213 56.1417C85.5213 56.6202 85.392 57.0251 85.1399 57.3502C84.8878 57.6814 84.5129 57.8409 84.0216 57.8409V57.8532ZM82.0177 54.4977V57.798H81.2033V54.4977H82.0177ZM80.7314 55.7307L79.8781 55.7798C79.8652 55.3136 79.6777 55.0743 79.3028 55.0743C78.8761 55.0743 78.6628 55.4363 78.6628 56.154C78.6628 56.5711 78.721 56.8533 78.8374 57.0005C78.9537 57.1478 79.1153 57.2214 79.3222 57.2214C79.6583 57.2214 79.8652 57.0128 79.9363 56.5957L80.7314 56.6447C80.6796 57.0373 80.5245 57.3379 80.2659 57.5465C80.0074 57.7551 79.6906 57.8532 79.3157 57.8532C78.8567 57.8532 78.4818 57.6999 78.1909 57.3993C77.9 57.0987 77.7578 56.6815 77.7578 56.1479C77.7578 55.651 77.9 55.24 78.178 54.9271C78.456 54.6081 78.8374 54.4486 79.3222 54.4486C80.1561 54.4486 80.6279 54.878 80.7314 55.7307ZM75.6505 56.5098H76.3874L76.0254 55.3504L75.657 56.5098H75.6505ZM76.5878 54.4977L77.6738 57.798H76.7947L76.5813 57.1171H75.4566L75.2368 57.798H74.5257L75.6376 54.4977H76.5878ZM74.4352 55.7307L73.582 55.7798C73.569 55.3136 73.3816 55.0743 73.0067 55.0743C72.58 55.0743 72.3667 55.4363 72.3667 56.154C72.3667 56.5711 72.4249 56.8533 72.5412 57.0005C72.6576 57.1478 72.8192 57.2214 73.026 57.2214C73.3622 57.2214 73.569 57.0128 73.6401 56.5957L74.4352 56.6447C74.3835 57.0373 74.2284 57.3379 73.9698 57.5465C73.7113 57.7551 73.3945 57.8532 73.0196 57.8532C72.5606 57.8532 72.1857 57.6999 71.8948 57.3993C71.6039 57.0987 71.4617 56.6815 71.4617 56.1479C71.4617 55.651 71.6039 55.24 71.8819 54.9271C72.1598 54.6081 72.5412 54.4486 73.026 54.4486C73.8599 54.4486 74.3318 54.878 74.4352 55.7307ZM70.9834 54.4977V56.5527C70.9834 56.884 70.9446 57.1294 70.8605 57.295C70.783 57.4606 70.6343 57.5894 70.421 57.6937C70.2077 57.798 69.9297 57.8471 69.6 57.8471C69.2704 57.8471 68.9989 57.798 68.7985 57.706C68.5981 57.614 68.4494 57.479 68.3524 57.3073C68.2555 57.1355 68.2038 56.884 68.2038 56.5527V54.4977H69.0829V56.5527C69.0829 56.7306 69.0958 56.8594 69.1281 56.9453C69.1605 57.0312 69.2251 57.0987 69.3156 57.1478C69.4126 57.1968 69.5289 57.2214 69.6647 57.2214C69.8198 57.2214 69.9426 57.1968 70.0396 57.1478C70.1366 57.0987 70.2012 57.0373 70.2335 56.9576C70.2658 56.8778 70.2788 56.7429 70.2788 56.5589V54.5038H70.9769L70.9834 54.4977ZM65.6569 55.105V57.1784H65.993C66.2904 57.1784 66.5101 57.0741 66.6524 56.8594C66.7946 56.6509 66.8657 56.3994 66.8657 56.1172C66.8657 55.9148 66.8269 55.7307 66.7429 55.559C66.6588 55.3872 66.5619 55.2706 66.439 55.2032C66.3162 55.1357 66.1675 55.0989 65.9995 55.0989H65.6569V55.105ZM64.8618 54.4977H65.9219C66.355 54.4977 66.6782 54.5529 66.8915 54.6695C67.1049 54.786 67.2923 54.9639 67.4604 55.2093C67.6284 55.4547 67.7125 55.7675 67.7125 56.1417C67.7125 56.6141 67.5638 57.0067 67.2729 57.3257C66.982 57.6446 66.5748 57.8041 66.0577 57.8041H64.8618V54.5038V54.4977ZM64.3705 55.1296H62.7157V55.8105H64.015V56.43H62.7157V57.1539H64.3705V57.8103H61.8882V54.51H64.3705V55.1418V55.1296ZM61.1837 54.4977V57.798H60.479L59.1345 55.5651C59.1345 55.6203 59.1345 55.6571 59.1345 55.6755C59.141 55.7307 59.1474 55.7798 59.1474 55.8166V57.7919H58.5075V54.4916H59.3866L60.5631 56.4423C60.5502 56.3442 60.5502 56.2705 60.5502 56.2215V54.4916H61.1837V54.4977ZM57.8158 54.4977V57.798H57.0013V54.4977H57.8158ZM54.0472 57.798L53.2004 55.105V57.798H52.5152V54.4977H53.7821L54.3898 56.473L55.0297 54.4977H56.3032V57.798H55.4822V55.105L54.6096 57.798H54.0472ZM49.199 55.0743C48.7724 55.0743 48.5591 55.4301 48.5591 56.1479C48.5591 56.8656 48.7724 57.2214 49.199 57.2214C49.6257 57.2214 49.8196 56.8656 49.8196 56.1479C49.8196 55.4301 49.6127 55.0743 49.199 55.0743ZM49.1796 57.8532C48.7142 57.8532 48.3522 57.6876 48.0937 57.3502C47.8351 57.0189 47.7123 56.6141 47.7123 56.1356C47.7123 55.6571 47.8416 55.2522 48.1001 54.9271C48.3587 54.602 48.7271 54.4425 49.212 54.4425C49.6968 54.4425 50.0652 54.6143 50.3109 54.9578C50.5565 55.3013 50.6793 55.6939 50.6793 56.1417C50.6793 56.6202 50.5501 57.0251 50.2979 57.3502C50.0458 57.6814 49.6709 57.8409 49.1796 57.8409V57.8532ZM45.2882 55.105V57.1784H45.6243C45.9217 57.1784 46.1415 57.0741 46.2837 56.8594C46.4259 56.6509 46.497 56.3994 46.497 56.1172C46.497 55.9148 46.4582 55.7307 46.3742 55.559C46.2901 55.3872 46.1932 55.2706 46.0704 55.2032C45.9475 55.1357 45.7989 55.0989 45.6308 55.0989H45.2882V55.105ZM44.4866 54.4977H45.5468C45.9799 54.4977 46.3031 54.5529 46.5164 54.6695C46.7297 54.786 46.9172 54.9639 47.0852 55.2093C47.2533 55.4547 47.3374 55.7675 47.3374 56.1417C47.3374 56.6141 47.1887 57.0067 46.8978 57.3257C46.6069 57.6446 46.1997 57.8041 45.6825 57.8041H44.4866V54.5038V54.4977ZM42.0949 56.5098H42.8318L42.4698 55.3504L42.1014 56.5098H42.0949ZM43.0322 54.4977L44.1182 57.798H43.2391L43.0257 57.1171H41.901L41.6812 57.798H40.9701L42.082 54.4977H43.0322ZM39.5157 57.1478H40.899V57.8041H38.6947V54.5038H39.5221V57.1539L39.5157 57.1478ZM37.9901 54.4977V57.798H37.1756V54.4977H37.9901ZM36.5357 56.0313V57.798H36.1672C36.1414 57.6753 36.1026 57.5465 36.0509 57.4177C35.8052 57.706 35.4885 57.8471 35.1006 57.8471C34.6481 57.8471 34.2926 57.6937 34.0405 57.387C33.7884 57.0803 33.6591 56.6815 33.6591 56.1908C33.6591 55.6632 33.7949 55.2461 34.0664 54.921C34.3379 54.602 34.6999 54.4425 35.1653 54.4425C35.5531 54.4425 35.8634 54.5468 36.1026 54.7492C36.3418 54.9578 36.484 55.2277 36.5357 55.5712L35.7664 55.6694C35.7018 55.2706 35.5014 55.0682 35.1653 55.0682C34.9455 55.0682 34.7774 55.1602 34.6611 55.3504C34.5447 55.5406 34.493 55.8105 34.493 56.1663C34.493 56.5221 34.5576 56.7674 34.6805 56.9453C34.8033 57.1232 34.9778 57.2152 35.2041 57.2152C35.3527 57.2152 35.482 57.1723 35.5984 57.0803C35.7147 56.9883 35.7729 56.8472 35.7729 56.6447H35.1136V56.0252H36.5422L36.5357 56.0313ZM33.1291 54.4977V57.798H32.3146V54.4977H33.1291ZM31.9978 54.4977L30.9506 57.798H30.0715L29.0308 54.4977H29.897L30.5951 56.8594L31.3255 54.4977H32.0043H31.9978Z" fill="white"/>
<path fill-rule="evenodd" clip-rule="evenodd" d="M0 25.8379C0 11.5694 12.1915 0 27.2336 0C42.2758 0 54.4673 11.5694 54.4673 25.8379C54.4673 36.5363 47.6088 45.7194 37.8349 49.6454C34.577 50.952 30.9958 51.6759 27.2336 51.6759C12.1915 51.6698 0 40.1065 0 25.8379Z" fill="white"/>
<path fill-rule="evenodd" clip-rule="evenodd" d="M1.11194 25.8382C1.11194 12.1463 12.8057 1.04919 27.2337 1.04919C41.6618 1.04919 53.3555 12.1463 53.3555 25.832C53.3555 36.0948 46.775 44.9038 37.4019 48.6703C34.2797 49.9217 30.8408 50.6149 27.2337 50.6149C12.8057 50.621 1.11194 39.5239 1.11194 25.8382Z" fill="black"/>
<path fill-rule="evenodd" clip-rule="evenodd" d="M1.59692 25.838C1.59692 12.4038 13.0773 1.51526 27.2339 1.51526C41.3905 1.51526 52.8709 12.4038 52.8709 25.838C52.8709 39.2723 41.397 50.1608 27.2339 50.1608C13.0709 50.1608 1.59692 39.2661 1.59692 25.838Z" fill="#D0050C"/>
<path fill-rule="evenodd" clip-rule="evenodd" d="M20.9894 18.8206C20.8472 18.5998 20.6985 18.3605 20.5434 18.1642C18.9467 16.1153 20.1426 15.6185 19.8323 14.5081C19.3928 12.9561 16.6649 12.7598 18.0999 9.7172C18.1323 10.4963 19.1148 11.9992 20.4076 12.2998C21.3773 12.5267 22.7024 13.1831 22.7348 14.5634C22.7735 16.3055 23.7432 16.5325 24.4801 17.2257L23.1355 10.576L25.4626 16.6797C25.4626 16.3669 25.482 16.0356 25.4497 15.778C25.1459 13.2445 26.4452 13.3794 26.7619 12.2691C27.2015 10.7171 24.939 9.25099 27.7898 7.29413C27.4084 7.98731 27.4665 9.74787 28.4297 10.6251C29.1472 11.2815 29.9553 12.4777 29.2507 13.6861C28.294 15.3424 29.0373 15.9804 29.2959 17.0294L31.6166 10.619L30.3625 17.287C30.5176 17.0171 30.7245 16.7349 30.8473 16.465C31.9204 14.1278 32.974 14.8639 33.8338 14.0542C35.0296 12.9193 33.8467 10.576 37.3438 10.2386C36.6457 10.6558 35.7666 12.2139 36.1415 13.4285C36.4195 14.3364 36.4841 15.7596 35.243 16.4711C33.6205 17.4036 33.8079 18.2072 33.4653 19.1457L38.934 14.5818L34.2669 19.8389C34.5707 19.6978 34.9521 19.5997 35.2042 19.4218C37.3632 17.9066 37.8868 19.0414 39.0568 18.747C40.6923 18.3299 40.8991 15.7412 44.1118 17.103C43.2909 17.1337 41.7072 18.0661 41.3904 19.293C41.1512 20.2131 40.4596 21.4707 39.0051 21.5013C37.2339 21.5381 37.0077 22.1638 36.2902 22.7895L43.1875 21.5749L36.6198 23.8324C36.8849 23.8078 37.1693 23.8017 37.4149 23.771C40.0847 23.4827 39.9424 24.7157 41.1125 25.0163C42.7479 25.4335 44.2928 23.2926 46.3549 25.9917C45.6245 25.6298 43.7692 25.685 42.8384 26.599C42.1467 27.2799 40.8862 28.0467 39.6128 27.378C37.9191 26.4947 37.318 27.1449 36.3096 27.378L43.1293 29.6723L36.0575 28.4761C36.3225 28.6356 36.5875 28.881 36.8655 28.9914C39.3283 30.0097 38.5526 31.0096 39.4124 31.8193C40.6082 32.9542 43.0776 31.8316 43.4396 35.1503C43 34.4878 41.3581 33.6596 40.0782 34.0093C39.1215 34.2731 37.6218 34.3344 36.8719 33.1566C35.8959 31.623 35.146 31.623 34.2022 31.3408L38.9663 36.6103L33.711 32.4144C33.8338 32.6536 33.9566 32.9235 34.1182 33.1259C35.7149 35.1748 34.519 35.6717 34.8293 36.782C35.2688 38.334 37.9967 38.5303 36.5617 41.573C36.5293 40.7939 35.5468 39.291 34.2539 38.9904C33.2843 38.7634 31.9592 38.1071 31.9268 36.7268C31.8881 34.9601 31.3257 34.7761 30.6081 34.0584L31.5972 40.4381L29.3993 34.6902C29.3993 34.9049 29.3993 35.1258 29.4252 35.3159C29.729 37.8494 28.4297 37.7145 28.113 38.8186C27.6734 40.3706 29.9359 41.8368 27.0852 43.7936C27.4665 43.1004 27.4084 41.3399 26.4452 40.4627C25.7277 39.8063 24.9197 38.6101 25.6243 37.4016C26.6003 35.7208 25.9345 35.1932 25.7406 34.132L23.2777 40.7878L24.5059 34.1995C24.3831 34.4326 24.2409 34.6718 24.1439 34.8926C23.0709 37.2298 22.0172 36.4937 21.1575 37.3035C19.9616 38.4383 21.1446 40.7816 17.6474 41.119C18.3456 40.7019 19.2247 39.1438 18.8498 37.9292C18.5718 37.0213 18.5072 35.5981 19.7483 34.8865C21.2868 34.0032 21.164 33.1873 21.4484 32.2733L15.8569 36.8188L20.0392 31.6537C19.8323 31.7457 19.6319 31.8439 19.4639 31.9604C17.3048 33.4756 16.7748 32.3407 15.6112 32.6352C13.9758 33.0523 13.7689 35.641 10.5562 34.2792C11.3772 34.2485 12.9609 33.3161 13.2776 32.0892C13.5168 31.1691 14.2085 29.9115 15.6629 29.8809C17.4664 29.8441 17.99 29.0405 18.7205 28.3595L11.5 29.6539L18.3908 27.286C18.0224 27.3535 17.5505 27.3658 17.1497 27.4087C14.48 27.697 14.6222 26.464 13.4522 26.1634C11.8167 25.7463 10.2718 27.8872 8.20972 25.1881C8.94017 25.55 10.7954 25.4948 11.7262 24.5808C12.4179 23.8999 13.6784 23.1331 14.9519 23.8017C16.5421 24.6299 17.1949 24.1207 18.1969 23.8447L11.5582 21.5197L18.4942 22.6975C18.2357 22.5626 17.9642 22.3969 17.7056 22.2927C15.2428 21.2744 16.0185 20.2744 15.1587 19.4647C13.9628 18.3299 11.4935 19.4524 11.1315 16.1338C11.5711 16.7963 13.213 17.6244 14.4929 17.2747C15.4496 17.011 16.9493 16.9496 17.6992 18.1274C18.6106 19.5567 19.3863 19.569 20.343 19.8205L15.8375 14.686L21.0088 18.8206H20.9894Z" fill="#FFD400"/>
<path d="M49.6256 28.8317C50.3755 28.6906 50.7763 28.6231 50.8344 28.6293V28.5986C50.7827 28.5925 50.4143 28.4268 49.7161 28.114L49.6256 28.8378V28.8317ZM48.3263 29.6108L48.4104 28.9789C48.5009 28.9912 48.7724 28.9605 49.2119 28.8869L49.3283 27.9729C48.921 27.8011 48.6689 27.7091 48.572 27.6969L48.6495 27.1018C48.7012 27.108 49.1279 27.3165 49.9294 27.7214C50.7245 28.1263 51.1641 28.3348 51.2546 28.3471L51.1576 29.0955C51.0801 29.0894 50.6082 29.1752 49.742 29.3531C48.8758 29.5372 48.4039 29.623 48.3328 29.6169L48.3263 29.6108ZM50.6017 26.0774C50.8797 26.0651 51.0154 25.8934 51.0025 25.5498C51.0025 25.4271 50.9831 25.3167 50.9637 25.2186C50.7504 25.237 50.466 25.2554 50.1169 25.2676C50.1169 25.3413 50.1169 25.4026 50.1169 25.4517C50.1298 25.8749 50.2979 26.0774 50.6017 26.0712V26.0774ZM48.6948 26.8933L48.6754 26.3044C49.1667 26.1326 49.4705 26.0038 49.5804 25.9179C49.6967 25.832 49.7484 25.6971 49.742 25.513C49.742 25.4333 49.742 25.3597 49.7355 25.2922C49.3735 25.3044 49.0115 25.3229 48.6431 25.3474L48.6237 24.7953C49.0503 24.7953 49.5287 24.7953 50.0587 24.7769C50.5694 24.7585 51.0025 24.734 51.3645 24.7094L51.3774 25.0529C51.3774 25.0897 51.3839 25.1756 51.3904 25.3044C51.3968 25.4333 51.4033 25.5498 51.4097 25.6541C51.4291 26.2675 51.2223 26.5804 50.7827 26.5927C50.4336 26.6049 50.1815 26.4393 50.0329 26.0958H50.0005C49.9682 26.2307 49.8583 26.3534 49.6838 26.4577C49.5028 26.5681 49.1796 26.7154 48.7012 26.8994L48.6948 26.8933ZM48.5849 24.0837L48.5332 23.5194C48.9663 23.5009 49.4446 23.4703 49.9618 23.4273C50.4724 23.3844 50.9055 23.3415 51.2611 23.2924L51.3128 23.8567C50.9572 23.869 50.5242 23.8935 50.007 23.9365C49.4834 23.9794 49.0051 24.0285 48.5849 24.0837ZM48.921 22.8262L48.4621 22.8936L48.1195 21.2251C48.5396 21.1638 49.0115 21.0901 49.5287 20.992C50.0329 20.9 50.453 20.8141 50.8086 20.7282L51.1318 22.317L50.6728 22.3784C50.6146 21.9796 50.55 21.6238 50.4854 21.3048C50.2979 21.3539 50.0717 21.403 49.8131 21.4521C49.8713 21.722 49.9359 22.0164 50.0135 22.3231L49.5804 22.4029C49.5287 22.0962 49.4769 21.8017 49.4188 21.5257C49.1408 21.5748 48.8758 21.63 48.6366 21.6852C48.7077 22.041 48.7982 22.4213 48.9081 22.82L48.921 22.8262ZM49.6321 19.4461C49.8971 19.3602 49.9682 19.1578 49.8519 18.8327C49.8066 18.7161 49.7614 18.6119 49.7097 18.526C49.5093 18.6057 49.2442 18.7039 48.9146 18.8082C48.934 18.8756 48.9534 18.937 48.9727 18.9861C49.115 19.3848 49.3347 19.5381 49.6321 19.44V19.4461ZM48.0548 20.7528L47.8544 20.1945C48.2681 19.8939 48.5203 19.6854 48.6043 19.575C48.6883 19.4584 48.6948 19.3173 48.6301 19.1455C48.6043 19.0719 48.5784 19.0045 48.5526 18.937C48.21 19.0474 47.8674 19.1639 47.5248 19.2928L47.3373 18.7714C47.7445 18.6548 48.197 18.5198 48.7012 18.3542C49.1861 18.1947 49.5933 18.0536 49.9294 17.9248L50.0458 18.2499C50.0587 18.2867 50.091 18.3665 50.1363 18.483C50.1815 18.5996 50.2268 18.71 50.2656 18.8143C50.4724 19.3909 50.369 19.7467 49.9553 19.8878C49.6256 19.9982 49.3347 19.9062 49.0891 19.6179L49.0568 19.6302C49.0632 19.7713 48.9986 19.9123 48.8629 20.0657C48.7271 20.2191 48.4556 20.4522 48.0613 20.7589L48.0548 20.7528ZM47.5442 18.0352L47.1175 18.207L46.3612 16.6673C46.7555 16.5139 47.1886 16.3299 47.6734 16.1152C48.1389 15.9127 48.5267 15.7287 48.8435 15.5692L49.5674 17.0353L49.1408 17.201C48.9857 16.8329 48.8305 16.4955 48.6883 16.201C48.5202 16.2931 48.3134 16.3912 48.0742 16.4955C48.197 16.747 48.3392 17.0169 48.4944 17.293L48.0936 17.4709C47.9643 17.1825 47.8415 16.9126 47.7122 16.655C47.4537 16.7715 47.2145 16.882 46.9947 16.9924C47.1563 17.3236 47.3373 17.6672 47.5442 18.0352ZM47.4472 14.7349C47.6993 14.5816 47.7187 14.3423 47.4989 14.0295C47.4472 13.9497 47.3761 13.87 47.2985 13.7964C47.0852 13.9436 46.8396 14.1092 46.5551 14.281C46.5745 14.3117 46.5939 14.3423 46.6198 14.3791C46.8977 14.784 47.1757 14.9067 47.4472 14.7411V14.7349ZM47.8415 15.1091C47.5635 15.2809 47.2856 15.3116 47.0141 15.195C46.7426 15.0785 46.5099 14.876 46.316 14.5877C46.2772 14.5325 46.2578 14.4957 46.2449 14.4712C46.0251 14.6061 45.7342 14.7963 45.3851 15.0294L45.0619 14.557C45.411 14.3607 45.8182 14.1215 46.2772 13.8393C46.7038 13.5755 47.0593 13.3486 47.3567 13.14L47.5571 13.4345C47.5829 13.4774 47.6411 13.551 47.7252 13.6676C47.8092 13.7841 47.8803 13.8823 47.9385 13.9681C48.0807 14.1828 48.1583 14.3914 48.1518 14.6C48.1518 14.8085 48.0484 14.9742 47.8415 15.103V15.1091ZM43.9501 12.3487L43.6075 12.6431L42.3663 11.4224C42.6831 11.1525 43.0322 10.8457 43.4135 10.4961C43.782 10.1587 44.0858 9.86425 44.3315 9.61888L45.5209 10.7844L45.1718 11.0727C44.8938 10.7721 44.6353 10.5022 44.4026 10.2691C44.2733 10.4041 44.1117 10.5636 43.9177 10.7353C44.1246 10.9378 44.3444 11.1463 44.59 11.361L44.2733 11.6494C44.0535 11.4162 43.8402 11.1954 43.6333 10.993C43.4265 11.1831 43.239 11.361 43.0709 11.5328C43.336 11.7966 43.6333 12.0665 43.9501 12.3487ZM42.3534 9.66182C42.5279 9.46552 42.612 9.25081 42.612 9.02384C42.612 8.79074 42.4827 8.58217 42.2371 8.38587C42.1918 8.34906 42.1207 8.29999 42.0367 8.25091C41.8686 8.46561 41.6811 8.68032 41.4872 8.90115C41.2739 9.14653 41.0606 9.3919 40.8602 9.63728C40.9184 9.70476 40.983 9.7661 41.0541 9.82131C41.2868 10.0053 41.5195 10.0728 41.7458 10.0237C41.9785 9.97467 42.1789 9.85198 42.3534 9.65568V9.66182ZM42.8512 9.95013C42.5926 10.2384 42.2758 10.4163 41.888 10.4716C41.5001 10.5329 41.1317 10.4225 40.7761 10.1403C40.6145 10.0115 40.4012 9.83358 40.1362 9.60047C40.4206 9.30602 40.7374 8.9625 41.08 8.57603C41.4096 8.20184 41.6811 7.88285 41.9009 7.6068L42.1853 7.83377C42.2306 7.87058 42.3017 7.92579 42.3987 7.99327C42.4956 8.06075 42.5538 8.10982 42.5797 8.12822C42.9675 8.43494 43.1679 8.75393 43.1808 9.07292C43.1938 9.39804 43.0839 9.68635 42.8576 9.944L42.8512 9.95013ZM37.8867 6.90135C38.003 6.18363 38.0741 5.8033 38.1 5.75422L38.0676 5.74196C38.0418 5.79103 37.7574 6.06708 37.2015 6.57623L37.8867 6.90749V6.90135ZM38.2163 8.32452L37.6152 8.03621C37.6539 7.95646 37.7186 7.71109 37.8026 7.28782L36.9364 6.87068C36.6261 7.17126 36.4516 7.36756 36.4064 7.45344L35.844 7.18353C35.8698 7.13446 36.2189 6.82774 36.8912 6.25724C37.5634 5.68675 37.9254 5.36162 37.9642 5.29415L38.6753 5.63767C38.6365 5.70515 38.5654 6.15296 38.449 6.98723C38.3327 7.82151 38.2616 8.26931 38.2228 8.33679L38.2163 8.32452ZM35.7211 6.6069L35.5402 7.03017C35.3333 7.0179 35.1394 6.9811 34.9584 6.91975C34.4994 6.77866 34.1956 6.55169 34.034 6.23884C33.8789 5.92599 33.8595 5.59473 33.9758 5.25121C34.0986 4.89541 34.3313 4.6255 34.674 4.44147C35.0166 4.25744 35.4109 4.2329 35.8569 4.36786C36.0185 4.41693 36.1672 4.48441 36.3029 4.56416L36.0831 4.98129C35.9409 4.88314 35.7987 4.81567 35.6565 4.76659C35.385 4.68071 35.1588 4.70525 34.9713 4.8218C34.7838 4.94449 34.6481 5.12238 34.5705 5.35549C34.4865 5.59473 34.4994 5.8217 34.5964 6.04867C34.6933 6.26951 34.8808 6.429 35.1652 6.51489C35.3333 6.56396 35.5208 6.59463 35.7341 6.60077L35.7211 6.6069ZM32.9674 6.24497L32.3921 6.09775C32.5214 5.70515 32.6571 5.26961 32.7864 4.79113C32.9157 4.32492 33.0256 3.92005 33.0967 3.58879L33.672 3.73602C33.5621 4.055 33.4393 4.45374 33.31 4.92608C33.1743 5.4107 33.0579 5.85237 32.9674 6.24497ZM32.0172 5.56406L31.9202 5.98733L30.2007 5.69901C30.2848 5.34936 30.3753 4.90155 30.4722 4.36172C30.5627 3.87097 30.6338 3.45997 30.6726 3.13485L31.2544 3.233C31.1833 3.52745 31.0993 3.93232 31.0023 4.4476C30.9312 4.8402 30.8601 5.15306 30.8019 5.38003C31.1833 5.44137 31.5841 5.50272 32.0172 5.55179V5.56406ZM29.1341 2.15335C29.1341 2.15335 29.0372 2.25764 28.8497 2.41713C28.6623 2.57662 28.5588 2.66864 28.5459 2.69318H28.1774C28.1774 2.69318 28.2356 2.57049 28.352 2.41099C28.4683 2.2515 28.5265 2.15949 28.5265 2.14722L29.1406 2.15949L29.1341 2.15335ZM29.0242 4.23904C29.0242 3.96299 28.9596 3.73602 28.8109 3.55812C28.6623 3.38022 28.4813 3.29434 28.2615 3.28821C28.0546 3.28821 27.8801 3.36796 27.7314 3.53972C27.5827 3.71148 27.5116 3.93232 27.5052 4.1961C27.5052 4.47214 27.5698 4.69911 27.7185 4.87701C27.8672 5.05491 28.0482 5.14079 28.2679 5.14692C28.4748 5.14692 28.6493 5.06718 28.798 4.89541C28.9467 4.72365 29.0178 4.50281 29.0242 4.23904ZM29.6125 4.18996C29.606 4.60096 29.4638 4.93222 29.1988 5.20213C28.9273 5.46591 28.6041 5.59473 28.2162 5.5886C27.8478 5.5886 27.5375 5.45364 27.2918 5.20213C27.0462 4.95062 26.9298 4.63777 26.9363 4.25744C26.9428 3.84644 27.0785 3.51518 27.35 3.24527C27.6215 2.98149 27.9447 2.85267 28.339 2.8588C28.7075 2.86494 29.0178 2.99376 29.2634 3.24527C29.5091 3.49678 29.6254 3.80963 29.619 4.1961L29.6125 4.18996ZM26.3481 2.91401L26.3675 3.34342C26.0895 3.34342 25.8245 3.34342 25.5724 3.36796C25.5853 3.61946 25.6047 3.90165 25.6305 4.20836C25.6629 4.68684 25.7081 5.14079 25.7534 5.56406L25.1651 5.60087C25.1522 5.17759 25.1263 4.72365 25.094 4.24517C25.0746 3.94459 25.0488 3.66241 25.0229 3.40476C24.829 3.41703 24.5575 3.4477 24.2149 3.49064L24.202 3.06124L26.3545 2.92015L26.3481 2.91401ZM23.0837 4.74205C22.6958 4.11635 22.5019 3.77896 22.489 3.72375H22.4566C22.4696 3.77896 22.4243 4.17156 22.3338 4.89541L23.0837 4.74205ZM24.2795 5.65607L23.6202 5.79103C23.6008 5.70515 23.4844 5.47204 23.2711 5.09785L22.3209 5.28801C22.2821 5.71128 22.2692 5.96279 22.2886 6.05481L21.668 6.1775C21.6551 6.12842 21.7262 5.68061 21.8684 4.82793C22.0106 3.98139 22.0752 3.51518 22.0623 3.44157L22.838 3.28207C22.8574 3.35569 23.0966 3.75442 23.5555 4.46601C24.021 5.18373 24.2601 5.57633 24.2731 5.64381L24.2795 5.65607ZM21.2414 5.80943L21.3577 6.25724C21.1832 6.36153 21.0022 6.44127 20.8212 6.49648C20.3622 6.63757 19.9744 6.6253 19.6512 6.45968C19.328 6.29405 19.1082 6.03641 18.9918 5.69901C18.869 5.34322 18.8884 4.99356 19.0565 4.65004C19.2181 4.30651 19.5219 4.06727 19.9679 3.93232C20.1295 3.88324 20.2911 3.85257 20.4463 3.8403L20.5238 4.30038C20.3493 4.30038 20.1942 4.32492 20.0455 4.36786C19.774 4.45374 19.5995 4.59483 19.5219 4.79726C19.4443 4.9997 19.4443 5.22053 19.5219 5.45364C19.6059 5.69288 19.7546 5.87691 19.9679 5.9996C20.1812 6.12842 20.4333 6.14682 20.7178 6.06094C20.8858 6.01187 21.0539 5.92599 21.2284 5.81557L21.2414 5.80943ZM16.0829 6.96883C15.9537 6.74799 15.7727 6.59463 15.5464 6.51489C15.3202 6.43514 15.0616 6.46581 14.7836 6.61917C14.7319 6.64984 14.6608 6.69278 14.5768 6.74799C14.7255 6.97496 14.8741 7.2142 15.0228 7.46571C15.1844 7.74176 15.3525 8.01781 15.527 8.28158C15.6175 8.25705 15.7015 8.22024 15.7791 8.1773C16.0442 8.03621 16.1928 7.85831 16.2316 7.63747C16.2704 7.41664 16.2187 7.18967 16.0894 6.96883H16.0829ZM16.5419 6.63144C16.7358 6.96269 16.794 7.31235 16.71 7.67428C16.6324 8.03621 16.3932 8.32452 15.986 8.53923C15.805 8.63738 15.5529 8.76006 15.2232 8.91342C15.0357 8.5515 14.8095 8.15276 14.5509 7.71109C14.3053 7.28782 14.0855 6.93202 13.8916 6.63757L14.2148 6.46581C14.2665 6.43514 14.3441 6.3922 14.4475 6.33699C14.5509 6.27565 14.6156 6.23884 14.6479 6.22657C15.0939 5.99346 15.4753 5.93212 15.792 6.03641C16.1153 6.14069 16.3609 6.33699 16.5354 6.63144H16.5419ZM13.3615 8.87048C12.728 8.47175 12.3919 8.24478 12.3531 8.20184L12.3272 8.22024C12.3596 8.26318 12.5018 8.62511 12.7539 9.31829L13.355 8.87048H13.3615ZM14.8612 9.1956L14.3311 9.5882C14.273 9.52073 14.0596 9.36123 13.6976 9.10972L12.9284 9.68022C13.0836 10.0728 13.1934 10.3121 13.2581 10.3857L12.7603 10.7537C12.728 10.7108 12.5793 10.2814 12.3208 9.45938C12.0622 8.63738 11.9006 8.1957 11.8489 8.12822L12.4759 7.66201C12.5276 7.72336 12.9219 7.97486 13.6718 8.42881C14.4216 8.87662 14.816 9.13426 14.8612 9.18947V9.1956ZM11.1443 10.5084C10.9504 10.3305 10.7306 10.2323 10.4914 10.22C10.2522 10.2078 10.0195 10.3121 9.79328 10.5268C9.75449 10.5697 9.69631 10.631 9.63167 10.7108C9.84499 10.8887 10.0583 11.0727 10.2781 11.2752C10.5173 11.496 10.7629 11.7107 11.0085 11.9193C11.0861 11.8702 11.1572 11.815 11.2154 11.7536C11.4223 11.5451 11.5128 11.3304 11.4804 11.1095C11.4481 10.8887 11.3318 10.6863 11.1378 10.5084H11.1443ZM11.474 10.0544C11.7584 10.3182 11.92 10.631 11.9588 11.0052C11.9976 11.3733 11.8554 11.7168 11.5321 12.0297C11.3899 12.1708 11.1831 12.3609 10.918 12.6002C10.6272 12.3057 10.291 11.9867 9.90317 11.6371C9.53471 11.2997 9.21796 11.0175 8.94647 10.7967L9.20504 10.5452C9.24382 10.5022 9.30846 10.4409 9.38603 10.355C9.4636 10.2691 9.51532 10.2139 9.54117 10.1894C9.89024 9.84585 10.2393 9.67408 10.5754 9.68635C10.918 9.69862 11.2154 9.82131 11.4675 10.0544H11.474ZM10.4849 13.1707L10.11 13.6123C9.78035 13.3424 9.41835 13.048 9.01111 12.7351C8.61033 12.4284 8.26773 12.1769 7.97684 11.9745L8.35176 11.5328C8.61679 11.7598 8.94647 12.0235 9.34725 12.3303C9.76096 12.6431 10.1359 12.9253 10.4785 13.1645L10.4849 13.1707ZM9.10161 13.7044C9.56057 13.9865 9.57349 14.4405 9.14686 15.0723C8.99818 15.287 8.83658 15.4649 8.66204 15.6183L8.32591 15.2932C8.51337 15.1521 8.66851 15.0048 8.7784 14.8392C8.90122 14.6613 8.97232 14.5202 8.98525 14.4221C9.00465 14.3239 8.96586 14.2442 8.88183 14.189C8.79133 14.1338 8.69436 14.1215 8.57801 14.1583C8.48105 14.189 8.31944 14.2749 8.09966 14.4159C7.89927 14.5448 7.72474 14.6184 7.5696 14.6491C7.37567 14.6859 7.19467 14.6491 7.02014 14.5386C6.81975 14.4159 6.70986 14.2442 6.69047 14.0356C6.67107 13.8209 6.75511 13.5817 6.94257 13.3179C7.09125 13.0971 7.23992 12.9253 7.37567 12.8026L7.72474 13.1032C7.56313 13.2197 7.42092 13.3608 7.30456 13.5387C7.12357 13.8025 7.11064 13.9804 7.25931 14.0724C7.33688 14.1215 7.42092 14.1276 7.51142 14.097C7.58899 14.0663 7.7312 13.9865 7.93159 13.8577C8.14491 13.7166 8.33237 13.6308 8.49398 13.5939C8.71376 13.551 8.91415 13.5878 9.10807 13.7044H9.10161ZM6.43836 15.7287C6.19272 15.606 5.98587 15.6919 5.8178 15.9925C5.75316 16.1029 5.70791 16.2072 5.68205 16.2992C5.88244 16.3851 6.13455 16.5016 6.44483 16.6611C6.48361 16.5998 6.51593 16.5446 6.54179 16.5016C6.74864 16.1274 6.71632 15.8698 6.44483 15.7348L6.43836 15.7287ZM8.51337 15.9311L8.22248 16.4526C7.70534 16.3667 7.37567 16.336 7.23346 16.3544C7.09125 16.3728 6.97489 16.4648 6.88439 16.6305C6.84561 16.6979 6.81328 16.7654 6.7745 16.8268C7.09125 16.9862 7.41445 17.1457 7.75059 17.2991L7.4791 17.7899C7.11064 17.5874 6.69693 17.3666 6.22504 17.1273C5.77255 16.9004 5.3847 16.7163 5.06149 16.5691L5.22956 16.2624C5.24895 16.2256 5.28774 16.152 5.34591 16.0416C5.40409 15.925 5.46227 15.8207 5.51398 15.7287C5.8178 15.1889 6.1604 15.0171 6.54825 15.2134C6.85853 15.3668 6.98782 15.6306 6.9361 15.9986L6.96196 16.0109C7.06539 15.9127 7.22053 15.8575 7.42738 15.8453C7.6407 15.8391 7.99623 15.8637 8.51337 15.9311ZM6.83914 18.2131L7.27224 18.3726L6.69047 19.9798C6.29615 19.8326 5.85012 19.6792 5.34591 19.5136C4.8611 19.3541 4.44739 19.2314 4.10479 19.1333L4.66071 17.5997L5.08735 17.7653C4.93221 18.1334 4.79646 18.4769 4.6801 18.7836C4.86756 18.8327 5.08735 18.894 5.33945 18.9799C5.43641 18.7161 5.52691 18.434 5.62387 18.1272L6.03758 18.2622C5.91476 18.5505 5.81134 18.8327 5.71437 19.1026C5.98587 19.1885 6.23797 19.2682 6.47715 19.3357C6.59997 18.9922 6.72279 18.618 6.84561 18.2254L6.83914 18.2131ZM3.91086 19.8142C4.02075 19.8387 4.43446 20.0841 5.13906 20.5503C5.84366 21.0165 6.25736 21.2619 6.36079 21.2864L6.23151 21.8201C6.12808 21.7956 5.64973 21.8385 4.78999 21.9367C3.93672 22.0348 3.45837 22.0778 3.36141 22.0532L3.51008 21.4337C3.60705 21.4582 3.98197 21.4459 4.63485 21.403C5.28774 21.3662 5.64973 21.3539 5.73376 21.3723V21.3417C5.66266 21.3232 5.35238 21.1638 4.80939 20.8632C4.26639 20.5626 3.91733 20.3908 3.77512 20.3601L3.91086 19.8142ZM6.00526 23.1268L5.92123 23.685C5.49459 23.6114 5.0227 23.5378 4.50557 23.4703C4.00136 23.4028 3.56826 23.3537 3.20627 23.323L3.2903 22.7648C3.63937 22.8262 4.066 22.8936 4.58314 22.9611C5.10674 23.0286 5.57862 23.0838 6.00526 23.1268ZM5.84366 24.4027L5.82426 24.8934C5.76609 24.8934 5.4558 25.0652 4.89342 25.4149C4.29871 25.7768 3.89793 25.9854 3.67815 26.0283V26.059C3.98843 26.0344 4.26639 26.0283 4.51203 26.0344C4.8611 26.0467 5.28127 26.0528 5.77901 26.0467L5.75962 26.5375C5.32652 26.5007 4.84817 26.4761 4.33104 26.4577C3.82036 26.4393 3.3808 26.4393 3.02527 26.4454L3.04466 25.8504C3.11577 25.8504 3.41958 25.6971 3.94965 25.3842C4.51203 25.0529 4.89342 24.8628 5.09381 24.8198V24.7892C4.78353 24.8137 4.4991 24.8198 4.25347 24.8076C3.87208 24.7953 3.48423 24.7892 3.08345 24.7953L3.10284 24.2984C3.45191 24.3291 3.88501 24.3536 4.40861 24.372C4.93221 24.3904 5.41056 24.3966 5.84366 24.3904V24.4027ZM3.09637 27.5435C3.56826 27.5006 4.03368 27.4515 4.4991 27.3963C5.42348 27.2859 5.93415 27.5926 6.02465 28.3103C6.0699 28.6661 6.00526 28.9421 5.82426 29.1507C5.64327 29.3531 5.28774 29.4881 4.75767 29.5494C4.29225 29.6046 3.83329 29.666 3.3808 29.7273L3.30969 29.163C3.78158 29.1262 4.23407 29.0832 4.67364 29.028C5.05502 28.9851 5.31359 28.9053 5.44288 28.7949C5.57216 28.6845 5.62387 28.5373 5.59802 28.341C5.57216 28.1385 5.48166 28.0036 5.32652 27.93C5.17138 27.8563 4.90635 27.8441 4.5185 27.887C4.09186 27.9361 3.63937 27.9974 3.16748 28.071L3.09637 27.5312V27.5435Z" fill="black"/>
<path d="M47.6218 38.4197L47.2469 38.8798C47.0594 38.7387 46.7298 38.5178 46.2708 38.2111C45.8054 37.9044 45.5209 37.7081 45.4046 37.6284L45.3852 37.6529C45.4434 37.7142 45.5403 37.8308 45.6825 38.0087C45.8248 38.1866 46.0187 38.4688 46.2643 38.8491C46.51 39.2294 46.6651 39.4503 46.7362 39.4993L46.4518 39.849C46.3807 39.7938 46.1221 39.7018 45.6696 39.5607C45.2236 39.4196 44.9133 39.3153 44.7388 39.2478C44.5707 39.1804 44.4026 39.1067 44.2475 39.027L44.2281 39.0515C44.3639 39.1558 44.6483 39.3889 45.0878 39.7509C45.5209 40.1128 45.8118 40.3459 45.954 40.4502L45.6114 40.8673C45.5791 40.8428 45.2753 40.5606 44.7065 40.0146C44.1376 39.4687 43.7821 39.1435 43.6399 39.0393L44.1441 38.432C44.2669 38.524 44.5966 38.6651 45.1202 38.8491C45.6502 39.0331 45.9734 39.1681 46.0898 39.2601L46.1092 39.2356C45.9928 39.1497 45.7795 38.8736 45.4757 38.4136C45.1719 37.9535 44.9586 37.6774 44.8422 37.5854L45.3399 36.9843C45.5662 37.156 45.9993 37.4321 46.6263 37.8185C47.2533 38.205 47.583 38.4136 47.6218 38.4381M44.7905 41.0452L45.1202 41.3581L43.8984 42.6033C43.6011 42.315 43.2585 42.0022 42.8706 41.6586C42.4957 41.3274 42.1725 41.0513 41.8945 40.8305L43.0581 39.6466L43.3813 39.9594C43.0775 40.2355 42.806 40.4931 42.5733 40.7324C42.7284 40.8489 42.8965 40.9961 43.0904 41.1618C43.2908 40.9593 43.4977 40.7385 43.7174 40.4931L44.0406 40.7753C43.8079 40.9961 43.5882 41.2047 43.3813 41.4133C43.5882 41.5973 43.7885 41.7691 43.976 41.9163C44.241 41.6525 44.5061 41.3581 44.784 41.0391L44.7905 41.0452ZM43.1615 43.1616L42.7607 43.4744C42.722 43.4315 42.3858 43.3211 41.7394 43.1493C41.0607 42.9653 40.634 42.8058 40.453 42.6831L40.4272 42.7015C40.6469 42.9039 40.8344 43.1002 40.9896 43.2842C41.2093 43.5419 41.4808 43.8486 41.8105 44.1983L41.4097 44.505C41.1511 44.1737 40.8603 43.8118 40.5306 43.4315C40.2074 43.0511 39.923 42.7383 39.6838 42.4868L40.1686 42.1126C40.2138 42.1678 40.5371 42.2843 41.1318 42.4561C41.7653 42.6401 42.166 42.7935 42.3276 42.9039L42.3535 42.8855C42.1337 42.6769 41.9398 42.4806 41.7846 42.2966C41.5455 42.0144 41.2934 41.7323 41.0283 41.4501L41.4356 41.1372C41.6424 41.4071 41.9075 41.7323 42.2371 42.1187C42.5668 42.5052 42.8771 42.8548 43.1615 43.1554V43.1616ZM40.6017 45.0019L40.104 45.3086C39.8842 44.9528 39.6321 44.5663 39.3476 44.1553C39.0697 43.7505 38.824 43.4069 38.6107 43.1309L39.1085 42.8242C39.283 43.1125 39.5157 43.4683 39.8001 43.8793C40.091 44.3026 40.3561 44.6767 40.6017 45.008V45.0019ZM39.3412 45.7687L38.7982 46.0324C38.6883 45.83 38.4944 45.4988 38.2099 45.0325C37.9255 44.5663 37.751 44.2719 37.6863 44.1553L37.6605 44.1676C37.6863 44.2473 37.7251 44.3946 37.7704 44.6093C37.8221 44.8301 37.8738 45.1614 37.9255 45.603C37.9772 46.0508 38.0225 46.3085 38.0613 46.3821L37.6476 46.5845C37.6088 46.5109 37.4148 46.3146 37.0722 46.0079C36.7296 45.7012 36.4969 45.4803 36.3677 45.3515C36.2448 45.2227 36.1285 45.0877 36.0251 44.9528L35.9992 44.9651C36.0768 45.1123 36.2319 45.4374 36.4646 45.9404C36.6973 46.4434 36.8525 46.7686 36.9365 46.9219L36.4388 47.1612C36.4194 47.1244 36.2707 46.744 35.9992 46.0263C35.7277 45.3086 35.5467 44.8669 35.4691 44.7136L36.1931 44.3639C36.2642 44.4989 36.4969 44.7504 36.8977 45.1307C37.292 45.511 37.5247 45.7625 37.5958 45.8914L37.6217 45.8791C37.5506 45.7503 37.486 45.419 37.4149 44.8792C37.3437 44.3394 37.2791 44.0081 37.208 43.8793L37.9255 43.5296C38.0548 43.775 38.3198 44.1983 38.7206 44.7994C39.1149 45.4006 39.3283 45.7196 39.3476 45.7625L39.3412 45.7687ZM34.7775 46.3269C34.6805 46.0631 34.5318 45.8729 34.3314 45.7564C34.131 45.6398 33.9242 45.6153 33.7173 45.6828C33.5234 45.7441 33.3877 45.8852 33.3166 46.0938C33.239 46.3024 33.2454 46.5355 33.3424 46.787C33.4394 47.0507 33.5881 47.2409 33.7884 47.3575C33.9888 47.474 34.1957 47.4986 34.4025 47.4311C34.5965 47.3697 34.7322 47.2286 34.8033 47.0201C34.8809 46.8115 34.868 46.5784 34.7775 46.3269ZM35.3075 46.0938C35.4497 46.4803 35.4368 46.8422 35.2817 47.1796C35.1265 47.517 34.8615 47.7439 34.493 47.8605C34.144 47.977 33.8078 47.9525 33.4846 47.7991C33.1614 47.6458 32.9352 47.382 32.8059 47.0262C32.6637 46.6397 32.6766 46.2778 32.8317 45.9404C32.9869 45.603 33.2519 45.3761 33.6204 45.2595C33.9694 45.143 34.3056 45.1675 34.6288 45.3209C34.952 45.4742 35.1718 45.7319 35.3075 46.0938ZM32.431 48.2776L31.8492 48.388C31.7716 47.9525 31.707 47.5783 31.6423 47.2593L30.6016 47.4495C30.6598 47.7317 30.7438 48.1059 30.8537 48.5721L30.2719 48.6825C30.2008 48.2469 30.1168 47.7991 30.0263 47.3452C29.9293 46.879 29.8388 46.4802 29.7483 46.1306L30.3301 46.0202C30.3883 46.3882 30.4529 46.7318 30.5111 47.0446L31.5583 46.8483C31.5001 46.5723 31.4225 46.2349 31.3256 45.8361L31.9074 45.7257C31.9591 46.0631 32.0302 46.468 32.1271 46.9465C32.2306 47.4495 32.3275 47.8912 32.431 48.2776ZM27.0075 46.2901L26.9558 46.7134C26.6778 46.6704 26.4193 46.6397 26.1672 46.6152C26.1413 46.8667 26.1154 47.1428 26.0831 47.4495C26.0379 47.928 26.0056 48.3758 25.9797 48.8052L25.3915 48.7561C25.4496 48.339 25.5013 47.885 25.5466 47.4065C25.5725 47.106 25.5983 46.8238 25.6177 46.5661C25.4238 46.5477 25.1523 46.5355 24.8032 46.5293L24.8614 46.0999L27.0075 46.2778V46.2901ZM23.5621 47.4065C23.4651 46.6888 23.4199 46.3024 23.4328 46.2471H23.4005C23.3876 46.2901 23.1936 46.6336 22.8122 47.2655L23.5621 47.4065ZM24.2861 48.6886L23.6267 48.5659C23.6461 48.4801 23.6267 48.2224 23.5879 47.7991L22.6312 47.6212C22.4179 47.9954 22.308 48.2285 22.2886 48.3206L21.6681 48.204C21.681 48.1549 21.9266 47.7623 22.405 47.0385C22.8898 46.3146 23.1355 45.9098 23.1548 45.83L23.937 45.9711C23.9241 46.0447 23.9823 46.4987 24.1115 47.3329C24.2408 48.1672 24.299 48.615 24.2861 48.6886ZM20.9893 48.0936L20.4981 47.9341C20.5175 47.885 20.4334 47.5476 20.246 46.9403C20.052 46.2962 19.9615 45.8668 19.9809 45.6582L19.9486 45.646C19.884 45.9343 19.8064 46.1858 19.7288 46.4066C19.6189 46.7195 19.4896 47.0998 19.3474 47.5538L18.8562 47.3943C19.0178 47.0078 19.1858 46.5845 19.3539 46.1183C19.522 45.6582 19.6513 45.2656 19.7482 44.9344L20.3365 45.1246C20.3106 45.192 20.3817 45.511 20.5368 46.0815C20.7049 46.6888 20.7825 47.0937 20.7696 47.2839L20.8019 47.2961C20.873 47.0078 20.9506 46.7502 21.0281 46.5232C21.1509 46.1797 21.2673 45.83 21.3837 45.4681L21.8814 45.6276C21.7521 45.9343 21.597 46.3208 21.4289 46.7931C21.2544 47.2654 21.1122 47.6949 20.9893 48.0875V48.0936ZM17.9706 47.0937L17.434 46.8544C17.6344 46.4864 17.8413 46.0815 18.0675 45.6337C18.2808 45.192 18.4618 44.8178 18.5976 44.4989L19.1341 44.7381C18.9661 45.0325 18.7786 45.4067 18.5588 45.8484C18.3326 46.3024 18.1386 46.7195 17.977 47.0937H17.9706ZM16.5743 46.5416L16.0507 46.241C16.1735 46.0447 16.3674 45.7135 16.6325 45.2411C16.8975 44.7688 17.0656 44.4743 17.1367 44.3578L17.1108 44.3394C17.0526 44.4007 16.9428 44.5111 16.7747 44.6645C16.6066 44.8178 16.3351 45.0387 15.9667 45.3147C15.5982 45.5908 15.3914 45.7687 15.3461 45.8361L14.9453 45.6092C14.9906 45.5356 15.0617 45.2779 15.1522 44.8424C15.2427 44.4007 15.3138 44.1001 15.3655 43.9284C15.4172 43.7627 15.4754 43.5971 15.54 43.4376L15.5142 43.4192C15.4237 43.5603 15.2168 43.8609 14.8871 44.3087C14.5639 44.7626 14.3506 45.0632 14.2601 45.2104L13.7818 44.9405C13.8012 44.9037 14.0662 44.5909 14.5639 43.9836C15.0617 43.3824 15.359 43.0082 15.456 42.861L16.1541 43.2597C16.0701 43.3885 15.9667 43.7137 15.8374 44.2289C15.7081 44.7504 15.6047 45.0693 15.5271 45.192L15.553 45.2104C15.6305 45.0877 15.8891 44.8546 16.3351 44.5173C16.7812 44.1799 17.0397 43.9406 17.1238 43.8179L17.8154 44.2105C17.6667 44.4436 17.4276 44.8853 17.0979 45.5233C16.7682 46.1613 16.5937 46.4987 16.5678 46.5355L16.5743 46.5416ZM14.7902 42.4684C14.4928 42.8119 14.1955 43.1616 13.9046 43.5112C13.3293 44.2105 12.741 44.3332 12.1399 43.8854C11.8425 43.6646 11.6809 43.4192 11.6615 43.1554C11.6357 42.8916 11.7908 42.5543 12.1205 42.1555C12.4114 41.8059 12.6893 41.4501 12.9608 41.1065L13.4327 41.4562C13.1289 41.7997 12.838 42.1371 12.5665 42.4684C12.3273 42.7567 12.2045 42.9837 12.198 43.1493C12.1851 43.3149 12.2627 43.456 12.4243 43.5726C12.5924 43.6952 12.7604 43.7382 12.922 43.683C13.0836 43.6339 13.284 43.4621 13.5232 43.1677C13.7882 42.8487 14.0597 42.499 14.3442 42.131L14.7966 42.4622L14.7902 42.4684ZM11.1185 42.5113L10.7695 42.7935L9.58004 41.5789C9.87093 41.3458 10.2265 41.0391 10.6466 40.671C11.0345 40.3275 11.3448 40.0392 11.5839 39.8061L11.9847 40.2171C11.7391 40.4134 11.4159 40.6894 11.0151 41.0452C10.7048 41.3213 10.4527 41.5298 10.2588 41.677C10.5238 41.947 10.8082 42.223 11.1185 42.5052V42.5113ZM9.47662 40.855L9.10169 41.1127L8.02864 39.8061C8.33892 39.5975 8.72031 39.3214 9.1728 38.9902C9.58651 38.6835 9.92911 38.4197 10.1877 38.2111L10.5497 38.6528C10.2911 38.8246 9.94204 39.0761 9.50247 39.3951C9.1728 39.6404 8.9013 39.8306 8.69445 39.9594C8.93362 40.2477 9.19219 40.5483 9.47662 40.855ZM7.45979 39.0883L7.11719 38.6283C7.48565 38.4074 7.87996 38.1498 8.3066 37.8676C8.72677 37.5916 9.07584 37.3462 9.36026 37.1376L9.70286 37.5977C9.40551 37.7756 9.04352 38.0087 8.61688 38.2847C8.18378 38.5731 7.79593 38.8368 7.45979 39.0883Z" fill="black"/>
<path fill-rule="evenodd" clip-rule="evenodd" d="M27.6215 28.8007C29.6448 27.9664 31.6164 28.5676 32.2111 28.7885V28.6964C32.2111 26.6598 32.2305 21.7953 32.2305 21.3352C31.2867 20.8628 29.9939 20.777 28.8368 20.9855C28.6041 21.0285 28.3778 21.0837 28.1645 21.145C27.9771 21.2002 27.7896 21.2677 27.6215 21.3413V28.8007ZM22.7863 28.7885C23.3746 28.5737 25.3203 28.0094 27.3371 28.8437V21.3843C27.1626 21.3107 26.9816 21.2432 26.7941 21.188C26.5808 21.1205 26.3545 21.0653 26.1218 21.0223C24.9712 20.8015 23.6913 20.8628 22.7475 21.3413C22.7475 21.9732 22.7799 26.531 22.7799 28.6044V28.6964V28.7946L22.7863 28.7885ZM22.4954 21.2432V21.188L22.5601 21.1512C23.562 20.6175 24.9454 20.5316 26.18 20.7708C26.4192 20.8199 26.6519 20.8751 26.8781 20.9426C27.0721 21.0039 27.2595 21.0714 27.4341 21.145C27.6409 21.053 27.8542 20.9733 28.0805 20.9058C28.3067 20.8383 28.5394 20.7831 28.7851 20.7402C30.0262 20.5132 31.4289 20.6175 32.4309 21.1512L32.4955 21.188V21.2616L33.2906 22.2431C33.2906 22.2431 33.3165 22.3044 33.3165 22.3167C33.3165 22.3351 33.2842 28.1566 33.2842 30.2423C33.2842 30.3282 33.1872 30.3895 33.1032 30.3527C33.1032 30.3527 31.1962 29.5368 28.7657 30.046V30.1748C28.7657 30.2362 28.701 30.2975 28.6364 30.2975H26.3869C26.3222 30.2975 26.2576 30.2362 26.2576 30.1748V29.9417C24.008 29.4448 21.7844 30.2668 21.7779 30.273C21.6939 30.3036 21.6034 30.2423 21.6034 30.1564C21.6034 28.0707 21.571 22.2431 21.571 22.2308C21.571 22.2185 21.5904 22.1572 21.6034 22.1449L22.4825 21.237L22.4954 21.2432Z" fill="#0F0B08"/>
<path fill-rule="evenodd" clip-rule="evenodd" d="M27.3371 21.3841C27.1626 21.3105 26.9816 21.2431 26.7941 21.1878C26.5808 21.1204 26.3546 21.0652 26.1219 21.0222C24.9712 20.8014 23.6913 20.8627 22.7476 21.3412C22.7476 21.9914 22.7799 26.8253 22.7799 28.7945C23.3681 28.5798 25.3138 28.0154 27.3307 28.8497V21.3903L27.3371 21.3841Z" fill="white"/>
<path fill-rule="evenodd" clip-rule="evenodd" d="M28.1646 21.1451C27.9771 21.2003 27.7897 21.2678 27.6216 21.3414V28.8008C29.6449 27.9665 31.6165 28.5677 32.2112 28.7885C32.2112 26.8194 32.237 21.9855 32.2435 21.3352C31.2997 20.8568 30.0004 20.7709 28.8369 20.9856C28.6041 21.0285 28.3779 21.0837 28.1646 21.1451Z" fill="white"/>
<path fill-rule="evenodd" clip-rule="evenodd" d="M25.9927 23.1573C25.566 23.2923 25.4626 23.3905 24.758 23.5193L24.7063 23.6604C24.939 23.6604 25.385 23.5622 25.0618 24.4762L24.4671 26.1325C24.4025 26.3165 24.4542 26.746 24.9261 26.7766C25.663 26.8257 25.9927 26.1264 26.0961 25.9546H25.9539C25.8828 26.0528 25.7664 26.3595 25.4949 26.4208C25.301 26.4699 25.0683 26.4699 24.9972 26.3104C24.9196 26.1387 25.0166 25.9424 25.0877 25.7583L25.9862 23.1635L25.9927 23.1573Z" fill="#0F0B08"/>
<path fill-rule="evenodd" clip-rule="evenodd" d="M31.1835 22.6482L30.0264 24.194L29.9488 23.1389C29.9359 22.9058 29.813 22.6482 29.6062 22.5684C29.4446 22.5071 29.2054 22.4948 28.9986 22.6788C28.6818 22.9488 28.5396 23.4334 28.4685 23.6603H28.5913C28.656 23.5131 28.7077 23.3291 28.921 23.1512C29.0891 23.004 29.3218 22.9794 29.5157 23.1328C29.6838 23.2616 29.7096 23.4763 29.7225 23.6603L29.7872 24.5191L27.8867 27.0588H28.5655L29.8518 25.3289H29.8648C29.8648 25.8319 29.8454 26.0589 29.9035 26.5005C29.9294 26.7275 29.9876 26.8931 30.1169 27.0281C30.3302 27.2489 30.6469 27.1385 30.8085 27.0526C31.2093 26.8502 31.4097 26.1938 31.4614 26.0098H31.3321C31.261 26.1509 31.1705 26.4515 30.8085 26.568C30.5047 26.66 30.2979 26.519 30.2397 26.249C30.188 26.0282 30.1233 25.7522 30.0781 25.0283L31.8493 22.6604H31.1705L31.1835 22.6482Z" fill="#0F0B08"/>
<path d="M49.6256 28.8317C50.3755 28.6906 50.7763 28.6231 50.8344 28.6293V28.5986C50.7827 28.5925 50.4143 28.4268 49.7161 28.114L49.6256 28.8378V28.8317ZM48.3263 29.6108L48.4104 28.9789C48.5009 28.9912 48.7724 28.9605 49.2119 28.8869L49.3283 27.9729C48.921 27.8011 48.6689 27.7091 48.572 27.6969L48.6495 27.1018C48.7012 27.108 49.1279 27.3165 49.9294 27.7214C50.7245 28.1263 51.1641 28.3348 51.2546 28.3471L51.1576 29.0955C51.0801 29.0894 50.6082 29.1752 49.742 29.3531C48.8758 29.5372 48.4039 29.623 48.3328 29.6169L48.3263 29.6108ZM50.6017 26.0774C50.8797 26.0651 51.0154 25.8934 51.0025 25.5498C51.0025 25.4271 50.9831 25.3167 50.9637 25.2186C50.7504 25.237 50.466 25.2554 50.1169 25.2676C50.1169 25.3413 50.1169 25.4026 50.1169 25.4517C50.1298 25.8749 50.2979 26.0774 50.6017 26.0712V26.0774ZM48.6948 26.8933L48.6754 26.3044C49.1667 26.1326 49.4705 26.0038 49.5804 25.9179C49.6967 25.832 49.7484 25.6971 49.742 25.513C49.742 25.4333 49.742 25.3597 49.7355 25.2922C49.3735 25.3044 49.0115 25.3229 48.6431 25.3474L48.6237 24.7953C49.0503 24.7953 49.5287 24.7953 50.0587 24.7769C50.5694 24.7585 51.0025 24.734 51.3645 24.7094L51.3774 25.0529C51.3774 25.0897 51.3839 25.1756 51.3904 25.3044C51.3968 25.4333 51.4033 25.5498 51.4097 25.6541C51.4291 26.2675 51.2223 26.5804 50.7827 26.5927C50.4336 26.6049 50.1815 26.4393 50.0329 26.0958H50.0005C49.9682 26.2307 49.8583 26.3534 49.6838 26.4577C49.5028 26.5681 49.1796 26.7154 48.7012 26.8994L48.6948 26.8933ZM48.5849 24.0837L48.5332 23.5194C48.9663 23.5009 49.4446 23.4703 49.9618 23.4273C50.4724 23.3844 50.9055 23.3415 51.2611 23.2924L51.3128 23.8567C50.9572 23.869 50.5242 23.8935 50.007 23.9365C49.4834 23.9794 49.0051 24.0285 48.5849 24.0837ZM48.921 22.8262L48.4621 22.8936L48.1195 21.2251C48.5396 21.1638 49.0115 21.0901 49.5287 20.992C50.0329 20.9 50.453 20.8141 50.8086 20.7282L51.1318 22.317L50.6728 22.3784C50.6146 21.9796 50.55 21.6238 50.4854 21.3048C50.2979 21.3539 50.0717 21.403 49.8131 21.4521C49.8713 21.722 49.9359 22.0164 50.0135 22.3231L49.5804 22.4029C49.5287 22.0962 49.4769 21.8017 49.4188 21.5257C49.1408 21.5748 48.8758 21.63 48.6366 21.6852C48.7077 22.041 48.7982 22.4213 48.9081 22.82L48.921 22.8262ZM49.6321 19.4461C49.8971 19.3602 49.9682 19.1578 49.8519 18.8327C49.8066 18.7161 49.7614 18.6119 49.7097 18.526C49.5093 18.6057 49.2442 18.7039 48.9146 18.8082C48.934 18.8756 48.9534 18.937 48.9727 18.9861C49.115 19.3848 49.3347 19.5381 49.6321 19.44V19.4461ZM48.0548 20.7528L47.8544 20.1945C48.2681 19.8939 48.5203 19.6854 48.6043 19.575C48.6883 19.4584 48.6948 19.3173 48.6301 19.1455C48.6043 19.0719 48.5784 19.0045 48.5526 18.937C48.21 19.0474 47.8674 19.1639 47.5248 19.2928L47.3373 18.7714C47.7445 18.6548 48.197 18.5198 48.7012 18.3542C49.1861 18.1947 49.5933 18.0536 49.9294 17.9248L50.0458 18.2499C50.0587 18.2867 50.091 18.3665 50.1363 18.483C50.1815 18.5996 50.2268 18.71 50.2656 18.8143C50.4724 19.3909 50.369 19.7467 49.9553 19.8878C49.6256 19.9982 49.3347 19.9062 49.0891 19.6179L49.0568 19.6302C49.0632 19.7713 48.9986 19.9123 48.8629 20.0657C48.7271 20.2191 48.4556 20.4522 48.0613 20.7589L48.0548 20.7528ZM47.5442 18.0352L47.1175 18.207L46.3612 16.6673C46.7555 16.5139 47.1886 16.3299 47.6734 16.1152C48.1389 15.9127 48.5267 15.7287 48.8435 15.5692L49.5674 17.0353L49.1408 17.201C48.9857 16.8329 48.8305 16.4955 48.6883 16.201C48.5202 16.2931 48.3134 16.3912 48.0742 16.4955C48.197 16.747 48.3392 17.0169 48.4944 17.293L48.0936 17.4709C47.9643 17.1825 47.8415 16.9126 47.7122 16.655C47.4537 16.7715 47.2145 16.882 46.9947 16.9924C47.1563 17.3236 47.3373 17.6672 47.5442 18.0352ZM47.4472 14.7349C47.6993 14.5816 47.7187 14.3423 47.4989 14.0295C47.4472 13.9497 47.3761 13.87 47.2985 13.7964C47.0852 13.9436 46.8396 14.1092 46.5551 14.281C46.5745 14.3117 46.5939 14.3423 46.6198 14.3791C46.8977 14.784 47.1757 14.9067 47.4472 14.7411V14.7349ZM47.8415 15.1091C47.5635 15.2809 47.2856 15.3116 47.0141 15.195C46.7426 15.0785 46.5099 14.876 46.316 14.5877C46.2772 14.5325 46.2578 14.4957 46.2449 14.4712C46.0251 14.6061 45.7342 14.7963 45.3851 15.0294L45.0619 14.557C45.411 14.3607 45.8182 14.1215 46.2772 13.8393C46.7038 13.5755 47.0593 13.3486 47.3567 13.14L47.5571 13.4345C47.5829 13.4774 47.6411 13.551 47.7252 13.6676C47.8092 13.7841 47.8803 13.8823 47.9385 13.9681C48.0807 14.1828 48.1583 14.3914 48.1518 14.6C48.1518 14.8085 48.0484 14.9742 47.8415 15.103V15.1091ZM43.9501 12.3487L43.6075 12.6431L42.3663 11.4224C42.6831 11.1525 43.0322 10.8457 43.4135 10.4961C43.782 10.1587 44.0858 9.86425 44.3315 9.61888L45.5209 10.7844L45.1718 11.0727C44.8938 10.7721 44.6353 10.5022 44.4026 10.2691C44.2733 10.4041 44.1117 10.5636 43.9177 10.7353C44.1246 10.9378 44.3444 11.1463 44.59 11.361L44.2733 11.6494C44.0535 11.4162 43.8402 11.1954 43.6333 10.993C43.4265 11.1831 43.239 11.361 43.0709 11.5328C43.336 11.7966 43.6333 12.0665 43.9501 12.3487ZM42.3534 9.66182C42.5279 9.46552 42.612 9.25081 42.612 9.02384C42.612 8.79074 42.4827 8.58217 42.2371 8.38587C42.1918 8.34906 42.1207 8.29999 42.0367 8.25091C41.8686 8.46561 41.6811 8.68032 41.4872 8.90115C41.2739 9.14653 41.0606 9.3919 40.8602 9.63728C40.9184 9.70476 40.983 9.7661 41.0541 9.82131C41.2868 10.0053 41.5195 10.0728 41.7458 10.0237C41.9785 9.97467 42.1789 9.85198 42.3534 9.65568V9.66182ZM42.8512 9.95013C42.5926 10.2384 42.2758 10.4163 41.888 10.4716C41.5001 10.5329 41.1317 10.4225 40.7761 10.1403C40.6145 10.0115 40.4012 9.83358 40.1362 9.60047C40.4206 9.30602 40.7374 8.9625 41.08 8.57603C41.4096 8.20184 41.6811 7.88285 41.9009 7.6068L42.1853 7.83377C42.2306 7.87058 42.3017 7.92579 42.3987 7.99327C42.4956 8.06075 42.5538 8.10982 42.5797 8.12822C42.9675 8.43494 43.1679 8.75393 43.1808 9.07292C43.1938 9.39804 43.0839 9.68635 42.8576 9.944L42.8512 9.95013ZM37.8867 6.90135C38.003 6.18363 38.0741 5.8033 38.1 5.75422L38.0676 5.74196C38.0418 5.79103 37.7574 6.06708 37.2015 6.57623L37.8867 6.90749V6.90135ZM38.2163 8.32452L37.6152 8.03621C37.6539 7.95646 37.7186 7.71109 37.8026 7.28782L36.9364 6.87068C36.6261 7.17126 36.4516 7.36756 36.4064 7.45344L35.844 7.18353C35.8698 7.13446 36.2189 6.82774 36.8912 6.25724C37.5634 5.68675 37.9254 5.36162 37.9642 5.29415L38.6753 5.63767C38.6365 5.70515 38.5654 6.15296 38.449 6.98723C38.3327 7.82151 38.2616 8.26931 38.2228 8.33679L38.2163 8.32452ZM35.7211 6.6069L35.5402 7.03017C35.3333 7.0179 35.1394 6.9811 34.9584 6.91975C34.4994 6.77866 34.1956 6.55169 34.034 6.23884C33.8789 5.92599 33.8595 5.59473 33.9758 5.25121C34.0986 4.89541 34.3313 4.6255 34.674 4.44147C35.0166 4.25744 35.4109 4.2329 35.8569 4.36786C36.0185 4.41693 36.1672 4.48441 36.3029 4.56416L36.0831 4.98129C35.9409 4.88314 35.7987 4.81567 35.6565 4.76659C35.385 4.68071 35.1588 4.70525 34.9713 4.8218C34.7838 4.94449 34.6481 5.12238 34.5705 5.35549C34.4865 5.59473 34.4994 5.8217 34.5964 6.04867C34.6933 6.26951 34.8808 6.429 35.1652 6.51489C35.3333 6.56396 35.5208 6.59463 35.7341 6.60077L35.7211 6.6069ZM32.9674 6.24497L32.3921 6.09775C32.5214 5.70515 32.6571 5.26961 32.7864 4.79113C32.9157 4.32492 33.0256 3.92005 33.0967 3.58879L33.672 3.73602C33.5621 4.055 33.4393 4.45374 33.31 4.92608C33.1743 5.4107 33.0579 5.85237 32.9674 6.24497ZM32.0172 5.56406L31.9202 5.98733L30.2007 5.69901C30.2848 5.34936 30.3753 4.90155 30.4722 4.36172C30.5627 3.87097 30.6338 3.45997 30.6726 3.13485L31.2544 3.233C31.1833 3.52745 31.0993 3.93232 31.0023 4.4476C30.9312 4.8402 30.8601 5.15306 30.8019 5.38003C31.1833 5.44137 31.5841 5.50272 32.0172 5.55179V5.56406ZM29.1341 2.15335C29.1341 2.15335 29.0372 2.25764 28.8497 2.41713C28.6623 2.57662 28.5588 2.66864 28.5459 2.69318H28.1774C28.1774 2.69318 28.2356 2.57049 28.352 2.41099C28.4683 2.2515 28.5265 2.15949 28.5265 2.14722L29.1406 2.15949L29.1341 2.15335ZM29.0242 4.23904C29.0242 3.96299 28.9596 3.73602 28.8109 3.55812C28.6623 3.38022 28.4813 3.29434 28.2615 3.28821C28.0546 3.28821 27.8801 3.36796 27.7314 3.53972C27.5827 3.71148 27.5116 3.93232 27.5052 4.1961C27.5052 4.47214 27.5698 4.69911 27.7185 4.87701C27.8672 5.05491 28.0482 5.14079 28.2679 5.14692C28.4748 5.14692 28.6493 5.06718 28.798 4.89541C28.9467 4.72365 29.0178 4.50281 29.0242 4.23904ZM29.6125 4.18996C29.606 4.60096 29.4638 4.93222 29.1988 5.20213C28.9273 5.46591 28.6041 5.59473 28.2162 5.5886C27.8478 5.5886 27.5375 5.45364 27.2918 5.20213C27.0462 4.95062 26.9298 4.63777 26.9363 4.25744C26.9428 3.84644 27.0785 3.51518 27.35 3.24527C27.6215 2.98149 27.9447 2.85267 28.339 2.8588C28.7075 2.86494 29.0178 2.99376 29.2634 3.24527C29.5091 3.49678 29.6254 3.80963 29.619 4.1961L29.6125 4.18996ZM26.3481 2.91401L26.3675 3.34342C26.0895 3.34342 25.8245 3.34342 25.5724 3.36796C25.5853 3.61946 25.6047 3.90165 25.6305 4.20836C25.6629 4.68684 25.7081 5.14079 25.7534 5.56406L25.1651 5.60087C25.1522 5.17759 25.1263 4.72365 25.094 4.24517C25.0746 3.94459 25.0488 3.66241 25.0229 3.40476C24.829 3.41703 24.5575 3.4477 24.2149 3.49064L24.202 3.06124L26.3545 2.92015L26.3481 2.91401ZM23.0837 4.74205C22.6958 4.11635 22.5019 3.77896 22.489 3.72375H22.4566C22.4696 3.77896 22.4243 4.17156 22.3338 4.89541L23.0837 4.74205ZM24.2795 5.65607L23.6202 5.79103C23.6008 5.70515 23.4844 5.47204 23.2711 5.09785L22.3209 5.28801C22.2821 5.71128 22.2692 5.96279 22.2886 6.05481L21.668 6.1775C21.6551 6.12842 21.7262 5.68061 21.8684 4.82793C22.0106 3.98139 22.0752 3.51518 22.0623 3.44157L22.838 3.28207C22.8574 3.35569 23.0966 3.75442 23.5555 4.46601C24.021 5.18373 24.2601 5.57633 24.2731 5.64381L24.2795 5.65607ZM21.2414 5.80943L21.3577 6.25724C21.1832 6.36153 21.0022 6.44127 20.8212 6.49648C20.3622 6.63757 19.9744 6.6253 19.6512 6.45968C19.328 6.29405 19.1082 6.03641 18.9918 5.69901C18.869 5.34322 18.8884 4.99356 19.0565 4.65004C19.2181 4.30651 19.5219 4.06727 19.9679 3.93232C20.1295 3.88324 20.2911 3.85257 20.4463 3.8403L20.5238 4.30038C20.3493 4.30038 20.1942 4.32492 20.0455 4.36786C19.774 4.45374 19.5995 4.59483 19.5219 4.79726C19.4443 4.9997 19.4443 5.22053 19.5219 5.45364C19.6059 5.69288 19.7546 5.87691 19.9679 5.9996C20.1812 6.12842 20.4333 6.14682 20.7178 6.06094C20.8858 6.01187 21.0539 5.92599 21.2284 5.81557L21.2414 5.80943ZM16.0829 6.96883C15.9537 6.74799 15.7727 6.59463 15.5464 6.51489C15.3202 6.43514 15.0616 6.46581 14.7836 6.61917C14.7319 6.64984 14.6608 6.69278 14.5768 6.74799C14.7255 6.97496 14.8741 7.2142 15.0228 7.46571C15.1844 7.74176 15.3525 8.01781 15.527 8.28158C15.6175 8.25705 15.7015 8.22024 15.7791 8.1773C16.0442 8.03621 16.1928 7.85831 16.2316 7.63747C16.2704 7.41664 16.2187 7.18967 16.0894 6.96883H16.0829ZM16.5419 6.63144C16.7358 6.96269 16.794 7.31235 16.71 7.67428C16.6324 8.03621 16.3932 8.32452 15.986 8.53923C15.805 8.63738 15.5529 8.76006 15.2232 8.91342C15.0357 8.5515 14.8095 8.15276 14.5509 7.71109C14.3053 7.28782 14.0855 6.93202 13.8916 6.63757L14.2148 6.46581C14.2665 6.43514 14.3441 6.3922 14.4475 6.33699C14.5509 6.27565 14.6156 6.23884 14.6479 6.22657C15.0939 5.99346 15.4753 5.93212 15.792 6.03641C16.1153 6.14069 16.3609 6.33699 16.5354 6.63144H16.5419ZM13.3615 8.87048C12.728 8.47175 12.3919 8.24478 12.3531 8.20184L12.3272 8.22024C12.3596 8.26318 12.5018 8.62511 12.7539 9.31829L13.355 8.87048H13.3615ZM14.8612 9.1956L14.3311 9.5882C14.273 9.52073 14.0596 9.36123 13.6976 9.10972L12.9284 9.68022C13.0836 10.0728 13.1934 10.3121 13.2581 10.3857L12.7603 10.7537C12.728 10.7108 12.5793 10.2814 12.3208 9.45938C12.0622 8.63738 11.9006 8.1957 11.8489 8.12822L12.4759 7.66201C12.5276 7.72336 12.9219 7.97486 13.6718 8.42881C14.4216 8.87662 14.816 9.13426 14.8612 9.18947V9.1956ZM11.1443 10.5084C10.9504 10.3305 10.7306 10.2323 10.4914 10.22C10.2522 10.2078 10.0195 10.3121 9.79328 10.5268C9.75449 10.5697 9.69631 10.631 9.63167 10.7108C9.84499 10.8887 10.0583 11.0727 10.2781 11.2752C10.5173 11.496 10.7629 11.7107 11.0085 11.9193C11.0861 11.8702 11.1572 11.815 11.2154 11.7536C11.4223 11.5451 11.5128 11.3304 11.4804 11.1095C11.4481 10.8887 11.3318 10.6863 11.1378 10.5084H11.1443ZM11.474 10.0544C11.7584 10.3182 11.92 10.631 11.9588 11.0052C11.9976 11.3733 11.8554 11.7168 11.5321 12.0297C11.3899 12.1708 11.1831 12.3609 10.918 12.6002C10.6272 12.3057 10.291 11.9867 9.90317 11.6371C9.53471 11.2997 9.21796 11.0175 8.94647 10.7967L9.20504 10.5452C9.24382 10.5022 9.30846 10.4409 9.38603 10.355C9.4636 10.2691 9.51532 10.2139 9.54117 10.1894C9.89024 9.84585 10.2393 9.67408 10.5754 9.68635C10.918 9.69862 11.2154 9.82131 11.4675 10.0544H11.474ZM10.4849 13.1707L10.11 13.6123C9.78035 13.3424 9.41835 13.048 9.01111 12.7351C8.61033 12.4284 8.26773 12.1769 7.97684 11.9745L8.35176 11.5328C8.61679 11.7598 8.94647 12.0235 9.34725 12.3303C9.76096 12.6431 10.1359 12.9253 10.4785 13.1645L10.4849 13.1707ZM9.10161 13.7044C9.56057 13.9865 9.57349 14.4405 9.14686 15.0723C8.99818 15.287 8.83658 15.4649 8.66204 15.6183L8.32591 15.2932C8.51337 15.1521 8.66851 15.0048 8.7784 14.8392C8.90122 14.6613 8.97232 14.5202 8.98525 14.4221C9.00465 14.3239 8.96586 14.2442 8.88183 14.189C8.79133 14.1338 8.69436 14.1215 8.57801 14.1583C8.48105 14.189 8.31944 14.2749 8.09966 14.4159C7.89927 14.5448 7.72474 14.6184 7.5696 14.6491C7.37567 14.6859 7.19467 14.6491 7.02014 14.5386C6.81975 14.4159 6.70986 14.2442 6.69047 14.0356C6.67107 13.8209 6.75511 13.5817 6.94257 13.3179C7.09125 13.0971 7.23992 12.9253 7.37567 12.8026L7.72474 13.1032C7.56313 13.2197 7.42092 13.3608 7.30456 13.5387C7.12357 13.8025 7.11064 13.9804 7.25931 14.0724C7.33688 14.1215 7.42092 14.1276 7.51142 14.097C7.58899 14.0663 7.7312 13.9865 7.93159 13.8577C8.14491 13.7166 8.33237 13.6308 8.49398 13.5939C8.71376 13.551 8.91415 13.5878 9.10807 13.7044H9.10161ZM6.43836 15.7287C6.19272 15.606 5.98587 15.6919 5.8178 15.9925C5.75316 16.1029 5.70791 16.2072 5.68205 16.2992C5.88244 16.3851 6.13455 16.5016 6.44483 16.6611C6.48361 16.5998 6.51593 16.5446 6.54179 16.5016C6.74864 16.1274 6.71632 15.8698 6.44483 15.7348L6.43836 15.7287ZM8.51337 15.9311L8.22248 16.4526C7.70534 16.3667 7.37567 16.336 7.23346 16.3544C7.09125 16.3728 6.97489 16.4648 6.88439 16.6305C6.84561 16.6979 6.81328 16.7654 6.7745 16.8268C7.09125 16.9862 7.41445 17.1457 7.75059 17.2991L7.4791 17.7899C7.11064 17.5874 6.69693 17.3666 6.22504 17.1273C5.77255 16.9004 5.3847 16.7163 5.06149 16.5691L5.22956 16.2624C5.24895 16.2256 5.28774 16.152 5.34591 16.0416C5.40409 15.925 5.46227 15.8207 5.51398 15.7287C5.8178 15.1889 6.1604 15.0171 6.54825 15.2134C6.85853 15.3668 6.98782 15.6306 6.9361 15.9986L6.96196 16.0109C7.06539 15.9127 7.22053 15.8575 7.42738 15.8453C7.6407 15.8391 7.99623 15.8637 8.51337 15.9311ZM6.83914 18.2131L7.27224 18.3726L6.69047 19.9798C6.29615 19.8326 5.85012 19.6792 5.34591 19.5136C4.8611 19.3541 4.44739 19.2314 4.10479 19.1333L4.66071 17.5997L5.08735 17.7653C4.93221 18.1334 4.79646 18.4769 4.6801 18.7836C4.86756 18.8327 5.08735 18.894 5.33945 18.9799C5.43641 18.7161 5.52691 18.434 5.62387 18.1272L6.03758 18.2622C5.91476 18.5505 5.81134 18.8327 5.71437 19.1026C5.98587 19.1885 6.23797 19.2682 6.47715 19.3357C6.59997 18.9922 6.72279 18.618 6.84561 18.2254L6.83914 18.2131ZM3.91086 19.8142C4.02075 19.8387 4.43446 20.0841 5.13906 20.5503C5.84366 21.0165 6.25736 21.2619 6.36079 21.2864L6.23151 21.8201C6.12808 21.7956 5.64973 21.8385 4.78999 21.9367C3.93672 22.0348 3.45837 22.0778 3.36141 22.0532L3.51008 21.4337C3.60705 21.4582 3.98197 21.4459 4.63485 21.403C5.28774 21.3662 5.64973 21.3539 5.73376 21.3723V21.3417C5.66266 21.3232 5.35238 21.1638 4.80939 20.8632C4.26639 20.5626 3.91733 20.3908 3.77512 20.3601L3.91086 19.8142ZM6.00526 23.1268L5.92123 23.685C5.49459 23.6114 5.0227 23.5378 4.50557 23.4703C4.00136 23.4028 3.56826 23.3537 3.20627 23.323L3.2903 22.7648C3.63937 22.8262 4.066 22.8936 4.58314 22.9611C5.10674 23.0286 5.57862 23.0838 6.00526 23.1268ZM5.84366 24.4027L5.82426 24.8934C5.76609 24.8934 5.4558 25.0652 4.89342 25.4149C4.29871 25.7768 3.89793 25.9854 3.67815 26.0283V26.059C3.98843 26.0344 4.26639 26.0283 4.51203 26.0344C4.8611 26.0467 5.28127 26.0528 5.77901 26.0467L5.75962 26.5375C5.32652 26.5007 4.84817 26.4761 4.33104 26.4577C3.82036 26.4393 3.3808 26.4393 3.02527 26.4454L3.04466 25.8504C3.11577 25.8504 3.41958 25.6971 3.94965 25.3842C4.51203 25.0529 4.89342 24.8628 5.09381 24.8198V24.7892C4.78353 24.8137 4.4991 24.8198 4.25347 24.8076C3.87208 24.7953 3.48423 24.7892 3.08345 24.7953L3.10284 24.2984C3.45191 24.3291 3.88501 24.3536 4.40861 24.372C4.93221 24.3904 5.41056 24.3966 5.84366 24.3904V24.4027ZM3.09637 27.5435C3.56826 27.5006 4.03368 27.4515 4.4991 27.3963C5.42348 27.2859 5.93415 27.5926 6.02465 28.3103C6.0699 28.6661 6.00526 28.9421 5.82426 29.1507C5.64327 29.3531 5.28774 29.4881 4.75767 29.5494C4.29225 29.6046 3.83329 29.666 3.3808 29.7273L3.30969 29.163C3.78158 29.1262 4.23407 29.0832 4.67364 29.028C5.05502 28.9851 5.31359 28.9053 5.44288 28.7949C5.57216 28.6845 5.62387 28.5373 5.59802 28.341C5.57216 28.1385 5.48166 28.0036 5.32652 27.93C5.17138 27.8563 4.90635 27.8441 4.5185 27.887C4.09186 27.9361 3.63937 27.9974 3.16748 28.071L3.09637 27.5312V27.5435Z" fill="#1A1A18"/>
<path d="M47.6218 38.4197L47.2469 38.8798C47.0594 38.7387 46.7298 38.5178 46.2708 38.2111C45.8054 37.9044 45.5209 37.7081 45.4046 37.6284L45.3852 37.6529C45.4434 37.7142 45.5403 37.8308 45.6825 38.0087C45.8248 38.1866 46.0187 38.4688 46.2643 38.8491C46.51 39.2294 46.6651 39.4503 46.7362 39.4993L46.4518 39.849C46.3807 39.7938 46.1221 39.7018 45.6696 39.5607C45.2236 39.4196 44.9133 39.3153 44.7388 39.2478C44.5707 39.1804 44.4026 39.1067 44.2475 39.027L44.2281 39.0515C44.3639 39.1558 44.6483 39.3889 45.0878 39.7509C45.5209 40.1128 45.8118 40.3459 45.954 40.4502L45.6114 40.8673C45.5791 40.8428 45.2753 40.5606 44.7065 40.0146C44.1376 39.4687 43.7821 39.1435 43.6399 39.0393L44.1441 38.432C44.2669 38.524 44.5966 38.6651 45.1202 38.8491C45.6502 39.0331 45.9734 39.1681 46.0898 39.2601L46.1092 39.2356C45.9928 39.1497 45.7795 38.8736 45.4757 38.4136C45.1719 37.9535 44.9586 37.6774 44.8422 37.5854L45.3399 36.9843C45.5662 37.156 45.9993 37.4321 46.6263 37.8185C47.2533 38.205 47.583 38.4136 47.6218 38.4381M44.7905 41.0452L45.1202 41.3581L43.8984 42.6033C43.6011 42.315 43.2585 42.0022 42.8706 41.6586C42.4957 41.3274 42.1725 41.0513 41.8945 40.8305L43.0581 39.6466L43.3813 39.9594C43.0775 40.2355 42.806 40.4931 42.5733 40.7324C42.7284 40.8489 42.8965 40.9961 43.0904 41.1618C43.2908 40.9593 43.4977 40.7385 43.7174 40.4931L44.0406 40.7753C43.8079 40.9961 43.5882 41.2047 43.3813 41.4133C43.5882 41.5973 43.7885 41.7691 43.976 41.9163C44.241 41.6525 44.5061 41.3581 44.784 41.0391L44.7905 41.0452ZM43.1615 43.1616L42.7607 43.4744C42.722 43.4315 42.3858 43.3211 41.7394 43.1493C41.0607 42.9653 40.634 42.8058 40.453 42.6831L40.4272 42.7015C40.6469 42.9039 40.8344 43.1002 40.9896 43.2842C41.2093 43.5419 41.4808 43.8486 41.8105 44.1983L41.4097 44.505C41.1511 44.1737 40.8603 43.8118 40.5306 43.4315C40.2074 43.0511 39.923 42.7383 39.6838 42.4868L40.1686 42.1126C40.2138 42.1678 40.5371 42.2843 41.1318 42.4561C41.7653 42.6401 42.166 42.7935 42.3276 42.9039L42.3535 42.8855C42.1337 42.6769 41.9398 42.4806 41.7846 42.2966C41.5455 42.0144 41.2934 41.7323 41.0283 41.4501L41.4356 41.1372C41.6424 41.4071 41.9075 41.7323 42.2371 42.1187C42.5668 42.5052 42.8771 42.8548 43.1615 43.1554V43.1616ZM40.6017 45.0019L40.104 45.3086C39.8842 44.9528 39.6321 44.5663 39.3476 44.1553C39.0697 43.7505 38.824 43.4069 38.6107 43.1309L39.1085 42.8242C39.283 43.1125 39.5157 43.4683 39.8001 43.8793C40.091 44.3026 40.3561 44.6767 40.6017 45.008V45.0019ZM39.3412 45.7687L38.7982 46.0324C38.6883 45.83 38.4944 45.4988 38.2099 45.0325C37.9255 44.5663 37.751 44.2719 37.6863 44.1553L37.6605 44.1676C37.6863 44.2473 37.7251 44.3946 37.7704 44.6093C37.8221 44.8301 37.8738 45.1614 37.9255 45.603C37.9772 46.0508 38.0225 46.3085 38.0613 46.3821L37.6476 46.5845C37.6088 46.5109 37.4148 46.3146 37.0722 46.0079C36.7296 45.7012 36.4969 45.4803 36.3677 45.3515C36.2448 45.2227 36.1285 45.0877 36.0251 44.9528L35.9992 44.9651C36.0768 45.1123 36.2319 45.4374 36.4646 45.9404C36.6973 46.4434 36.8525 46.7686 36.9365 46.9219L36.4388 47.1612C36.4194 47.1244 36.2707 46.744 35.9992 46.0263C35.7277 45.3086 35.5467 44.8669 35.4691 44.7136L36.1931 44.3639C36.2642 44.4989 36.4969 44.7504 36.8977 45.1307C37.292 45.511 37.5247 45.7625 37.5958 45.8914L37.6217 45.8791C37.5506 45.7503 37.486 45.419 37.4149 44.8792C37.3437 44.3394 37.2791 44.0081 37.208 43.8793L37.9255 43.5296C38.0548 43.775 38.3198 44.1983 38.7206 44.7994C39.1149 45.4006 39.3283 45.7196 39.3476 45.7625L39.3412 45.7687ZM34.7775 46.3269C34.6805 46.0631 34.5318 45.8729 34.3314 45.7564C34.131 45.6398 33.9242 45.6153 33.7173 45.6828C33.5234 45.7441 33.3877 45.8852 33.3166 46.0938C33.239 46.3024 33.2454 46.5355 33.3424 46.787C33.4394 47.0507 33.5881 47.2409 33.7884 47.3575C33.9888 47.474 34.1957 47.4986 34.4025 47.4311C34.5965 47.3697 34.7322 47.2286 34.8033 47.0201C34.8809 46.8115 34.868 46.5784 34.7775 46.3269ZM35.3075 46.0938C35.4497 46.4803 35.4368 46.8422 35.2817 47.1796C35.1265 47.517 34.8615 47.7439 34.493 47.8605C34.144 47.977 33.8078 47.9525 33.4846 47.7991C33.1614 47.6458 32.9352 47.382 32.8059 47.0262C32.6637 46.6397 32.6766 46.2778 32.8317 45.9404C32.9869 45.603 33.2519 45.3761 33.6204 45.2595C33.9694 45.143 34.3056 45.1675 34.6288 45.3209C34.952 45.4742 35.1718 45.7319 35.3075 46.0938ZM32.431 48.2776L31.8492 48.388C31.7716 47.9525 31.707 47.5783 31.6423 47.2593L30.6016 47.4495C30.6598 47.7317 30.7438 48.1059 30.8537 48.5721L30.2719 48.6825C30.2008 48.2469 30.1168 47.7991 30.0263 47.3452C29.9293 46.879 29.8388 46.4802 29.7483 46.1306L30.3301 46.0202C30.3883 46.3882 30.4529 46.7318 30.5111 47.0446L31.5583 46.8483C31.5001 46.5723 31.4225 46.2349 31.3256 45.8361L31.9074 45.7257C31.9591 46.0631 32.0302 46.468 32.1271 46.9465C32.2306 47.4495 32.3275 47.8912 32.431 48.2776ZM27.0075 46.2901L26.9558 46.7134C26.6778 46.6704 26.4193 46.6397 26.1672 46.6152C26.1413 46.8667 26.1154 47.1428 26.0831 47.4495C26.0379 47.928 26.0056 48.3758 25.9797 48.8052L25.3915 48.7561C25.4496 48.339 25.5013 47.885 25.5466 47.4065C25.5725 47.106 25.5983 46.8238 25.6177 46.5661C25.4238 46.5477 25.1523 46.5355 24.8032 46.5293L24.8614 46.0999L27.0075 46.2778V46.2901ZM23.5621 47.4065C23.4651 46.6888 23.4199 46.3024 23.4328 46.2471H23.4005C23.3876 46.2901 23.1936 46.6336 22.8122 47.2655L23.5621 47.4065ZM24.2861 48.6886L23.6267 48.5659C23.6461 48.4801 23.6267 48.2224 23.5879 47.7991L22.6312 47.6212C22.4179 47.9954 22.308 48.2285 22.2886 48.3206L21.6681 48.204C21.681 48.1549 21.9266 47.7623 22.405 47.0385C22.8898 46.3146 23.1355 45.9098 23.1548 45.83L23.937 45.9711C23.9241 46.0447 23.9823 46.4987 24.1115 47.3329C24.2408 48.1672 24.299 48.615 24.2861 48.6886ZM20.9893 48.0936L20.4981 47.9341C20.5175 47.885 20.4334 47.5476 20.246 46.9403C20.052 46.2962 19.9615 45.8668 19.9809 45.6582L19.9486 45.646C19.884 45.9343 19.8064 46.1858 19.7288 46.4066C19.6189 46.7195 19.4896 47.0998 19.3474 47.5538L18.8562 47.3943C19.0178 47.0078 19.1858 46.5845 19.3539 46.1183C19.522 45.6582 19.6513 45.2656 19.7482 44.9344L20.3365 45.1246C20.3106 45.192 20.3817 45.511 20.5368 46.0815C20.7049 46.6888 20.7825 47.0937 20.7696 47.2839L20.8019 47.2961C20.873 47.0078 20.9506 46.7502 21.0281 46.5232C21.1509 46.1797 21.2673 45.83 21.3837 45.4681L21.8814 45.6276C21.7521 45.9343 21.597 46.3208 21.4289 46.7931C21.2544 47.2654 21.1122 47.6949 20.9893 48.0875V48.0936ZM17.9706 47.0937L17.434 46.8544C17.6344 46.4864 17.8413 46.0815 18.0675 45.6337C18.2808 45.192 18.4618 44.8178 18.5976 44.4989L19.1341 44.7381C18.9661 45.0325 18.7786 45.4067 18.5588 45.8484C18.3326 46.3024 18.1386 46.7195 17.977 47.0937H17.9706ZM16.5743 46.5416L16.0507 46.241C16.1735 46.0447 16.3674 45.7135 16.6325 45.2411C16.8975 44.7688 17.0656 44.4743 17.1367 44.3578L17.1108 44.3394C17.0526 44.4007 16.9428 44.5111 16.7747 44.6645C16.6066 44.8178 16.3351 45.0387 15.9667 45.3147C15.5982 45.5908 15.3914 45.7687 15.3461 45.8361L14.9453 45.6092C14.9906 45.5356 15.0617 45.2779 15.1522 44.8424C15.2427 44.4007 15.3138 44.1001 15.3655 43.9284C15.4172 43.7627 15.4754 43.5971 15.54 43.4376L15.5142 43.4192C15.4237 43.5603 15.2168 43.8609 14.8871 44.3087C14.5639 44.7626 14.3506 45.0632 14.2601 45.2104L13.7818 44.9405C13.8012 44.9037 14.0662 44.5909 14.5639 43.9836C15.0617 43.3824 15.359 43.0082 15.456 42.861L16.1541 43.2597C16.0701 43.3885 15.9667 43.7137 15.8374 44.2289C15.7081 44.7504 15.6047 45.0693 15.5271 45.192L15.553 45.2104C15.6305 45.0877 15.8891 44.8546 16.3351 44.5173C16.7812 44.1799 17.0397 43.9406 17.1238 43.8179L17.8154 44.2105C17.6667 44.4436 17.4276 44.8853 17.0979 45.5233C16.7682 46.1613 16.5937 46.4987 16.5678 46.5355L16.5743 46.5416ZM14.7902 42.4684C14.4928 42.8119 14.1955 43.1616 13.9046 43.5112C13.3293 44.2105 12.741 44.3332 12.1399 43.8854C11.8425 43.6646 11.6809 43.4192 11.6615 43.1554C11.6357 42.8916 11.7908 42.5543 12.1205 42.1555C12.4114 41.8059 12.6893 41.4501 12.9608 41.1065L13.4327 41.4562C13.1289 41.7997 12.838 42.1371 12.5665 42.4684C12.3273 42.7567 12.2045 42.9837 12.198 43.1493C12.1851 43.3149 12.2627 43.456 12.4243 43.5726C12.5924 43.6952 12.7604 43.7382 12.922 43.683C13.0836 43.6339 13.284 43.4621 13.5232 43.1677C13.7882 42.8487 14.0597 42.499 14.3442 42.131L14.7966 42.4622L14.7902 42.4684ZM11.1185 42.5113L10.7695 42.7935L9.58004 41.5789C9.87093 41.3458 10.2265 41.0391 10.6466 40.671C11.0345 40.3275 11.3448 40.0392 11.5839 39.8061L11.9847 40.2171C11.7391 40.4134 11.4159 40.6894 11.0151 41.0452C10.7048 41.3213 10.4527 41.5298 10.2588 41.677C10.5238 41.947 10.8082 42.223 11.1185 42.5052V42.5113ZM9.47662 40.855L9.10169 41.1127L8.02864 39.8061C8.33892 39.5975 8.72031 39.3214 9.1728 38.9902C9.58651 38.6835 9.92911 38.4197 10.1877 38.2111L10.5497 38.6528C10.2911 38.8246 9.94204 39.0761 9.50247 39.3951C9.1728 39.6404 8.9013 39.8306 8.69445 39.9594C8.93362 40.2477 9.19219 40.5483 9.47662 40.855ZM7.45979 39.0883L7.11719 38.6283C7.48565 38.4074 7.87996 38.1498 8.3066 37.8676C8.72677 37.5916 9.07584 37.3462 9.36026 37.1376L9.70286 37.5977C9.40551 37.7756 9.04352 38.0087 8.61688 38.2847C8.18378 38.5731 7.79593 38.8368 7.45979 39.0883Z" fill="#1A1A18"/>
<path d="M162.93 24.6538L160.681 18.4029L158.082 24.6538H162.937H162.93ZM168.677 30.6655H164.236V30.1011H164.521C164.663 30.1011 164.734 29.9723 164.734 29.7146C164.734 29.6349 164.714 29.549 164.682 29.457L163.195 25.3715H157.791C157.222 26.8928 156.938 28.0215 156.938 28.7638C156.938 29.1748 157.074 29.4999 157.345 29.7392C157.617 29.9784 157.966 30.1011 158.399 30.1011H159.052V30.6655H153.506V30.1011C154.436 30.0582 155.277 29.1196 156.033 27.2977L161.101 15.6792H161.831L166.214 27.0278C166.518 27.8743 166.809 28.5062 167.067 28.9294C167.552 29.6901 168.082 30.0827 168.677 30.1011V30.6655ZM152.743 27.7946C150.131 29.9293 147.746 31.0028 145.593 31.0028C143.551 31.0028 141.889 30.279 140.59 28.8435C139.368 27.4756 138.761 25.807 138.761 23.844C138.761 20.74 140.157 18.317 142.943 16.5625C144.268 15.7221 145.871 15.305 147.746 15.305C149.375 15.305 150.92 15.5504 152.368 16.035V19.5807H151.489C151.385 18.4458 150.836 17.5624 149.86 16.9183C148.974 16.3417 147.901 16.0534 146.641 16.0534C144.818 16.0534 143.376 16.7098 142.323 18.0225C141.366 19.2187 140.887 20.7094 140.887 22.4945C140.887 24.3655 141.424 25.942 142.491 27.2302C143.648 28.6104 145.186 29.3036 147.106 29.3036C149.026 29.3036 150.804 28.5675 152.736 27.0891V27.8007L152.743 27.7946ZM137.119 30.6655H131.068V30.1011C131.805 30.095 132.297 29.9539 132.562 29.6901C132.82 29.4202 132.949 28.9356 132.949 28.2362V18.0655C132.949 17.36 132.82 16.8815 132.562 16.6178C132.297 16.3601 131.805 16.2252 131.068 16.2068V15.6424H137.119V16.2068C136.382 16.2252 135.884 16.3601 135.626 16.6178C135.367 16.8754 135.244 17.36 135.244 18.0655V28.2362C135.244 29.4386 135.871 30.0643 137.125 30.1011V30.6655H137.119ZM130.228 26.3653L129.317 30.6655H119.09V30.095C119.827 30.0888 120.325 29.9477 120.583 29.684C120.848 29.414 120.978 28.9294 120.978 28.2301V18.0716C120.978 17.3723 120.848 16.8877 120.583 16.6239C120.325 16.3601 119.827 16.2252 119.09 16.2068V15.6424H125.167V16.2068C124.417 16.2252 123.913 16.354 123.654 16.6116C123.402 16.8631 123.273 17.3539 123.273 18.0716V30.095H124.882C127.377 30.095 128.864 28.8497 129.336 26.3653H130.228ZM110.564 11.3729C110.564 11.5692 110.422 11.8207 110.131 12.1213L108.043 14.3296L107.526 13.9861L109.11 11.195C109.31 10.8514 109.543 10.6797 109.814 10.6797C110.015 10.6797 110.183 10.7472 110.344 10.8821C110.499 11.0171 110.57 11.1827 110.57 11.3729H110.564ZM115.263 24.5127C115.263 23.0711 114.953 21.7215 114.326 20.4456C113.628 19.0654 112.671 18.0348 111.443 17.36C110.267 16.7159 109.161 16.3969 108.14 16.3969C106.511 16.3969 105.212 16.9429 104.229 18.0348C103.305 19.0715 102.846 20.372 102.846 21.9424C102.846 24.0342 103.479 25.8561 104.753 27.4142C106.136 29.1073 107.901 29.96 110.047 29.96C111.585 29.96 112.859 29.414 113.854 28.316C114.798 27.267 115.263 25.9972 115.263 24.5127ZM117.358 22.4393C117.358 23.9913 116.899 25.4696 115.974 26.8744C115.05 28.2792 113.861 29.3343 112.4 30.0398C111.068 30.6839 109.678 31.0028 108.23 31.0028C106.117 31.0028 104.345 30.3219 102.91 28.9601C101.475 27.5983 100.758 25.9113 100.758 23.9115C100.758 21.6295 101.643 19.6236 103.421 17.8937C105.199 16.1638 107.287 15.305 109.691 15.305C112.452 15.305 114.611 16.3724 116.162 18.501C116.964 19.5929 117.364 20.9118 117.364 22.4454L117.358 22.4393ZM99.7364 19.5745H98.8573C98.8379 17.3293 97.5839 16.2068 95.0951 16.2068H94.4293V28.2301C94.4293 29.4386 95.0564 30.0643 96.3104 30.095V30.6593H90.2599V30.095C90.9969 30.0888 91.4946 29.9477 91.7532 29.684C92.0182 29.414 92.1475 28.9294 92.1475 28.2301V16.2068H91.2877C89.0059 16.2068 87.8229 17.3293 87.7518 19.5745H86.8792L86.8598 15.6424H99.7364V19.5745ZM80.8287 24.6538L78.5791 18.4029L75.9805 24.6538H80.8351H80.8287ZM86.5818 30.6655H82.1409V30.1011H82.4253C82.5675 30.1011 82.6386 29.9723 82.6386 29.7146C82.6386 29.6349 82.6193 29.549 82.5869 29.457L81.1002 25.3715H75.6961C75.1273 26.8928 74.8428 28.0215 74.8428 28.7638C74.8428 29.1748 74.9786 29.4999 75.2501 29.7392C75.5216 29.9784 75.8706 30.1011 76.3037 30.1011H76.9566V30.6655H71.4103V30.1011C72.3412 30.0582 73.1815 29.1196 73.9378 27.2977L78.9282 15.6179H79.6587L84.1254 27.0278C84.4292 27.8743 84.7137 28.5062 84.9787 28.9294C85.457 29.6901 85.9936 30.0827 86.5883 30.1011V30.6655H86.5818ZM70.6476 27.7946C68.036 29.9293 65.6508 31.0028 63.4982 31.0028C61.4555 31.0028 59.7942 30.279 58.4949 28.8435C57.2732 27.4756 56.6655 25.807 56.6655 23.844C56.6655 20.74 58.0618 18.317 60.8479 16.5625C62.173 15.7221 63.7761 15.305 65.6508 15.305C67.2797 15.305 68.8247 15.5504 70.2726 16.035V19.5807H69.3935C69.2901 18.4458 68.7406 17.5624 67.7645 16.9183C66.8789 16.3417 65.8059 16.0534 64.5454 16.0534C62.7225 16.0534 61.281 16.7098 60.2273 18.0225C59.2706 19.2187 58.7922 20.7094 58.7922 22.4945C58.7922 24.3655 59.3288 25.942 60.3954 27.2302C61.5525 28.6104 63.0909 29.3036 65.0108 29.3036C66.9307 29.3036 68.7083 28.5675 70.6411 27.0891V27.8007L70.6476 27.7946Z" fill="white"/>
<path d="M144.753 4.92604C144.436 4.34327 144.042 4.04882 143.576 4.04882C143.415 4.04882 143.286 4.09176 143.182 4.17151C143.027 4.30033 142.891 4.5273 142.788 4.84629C142.684 5.17141 142.633 5.66216 142.633 6.32467C142.633 7.05466 142.691 7.59449 142.801 7.94414C142.911 8.2938 143.066 8.54531 143.26 8.70481C143.363 8.78455 143.499 8.82136 143.667 8.82136C144.048 8.82136 144.41 8.53304 144.746 7.96868V4.9199L144.753 4.92604ZM146.589 0.987773V7.67423C146.589 8.12204 146.602 8.38582 146.628 8.46557C146.66 8.60052 146.731 8.70481 146.828 8.76615C146.925 8.83363 147.093 8.87043 147.339 8.88884V9.10354L144.753 9.57589V8.65573C144.443 9.01152 144.171 9.2569 143.932 9.37959C143.693 9.50841 143.421 9.56975 143.117 9.56975C142.342 9.56975 141.728 9.23849 141.275 8.57598C140.913 8.04229 140.726 7.37978 140.726 6.60072C140.726 5.97501 140.842 5.41679 141.062 4.92604C141.288 4.43529 141.598 4.06109 141.993 3.80958C142.387 3.55807 142.807 3.43538 143.26 3.43538C143.551 3.43538 143.809 3.49059 144.035 3.59488C144.262 3.7053 144.501 3.88933 144.759 4.15924V2.39254C144.759 1.957 144.74 1.68709 144.701 1.60121C144.649 1.48466 144.572 1.39878 144.462 1.33743C144.359 1.28222 144.158 1.25155 143.874 1.25155V0.987773H146.595H146.589ZM137.332 8.09137V6.15904C136.802 6.45349 136.414 6.76635 136.156 7.10374C135.987 7.32457 135.903 7.55154 135.903 7.77852C135.903 7.96868 135.975 8.13431 136.123 8.28153C136.233 8.39195 136.382 8.44716 136.582 8.44716C136.802 8.44716 137.054 8.33061 137.338 8.09137H137.332ZM137.332 8.54531C136.589 9.17102 135.916 9.48387 135.322 9.48387C134.973 9.48387 134.682 9.37345 134.449 9.15875C134.216 8.94405 134.1 8.668 134.1 8.34288C134.1 7.9012 134.3 7.50247 134.701 7.14668C135.102 6.79088 135.981 6.32467 137.326 5.73577V5.15301C137.326 4.71747 137.3 4.44142 137.248 4.32487C137.196 4.21445 137.106 4.11017 136.964 4.03042C136.821 3.94454 136.666 3.9016 136.492 3.9016C136.207 3.9016 135.975 3.96294 135.787 4.07949C135.671 4.15311 135.619 4.23899 135.619 4.33714C135.619 4.42302 135.677 4.5273 135.8 4.65612C135.968 4.83402 136.046 5.00578 136.046 5.17141C136.046 5.37384 135.968 5.54561 135.806 5.6867C135.651 5.82779 135.438 5.9014 135.186 5.9014C134.914 5.9014 134.682 5.82165 134.494 5.66829C134.307 5.5088 134.216 5.32477 134.216 5.1162C134.216 4.81562 134.339 4.53344 134.591 4.26352C134.843 3.99361 135.186 3.78504 135.632 3.63782C136.078 3.49673 136.543 3.42312 137.022 3.42312C137.604 3.42312 138.062 3.53967 138.399 3.77278C138.735 4.00588 138.955 4.25739 139.058 4.53344C139.116 4.7052 139.148 5.10393 139.148 5.72964V7.97482C139.148 8.23859 139.161 8.40422 139.181 8.4717C139.2 8.53918 139.232 8.58825 139.278 8.62506C139.323 8.65573 139.375 8.67413 139.426 8.67413C139.543 8.67413 139.659 8.60052 139.782 8.4533L139.976 8.59439C139.756 8.90111 139.53 9.12808 139.297 9.26303C139.064 9.40412 138.799 9.4716 138.502 9.4716C138.153 9.4716 137.881 9.39186 137.681 9.2385C137.487 9.079 137.364 8.8459 137.319 8.53304L137.332 8.54531ZM130.609 4.92604C130.293 4.34327 129.898 4.04882 129.433 4.04882C129.271 4.04882 129.142 4.09176 129.038 4.17151C128.877 4.30033 128.748 4.5273 128.644 4.84629C128.541 5.17141 128.495 5.66216 128.495 6.32467C128.495 7.05466 128.554 7.59449 128.664 7.94414C128.773 8.2938 128.929 8.54531 129.122 8.70481C129.226 8.78455 129.362 8.82136 129.53 8.82136C129.911 8.82136 130.273 8.53304 130.609 7.96868V4.9199V4.92604ZM132.445 0.987773V7.67423C132.445 8.12204 132.458 8.38582 132.484 8.46557C132.516 8.60052 132.587 8.70481 132.684 8.76615C132.781 8.83363 132.949 8.87043 133.195 8.88884V9.10354L130.609 9.57589V8.65573C130.299 9.01152 130.027 9.2569 129.788 9.37959C129.549 9.50841 129.278 9.56975 128.974 9.56975C128.198 9.56975 127.584 9.23849 127.132 8.57598C126.77 8.04229 126.582 7.37978 126.582 6.60072C126.582 5.97501 126.698 5.41679 126.918 4.92604C127.144 4.43529 127.455 4.06109 127.849 3.80958C128.243 3.55807 128.664 3.43538 129.116 3.43538C129.407 3.43538 129.665 3.49059 129.892 3.59488C130.118 3.7053 130.357 3.88933 130.616 4.15924V2.39254C130.616 1.957 130.596 1.68709 130.558 1.60121C130.506 1.48466 130.428 1.39878 130.318 1.33743C130.215 1.28222 130.015 1.25155 129.73 1.25155V0.987773H132.452H132.445ZM125.173 3.60715V8.20792C125.173 8.61892 125.225 8.88884 125.328 8.99926C125.431 9.11581 125.632 9.17715 125.923 9.19555V9.41026H122.587V9.19555C122.865 9.18942 123.072 9.11581 123.201 8.96858C123.292 8.87043 123.337 8.61892 123.337 8.20179V4.80948C123.337 4.39235 123.285 4.1347 123.182 4.01815C123.078 3.9016 122.878 3.84025 122.587 3.82185V3.60715H125.173ZM124.255 0.797607C124.539 0.797607 124.779 0.889623 124.972 1.07979C125.166 1.26995 125.27 1.49693 125.27 1.7607C125.27 2.02448 125.173 2.25145 124.972 2.43548C124.772 2.61951 124.533 2.71766 124.255 2.71766C123.977 2.71766 123.738 2.62565 123.544 2.43548C123.35 2.25145 123.247 2.02448 123.247 1.7607C123.247 1.49693 123.344 1.26995 123.544 1.07979C123.738 0.889623 123.977 0.797607 124.255 0.797607ZM121.437 3.45379L121.534 5.43519H121.307C121.042 4.84629 120.771 4.44756 120.486 4.23285C120.208 4.01815 119.924 3.91387 119.64 3.91387C119.465 3.91387 119.31 3.96907 119.187 4.08563C119.064 4.20218 119 4.331 119 4.47823C119 4.58865 119.045 4.69906 119.129 4.79721C119.265 4.96898 119.652 5.25729 120.292 5.66829C120.932 6.0793 121.346 6.42896 121.553 6.71727C121.753 7.00559 121.857 7.32457 121.857 7.68037C121.857 7.99935 121.773 8.31834 121.605 8.62506C121.437 8.93178 121.197 9.17102 120.894 9.33665C120.583 9.50227 120.247 9.58202 119.872 9.58202C119.581 9.58202 119.193 9.49614 118.709 9.31824C118.579 9.2753 118.489 9.25076 118.444 9.25076C118.301 9.25076 118.185 9.35505 118.088 9.56975H117.862L117.752 7.48407H117.978C118.172 8.02389 118.437 8.43489 118.78 8.70481C119.116 8.97472 119.439 9.10967 119.743 9.10967C119.95 9.10967 120.124 9.04833 120.254 8.92564C120.383 8.80296 120.454 8.65573 120.454 8.48397C120.454 8.28767 120.389 8.11591 120.26 7.96868C120.131 7.82146 119.84 7.60675 119.387 7.3123C118.722 6.87676 118.295 6.53937 118.095 6.3124C117.81 5.97501 117.668 5.60082 117.668 5.18981C117.668 4.742 117.83 4.34327 118.153 3.98134C118.476 3.61942 118.948 3.44152 119.555 3.44152C119.885 3.44152 120.202 3.52127 120.512 3.67462C120.629 3.73597 120.726 3.77278 120.797 3.77278C120.874 3.77278 120.939 3.75437 120.984 3.7237C121.029 3.69303 121.107 3.60101 121.21 3.45379H121.437ZM114.164 3.60715V4.92604C114.572 4.32487 114.927 3.92613 115.231 3.73597C115.535 3.53967 115.826 3.44152 116.11 3.44152C116.356 3.44152 116.55 3.51513 116.692 3.65622C116.834 3.79731 116.912 3.99975 116.912 4.25739C116.912 4.53344 116.841 4.74814 116.698 4.9015C116.556 5.05486 116.388 5.12847 116.188 5.12847C115.955 5.12847 115.761 5.06099 115.593 4.9199C115.425 4.77881 115.321 4.69906 115.296 4.6868C115.25 4.66226 115.199 4.64999 115.147 4.64999C115.024 4.64999 114.901 4.69293 114.791 4.78495C114.61 4.92604 114.481 5.12847 114.384 5.38611C114.248 5.78485 114.177 6.22652 114.177 6.71114V8.04229V8.39195C114.177 8.63119 114.19 8.78455 114.223 8.85203C114.274 8.96245 114.352 9.04833 114.455 9.09741C114.559 9.15261 114.733 9.18329 114.979 9.19555V9.41026H111.656V9.19555C111.921 9.17715 112.102 9.10354 112.199 8.98699C112.296 8.87043 112.341 8.55758 112.341 8.04843V4.83402C112.341 4.49663 112.322 4.28193 112.29 4.18991C112.244 4.07336 112.18 3.98748 112.102 3.93227C112.018 3.87706 111.87 3.84025 111.663 3.81572V3.60101H114.164V3.60715ZM109.264 5.88913C109.264 5.22662 109.226 4.76654 109.148 4.52117C109.071 4.27579 108.954 4.08563 108.793 3.95681C108.702 3.88319 108.579 3.84639 108.424 3.84639C108.198 3.84639 108.01 3.95067 107.868 4.15924C107.61 4.5273 107.48 5.03032 107.48 5.67443V5.88913H109.264ZM110.874 6.30013H107.513C107.551 7.06693 107.771 7.67423 108.159 8.12204C108.463 8.46557 108.825 8.63733 109.245 8.63733C109.51 8.63733 109.743 8.56985 109.956 8.42876C110.169 8.2938 110.402 8.04229 110.641 7.68037L110.868 7.82146C110.538 8.45943 110.169 8.91337 109.769 9.17715C109.368 9.44093 108.902 9.57589 108.372 9.57589C107.467 9.57589 106.776 9.24463 106.31 8.58212C105.935 8.04843 105.748 7.39205 105.748 6.60072C105.748 5.63762 106.026 4.86469 106.575 4.2942C107.125 3.7237 107.771 3.43538 108.515 3.43538C109.135 3.43538 109.672 3.67463 110.124 4.15311C110.577 4.63159 110.822 5.34931 110.861 6.294L110.874 6.30013ZM101.766 9.57589L99.6975 5.07939C99.4518 4.53344 99.2579 4.18378 99.1157 4.03655C99.0123 3.92613 98.8701 3.85866 98.6697 3.81572V3.60101H101.921V3.81572C101.721 3.81572 101.579 3.85252 101.501 3.92C101.398 4.01202 101.346 4.12243 101.346 4.24512C101.346 4.39848 101.443 4.69293 101.63 5.1162L102.639 7.2939L103.44 5.41679C103.673 4.87696 103.789 4.4905 103.789 4.26966C103.789 4.14084 103.738 4.03655 103.641 3.95067C103.544 3.87093 103.369 3.82798 103.124 3.81572V3.60101H105.121V3.81572C104.927 3.84025 104.772 3.90773 104.649 4.02428C104.526 4.1347 104.345 4.46596 104.1 5.01805L102.07 9.56975H101.766V9.57589ZM97.6613 3.60715V8.20792C97.6613 8.61892 97.713 8.88884 97.8099 8.99926C97.9134 9.11581 98.1138 9.17715 98.4111 9.19555V9.41026H95.0756V9.19555C95.3536 9.18942 95.5604 9.11581 95.6897 8.96858C95.7802 8.87043 95.8254 8.61892 95.8254 8.20179V4.80948C95.8254 4.39235 95.7737 4.1347 95.6703 4.01815C95.5669 3.9016 95.3665 3.84025 95.0756 3.82185V3.60715H97.6613ZM96.7369 0.797607C97.0213 0.797607 97.2605 0.889623 97.4544 1.07979C97.6483 1.26995 97.7518 1.49693 97.7518 1.7607C97.7518 2.02448 97.6548 2.25145 97.4544 2.43548C97.254 2.61951 97.0148 2.71766 96.7369 2.71766C96.4589 2.71766 96.2198 2.62565 96.0258 2.43548C95.8319 2.25145 95.7285 2.02448 95.7285 1.7607C95.7285 1.49693 95.8254 1.26995 96.0258 1.07979C96.2198 0.889623 96.4589 0.797607 96.7369 0.797607ZM90.3309 3.60715V4.35554C90.6412 4.03655 90.945 3.80345 91.2359 3.65622C91.5268 3.509 91.8306 3.43538 92.1602 3.43538C92.5546 3.43538 92.8842 3.53967 93.1493 3.74824C93.4078 3.95681 93.5824 4.22058 93.6729 4.5273C93.744 4.76654 93.7763 5.22049 93.7763 5.88913V8.15271C93.7763 8.60052 93.8215 8.87657 93.9056 8.98699C93.9896 9.0974 94.1641 9.16488 94.4356 9.19555V9.41026H91.3393V9.19555C91.572 9.16488 91.7336 9.07287 91.837 8.91951C91.9081 8.81522 91.9405 8.55758 91.9405 8.15271V5.57014C91.9405 5.09166 91.9211 4.79108 91.8823 4.66839C91.8435 4.54571 91.7789 4.44756 91.6819 4.38008C91.5849 4.3126 91.488 4.27579 91.3716 4.27579C90.9967 4.27579 90.6541 4.5273 90.3309 5.02419V8.15271C90.3309 8.58825 90.3761 8.8643 90.4602 8.97472C90.5442 9.09127 90.7058 9.16488 90.9385 9.19555V9.41026H87.8422V9.19555C88.1007 9.17102 88.2817 9.09127 88.3916 8.96245C88.4627 8.87043 88.5015 8.60052 88.5015 8.15271V4.85856C88.5015 4.41688 88.4563 4.14084 88.3722 4.03042C88.2882 3.92 88.1137 3.85252 87.8422 3.81572V3.60101H90.3309V3.60715ZM78.0101 0.987773H82.5932V1.20248H82.3605C82.0115 1.20248 81.7787 1.23928 81.6495 1.30676C81.5202 1.37424 81.4297 1.47239 81.378 1.58894C81.3198 1.71163 81.2939 2.01221 81.2939 2.49683V6.61912C81.2939 7.37365 81.3521 7.87053 81.4749 8.11591C81.5978 8.36128 81.7917 8.56372 82.0632 8.72321C82.3347 8.8827 82.6837 8.96245 83.1039 8.96245C83.5823 8.96245 83.9895 8.85816 84.3321 8.65573C84.6682 8.4533 84.9204 8.17112 85.0884 7.80919C85.2565 7.44726 85.3405 6.82156 85.3405 5.92594V2.49069C85.3405 2.11036 85.2953 1.84045 85.2177 1.67482C85.1337 1.50919 85.0302 1.39878 84.901 1.33743C84.707 1.23928 84.4291 1.19634 84.0671 1.19634V0.981638H87.1311V1.19634H86.9501C86.7045 1.19634 86.4976 1.24542 86.3295 1.33743C86.1615 1.43558 86.0451 1.57667 85.9676 1.76684C85.9094 1.90179 85.8835 2.14103 85.8835 2.48456V5.68056C85.8835 6.6682 85.8124 7.38592 85.6767 7.82146C85.5409 8.26313 85.2048 8.66186 84.6747 9.03606C84.1382 9.40412 83.4207 9.58815 82.4963 9.58815C81.727 9.58815 81.1388 9.49 80.7186 9.2937C80.1498 9.02993 79.7425 8.69254 79.5098 8.2754C79.2771 7.8644 79.1543 7.30617 79.1543 6.60685V2.48456C79.1543 1.99381 79.1284 1.69322 79.0703 1.57667C79.0121 1.46012 78.9151 1.36197 78.7729 1.28836C78.6307 1.22088 78.3786 1.18407 78.0037 1.19021V0.975504L78.0101 0.987773Z" fill="white"/>
</svg>
