<svg width="251" height="91" viewBox="0 0 251 91" fill="none" xmlns="http://www.w3.org/2000/svg">
<rect x="43.2664" y="53.0078" width="207.734" height="28.316" fill="#1C622B"/>
<path d="M211.604 72.2615V68.852C210.722 69.3711 210.063 69.9249 209.629 70.516C209.346 70.9085 209.203 71.3077 209.203 71.7078C209.203 72.0446 209.323 72.3402 209.567 72.5935C209.749 72.7922 210.004 72.8891 210.333 72.8891C210.7 72.8891 211.122 72.6799 211.604 72.2615ZM211.604 73.0686C210.355 74.175 209.23 74.7287 208.239 74.7287C207.651 74.7287 207.164 74.5377 206.776 74.1529C206.39 73.772 206.196 73.2893 206.196 72.7135C206.196 71.9324 206.533 71.229 207.206 70.6052C207.879 69.9805 209.346 69.1514 211.604 68.115V67.0873C211.604 66.3177 211.564 65.8311 211.478 65.6296C211.395 65.431 211.235 65.2554 211 65.1057C210.763 64.9569 210.497 64.8821 210.205 64.8821C209.727 64.8821 209.335 64.9867 209.027 65.1997C208.837 65.3302 208.743 65.4838 208.743 65.6594C208.743 65.8129 208.845 66 209.05 66.2274C209.327 66.5422 209.465 66.8445 209.465 67.1362C209.465 67.4913 209.335 67.7974 209.065 68.0478C208.8 68.2983 208.451 68.4259 208.021 68.4259C207.562 68.4259 207.176 68.2877 206.866 68.0114C206.555 67.734 206.398 67.4097 206.398 67.0393C206.398 66.5115 206.607 66.0106 207.022 65.5327C207.442 65.0577 208.021 64.6911 208.766 64.433C209.514 64.1787 210.288 64.052 211.093 64.052C212.064 64.052 212.835 64.2574 213.4 64.669C213.969 65.0797 214.335 65.525 214.503 66.0067C214.605 66.3138 214.657 67.0163 214.657 68.115V72.0821C214.657 72.5456 214.676 72.8411 214.714 72.9601C214.751 73.0801 214.803 73.1703 214.878 73.2298C214.953 73.2854 215.035 73.3152 215.128 73.3152C215.323 73.3152 215.517 73.1847 215.72 72.9227L216.048 73.177C215.683 73.7192 215.304 74.1155 214.911 74.3583C214.523 74.6059 214.077 74.7287 213.58 74.7287C212.997 74.7287 212.536 74.5895 212.207 74.317C211.878 74.0406 211.679 73.6261 211.604 73.0686ZM200.23 64.3437L200.237 66.6766C200.91 65.6181 201.505 64.9157 202.014 64.5721C202.523 64.2238 203.012 64.052 203.484 64.052C203.892 64.052 204.22 64.1787 204.463 64.4301C204.707 64.6805 204.83 65.0346 204.83 65.4953C204.83 65.9808 204.711 66.3618 204.475 66.6315C204.24 66.9001 203.955 67.0354 203.618 67.0354C203.233 67.0354 202.9 66.9117 202.62 66.665C202.335 66.4146 202.167 66.2764 202.118 66.2505C202.044 66.2054 201.962 66.1833 201.868 66.1833C201.658 66.1833 201.457 66.261 201.27 66.4223C200.97 66.6727 200.746 67.0278 200.593 67.4874C200.36 68.1937 200.244 68.9748 200.244 69.8318L200.252 72.1828V72.7999C200.252 73.2182 200.278 73.4869 200.331 73.6069C200.417 73.8046 200.548 73.9514 200.719 74.0406C200.895 74.1337 201.187 74.1903 201.599 74.2124V74.5943H196.033V74.2124C196.481 74.175 196.784 74.0522 196.942 73.8468C197.098 73.6366 197.177 73.0877 197.177 72.1943V66.5192C197.177 65.9252 197.147 65.5471 197.087 65.383C197.016 65.1738 196.907 65.0241 196.769 64.9272C196.632 64.8293 196.384 64.7621 196.033 64.7247V64.3437H200.23ZM193.747 64.3437V72.463C193.747 73.1923 193.834 73.6597 194.002 73.865C194.174 74.0666 194.507 74.1827 195.004 74.2124V74.5943H189.416V74.2124C189.879 74.198 190.223 74.0666 190.448 73.8132C190.598 73.6443 190.673 73.1923 190.673 72.463V66.4741C190.673 65.7419 190.586 65.2784 190.414 65.073C190.242 64.8706 189.909 64.7544 189.416 64.7247V64.3437H193.747ZM192.206 59.3864C192.681 59.3864 193.081 59.5514 193.41 59.8844C193.74 60.2164 193.904 60.6166 193.904 61.0839C193.904 61.5551 193.74 61.9514 193.406 62.2806C193.073 62.6087 192.674 62.7738 192.206 62.7738C191.735 62.7738 191.338 62.6087 191.009 62.2806C190.68 61.9514 190.515 61.5551 190.515 61.0839C190.515 60.6166 190.68 60.2164 191.009 59.8844C191.338 59.5514 191.735 59.3864 192.206 59.3864ZM185.783 68.3808C185.783 67.2072 185.719 66.3992 185.592 65.9626C185.461 65.525 185.264 65.192 184.994 64.9675C184.841 64.837 184.635 64.7698 184.377 64.7698C183.999 64.7698 183.689 64.9569 183.445 65.3273C183.015 65.977 182.799 66.8666 182.799 67.9999V68.3808H185.783ZM188.477 69.0986H182.843C182.91 70.4555 183.273 71.5284 183.932 72.3172C184.437 72.9227 185.043 73.2259 185.753 73.2259C186.195 73.2259 186.592 73.1021 186.951 72.8594C187.309 72.6166 187.695 72.1751 188.102 71.5437L188.477 71.7903C187.923 72.915 187.306 73.7153 186.636 74.1827C185.963 74.65 185.185 74.8851 184.299 74.8851C182.78 74.8851 181.627 74.3026 180.846 73.1357C180.218 72.1972 179.903 71.0313 179.903 69.637C179.903 67.9327 180.367 66.5758 181.29 65.5663C182.215 64.5568 183.3 64.052 184.542 64.052C185.578 64.052 186.479 64.4742 187.243 65.3225C188.005 66.1718 188.417 67.4318 188.477 69.0986ZM174.476 64.3437L174.482 66.6766C175.156 65.6181 175.751 64.9157 176.26 64.5721C176.769 64.2238 177.258 64.052 177.73 64.052C178.138 64.052 178.466 64.1787 178.709 64.4301C178.953 64.6805 179.076 65.0346 179.076 65.4953C179.076 65.9808 178.957 66.3618 178.721 66.6315C178.485 66.9001 178.201 67.0354 177.864 67.0354C177.479 67.0354 177.146 66.9117 176.866 66.665C176.581 66.4146 176.413 66.2764 176.364 66.2505C176.289 66.2054 176.207 66.1833 176.114 66.1833C175.904 66.1833 175.703 66.261 175.515 66.4223C175.216 66.6727 174.991 67.0278 174.838 67.4874C174.606 68.1937 174.49 68.9748 174.49 69.8318L174.498 72.1828V72.7999C174.498 73.2182 174.524 73.4869 174.576 73.6069C174.662 73.8046 174.793 73.9514 174.965 74.0406C175.141 74.1337 175.433 74.1903 175.844 74.2124V74.5943H170.278V74.2124C170.727 74.175 171.03 74.0522 171.188 73.8468C171.344 73.6366 171.423 73.0877 171.423 72.1943V66.5192C171.423 65.9252 171.393 65.5471 171.333 65.383C171.262 65.1738 171.153 65.0241 171.015 64.9272C170.877 64.8293 170.63 64.7621 170.278 64.7247V64.3437H174.476ZM166.265 68.3808C166.265 67.2072 166.201 66.3992 166.074 65.9626C165.943 65.525 165.744 65.192 165.475 64.9675C165.322 64.837 165.116 64.7698 164.858 64.7698C164.48 64.7698 164.169 64.9569 163.927 65.3273C163.496 65.977 163.279 66.8666 163.279 67.9999V68.3808H166.265ZM168.958 69.0986H163.324C163.392 70.4555 163.755 71.5284 164.413 72.3172C164.918 72.9227 165.524 73.2259 166.234 73.2259C166.676 73.2259 167.072 73.1021 167.431 72.8594C167.79 72.6166 168.176 72.1751 168.584 71.5437L168.958 71.7903C168.404 72.915 167.787 73.7153 167.117 74.1827C166.444 74.65 165.666 74.8851 164.779 74.8851C163.261 74.8851 162.109 74.3026 161.327 73.1357C160.698 72.1972 160.384 71.0313 160.384 69.637C160.384 67.9327 160.848 66.5758 161.772 65.5663C162.696 64.5568 163.781 64.052 165.023 64.052C166.058 64.052 166.96 64.4742 167.723 65.3225C168.487 66.1718 168.898 67.4318 168.958 69.0986ZM151.859 60.5753V67.0124C152.102 67.0278 152.286 67.0354 152.409 67.0354C153.304 67.0354 153.995 66.7696 154.478 66.239C154.96 65.7083 155.204 64.8859 155.204 63.7718C155.204 62.6654 154.96 61.8574 154.478 61.3459C153.995 60.8335 153.269 60.5753 152.312 60.5753H151.859ZM151.859 67.8646V71.9919C151.859 72.8027 151.907 73.3113 152.009 73.5215C152.106 73.7297 152.282 73.8986 152.536 74.0253C152.787 74.1491 153.251 74.2124 153.924 74.2124V74.5943H146.36V74.2124C147.049 74.2124 147.516 74.1491 147.76 74.0186C148.007 73.8909 148.179 73.723 148.276 73.5176C148.377 73.3113 148.426 72.8027 148.426 71.9919V62.3247C148.426 61.5138 148.377 61.0052 148.276 60.796C148.179 60.5868 148.007 60.4179 147.755 60.2913C147.505 60.1684 147.041 60.1041 146.36 60.1041V59.7232H152.847C154.983 59.7232 156.517 60.1041 157.444 60.8632C158.375 61.6261 158.839 62.5752 158.839 63.7152C158.839 64.6834 158.54 65.5097 157.938 66.1977C157.339 66.8857 156.513 67.3531 155.458 67.6035C154.751 67.7792 153.55 67.8646 151.859 67.8646ZM136.983 68.3808C136.983 67.2072 136.919 66.3992 136.793 65.9626C136.661 65.525 136.463 65.192 136.193 64.9675C136.041 64.837 135.834 64.7698 135.576 64.7698C135.199 64.7698 134.888 64.9569 134.645 65.3273C134.215 65.977 133.998 66.8666 133.998 67.9999V68.3808H136.983ZM139.676 69.0986H134.042C134.111 70.4555 134.473 71.5284 135.131 72.3172C135.636 72.9227 136.242 73.2259 136.953 73.2259C137.395 73.2259 137.791 73.1021 138.15 72.8594C138.508 72.6166 138.895 72.1751 139.303 71.5437L139.676 71.7903C139.123 72.915 138.506 73.7153 137.835 74.1827C137.162 74.65 136.384 74.8851 135.497 74.8851C133.979 74.8851 132.827 74.3026 132.045 73.1357C131.416 72.1972 131.102 71.0313 131.102 69.637C131.102 67.9327 131.566 66.5758 132.49 65.5663C133.415 64.5568 134.499 64.052 135.741 64.052C136.777 64.052 137.679 64.4742 138.441 65.3225C139.205 66.1718 139.617 67.4318 139.676 69.0986ZM125.376 66.6766C124.841 65.644 124.182 65.1287 123.408 65.1287C123.139 65.1287 122.918 65.1997 122.743 65.3456C122.477 65.574 122.256 65.9703 122.084 66.5374C121.916 67.1065 121.829 67.9768 121.829 69.1476C121.829 70.4373 121.923 71.3902 122.114 72.0111C122.301 72.631 122.559 73.0762 122.885 73.3526C123.053 73.4917 123.281 73.5618 123.569 73.5618C124.209 73.5618 124.811 73.058 125.376 72.0523V66.6766ZM128.45 59.7232V71.5217C128.45 72.3095 128.472 72.7768 128.518 72.9227C128.574 73.1626 128.686 73.3411 128.851 73.4572C129.012 73.5733 129.3 73.6443 129.707 73.675V74.056L125.376 74.8851V73.2633C124.86 73.8909 124.399 74.3208 123.996 74.5454C123.591 74.7738 123.135 74.8851 122.626 74.8851C121.324 74.8851 120.292 74.3026 119.536 73.1357C118.927 72.1905 118.62 71.0275 118.62 69.6485C118.62 68.5488 118.811 67.5623 119.189 66.6909C119.567 65.8206 120.083 65.1623 120.745 64.717C121.403 64.2727 122.11 64.052 122.865 64.052C123.352 64.052 123.785 64.146 124.164 64.3361C124.541 64.527 124.945 64.8552 125.376 65.3302V62.2134C125.376 61.439 125.342 60.9716 125.279 60.8104C125.188 60.6012 125.058 60.4486 124.882 60.3469C124.706 60.2462 124.377 60.1934 123.895 60.1934V59.7232H128.45Z" fill="white"/>
<path d="M131.776 85.3842V90.5517H130.727L128.729 87.0616C128.732 87.1489 128.735 87.2074 128.737 87.2362C128.747 87.3235 128.752 87.3984 128.752 87.4589V90.5517H127.806V85.3842H129.117L130.861 88.4309C130.846 88.2803 130.838 88.1651 130.838 88.0864V85.3842H131.776ZM125.775 83.6098L126.062 84.2441L124.398 84.9504L124.209 84.5282L125.775 83.6098ZM124.825 86.291C124.192 86.291 123.875 86.8485 123.875 87.9655C123.875 89.0844 124.192 89.6449 124.825 89.6449C125.437 89.6449 125.744 89.0864 125.744 87.9694C125.744 86.8495 125.437 86.291 124.825 86.291ZM124.789 90.6294C124.095 90.6294 123.556 90.3684 123.175 89.8464C122.794 89.3234 122.604 88.692 122.604 87.9511C122.604 87.1969 122.796 86.5683 123.183 86.0636C123.569 85.5588 124.118 85.3074 124.833 85.3074C125.554 85.3074 126.097 85.5751 126.464 86.1135C126.832 86.6518 127.015 87.2688 127.015 87.9626C127.015 88.7121 126.826 89.3426 126.448 89.8569C126.069 90.3722 125.517 90.6294 124.789 90.6294ZM121.817 85.3842V90.5517H120.608V85.3842H121.817ZM119.906 87.3111L118.634 87.3907C118.616 86.6576 118.334 86.291 117.784 86.291C117.152 86.291 116.836 86.8524 116.836 87.977C116.836 88.6267 116.921 89.0672 117.093 89.2975C117.265 89.5287 117.504 89.6449 117.812 89.6449C118.312 89.6449 118.616 89.3195 118.728 88.6689L119.906 88.7409C119.83 89.357 119.599 89.8272 119.216 90.1477C118.831 90.4692 118.36 90.6294 117.803 90.6294C117.119 90.6294 116.563 90.3934 116.136 89.9212C115.709 89.4501 115.495 88.7985 115.495 87.9655C115.495 87.1873 115.702 86.5491 116.115 86.0521C116.529 85.555 117.094 85.3074 117.811 85.3074C119.051 85.3074 119.749 85.9743 119.906 87.3111ZM112.359 88.5298H113.452L112.911 86.719L112.359 88.5298ZM113.748 85.3842L115.357 90.5517H114.055L113.736 89.4827H112.069L111.743 90.5517H110.683L112.337 85.3842H113.748ZM110.553 87.3111L109.282 87.3907C109.264 86.6576 108.98 86.291 108.43 86.291C107.798 86.291 107.483 86.8524 107.483 87.977C107.483 88.6267 107.569 89.0672 107.741 89.2975C107.912 89.5287 108.151 89.6449 108.459 89.6449C108.958 89.6449 109.264 89.3195 109.375 88.6689L110.553 88.7409C110.477 89.357 110.247 89.8272 109.863 90.1477C109.478 90.4692 109.006 90.6294 108.449 90.6294C107.766 90.6294 107.211 90.3934 106.782 89.9212C106.355 89.4501 106.142 88.7985 106.142 87.9655C106.142 87.1873 106.348 86.5491 106.762 86.0521C107.175 85.555 107.742 85.3074 108.457 85.3074C109.698 85.3074 110.397 85.9743 110.553 87.3111ZM105.426 85.3842V88.6008C105.426 89.1209 105.367 89.5067 105.248 89.76C105.13 90.0143 104.911 90.2225 104.591 90.3847C104.272 90.5478 103.865 90.6294 103.368 90.6294C102.87 90.6294 102.475 90.5555 102.182 90.4097C101.887 90.2638 101.667 90.0556 101.521 89.785C101.375 89.5143 101.302 89.1209 101.302 88.6008V85.3842H102.612V88.6027C102.612 88.881 102.635 89.0864 102.682 89.2169C102.728 89.3483 102.822 89.4529 102.963 89.5307C103.102 89.6065 103.275 89.6449 103.479 89.6449C103.706 89.6449 103.891 89.6074 104.033 89.5316C104.175 89.4548 104.271 89.356 104.318 89.2313C104.365 89.1055 104.388 88.8963 104.388 88.6027V85.3842H105.426ZM97.5153 86.3371V89.5834H98.0127C98.4534 89.5834 98.7799 89.4184 98.9931 89.0883C99.2062 88.7591 99.3138 88.3724 99.3138 87.9281C99.3138 87.6153 99.2523 87.3245 99.1304 87.0587C99.0084 86.7929 98.8577 86.6058 98.6762 86.4992C98.4957 86.3918 98.2777 86.3371 98.0242 86.3371H97.5153ZM96.3294 85.3842H97.9051C98.5475 85.3842 99.0257 85.4734 99.3407 85.6509C99.6566 85.8294 99.9379 86.1096 100.187 86.4964C100.436 86.8812 100.561 87.3667 100.561 87.955C100.561 88.6939 100.343 89.3119 99.9082 89.808C99.4722 90.3041 98.8721 90.5517 98.1058 90.5517H96.3294V85.3842ZM95.6016 86.3678H93.1444V87.4291H95.0744V88.3974H93.1444V89.5287H95.6016V90.5517H91.9114V85.3842H95.6016V86.3678ZM90.8686 85.3842V90.5517H89.8201L87.8218 87.0616C87.8247 87.1489 87.8276 87.2074 87.8295 87.2362C87.8401 87.3235 87.8459 87.3984 87.8459 87.4589V90.5517H86.8991V85.3842H88.2098L89.9545 88.4309C89.9391 88.2803 89.9305 88.1651 89.9305 88.0864V85.3842H90.8686ZM85.8649 85.3842V90.5517H84.655V85.3842H85.8649ZM80.2649 90.5517L79.0051 86.3371V90.5517H77.9892V85.3842H79.876L80.7767 88.477L81.7292 85.3842H83.618V90.5517H82.4004V86.3371L81.1032 90.5517H80.2649ZM73.07 86.291C72.4362 86.291 72.1203 86.8485 72.1203 87.9655C72.1203 89.0844 72.4362 89.6449 73.07 89.6449C73.6816 89.6449 73.9879 89.0864 73.9879 87.9694C73.9879 86.8495 73.6816 86.291 73.07 86.291ZM73.0344 90.6294C72.3402 90.6294 71.8005 90.3684 71.4193 89.8464C71.0381 89.3234 70.849 88.692 70.849 87.9511C70.849 87.1969 71.041 86.5683 71.428 86.0636C71.814 85.5588 72.3632 85.3074 73.0776 85.3074C73.7988 85.3074 74.3422 85.5751 74.709 86.1135C75.0759 86.6518 75.2593 87.2688 75.2593 87.9626C75.2593 88.7121 75.0711 89.3426 74.6927 89.8569C74.3134 90.3722 73.7623 90.6294 73.0344 90.6294ZM67.2558 86.3371V89.5834H67.7532C68.1939 89.5834 68.5204 89.4184 68.7336 89.0883C68.9468 88.7591 69.0543 88.3724 69.0543 87.9281C69.0543 87.6153 68.9928 87.3245 68.8709 87.0587C68.7489 86.7929 68.5982 86.6058 68.4167 86.4992C68.2362 86.3918 68.0182 86.3371 67.7647 86.3371H67.2558ZM66.069 85.3842H67.6456C68.288 85.3842 68.7662 85.4734 69.0812 85.6509C69.3961 85.8294 69.6784 86.1096 69.9281 86.4964C70.1768 86.8812 70.3016 87.3667 70.3016 87.955C70.3016 88.6939 70.0837 89.3119 69.6487 89.808C69.2127 90.3041 68.6116 90.5517 67.8454 90.5517H66.069V85.3842ZM62.5152 88.5298H63.6079L63.0664 86.719L62.5152 88.5298ZM63.9037 85.3842L65.513 90.5517H64.2109L63.8921 89.4827H62.2252L61.8987 90.5517H60.8377L62.4931 85.3842H63.9037ZM58.6791 89.5287H60.733V90.5517H57.4538V85.3842H58.6791V89.5287ZM56.4187 85.3842V90.5517H55.2098V85.3842H56.4187ZM54.2553 87.7861V90.5517H53.7042C53.6648 90.3578 53.6062 90.1592 53.5304 89.9577C53.1617 90.4058 52.6921 90.6294 52.1208 90.6294C51.4467 90.6294 50.9215 90.3876 50.547 89.9059C50.1706 89.4241 49.9833 88.8023 49.9833 88.0375C49.9833 87.2151 50.184 86.5559 50.5844 86.0559C50.9839 85.5559 51.5274 85.3074 52.2139 85.3074C52.79 85.3074 53.2538 85.4686 53.6082 85.7901C53.9606 86.1125 54.1766 86.5415 54.2553 87.0769L53.1079 87.2276C53.0147 86.6029 52.7161 86.291 52.2149 86.291C51.8855 86.291 51.6378 86.4397 51.4697 86.7363C51.2998 87.0328 51.2162 87.4569 51.2162 88.0078C51.2162 88.5384 51.3075 88.9443 51.4899 89.2245C51.6723 89.5047 51.9316 89.6449 52.2677 89.6449C52.4866 89.6449 52.6796 89.5738 52.8515 89.4337C53.0224 89.2917 53.1079 89.0652 53.1079 88.7543H52.1313V87.7861H54.2553ZM49.1969 85.3842V90.5517H47.988V85.3842H49.1969ZM47.5175 85.3842L45.959 90.5517H44.656L43.1062 85.3842H44.3939L45.428 89.0796L46.5092 85.3842H47.5175Z" fill="#141513"/>
<path fill-rule="evenodd" clip-rule="evenodd" d="M0 40.4152C0 18.0945 18.1108 0 40.4513 0C62.7928 0 80.9036 18.0945 80.9036 40.4152C80.9036 57.1557 70.7166 71.5182 56.197 77.654C51.3575 79.699 46.0369 80.8294 40.4513 80.8294C18.1108 80.8294 0 62.7359 0 40.4152Z" fill="white"/>
<path fill-rule="evenodd" clip-rule="evenodd" d="M1.63818 40.4834C1.63818 19.0715 19.0115 1.71399 40.4437 1.71399C61.8749 1.71399 79.2472 19.0715 79.2472 40.4834C79.2472 56.5426 69.4751 70.3207 55.548 76.2061C50.9053 78.1675 45.8008 79.2528 40.4437 79.2528C19.0115 79.2528 1.63818 61.8953 1.63818 40.4834Z" fill="#040506"/>
<path fill-rule="evenodd" clip-rule="evenodd" d="M2.32397 40.4236C2.32397 19.4118 19.3718 2.37866 40.4035 2.37866C61.4334 2.37866 78.4812 19.4118 78.4812 40.4236C78.4812 61.4344 61.4334 78.4675 40.4035 78.4675C19.3718 78.4675 2.32397 61.4344 2.32397 40.4236Z" fill="#C30010"/>
<path fill-rule="evenodd" clip-rule="evenodd" d="M31.1861 29.412C30.971 29.0694 30.7568 28.6961 30.5245 28.3814C28.1518 25.1782 29.932 24.3951 29.4673 22.6582C28.8153 20.2285 24.7622 19.9214 26.8967 15.1598C26.9447 16.3824 28.4033 18.7257 30.3276 19.2017C31.767 19.5577 33.7383 20.5845 33.7835 22.7398C33.8411 25.468 35.2814 25.8211 36.3809 26.9017L34.3826 16.4956L37.8356 26.0399C37.8366 25.5486 37.8615 25.0352 37.8154 24.6255C37.3632 20.6661 39.298 20.8772 39.7637 19.1413C40.4157 16.7105 37.0597 14.4199 41.2905 11.3626C40.7201 12.446 40.8104 15.203 42.2382 16.5772C43.307 17.6049 44.5005 19.479 43.4616 21.3676C42.0375 23.9547 43.1495 24.9536 43.5249 26.5946L46.9721 16.5647L45.1093 26.9928C45.3359 26.5696 45.6499 26.1292 45.8314 25.7098C47.4215 22.0556 48.9915 23.2043 50.2638 21.9337C52.044 20.1546 50.2849 16.4956 55.4788 15.9611C54.4427 16.6146 53.1406 19.0472 53.6898 20.9501C54.1008 22.3732 54.1978 24.5928 52.3513 25.7098C49.9363 27.1704 50.2167 28.4265 49.7097 29.8976L57.8351 22.7561L50.9042 30.9819C51.3565 30.7641 51.9259 30.6039 52.2966 30.3294C55.5028 27.9592 56.2863 29.7383 58.0243 29.2738C60.4575 28.6223 60.7648 24.5736 65.5304 26.7059C64.3061 26.7539 61.9612 28.2106 61.484 30.1327C61.1277 31.5712 60.1003 33.5412 57.9436 33.5863C55.3117 33.641 54.9775 34.6179 53.9088 35.5977L64.1553 33.6996L54.4004 37.2281C54.796 37.1897 55.2137 37.1791 55.5796 37.1369C59.5424 36.6859 59.3302 38.6186 61.0682 39.084C63.5005 39.7346 65.7935 36.3827 68.8537 40.6098C67.7687 40.0398 65.009 40.13 63.6339 41.5569C62.6055 42.624 60.7302 43.8168 58.8395 42.7785C56.3237 41.3967 55.4279 42.41 53.9328 42.7718L64.0641 46.3646L53.5583 44.4914C53.9549 44.7409 54.3466 45.1219 54.7586 45.3004C58.4161 46.8895 57.2657 48.4575 58.538 49.728C60.3192 51.5072 63.9815 49.7491 64.5164 54.9388C63.8625 53.9043 61.4273 52.603 59.5223 53.1519C58.0982 53.5627 55.8763 53.6586 54.7586 51.8152C53.3067 49.42 52.1986 49.4162 50.7938 48.9728L57.8678 57.2169L50.0621 50.6512C50.2465 51.0293 50.427 51.4429 50.6652 51.7643C53.0379 54.9675 51.2566 55.7506 51.7224 57.4875C52.3743 59.9172 56.4265 60.2243 54.2919 64.9859C54.2439 63.7634 52.7863 61.42 50.862 60.944C49.4226 60.588 47.4503 59.5612 47.4052 57.4059C47.3476 54.6461 46.5131 54.3563 45.4444 53.2297L46.9145 63.2145L43.6517 54.2219C43.6546 54.5578 43.6574 54.8985 43.692 55.2036C44.1433 59.162 42.2094 58.9509 41.7437 60.6868C41.0927 63.1176 44.4477 65.4082 40.217 68.4655C40.7873 67.3811 40.6971 64.6241 39.2692 63.2509C38.2005 62.2232 37.006 60.3491 38.0459 58.4596C39.493 55.8293 38.5039 55.0078 38.2149 53.3467L34.5555 63.7586L36.3809 53.4533C36.2023 53.8189 35.991 54.1931 35.8393 54.5415C34.2492 58.1957 32.6802 57.047 31.4079 58.3176C29.6267 60.0967 31.3867 63.7567 26.1919 64.2912C27.228 63.6377 28.531 61.2041 27.9808 59.3021C27.5699 57.8781 27.4738 55.6585 29.3194 54.5415C31.6086 53.1567 31.4184 51.8795 31.8429 50.4583L23.534 57.5671L29.7476 49.492C29.4433 49.6398 29.1379 49.7933 28.8921 49.9756C25.6869 52.3459 24.9024 50.5667 23.1653 51.0322C20.7321 51.6828 20.4248 55.7314 15.6583 53.5991C16.8826 53.5511 19.2284 52.0944 19.7047 50.1723C20.0609 48.7339 21.0883 46.7638 23.246 46.7187C25.9269 46.663 26.7028 45.4069 27.784 44.3398L17.0544 46.3636L27.2904 42.6624C26.7402 42.7651 26.0431 42.7823 25.4506 42.8495C21.4878 43.3015 21.699 41.3688 19.962 40.9034C17.5288 40.2528 15.2367 43.6047 12.1765 39.3776C13.2606 39.9476 16.0212 39.8584 17.3953 38.4305C18.4237 37.3634 20.3 36.1696 22.1907 37.2089C24.5519 38.5063 25.5275 37.7031 27.0091 37.2751L17.1457 33.641L27.446 35.4797C27.059 35.2705 26.6567 35.0123 26.2716 34.8454C22.6141 33.2562 23.7645 31.6882 22.4922 30.4177C20.711 28.6386 17.0487 30.3966 16.5138 25.207C17.1678 26.2424 19.6029 27.5427 21.508 26.9938C22.932 26.584 25.1539 26.4871 26.2716 28.3315C27.6255 30.5655 28.7797 30.5904 30.1951 30.9762L23.5014 22.9471L31.1861 29.412Z" fill="#FFC900"/>
<path d="M73.7122 45.076C74.8232 44.8543 75.4224 44.7488 75.5088 44.7584L75.5155 44.7094C75.4349 44.6989 74.8799 44.4455 73.8515 43.9475L73.7122 45.076ZM71.7841 46.2928L71.906 45.3015C72.0424 45.3188 72.4409 45.2718 73.1006 45.1614L73.2772 43.7287C72.6742 43.4581 72.2997 43.3132 72.1528 43.2959L72.2671 42.3622C72.3477 42.3718 72.9796 42.6942 74.1635 43.3295C75.3475 43.9648 76.0014 44.2891 76.1281 44.3054L75.9841 45.4771C75.866 45.4627 75.165 45.598 73.8793 45.884C72.5945 46.1709 71.8945 46.3062 71.7841 46.2928ZM75.1631 40.7673C75.5779 40.7529 75.7748 40.4794 75.7565 39.9469C75.7498 39.752 75.7297 39.5793 75.6951 39.4306C75.3734 39.4642 74.9528 39.4901 74.4343 39.5083C74.4343 39.6225 74.4353 39.7204 74.4381 39.8C74.4612 40.4612 74.7032 40.7836 75.1631 40.7673ZM72.3305 42.0379L72.2978 41.1147C73.0266 40.847 73.475 40.6464 73.6431 40.5111C73.8111 40.3758 73.8908 40.1656 73.8803 39.8778C73.8764 39.7578 73.8707 39.6417 73.8659 39.5313C73.331 39.5505 72.7904 39.5793 72.245 39.6158L72.2152 38.7483C72.8451 38.754 73.5547 38.7425 74.3441 38.7157C75.1017 38.6888 75.7488 38.6523 76.2818 38.6072L76.301 39.1475C76.3029 39.2089 76.3106 39.3394 76.324 39.5381C76.3375 39.7367 76.3471 39.92 76.3528 40.0879C76.3865 41.0437 76.0753 41.5321 75.4214 41.5552C74.9039 41.5734 74.5323 41.3133 74.3104 40.776L74.2634 40.7779C74.2115 40.989 74.0541 41.179 73.79 41.346C73.5259 41.5149 73.0391 41.7452 72.3305 42.0379ZM72.1595 37.6447L72.0827 36.7648C72.728 36.735 73.4376 36.687 74.2067 36.6199C74.9644 36.5536 75.6077 36.4836 76.1368 36.4107L76.2136 37.2906C75.6884 37.3098 75.0431 37.352 74.2768 37.4192C73.4943 37.4883 72.7885 37.5632 72.1595 37.6447ZM72.6589 35.6785L71.979 35.785L71.4711 33.1768C72.0942 33.0827 72.7933 32.9609 73.5682 32.8102C74.3124 32.6662 74.9461 32.529 75.4656 32.4004L75.9495 34.8897L75.2716 34.9866C75.1852 34.3676 75.094 33.8072 74.997 33.3102C74.7157 33.385 74.3824 33.4608 73.9964 33.5357C74.079 33.9617 74.1799 34.4175 74.296 34.8993L73.6556 35.024C73.5826 34.5423 73.5039 34.0826 73.4193 33.647C73.0045 33.7276 72.6166 33.812 72.2584 33.8994C72.3669 34.4588 72.5004 35.0518 72.6589 35.6785ZM73.718 30.392C74.1097 30.2576 74.2183 29.9381 74.0445 29.4343C73.9811 29.25 73.9119 29.0898 73.8351 28.9583C73.5375 29.085 73.1428 29.2327 72.6521 29.4007C72.6857 29.5101 72.7146 29.6032 72.7414 29.678C72.9565 30.3046 73.282 30.5417 73.718 30.392ZM71.3808 32.435L71.0793 31.5617C71.6977 31.0925 72.0674 30.7691 72.1893 30.5906C72.3103 30.4131 72.3247 30.1885 72.2306 29.916C72.1912 29.8018 72.1528 29.6924 72.1163 29.5888C71.6093 29.7634 71.1014 29.9486 70.5905 30.1434L70.3082 29.3229C70.9113 29.1435 71.5872 28.9257 72.3333 28.6685C73.0506 28.4219 73.6585 28.1983 74.1549 27.9996L74.3316 28.5102C74.3517 28.5687 74.3969 28.6915 74.4679 28.8767C74.539 29.0639 74.6014 29.2356 74.6571 29.3949C74.9682 30.2989 74.8146 30.8574 74.1962 31.0694C73.7055 31.2383 73.2744 31.0982 72.9047 30.6491L72.8605 30.6645C72.873 30.8823 72.7779 31.1098 72.5734 31.3468C72.3708 31.5848 71.9733 31.9475 71.3808 32.435ZM70.6193 28.1839L69.9856 28.4516L68.8612 26.0439C69.4431 25.8021 70.0922 25.5152 70.8066 25.1812C71.4941 24.8617 72.076 24.5748 72.5484 24.3253L73.622 26.6236L72.9873 26.8817C72.753 26.3011 72.5283 25.78 72.3141 25.3204C72.0597 25.4615 71.7543 25.615 71.3981 25.781C71.5815 26.1754 71.7899 26.5928 72.0193 27.0323L71.4279 27.3078C71.2406 26.8587 71.0524 26.4316 70.8652 26.0295C70.482 26.208 70.1258 26.3827 69.7993 26.5545C70.0413 27.0707 70.313 27.6148 70.6193 28.1839ZM70.4763 23.0221C70.8508 22.7793 70.8767 22.4108 70.554 21.9147C70.4734 21.7909 70.3754 21.6681 70.2593 21.5481C69.9414 21.7804 69.5737 22.0328 69.156 22.3043C69.1819 22.3494 69.2126 22.4012 69.2501 22.4588C69.6649 23.097 70.073 23.2841 70.4763 23.0221ZM71.0591 23.6046C70.6424 23.8752 70.2333 23.9213 69.8329 23.7399C69.4325 23.5585 69.0849 23.2438 68.792 22.7928C68.7383 22.7112 68.7027 22.6517 68.6835 22.6143C68.3551 22.8283 67.9288 23.1181 67.4026 23.4866L66.9244 22.7505C67.4429 22.4463 68.0459 22.0711 68.7306 21.6268C69.3605 21.219 69.8953 20.8553 70.337 20.5367L70.6328 20.9925C70.675 21.0568 70.7586 21.1797 70.8824 21.3591C71.0073 21.5395 71.1129 21.6959 71.2003 21.8312C71.4163 22.1623 71.5229 22.4905 71.521 22.8168C71.5191 23.144 71.3664 23.406 71.0591 23.6046ZM65.2767 19.2882L64.7649 19.7489L62.9174 17.8373C63.3889 17.4189 63.9083 16.9362 64.4768 16.3883C65.0222 15.8624 65.4783 15.4028 65.8442 15.0122L67.6071 16.8374L67.0915 17.2865C66.6815 16.8144 66.2993 16.395 65.9459 16.0304C65.752 16.2463 65.5138 16.491 65.2306 16.7635C65.533 17.0763 65.8653 17.4036 66.2254 17.7442L65.7558 18.1981C65.4322 17.8335 65.1153 17.4909 64.8081 17.1713C64.5037 17.465 64.2243 17.7461 63.9708 18.0139C64.3673 18.4246 64.8023 18.8497 65.2767 19.2882ZM62.9087 15.0861C63.1661 14.78 63.2928 14.447 63.2909 14.0871C63.288 13.7273 63.1037 13.3943 62.7369 13.0863C62.6677 13.0287 62.5669 12.9567 62.4354 12.8703C62.1828 13.2033 61.9111 13.543 61.6192 13.8904C61.2994 14.2723 60.9902 14.6571 60.6916 15.0458C60.7771 15.1523 60.8721 15.2502 60.9758 15.3366C61.3196 15.6254 61.6633 15.731 62.0071 15.658C62.3518 15.5832 62.6524 15.3922 62.9087 15.0861ZM63.6491 15.5314C63.2688 15.9843 62.7916 16.2578 62.2164 16.3518C61.6422 16.4468 61.093 16.2751 60.5696 15.8356C60.3334 15.6369 60.0166 15.3548 59.6171 14.9882C60.0425 14.5238 60.5082 13.9893 61.0161 13.3847C61.5039 12.8041 61.9092 12.3003 62.2327 11.8733L62.6514 12.2255C62.7205 12.2831 62.8252 12.3665 62.9644 12.475C63.1046 12.5834 63.1949 12.6554 63.2362 12.6899C63.8123 13.1736 64.109 13.6668 64.1282 14.1706C64.1465 14.6763 63.9871 15.1293 63.6491 15.5314ZM56.2746 10.7678C56.4455 9.64891 56.5501 9.05107 56.5905 8.97334L56.5453 8.95031C56.5089 9.02228 56.0806 9.45603 55.2606 10.2516L56.2746 10.7678ZM56.7595 12.9941L55.8684 12.5412C55.9308 12.4184 56.023 12.0288 56.1459 11.3714L54.8582 10.716C54.3973 11.1891 54.1333 11.4914 54.0661 11.6238L53.2278 11.1968C53.2643 11.1248 53.7837 10.6412 54.7862 9.74679C55.7877 8.85243 56.3178 8.34959 56.3754 8.23636L57.4288 8.77278C57.375 8.87834 57.2617 9.5827 57.0917 10.8868C56.9218 12.1929 56.8094 12.8953 56.7595 12.9941ZM53.054 10.3005L52.7822 10.9665C52.4788 10.9434 52.1907 10.8868 51.9171 10.7976C51.2372 10.5769 50.7802 10.2218 50.5459 9.73144C50.3135 9.24108 50.2837 8.72672 50.4585 8.1903C50.639 7.63372 50.9857 7.21053 51.4965 6.92168C52.0083 6.63188 52.5921 6.59446 53.2499 6.80845C53.4928 6.88714 53.7117 6.9879 53.9095 7.11361L53.5831 7.76711C53.3737 7.61453 53.1625 7.50513 52.9484 7.43508C52.5451 7.30457 52.2042 7.33528 51.9257 7.52624C51.6463 7.71625 51.4485 7.99358 51.3304 8.35823C51.2094 8.7296 51.2209 9.09138 51.364 9.43972C51.508 9.78901 51.7903 10.0318 52.2099 10.1681C52.4567 10.2487 52.7371 10.2919 53.054 10.3005ZM48.9682 9.73624L48.1136 9.50689C48.3066 8.89082 48.5044 8.20853 48.7042 7.46291C48.901 6.7288 49.0546 6.10121 49.167 5.58014L50.0216 5.80853C49.8593 6.30849 49.6788 6.92936 49.48 7.67114C49.2765 8.42924 49.1065 9.11729 48.9682 9.73624ZM47.5529 8.67778L47.4098 9.34376L44.8518 8.89369C44.9747 8.34192 45.1101 7.6462 45.2589 6.80557C45.3952 6.03308 45.4941 5.39494 45.5585 4.88922L46.4236 5.0418C46.3171 5.50241 46.1922 6.13576 46.0492 6.94472C45.9406 7.56175 45.8408 8.04923 45.7505 8.40717C46.3171 8.50697 46.9172 8.59813 47.5529 8.67778ZM43.2693 3.34232C43.2683 3.36727 43.1272 3.50545 42.8458 3.75591C42.5645 4.00829 42.4137 4.14936 42.3907 4.1839L41.8453 4.17431C41.8453 4.13976 41.9317 3.99678 42.1026 3.74248C42.2736 3.48914 42.359 3.34904 42.359 3.32697L43.2693 3.34232ZM43.1118 6.60021C43.1195 6.16551 43.0148 5.81045 42.7969 5.536C42.5779 5.26155 42.3052 5.12145 41.9788 5.11569C41.6744 5.10993 41.4132 5.24236 41.1962 5.51105C40.9792 5.7807 40.8668 6.12233 40.8591 6.53976C40.8524 6.97254 40.958 7.32664 41.177 7.60205C41.3959 7.87746 41.6677 8.01853 41.9932 8.02428C42.2976 8.02908 42.5578 7.89762 42.7757 7.627C42.9928 7.35735 43.1041 7.01477 43.1118 6.60021ZM43.977 6.5244C43.9655 7.16447 43.76 7.69034 43.3605 8.10489C42.962 8.51753 42.4742 8.71905 41.8971 8.70849C41.3469 8.69985 40.8908 8.49833 40.5259 8.10681C40.1611 7.71337 39.9853 7.21917 39.9959 6.62516C40.0074 5.9851 40.211 5.45923 40.6104 5.04468C41.0099 4.63108 41.4977 4.43052 42.0748 4.44012C42.624 4.44972 43.0821 4.64932 43.446 5.0418C43.8099 5.43332 43.9866 5.92752 43.977 6.5244ZM39.1336 4.52936L39.1576 5.20013C38.7409 5.19822 38.3472 5.20877 37.9794 5.23468C38.0034 5.62908 38.0313 6.06667 38.0649 6.54744C38.1177 7.29498 38.1782 8.00125 38.2473 8.66723L37.3745 8.72768C37.3553 8.06555 37.3188 7.35735 37.2669 6.60405C37.2343 6.13 37.1988 5.69242 37.1623 5.29226C36.8694 5.31241 36.468 5.35751 35.9591 5.4266L35.937 4.75295L39.1336 4.52936ZM34.2816 7.38998C33.7093 6.41309 33.4136 5.88242 33.3953 5.79702L33.3473 5.80661C33.3636 5.88626 33.3041 6.49274 33.1678 7.627L34.2816 7.38998ZM36.0599 8.81596L35.0824 9.02324C35.0536 8.8889 34.8798 8.52808 34.5601 7.93984L33.1476 8.2402C33.0881 8.89753 33.0727 9.29865 33.1034 9.44355L32.1835 9.63932C32.1662 9.56063 32.2661 8.85819 32.4812 7.53296C32.6963 6.20773 32.7914 5.48322 32.7654 5.35943L33.9215 5.11377C33.9465 5.22988 34.3018 5.84788 34.9912 6.96967C35.6807 8.08954 36.0369 8.70657 36.0599 8.81596ZM31.5488 9.05587L31.7217 9.75447C31.4614 9.91377 31.1955 10.0376 30.9208 10.1258C30.242 10.3466 29.6629 10.3274 29.1848 10.0673C28.7085 9.80821 28.382 9.40901 28.2072 8.87258C28.0267 8.31601 28.0574 7.77094 28.3013 7.23644C28.5452 6.70193 28.9956 6.32864 29.6533 6.11561C29.8953 6.03596 30.1325 5.9899 30.3668 5.9755L30.4868 6.69522C30.2276 6.69522 29.9923 6.72976 29.7782 6.79981C29.3749 6.93032 29.1175 7.15583 29.0042 7.47346C28.89 7.79206 28.8928 8.13272 29.0119 8.49641C29.1329 8.86874 29.3547 9.15375 29.6754 9.35143C29.9971 9.54911 30.3687 9.57982 30.7883 9.44452C31.0351 9.36391 31.2876 9.23436 31.5488 9.05587ZM23.8814 10.8695C23.6875 10.5202 23.4215 10.2823 23.0845 10.1556C22.7474 10.0289 22.3691 10.0827 21.9504 10.3139C21.8727 10.3581 21.7689 10.4262 21.6412 10.5174C21.8611 10.8724 22.082 11.2476 22.3019 11.6449C22.5438 12.0796 22.7925 12.5057 23.048 12.9241C23.1786 12.8819 23.3043 12.8281 23.4225 12.7629C23.8142 12.546 24.037 12.2629 24.0917 11.9155C24.1455 11.5681 24.0754 11.2188 23.8814 10.8695ZM24.5622 10.3389C24.8493 10.8561 24.9338 11.4002 24.8157 11.9693C24.6986 12.5393 24.3414 12.9893 23.7432 13.3204C23.4733 13.4691 23.096 13.6649 22.6101 13.9058C22.3278 13.3425 21.9965 12.7158 21.6134 12.0259C21.2456 11.3628 20.9191 10.8033 20.6368 10.3494L21.116 10.0846C21.1947 10.0414 21.309 9.97326 21.4607 9.8821C21.6124 9.79094 21.7123 9.7324 21.7593 9.70553C22.4171 9.34183 22.9855 9.24203 23.4628 9.40517C23.941 9.56926 24.3078 9.88018 24.5622 10.3389ZM19.8427 13.8482C18.8998 13.2206 18.4005 12.8723 18.3467 12.8032L18.3073 12.8348C18.3573 12.8982 18.5704 13.4691 18.9459 14.5487L19.8427 13.8482ZM22.0666 14.3501L21.2792 14.9652C21.1947 14.8567 20.8798 14.6092 20.3344 14.2196L19.1965 15.1082C19.4318 15.7262 19.594 16.0927 19.6853 16.2098L18.944 16.7885C18.894 16.7251 18.6751 16.0505 18.2872 14.7646C17.8992 13.4797 17.6669 12.7869 17.5881 12.6871L18.5205 11.9597C18.5935 12.0527 19.185 12.4529 20.296 13.1592C21.4079 13.8645 21.9984 14.2627 22.0666 14.3501ZM16.5453 16.4094C16.2573 16.1321 15.9337 15.9824 15.5745 15.9584C15.2154 15.9363 14.8697 16.0985 14.5365 16.442C14.4741 16.5063 14.3954 16.6023 14.3003 16.727C14.6143 17.0015 14.935 17.2961 15.2615 17.6118C15.6197 17.9573 15.9826 18.2931 16.3494 18.6165C16.4628 18.5388 16.5665 18.4515 16.6606 18.3545C16.9717 18.0321 17.1023 17.6962 17.0523 17.3479C17.0024 17.0005 16.8324 16.6877 16.5453 16.4094ZM17.0418 15.7031C17.4671 16.1138 17.7062 16.609 17.761 17.1886C17.8157 17.7673 17.6054 18.3018 17.1301 18.794C16.916 19.0148 16.6116 19.3113 16.2179 19.6836C15.7829 19.2278 15.2826 18.7259 14.7142 18.178C14.1688 17.6511 13.6935 17.2116 13.2911 16.8595L13.6704 16.467C13.7328 16.4017 13.8241 16.3038 13.9422 16.1724C14.0603 16.0409 14.1381 15.9555 14.1755 15.9162C14.6979 15.3759 15.2116 15.1139 15.7167 15.1312C16.2217 15.1475 16.6634 15.3385 17.0418 15.7031ZM15.5649 20.5703L15.008 21.2564C14.5231 20.8304 13.9796 20.3726 13.3795 19.8871C12.788 19.4082 12.2771 19.0128 11.846 18.6981L12.4029 18.011C12.7937 18.3622 13.2873 18.7797 13.8846 19.2633C14.4953 19.7565 15.056 20.1922 15.5649 20.5703ZM13.511 21.4052C14.1947 21.8485 14.2168 22.5605 13.5792 23.5413C13.3622 23.8752 13.1221 24.1602 12.8552 24.3934L12.353 23.8858C12.6353 23.666 12.8571 23.4309 13.0213 23.1795C13.2018 22.9002 13.3065 22.6814 13.3315 22.525C13.3564 22.3677 13.3065 22.2467 13.1778 22.1642C13.0453 22.0779 12.8955 22.0635 12.7304 22.1201C12.5854 22.1661 12.3492 22.3005 12.0217 22.5212C11.7241 22.7198 11.4609 22.8407 11.2343 22.8849C10.9482 22.9396 10.6745 22.882 10.4162 22.7141C10.1157 22.5193 9.9534 22.2563 9.92747 21.9234C9.90347 21.5913 10.0264 21.2161 10.2981 20.7987C10.5209 20.4561 10.735 20.1874 10.9453 19.9926L11.4638 20.4676C11.2247 20.6471 11.0173 20.8745 10.8387 21.1489C10.5708 21.5616 10.5468 21.8379 10.7677 21.9809C10.8839 22.0577 11.0106 22.0711 11.146 22.0222C11.2631 21.979 11.4706 21.8543 11.7663 21.647C12.0813 21.4272 12.3597 21.289 12.6007 21.2353C12.9234 21.1633 13.2268 21.2209 13.511 21.4052ZM9.55491 24.5757C9.1881 24.3819 8.88083 24.5201 8.62925 24.9903C8.53803 25.1621 8.4689 25.3223 8.42473 25.4682C8.72047 25.5996 9.09784 25.7868 9.55587 26.0305C9.61252 25.9317 9.66053 25.8472 9.69798 25.7762C10.0091 25.1918 9.96012 24.7916 9.55491 24.5757ZM12.6439 24.8905L12.2099 25.7062C11.4446 25.5747 10.9559 25.5248 10.7427 25.5574C10.5286 25.59 10.3548 25.733 10.2203 25.9873C10.1627 26.0938 10.1099 26.1965 10.059 26.2944C10.5315 26.5449 11.0144 26.7905 11.5042 27.0304L11.097 27.7972C10.5535 27.4776 9.9342 27.1331 9.23707 26.7627C8.56684 26.4067 7.98878 26.115 7.50387 25.8885L7.75833 25.4106C7.78714 25.3569 7.84667 25.2388 7.93309 25.0613C8.02143 24.8818 8.10497 24.7187 8.18467 24.57C8.63309 23.7255 9.14681 23.4578 9.72487 23.7649C10.1819 24.0076 10.373 24.4184 10.2972 24.9951L10.3384 25.0172C10.4892 24.8588 10.7206 24.7734 11.0337 24.76C11.3467 24.7465 11.8825 24.7907 12.6439 24.8905ZM10.1493 28.4631L10.7917 28.7098L9.92651 31.223C9.33982 30.9927 8.67342 30.7489 7.92637 30.4918C7.20908 30.2451 6.59262 30.0475 6.0789 29.8987L6.90469 27.5016L7.54036 27.7559C7.3051 28.3355 7.10442 28.8662 6.93926 29.346C7.22061 29.4208 7.54708 29.5225 7.91869 29.6502C8.0608 29.2395 8.20099 28.7952 8.34119 28.3192L8.95861 28.5313C8.78097 28.9852 8.61869 29.4218 8.47466 29.8411C8.87411 29.9793 9.25244 30.1002 9.6058 30.2029C9.79112 29.6646 9.9726 29.084 10.1493 28.4631ZM5.8062 30.9648C5.97231 31.0032 6.57918 31.388 7.63062 32.1173C8.68014 32.8495 9.287 33.2334 9.44928 33.2698L9.25628 34.1066C9.09976 34.0702 8.38728 34.1316 7.11882 34.289C5.85133 34.4454 5.14268 34.5078 4.99481 34.4732L5.21854 33.5078C5.36545 33.5424 5.92334 33.528 6.88933 33.4637C7.85531 33.4013 8.3988 33.3831 8.52171 33.4119L8.53419 33.36C8.41512 33.3322 7.95325 33.0827 7.14475 32.6087C6.3372 32.1346 5.82444 31.8736 5.60743 31.8227L5.8062 30.9648ZM8.91828 36.1468L8.79441 37.0219C8.1597 36.9058 7.45778 36.7936 6.69248 36.6861C5.93967 36.5805 5.29728 36.5047 4.76531 36.4567L4.88822 35.5816C5.40482 35.6804 6.04241 35.785 6.80483 35.8915C7.58165 36.0009 8.28645 36.0854 8.91828 36.1468ZM8.67246 38.1476L8.64558 38.9172C8.56012 38.9143 8.09921 39.1849 7.26285 39.7281C6.38233 40.2971 5.78219 40.6186 5.46244 40.6906L5.46052 40.7414C5.91854 40.704 6.3324 40.6925 6.70016 40.7049C7.21484 40.7232 7.84283 40.7309 8.5822 40.727L8.55532 41.4957C7.91197 41.4419 7.20236 41.4007 6.43034 41.3738C5.66985 41.3479 5.02361 41.3412 4.48877 41.3527L4.52142 40.4267C4.63184 40.4305 5.08027 40.1896 5.86957 39.7012C6.70592 39.183 7.27246 38.8884 7.56628 38.8174L7.56821 38.7713C7.1025 38.8049 6.6848 38.8145 6.31607 38.802C5.75242 38.7819 5.17341 38.7771 4.57903 38.7848L4.60592 38.0046C5.12156 38.0516 5.76683 38.089 6.54461 38.1159C7.32623 38.1437 8.03583 38.1533 8.67246 38.1476ZM4.58959 43.056C5.28768 42.9898 5.98288 42.913 6.67712 42.8276C8.0512 42.6597 8.80689 43.1376 8.94517 44.2613C9.0143 44.8179 8.91252 45.2545 8.64365 45.5731C8.37383 45.8907 7.84475 46.0989 7.05737 46.1959C6.36217 46.2813 5.67945 46.3744 5.01017 46.4751L4.90263 45.5971C5.60455 45.5395 6.27959 45.4704 6.93062 45.3907C7.49907 45.3207 7.87932 45.1998 8.07232 45.029C8.26533 44.8601 8.34407 44.6231 8.30662 44.3217C8.26821 44.0051 8.13474 43.7901 7.90813 43.675C7.68055 43.5598 7.27918 43.5377 6.70497 43.6087C6.0741 43.6865 5.4029 43.7824 4.6933 43.8957L4.58959 43.056Z" fill="#040506"/>
<path d="M70.7458 60.0587L70.1869 60.7746C69.9075 60.5567 69.4226 60.2065 68.7331 59.7238C68.0447 59.2411 67.6164 58.9359 67.4512 58.8093L67.4224 58.8467C67.5079 58.9398 67.6558 59.126 67.867 59.4042C68.0773 59.6825 68.3663 60.1201 68.7322 60.7189C69.098 61.3177 69.3323 61.6574 69.4341 61.7371L69.0087 62.2802C68.904 62.1977 68.518 62.048 67.8517 61.8273C67.1862 61.6075 66.7253 61.4444 66.4728 61.3388C66.2193 61.2333 65.9763 61.1181 65.744 60.9924L65.7152 61.0298C65.9197 61.191 66.3431 61.5547 66.9874 62.1199C67.6327 62.6861 68.061 63.0517 68.2751 63.2187L67.7671 63.8674C67.7182 63.829 67.2707 63.3838 66.4257 62.5345C65.5817 61.6833 65.0526 61.1738 64.8404 61.0078L65.5855 60.0549C65.768 60.1988 66.2529 60.4157 67.0374 60.7036C67.8219 60.9914 68.3001 61.2054 68.4767 61.3427L68.5056 61.3052C68.3279 61.1671 68.0158 60.7381 67.5674 60.0203C67.12 59.3016 66.804 58.8707 66.6226 58.7287L67.361 57.7834C67.7009 58.0493 68.3366 58.4849 69.2689 59.0885C70.2013 59.694 70.6939 60.0174 70.7458 60.0587ZM66.5429 64.1659L67.0297 64.6533L65.2158 66.5966C64.7741 66.1484 64.2643 65.6542 63.6872 65.1159C63.1322 64.5996 62.6492 64.1687 62.2401 63.8233L63.9714 61.9693L64.4477 62.4597C63.9973 62.8944 63.5969 63.2974 63.2512 63.6688C63.4769 63.8511 63.7342 64.0766 64.0223 64.3443C64.319 64.0267 64.6282 63.6774 64.9508 63.3003L65.4281 63.7446C65.0804 64.0872 64.7549 64.4211 64.4525 64.7455C64.7617 65.0333 65.0574 65.2972 65.3378 65.5352C65.7276 65.1187 66.129 64.662 66.5429 64.1659ZM64.1269 67.4765L63.5268 67.9611C63.473 67.8949 62.966 67.7251 62.0068 67.4506C60.9995 67.1598 60.3629 66.918 60.0988 66.7242L60.0594 66.7559C60.3878 67.0773 60.6682 67.3806 60.8996 67.6665C61.2242 68.0667 61.6294 68.5455 62.1182 69.1012L61.5209 69.5848C61.1378 69.0637 60.7038 68.5024 60.2169 67.9026C59.7387 67.3115 59.3191 66.8192 58.96 66.4248L59.6811 65.8413C59.7503 65.9267 60.2275 66.1072 61.1128 66.3826C62.0538 66.6733 62.6482 66.9065 62.894 67.0821L62.9305 67.0524C62.5992 66.7232 62.3179 66.4152 62.0855 66.1283C61.7302 65.6907 61.3548 65.2502 60.9592 64.8078L61.566 64.3165C61.8685 64.7359 62.2632 65.2464 62.7529 65.8509C63.2464 66.4584 63.7035 67.0006 64.1269 67.4765ZM60.3168 70.3563L59.5745 70.8371C59.2452 70.2824 58.8697 69.6788 58.4492 69.0321C58.0343 68.3949 57.6714 67.8604 57.3583 67.4276L58.1006 66.9468C58.3637 67.4007 58.7036 67.9506 59.1232 68.5945C59.5505 69.2528 59.949 69.8401 60.3168 70.3563ZM58.4492 71.5616L57.6397 71.9742C57.4784 71.6585 57.1874 71.1375 56.7668 70.4091C56.3463 69.6798 56.088 69.223 55.991 69.0388L55.9497 69.0599C55.9871 69.1808 56.0428 69.4121 56.1158 69.7527C56.1898 70.0944 56.2666 70.6125 56.3443 71.3102C56.4231 72.0069 56.4913 72.4138 56.5498 72.5289L55.9343 72.8417C55.8748 72.7227 55.5886 72.4233 55.0778 71.9435C54.567 71.4628 54.2184 71.1202 54.034 70.9177C53.8497 70.7152 53.6778 70.508 53.5203 70.2959L53.479 70.3179C53.5952 70.5502 53.8257 71.0588 54.1704 71.8437C54.5161 72.6287 54.7504 73.1411 54.8733 73.382L54.1378 73.7562C54.1089 73.7006 53.8929 73.1085 53.4867 71.981C53.0815 70.8534 52.8174 70.1692 52.6945 69.9283L53.7729 69.3794C53.8785 69.5867 54.2251 69.9878 54.8147 70.5799C55.4033 71.173 55.7471 71.5683 55.8489 71.767L55.8902 71.7459C55.7884 71.5453 55.6866 71.0252 55.5839 70.1846C55.483 69.3439 55.3784 68.8209 55.2737 68.6156L56.3434 68.0715C56.5393 68.4544 56.931 69.1184 57.5206 70.0598C58.1092 71.0012 58.4184 71.5021 58.4492 71.5616ZM51.6652 72.432C51.5231 72.0213 51.3032 71.7238 51.0046 71.5395C50.705 71.3562 50.4006 71.3179 50.0923 71.4244C49.8033 71.5232 49.6045 71.7363 49.4922 72.0635C49.3808 72.3898 49.3914 72.7506 49.5277 73.145C49.6689 73.5538 49.8897 73.8512 50.1903 74.0355C50.4899 74.2178 50.7933 74.2581 51.1015 74.1526C51.3886 74.0537 51.5884 73.8407 51.7007 73.5125C51.8121 73.1834 51.7996 72.8245 51.6652 72.432ZM52.4516 72.0654C52.66 72.67 52.6475 73.2352 52.4142 73.7611C52.1808 74.285 51.791 74.641 51.2456 74.8291C50.7251 75.0085 50.2277 74.975 49.7505 74.7312C49.2742 74.4865 48.9391 74.0825 48.7451 73.5202C48.5368 72.9156 48.5483 72.3504 48.7816 71.8255C49.0159 71.3006 49.4058 70.9446 49.9512 70.7565C50.4707 70.578 50.969 70.6087 51.4463 70.8534C51.9216 71.0972 52.2576 71.5012 52.4516 72.0654ZM48.1853 75.4874L47.3173 75.6563C47.2059 74.9769 47.1022 74.3877 47.0052 73.8906L45.4593 74.19C45.5457 74.6362 45.6696 75.2216 45.8318 75.9451L44.9638 76.1131C44.8591 75.4337 44.7372 74.7351 44.5979 74.0182C44.4568 73.2928 44.3195 72.6604 44.1879 72.122L45.056 71.9541C45.1434 72.5318 45.2346 73.0663 45.3296 73.5547L46.8881 73.2524C46.8036 72.8206 46.6874 72.2919 46.5405 71.6652L47.4085 71.4964C47.4815 72.0213 47.59 72.6585 47.736 73.4089C47.8886 74.191 48.0384 74.8848 48.1853 75.4874ZM40.1233 72.3725L40.0417 73.0385C39.6307 72.9713 39.2409 72.9214 38.8731 72.8897C38.8347 73.2812 38.7944 73.7179 38.7521 74.1996C38.6868 74.9452 38.6359 75.6525 38.6004 76.3203L37.7295 76.2445C37.813 75.5872 37.8889 74.8819 37.9551 74.1295C37.9964 73.6565 38.03 73.2189 38.0569 72.8177C37.765 72.7918 37.3617 72.7746 36.847 72.7621L36.9315 72.0932L40.1233 72.3725ZM35.0044 74.1228C34.8594 73.0001 34.796 72.3955 34.8123 72.3101L34.7634 72.3005C34.748 72.3802 34.4551 72.9156 33.8867 73.9059L35.0044 74.1228ZM36.0846 76.1303L35.1033 75.9394C35.1292 75.8041 35.11 75.4039 35.0466 74.7379L33.6284 74.4625C33.3163 75.045 33.1463 75.4077 33.1175 75.5536L32.1938 75.3742C32.2092 75.2945 32.575 74.6871 33.2923 73.5519C34.0086 72.4157 34.3783 71.7862 34.4023 71.6614L35.5632 71.8869C35.5411 72.003 35.6266 72.7112 35.8225 74.0125C36.0193 75.3137 36.1057 76.02 36.0846 76.1303ZM31.1865 75.1976L30.4568 74.9471C30.4846 74.8665 30.3598 74.3464 30.0842 73.3887C29.7971 72.3811 29.6655 71.7132 29.6895 71.387L29.6425 71.3706C29.5436 71.8188 29.4341 72.218 29.3141 72.5654C29.1461 73.0519 28.955 73.6497 28.7428 74.3579L28.0159 74.1075C28.255 73.5077 28.5017 72.8417 28.7533 72.1115C29.0001 71.3937 29.196 70.7776 29.34 70.2632L30.2177 70.5655C30.1821 70.6692 30.281 71.1691 30.5182 72.0644C30.7688 73.0164 30.885 73.644 30.8677 73.9453L30.9119 73.9607C31.0156 73.5058 31.128 73.1037 31.248 72.7554C31.4323 72.2218 31.6061 71.67 31.7723 71.1L32.5107 71.3534C32.3157 71.8322 32.0911 72.4387 31.8376 73.1728C31.5831 73.9127 31.3661 74.5882 31.1865 75.1976ZM26.6975 73.6286L25.8967 73.2553C26.1934 72.6824 26.5054 72.0443 26.8329 71.3447C27.1536 70.6567 27.4148 70.0646 27.6164 69.5704L28.4172 69.9447C28.1714 70.4081 27.8862 70.9878 27.5607 71.6844C27.2285 72.3955 26.9414 73.0442 26.6975 73.6286ZM24.6301 72.7726L23.8514 72.3043C24.0338 72.0011 24.3219 71.4781 24.7175 70.7354C25.1131 69.9936 25.3647 69.532 25.4694 69.3526L25.429 69.3286C25.3465 69.4245 25.1794 69.5944 24.9297 69.8372C24.6781 70.08 24.2787 70.4197 23.7285 70.8553C23.1783 71.291 22.87 71.5645 22.8028 71.6748L22.2113 71.3198C22.2795 71.2056 22.3822 70.8054 22.5205 70.1174C22.6578 69.4303 22.7635 68.9543 22.8374 68.6904C22.9113 68.4265 22.9958 68.1713 23.0928 67.9256L23.0525 67.9016C22.9171 68.1233 22.6069 68.5878 22.124 69.2969C21.641 70.0051 21.3298 70.4753 21.1897 70.7066L20.4829 70.2824C20.5156 70.2287 20.9035 69.7316 21.6448 68.7902C22.3871 67.8489 22.8288 67.2625 22.967 67.0313L24.005 67.654C23.885 67.8527 23.7285 68.3594 23.5374 69.1722C23.3463 69.9859 23.1936 70.4868 23.0784 70.6778L23.1187 70.7018C23.234 70.5089 23.6219 70.1481 24.2806 69.6155C24.9403 69.0839 25.3292 68.7183 25.4482 68.5206L26.4776 69.1376C26.2558 69.5071 25.9005 70.1903 25.4137 71.1893C24.9259 72.1873 24.6647 72.7151 24.6301 72.7726ZM21.9818 66.397C21.5353 66.9363 21.0984 67.4813 20.6673 68.0331C19.8156 69.1223 18.9418 69.318 18.0488 68.6213C17.6071 68.2759 17.3689 67.8959 17.3344 67.4804C17.2998 67.0658 17.5274 66.5447 18.0161 65.9191C18.4463 65.3682 18.864 64.8203 19.2644 64.2762L19.9625 64.8203C19.5073 65.3577 19.0781 65.8836 18.6748 66.3989C18.3224 66.8499 18.139 67.205 18.1237 67.4621C18.1064 67.7183 18.2187 67.941 18.4578 68.1281C18.7094 68.3239 18.9562 68.3824 19.1982 68.3037C19.4401 68.2231 19.7388 67.9563 20.096 67.5005C20.4877 66.9996 20.8929 66.4574 21.3145 65.8759L21.9818 66.397ZM16.5259 66.467L16.0102 66.9132L14.2386 65.0161C14.6688 64.6495 15.1959 64.1745 15.8211 63.593C16.3943 63.0585 16.8591 62.6084 17.2153 62.2428L17.8135 62.8848C17.4515 63.189 16.9695 63.6198 16.3693 64.1802C15.9104 64.6073 15.5359 64.9364 15.2488 65.1677C15.6415 65.588 16.0659 66.0217 16.5259 66.467ZM14.0898 63.8722L13.5367 64.2724L11.9379 62.2274C12.3979 61.8992 12.9644 61.4732 13.6385 60.9473C14.2559 60.4646 14.7571 60.0577 15.1441 59.7238L15.6847 60.4157C15.2977 60.6872 14.7802 61.0749 14.132 61.5797C13.6385 61.9655 13.2371 62.262 12.9308 62.4664C13.2851 62.9193 13.6702 63.3886 14.0898 63.8722ZM11.0929 61.1104L10.585 60.3859C11.1294 60.0385 11.719 59.6422 12.3518 59.1998C12.975 58.7642 13.4973 58.3822 13.9189 58.055L14.4258 58.7786C13.9803 59.0569 13.4426 59.4167 12.8127 59.8572C12.1693 60.3072 11.597 60.7256 11.0929 61.1104Z" fill="#040506"/>
<path fill-rule="evenodd" clip-rule="evenodd" d="M41.0021 45.0242C44.0056 43.7172 46.9334 44.6566 47.8206 45.0031V44.8572V44.8486C47.8235 41.6751 47.8504 34.0596 47.8523 33.338C46.4542 32.6 44.5318 32.4666 42.813 32.7958C42.4702 32.862 42.1342 32.9465 41.8106 33.0482C41.5283 33.1384 41.2575 33.2411 41.0021 33.3562V45.0242ZM33.8196 45.0069C34.6972 44.6739 37.5856 43.7834 40.5834 45.0914V33.4224C40.328 33.3073 40.0582 33.2027 39.7778 33.1115C39.4571 33.0069 39.1229 32.9186 38.7839 32.8495C37.0738 32.5002 35.1697 32.6039 33.7716 33.3466C33.7773 34.3312 33.8148 41.4631 33.8196 44.7075V44.8543V44.8611V45.0069ZM33.3865 33.2046V33.1221L33.4854 33.0664C34.9747 32.2267 37.0287 32.1001 38.8608 32.4743C39.218 32.5473 39.5656 32.6384 39.8968 32.7469C40.182 32.8399 40.4586 32.9465 40.7207 33.0645L40.7265 33.0616C40.7409 33.0539 40.7246 33.0626 40.7351 33.0578C41.0386 32.9148 41.3602 32.7891 41.6953 32.6826C42.0295 32.576 42.38 32.4878 42.741 32.4196C44.5866 32.0655 46.6683 32.2277 48.1557 33.0664L48.2546 33.1221V33.2343L48.2537 33.2401L49.4367 34.7774C49.4482 34.7937 49.476 34.8743 49.476 34.8945C49.476 34.9204 49.4271 44.0329 49.4271 47.2956C49.4271 47.4299 49.2801 47.5249 49.1572 47.4702C49.1486 47.4664 46.3236 46.194 42.7141 46.9876V47.191C42.7141 47.287 42.6181 47.3829 42.5221 47.3829H39.1824C39.0864 47.3829 38.9904 47.287 38.9904 47.191L38.9914 46.8225C35.6527 46.0414 32.3457 47.333 32.336 47.3369C32.2151 47.3829 32.0758 47.2879 32.0758 47.1574C32.0758 43.8957 32.0269 34.7832 32.0269 34.7563C32.0269 34.7313 32.0605 34.645 32.0787 34.6258L33.3865 33.2046Z" fill="#0D0C0B"/>
<path fill-rule="evenodd" clip-rule="evenodd" d="M40.6128 33.489C40.3574 33.3738 40.0876 33.2692 39.8072 33.1781C39.4865 33.0735 39.1523 32.9852 38.8134 32.9161C37.1032 32.5668 35.1991 32.6704 33.801 33.4132C33.8068 34.4294 33.8471 41.996 33.849 45.0754C34.7267 44.7424 37.616 43.8528 40.6128 45.1589V33.489Z" fill="white"/>
<path fill-rule="evenodd" clip-rule="evenodd" d="M41.8605 33.1456C41.5782 33.2358 41.3074 33.3385 41.052 33.4537V45.1236C44.0546 43.8185 46.9833 44.756 47.8705 45.1024C47.8734 42.0211 47.9138 34.4593 47.9186 33.4441C46.5195 32.6985 44.5885 32.5631 42.863 32.8933C42.5202 32.9595 42.1841 33.0439 41.8605 33.1456Z" fill="white"/>
<path fill-rule="evenodd" clip-rule="evenodd" d="M38.5519 36.3224C37.9143 36.5287 37.7684 36.6909 36.7198 36.8876L36.6459 37.1054C36.9954 37.1054 37.6579 36.9519 37.173 38.3808L36.2935 40.9746C36.1965 41.2587 36.2733 41.9342 36.9781 41.9774C38.0766 42.0542 38.5663 40.964 38.7132 40.6915H38.5058C38.4002 40.8441 38.2264 41.3239 37.8221 41.4218C37.5341 41.4986 37.1855 41.5014 37.0856 41.251C36.9704 40.9784 37.1193 40.679 37.2191 40.3844L38.5519 36.3224Z" fill="#0D0C0B"/>
<path fill-rule="evenodd" clip-rule="evenodd" d="M46.3235 35.5529L44.6076 37.9702L44.4924 36.3158C44.4732 35.9492 44.2897 35.5529 43.9844 35.4234C43.7424 35.3245 43.3881 35.3053 43.0837 35.5923C42.617 36.0183 42.4039 36.7716 42.2954 37.1286H42.474C42.571 36.9002 42.6478 36.6133 42.9608 36.335C43.2066 36.1076 43.5609 36.0682 43.849 36.3053C44.0939 36.5039 44.138 36.8407 44.1601 37.1286L44.2571 38.4759L41.4321 42.4497H42.4442L44.356 39.7445H44.3762C44.3762 40.5276 44.3474 40.8845 44.4319 41.5774C44.4732 41.9344 44.5596 42.1925 44.7535 42.4007C45.0733 42.7472 45.539 42.5687 45.7781 42.4401C46.3763 42.1224 46.674 41.0918 46.7508 40.8049H46.5626C46.4579 41.0227 46.3197 41.4987 45.7848 41.6772C45.3335 41.8259 45.0234 41.5975 44.9437 41.1811C44.8716 40.8346 44.7727 40.4086 44.7017 39.2685L47.3337 35.5625L46.3235 35.5529Z" fill="#0D0C0B"/>
<path d="M73.7122 45.076C74.8232 44.8543 75.4224 44.7488 75.5088 44.7584L75.5155 44.7094C75.4349 44.6989 74.8799 44.4455 73.8515 43.9475L73.7122 45.076ZM71.7841 46.2928L71.906 45.3015C72.0424 45.3188 72.4409 45.2718 73.1006 45.1614L73.2772 43.7287C72.6742 43.4581 72.2997 43.3132 72.1528 43.2959L72.2671 42.3622C72.3477 42.3718 72.9796 42.6942 74.1635 43.3295C75.3475 43.9648 76.0014 44.2891 76.1281 44.3054L75.9841 45.4771C75.866 45.4627 75.165 45.598 73.8793 45.884C72.5945 46.1709 71.8945 46.3062 71.7841 46.2928ZM75.1631 40.7673C75.5779 40.7529 75.7748 40.4794 75.7565 39.9469C75.7498 39.752 75.7297 39.5793 75.6951 39.4306C75.3734 39.4642 74.9528 39.4901 74.4343 39.5083C74.4343 39.6225 74.4353 39.7204 74.4381 39.8C74.4612 40.4612 74.7032 40.7836 75.1631 40.7673ZM72.3305 42.0379L72.2978 41.1147C73.0266 40.847 73.475 40.6464 73.6431 40.5111C73.8111 40.3758 73.8908 40.1656 73.8803 39.8778C73.8764 39.7578 73.8707 39.6417 73.8659 39.5313C73.331 39.5505 72.7904 39.5793 72.245 39.6158L72.2152 38.7483C72.8451 38.754 73.5547 38.7425 74.3441 38.7157C75.1017 38.6888 75.7488 38.6523 76.2818 38.6072L76.301 39.1475C76.3029 39.2089 76.3106 39.3394 76.324 39.5381C76.3375 39.7367 76.3471 39.92 76.3528 40.0879C76.3865 41.0437 76.0753 41.5321 75.4214 41.5552C74.9039 41.5734 74.5323 41.3133 74.3104 40.776L74.2634 40.7779C74.2115 40.989 74.0541 41.179 73.79 41.346C73.5259 41.5149 73.0391 41.7452 72.3305 42.0379ZM72.1595 37.6447L72.0827 36.7648C72.728 36.735 73.4376 36.687 74.2067 36.6199C74.9644 36.5536 75.6077 36.4836 76.1368 36.4107L76.2136 37.2906C75.6884 37.3098 75.0431 37.352 74.2768 37.4192C73.4943 37.4883 72.7885 37.5632 72.1595 37.6447ZM72.6589 35.6785L71.979 35.785L71.4711 33.1768C72.0942 33.0827 72.7933 32.9609 73.5682 32.8102C74.3124 32.6662 74.9461 32.529 75.4656 32.4004L75.9495 34.8897L75.2716 34.9866C75.1852 34.3676 75.094 33.8072 74.997 33.3102C74.7157 33.385 74.3824 33.4608 73.9964 33.5357C74.079 33.9617 74.1799 34.4175 74.296 34.8993L73.6556 35.024C73.5826 34.5423 73.5039 34.0826 73.4193 33.647C73.0045 33.7276 72.6166 33.812 72.2584 33.8994C72.3669 34.4588 72.5004 35.0518 72.6589 35.6785ZM73.718 30.392C74.1097 30.2576 74.2183 29.9381 74.0445 29.4343C73.9811 29.25 73.9119 29.0898 73.8351 28.9583C73.5375 29.085 73.1428 29.2327 72.6521 29.4007C72.6857 29.5101 72.7146 29.6032 72.7414 29.678C72.9565 30.3046 73.282 30.5417 73.718 30.392ZM71.3808 32.435L71.0793 31.5617C71.6977 31.0925 72.0674 30.7691 72.1893 30.5906C72.3103 30.4131 72.3247 30.1885 72.2306 29.916C72.1912 29.8018 72.1528 29.6924 72.1163 29.5888C71.6093 29.7634 71.1014 29.9486 70.5905 30.1434L70.3082 29.3229C70.9113 29.1435 71.5872 28.9257 72.3333 28.6685C73.0506 28.4219 73.6585 28.1983 74.1549 27.9996L74.3316 28.5102C74.3517 28.5687 74.3969 28.6915 74.4679 28.8767C74.539 29.0639 74.6014 29.2356 74.6571 29.3949C74.9682 30.2989 74.8146 30.8574 74.1962 31.0694C73.7055 31.2383 73.2744 31.0982 72.9047 30.6491L72.8605 30.6645C72.873 30.8823 72.7779 31.1098 72.5734 31.3468C72.3708 31.5848 71.9733 31.9475 71.3808 32.435ZM70.6193 28.1839L69.9856 28.4516L68.8612 26.0439C69.4431 25.8021 70.0922 25.5152 70.8066 25.1812C71.4941 24.8617 72.076 24.5748 72.5484 24.3253L73.622 26.6236L72.9873 26.8817C72.753 26.3011 72.5283 25.78 72.3141 25.3204C72.0597 25.4615 71.7543 25.615 71.3981 25.781C71.5815 26.1754 71.7899 26.5928 72.0193 27.0323L71.4279 27.3078C71.2406 26.8587 71.0524 26.4316 70.8652 26.0295C70.482 26.208 70.1258 26.3827 69.7993 26.5545C70.0413 27.0707 70.313 27.6148 70.6193 28.1839ZM70.4763 23.0221C70.8508 22.7793 70.8767 22.4108 70.554 21.9147C70.4734 21.7909 70.3754 21.6681 70.2593 21.5481C69.9414 21.7804 69.5737 22.0328 69.156 22.3043C69.1819 22.3494 69.2126 22.4012 69.2501 22.4588C69.6649 23.097 70.073 23.2841 70.4763 23.0221ZM71.0591 23.6046C70.6424 23.8752 70.2333 23.9213 69.8329 23.7399C69.4325 23.5585 69.0849 23.2438 68.792 22.7928C68.7383 22.7112 68.7027 22.6517 68.6835 22.6143C68.3551 22.8283 67.9288 23.1181 67.4026 23.4866L66.9244 22.7505C67.4429 22.4463 68.0459 22.0711 68.7306 21.6268C69.3605 21.219 69.8953 20.8553 70.337 20.5367L70.6328 20.9925C70.675 21.0568 70.7586 21.1797 70.8824 21.3591C71.0073 21.5395 71.1129 21.6959 71.2003 21.8312C71.4163 22.1623 71.5229 22.4905 71.521 22.8168C71.5191 23.144 71.3664 23.406 71.0591 23.6046ZM65.2767 19.2882L64.7649 19.7489L62.9174 17.8373C63.3889 17.4189 63.9083 16.9362 64.4768 16.3883C65.0222 15.8624 65.4783 15.4028 65.8442 15.0122L67.6071 16.8374L67.0915 17.2865C66.6815 16.8144 66.2993 16.395 65.9459 16.0304C65.752 16.2463 65.5138 16.491 65.2306 16.7635C65.533 17.0763 65.8653 17.4036 66.2254 17.7442L65.7558 18.1981C65.4322 17.8335 65.1153 17.4909 64.8081 17.1713C64.5037 17.465 64.2243 17.7461 63.9708 18.0139C64.3673 18.4246 64.8023 18.8497 65.2767 19.2882ZM62.9087 15.0861C63.1661 14.78 63.2928 14.447 63.2909 14.0871C63.288 13.7273 63.1037 13.3943 62.7369 13.0863C62.6677 13.0287 62.5669 12.9567 62.4354 12.8703C62.1828 13.2033 61.9111 13.543 61.6192 13.8904C61.2994 14.2723 60.9902 14.6571 60.6916 15.0458C60.7771 15.1523 60.8721 15.2502 60.9758 15.3366C61.3196 15.6254 61.6633 15.731 62.0071 15.658C62.3518 15.5832 62.6524 15.3922 62.9087 15.0861ZM63.6491 15.5314C63.2688 15.9843 62.7916 16.2578 62.2164 16.3518C61.6422 16.4468 61.093 16.2751 60.5696 15.8356C60.3334 15.6369 60.0166 15.3548 59.6171 14.9882C60.0425 14.5238 60.5082 13.9893 61.0161 13.3847C61.5039 12.8041 61.9092 12.3003 62.2327 11.8733L62.6514 12.2255C62.7205 12.2831 62.8252 12.3665 62.9644 12.475C63.1046 12.5834 63.1949 12.6554 63.2362 12.6899C63.8123 13.1736 64.109 13.6668 64.1282 14.1706C64.1465 14.6763 63.9871 15.1293 63.6491 15.5314ZM56.2746 10.7678C56.4455 9.64891 56.5501 9.05107 56.5905 8.97334L56.5453 8.95031C56.5089 9.02228 56.0806 9.45603 55.2606 10.2516L56.2746 10.7678ZM56.7595 12.9941L55.8684 12.5412C55.9308 12.4184 56.023 12.0288 56.1459 11.3714L54.8582 10.716C54.3973 11.1891 54.1333 11.4914 54.0661 11.6238L53.2278 11.1968C53.2643 11.1248 53.7837 10.6412 54.7862 9.74679C55.7877 8.85243 56.3178 8.34959 56.3754 8.23636L57.4288 8.77278C57.375 8.87834 57.2617 9.5827 57.0917 10.8868C56.9218 12.1929 56.8094 12.8953 56.7595 12.9941ZM53.054 10.3005L52.7822 10.9665C52.4788 10.9434 52.1907 10.8868 51.9171 10.7976C51.2372 10.5769 50.7802 10.2218 50.5459 9.73144C50.3135 9.24108 50.2837 8.72672 50.4585 8.1903C50.639 7.63372 50.9857 7.21053 51.4965 6.92168C52.0083 6.63188 52.5921 6.59446 53.2499 6.80845C53.4928 6.88714 53.7117 6.9879 53.9095 7.11361L53.5831 7.76711C53.3737 7.61453 53.1625 7.50513 52.9484 7.43508C52.5451 7.30457 52.2042 7.33528 51.9257 7.52624C51.6463 7.71625 51.4485 7.99358 51.3304 8.35823C51.2094 8.7296 51.2209 9.09138 51.364 9.43972C51.508 9.78901 51.7903 10.0318 52.2099 10.1681C52.4567 10.2487 52.7371 10.2919 53.054 10.3005ZM48.9682 9.73624L48.1136 9.50689C48.3066 8.89082 48.5044 8.20853 48.7042 7.46291C48.901 6.7288 49.0546 6.10121 49.167 5.58014L50.0216 5.80853C49.8593 6.30849 49.6788 6.92936 49.48 7.67114C49.2765 8.42924 49.1065 9.11729 48.9682 9.73624ZM47.5529 8.67778L47.4098 9.34376L44.8518 8.89369C44.9747 8.34192 45.1101 7.6462 45.2589 6.80557C45.3952 6.03308 45.4941 5.39494 45.5585 4.88922L46.4236 5.0418C46.3171 5.50241 46.1922 6.13576 46.0492 6.94472C45.9406 7.56175 45.8408 8.04923 45.7505 8.40717C46.3171 8.50697 46.9172 8.59813 47.5529 8.67778ZM43.2693 3.34232C43.2683 3.36727 43.1272 3.50545 42.8458 3.75591C42.5645 4.00829 42.4137 4.14936 42.3907 4.1839L41.8453 4.17431C41.8453 4.13976 41.9317 3.99678 42.1026 3.74248C42.2736 3.48914 42.359 3.34904 42.359 3.32697L43.2693 3.34232ZM43.1118 6.60021C43.1195 6.16551 43.0148 5.81045 42.7969 5.536C42.5779 5.26155 42.3052 5.12145 41.9788 5.11569C41.6744 5.10993 41.4132 5.24236 41.1962 5.51105C40.9792 5.7807 40.8668 6.12233 40.8591 6.53976C40.8524 6.97254 40.958 7.32664 41.177 7.60205C41.3959 7.87746 41.6677 8.01853 41.9932 8.02428C42.2976 8.02908 42.5578 7.89762 42.7757 7.627C42.9928 7.35735 43.1041 7.01477 43.1118 6.60021ZM43.977 6.5244C43.9655 7.16447 43.76 7.69034 43.3605 8.10489C42.962 8.51753 42.4742 8.71905 41.8971 8.70849C41.3469 8.69985 40.8908 8.49833 40.5259 8.10681C40.1611 7.71337 39.9853 7.21917 39.9959 6.62516C40.0074 5.9851 40.211 5.45923 40.6104 5.04468C41.0099 4.63108 41.4977 4.43052 42.0748 4.44012C42.624 4.44972 43.0821 4.64932 43.446 5.0418C43.8099 5.43332 43.9866 5.92752 43.977 6.5244ZM39.1336 4.52936L39.1576 5.20013C38.7409 5.19822 38.3472 5.20877 37.9794 5.23468C38.0034 5.62908 38.0313 6.06667 38.0649 6.54744C38.1177 7.29498 38.1782 8.00125 38.2473 8.66723L37.3745 8.72768C37.3553 8.06555 37.3188 7.35735 37.2669 6.60405C37.2343 6.13 37.1988 5.69242 37.1623 5.29226C36.8694 5.31241 36.468 5.35751 35.9591 5.4266L35.937 4.75295L39.1336 4.52936ZM34.2816 7.38998C33.7093 6.41309 33.4136 5.88242 33.3953 5.79702L33.3473 5.80661C33.3636 5.88626 33.3041 6.49274 33.1678 7.627L34.2816 7.38998ZM36.0599 8.81596L35.0824 9.02324C35.0536 8.8889 34.8798 8.52808 34.5601 7.93984L33.1476 8.2402C33.0881 8.89753 33.0727 9.29865 33.1034 9.44355L32.1835 9.63932C32.1662 9.56063 32.2661 8.85819 32.4812 7.53296C32.6963 6.20773 32.7914 5.48322 32.7654 5.35943L33.9215 5.11377C33.9465 5.22988 34.3018 5.84788 34.9912 6.96967C35.6807 8.08954 36.0369 8.70657 36.0599 8.81596ZM31.5488 9.05587L31.7217 9.75447C31.4614 9.91377 31.1955 10.0376 30.9208 10.1258C30.242 10.3466 29.6629 10.3274 29.1848 10.0673C28.7085 9.80821 28.382 9.40901 28.2072 8.87258C28.0267 8.31601 28.0574 7.77094 28.3013 7.23644C28.5452 6.70193 28.9956 6.32864 29.6533 6.11561C29.8953 6.03596 30.1325 5.9899 30.3668 5.9755L30.4868 6.69522C30.2276 6.69522 29.9923 6.72976 29.7782 6.79981C29.3749 6.93032 29.1175 7.15583 29.0042 7.47346C28.89 7.79206 28.8928 8.13272 29.0119 8.49641C29.1329 8.86874 29.3547 9.15375 29.6754 9.35143C29.9971 9.54911 30.3687 9.57982 30.7883 9.44452C31.0351 9.36391 31.2876 9.23436 31.5488 9.05587ZM23.8814 10.8695C23.6875 10.5202 23.4215 10.2823 23.0845 10.1556C22.7474 10.0289 22.3691 10.0827 21.9504 10.3139C21.8727 10.3581 21.7689 10.4262 21.6412 10.5174C21.8611 10.8724 22.082 11.2476 22.3019 11.6449C22.5438 12.0796 22.7925 12.5057 23.048 12.9241C23.1786 12.8819 23.3043 12.8281 23.4225 12.7629C23.8142 12.546 24.037 12.2629 24.0917 11.9155C24.1455 11.5681 24.0754 11.2188 23.8814 10.8695ZM24.5622 10.3389C24.8493 10.8561 24.9338 11.4002 24.8157 11.9693C24.6986 12.5393 24.3414 12.9893 23.7432 13.3204C23.4733 13.4691 23.096 13.6649 22.6101 13.9058C22.3278 13.3425 21.9965 12.7158 21.6134 12.0259C21.2456 11.3628 20.9191 10.8033 20.6368 10.3494L21.116 10.0846C21.1947 10.0414 21.309 9.97326 21.4607 9.8821C21.6124 9.79094 21.7123 9.7324 21.7593 9.70553C22.4171 9.34183 22.9855 9.24203 23.4628 9.40517C23.941 9.56926 24.3078 9.88018 24.5622 10.3389ZM19.8427 13.8482C18.8998 13.2206 18.4005 12.8723 18.3467 12.8032L18.3073 12.8348C18.3573 12.8982 18.5704 13.4691 18.9459 14.5487L19.8427 13.8482ZM22.0666 14.3501L21.2792 14.9652C21.1947 14.8567 20.8798 14.6092 20.3344 14.2196L19.1965 15.1082C19.4318 15.7262 19.594 16.0927 19.6853 16.2098L18.944 16.7885C18.894 16.7251 18.6751 16.0505 18.2872 14.7646C17.8992 13.4797 17.6669 12.7869 17.5881 12.6871L18.5205 11.9597C18.5935 12.0527 19.185 12.4529 20.296 13.1592C21.4079 13.8645 21.9984 14.2627 22.0666 14.3501ZM16.5453 16.4094C16.2573 16.1321 15.9337 15.9824 15.5745 15.9584C15.2154 15.9363 14.8697 16.0985 14.5365 16.442C14.4741 16.5063 14.3954 16.6023 14.3003 16.727C14.6143 17.0015 14.935 17.2961 15.2615 17.6118C15.6197 17.9573 15.9826 18.2931 16.3494 18.6165C16.4628 18.5388 16.5665 18.4515 16.6606 18.3545C16.9717 18.0321 17.1023 17.6962 17.0523 17.3479C17.0024 17.0005 16.8324 16.6877 16.5453 16.4094ZM17.0418 15.7031C17.4671 16.1138 17.7062 16.609 17.761 17.1886C17.8157 17.7673 17.6054 18.3018 17.1301 18.794C16.916 19.0148 16.6116 19.3113 16.2179 19.6836C15.7829 19.2278 15.2826 18.7259 14.7142 18.178C14.1688 17.6511 13.6935 17.2116 13.2911 16.8595L13.6704 16.467C13.7328 16.4017 13.8241 16.3038 13.9422 16.1724C14.0603 16.0409 14.1381 15.9555 14.1755 15.9162C14.6979 15.3759 15.2116 15.1139 15.7167 15.1312C16.2217 15.1475 16.6634 15.3385 17.0418 15.7031ZM15.5649 20.5703L15.008 21.2564C14.5231 20.8304 13.9796 20.3726 13.3795 19.8871C12.788 19.4082 12.2771 19.0128 11.846 18.6981L12.4029 18.011C12.7937 18.3622 13.2873 18.7797 13.8846 19.2633C14.4953 19.7565 15.056 20.1922 15.5649 20.5703ZM13.511 21.4052C14.1947 21.8485 14.2168 22.5605 13.5792 23.5413C13.3622 23.8752 13.1221 24.1602 12.8552 24.3934L12.353 23.8858C12.6353 23.666 12.8571 23.4309 13.0213 23.1795C13.2018 22.9002 13.3065 22.6814 13.3315 22.525C13.3564 22.3677 13.3065 22.2467 13.1778 22.1642C13.0453 22.0779 12.8955 22.0635 12.7304 22.1201C12.5854 22.1661 12.3492 22.3005 12.0217 22.5212C11.7241 22.7198 11.4609 22.8407 11.2343 22.8849C10.9482 22.9396 10.6745 22.882 10.4162 22.7141C10.1157 22.5193 9.9534 22.2563 9.92747 21.9234C9.90347 21.5913 10.0264 21.2161 10.2981 20.7987C10.5209 20.4561 10.735 20.1874 10.9453 19.9926L11.4638 20.4676C11.2247 20.6471 11.0173 20.8745 10.8387 21.1489C10.5708 21.5616 10.5468 21.8379 10.7677 21.9809C10.8839 22.0577 11.0106 22.0711 11.146 22.0222C11.2631 21.979 11.4706 21.8543 11.7663 21.647C12.0813 21.4272 12.3597 21.289 12.6007 21.2353C12.9234 21.1633 13.2268 21.2209 13.511 21.4052ZM9.55491 24.5757C9.1881 24.3819 8.88083 24.5201 8.62925 24.9903C8.53803 25.1621 8.4689 25.3223 8.42473 25.4682C8.72047 25.5996 9.09784 25.7868 9.55587 26.0305C9.61252 25.9317 9.66053 25.8472 9.69798 25.7762C10.0091 25.1918 9.96012 24.7916 9.55491 24.5757ZM12.6439 24.8905L12.2099 25.7062C11.4446 25.5747 10.9559 25.5248 10.7427 25.5574C10.5286 25.59 10.3548 25.733 10.2203 25.9873C10.1627 26.0938 10.1099 26.1965 10.059 26.2944C10.5315 26.5449 11.0144 26.7905 11.5042 27.0304L11.097 27.7972C10.5535 27.4776 9.9342 27.1331 9.23707 26.7627C8.56684 26.4067 7.98878 26.115 7.50387 25.8885L7.75833 25.4106C7.78714 25.3569 7.84667 25.2388 7.93309 25.0613C8.02143 24.8818 8.10497 24.7187 8.18467 24.57C8.63309 23.7255 9.14681 23.4578 9.72487 23.7649C10.1819 24.0076 10.373 24.4184 10.2972 24.9951L10.3384 25.0172C10.4892 24.8588 10.7206 24.7734 11.0337 24.76C11.3467 24.7465 11.8825 24.7907 12.6439 24.8905ZM10.1493 28.4631L10.7917 28.7098L9.92651 31.223C9.33982 30.9927 8.67342 30.7489 7.92637 30.4918C7.20908 30.2451 6.59262 30.0475 6.0789 29.8987L6.90469 27.5016L7.54036 27.7559C7.3051 28.3355 7.10442 28.8662 6.93926 29.346C7.22061 29.4208 7.54708 29.5225 7.91869 29.6502C8.0608 29.2395 8.20099 28.7952 8.34119 28.3192L8.95861 28.5313C8.78097 28.9852 8.61869 29.4218 8.47466 29.8411C8.87411 29.9793 9.25244 30.1002 9.6058 30.2029C9.79112 29.6646 9.9726 29.084 10.1493 28.4631ZM5.8062 30.9648C5.97231 31.0032 6.57918 31.388 7.63062 32.1173C8.68014 32.8495 9.287 33.2334 9.44928 33.2698L9.25628 34.1066C9.09976 34.0702 8.38728 34.1316 7.11882 34.289C5.85133 34.4454 5.14268 34.5078 4.99481 34.4732L5.21854 33.5078C5.36545 33.5424 5.92334 33.528 6.88933 33.4637C7.85531 33.4013 8.3988 33.3831 8.52171 33.4119L8.53419 33.36C8.41512 33.3322 7.95325 33.0827 7.14475 32.6087C6.3372 32.1346 5.82444 31.8736 5.60743 31.8227L5.8062 30.9648ZM8.91828 36.1468L8.79441 37.0219C8.1597 36.9058 7.45778 36.7936 6.69248 36.6861C5.93967 36.5805 5.29728 36.5047 4.76531 36.4567L4.88822 35.5816C5.40482 35.6804 6.04241 35.785 6.80483 35.8915C7.58165 36.0009 8.28645 36.0854 8.91828 36.1468ZM8.67246 38.1476L8.64558 38.9172C8.56012 38.9143 8.09921 39.1849 7.26285 39.7281C6.38233 40.2971 5.78219 40.6186 5.46244 40.6906L5.46052 40.7414C5.91854 40.704 6.3324 40.6925 6.70016 40.7049C7.21484 40.7232 7.84283 40.7309 8.5822 40.727L8.55532 41.4957C7.91197 41.4419 7.20236 41.4007 6.43034 41.3738C5.66985 41.3479 5.02361 41.3412 4.48877 41.3527L4.52142 40.4267C4.63184 40.4305 5.08027 40.1896 5.86957 39.7012C6.70592 39.183 7.27246 38.8884 7.56628 38.8174L7.56821 38.7713C7.1025 38.8049 6.6848 38.8145 6.31607 38.802C5.75242 38.7819 5.17341 38.7771 4.57903 38.7848L4.60592 38.0046C5.12156 38.0516 5.76683 38.089 6.54461 38.1159C7.32623 38.1437 8.03583 38.1533 8.67246 38.1476ZM4.58959 43.056C5.28768 42.9898 5.98288 42.913 6.67712 42.8276C8.0512 42.6597 8.80689 43.1376 8.94517 44.2613C9.0143 44.8179 8.91252 45.2545 8.64365 45.5731C8.37383 45.8907 7.84475 46.0989 7.05737 46.1959C6.36217 46.2813 5.67945 46.3744 5.01017 46.4751L4.90263 45.5971C5.60455 45.5395 6.27959 45.4704 6.93062 45.3907C7.49907 45.3207 7.87932 45.1998 8.07232 45.029C8.26533 44.8601 8.34407 44.6231 8.30662 44.3217C8.26821 44.0051 8.13474 43.7901 7.90813 43.675C7.68055 43.5598 7.27918 43.5377 6.70497 43.6087C6.0741 43.6865 5.4029 43.7824 4.6933 43.8957L4.58959 43.056Z" fill="#141513"/>
<path d="M70.7458 60.0587L70.1869 60.7746C69.9075 60.5567 69.4226 60.2065 68.7331 59.7238C68.0447 59.2411 67.6164 58.9359 67.4512 58.8093L67.4224 58.8467C67.5079 58.9398 67.6558 59.126 67.867 59.4042C68.0773 59.6825 68.3663 60.1201 68.7322 60.7189C69.098 61.3177 69.3323 61.6574 69.4341 61.7371L69.0087 62.2802C68.904 62.1977 68.518 62.048 67.8517 61.8273C67.1862 61.6075 66.7253 61.4444 66.4728 61.3388C66.2193 61.2333 65.9763 61.1181 65.744 60.9924L65.7152 61.0298C65.9197 61.191 66.3431 61.5547 66.9874 62.1199C67.6327 62.6861 68.061 63.0517 68.2751 63.2187L67.7671 63.8674C67.7182 63.829 67.2707 63.3838 66.4257 62.5345C65.5817 61.6833 65.0526 61.1738 64.8404 61.0078L65.5855 60.0549C65.768 60.1988 66.2529 60.4157 67.0374 60.7036C67.8219 60.9914 68.3001 61.2054 68.4767 61.3427L68.5056 61.3052C68.3279 61.1671 68.0158 60.7381 67.5674 60.0203C67.12 59.3016 66.804 58.8707 66.6226 58.7287L67.361 57.7834C67.7009 58.0493 68.3366 58.4849 69.2689 59.0885C70.2013 59.694 70.6939 60.0174 70.7458 60.0587ZM66.5429 64.1659L67.0297 64.6533L65.2158 66.5966C64.7741 66.1484 64.2643 65.6542 63.6872 65.1159C63.1322 64.5996 62.6492 64.1687 62.2401 63.8233L63.9714 61.9693L64.4477 62.4597C63.9973 62.8944 63.5969 63.2974 63.2512 63.6688C63.4769 63.8511 63.7342 64.0766 64.0223 64.3443C64.319 64.0267 64.6282 63.6774 64.9508 63.3003L65.4281 63.7446C65.0804 64.0872 64.7549 64.4211 64.4525 64.7455C64.7617 65.0333 65.0574 65.2972 65.3378 65.5352C65.7276 65.1187 66.129 64.662 66.5429 64.1659ZM64.1269 67.4765L63.5268 67.9611C63.473 67.8949 62.966 67.7251 62.0068 67.4506C60.9995 67.1598 60.3629 66.918 60.0988 66.7242L60.0594 66.7559C60.3878 67.0773 60.6682 67.3806 60.8996 67.6665C61.2242 68.0667 61.6294 68.5455 62.1182 69.1012L61.5209 69.5848C61.1378 69.0637 60.7038 68.5024 60.2169 67.9026C59.7387 67.3115 59.3191 66.8192 58.96 66.4248L59.6811 65.8413C59.7503 65.9267 60.2275 66.1072 61.1128 66.3826C62.0538 66.6733 62.6482 66.9065 62.894 67.0821L62.9305 67.0524C62.5992 66.7232 62.3179 66.4152 62.0855 66.1283C61.7302 65.6907 61.3548 65.2502 60.9592 64.8078L61.566 64.3165C61.8685 64.7359 62.2632 65.2464 62.7529 65.8509C63.2464 66.4584 63.7035 67.0006 64.1269 67.4765ZM60.3168 70.3563L59.5745 70.8371C59.2452 70.2824 58.8697 69.6788 58.4492 69.0321C58.0343 68.3949 57.6714 67.8604 57.3583 67.4276L58.1006 66.9468C58.3637 67.4007 58.7036 67.9506 59.1232 68.5945C59.5505 69.2528 59.949 69.8401 60.3168 70.3563ZM58.4492 71.5616L57.6397 71.9742C57.4784 71.6585 57.1874 71.1375 56.7668 70.4091C56.3463 69.6798 56.088 69.223 55.991 69.0388L55.9497 69.0599C55.9871 69.1808 56.0428 69.4121 56.1158 69.7527C56.1898 70.0944 56.2666 70.6125 56.3443 71.3102C56.4231 72.0069 56.4913 72.4138 56.5498 72.5289L55.9343 72.8417C55.8748 72.7227 55.5886 72.4233 55.0778 71.9435C54.567 71.4628 54.2184 71.1202 54.034 70.9177C53.8497 70.7152 53.6778 70.508 53.5203 70.2959L53.479 70.3179C53.5952 70.5502 53.8257 71.0588 54.1704 71.8437C54.5161 72.6287 54.7504 73.1411 54.8733 73.382L54.1378 73.7562C54.1089 73.7006 53.8929 73.1085 53.4867 71.981C53.0815 70.8534 52.8174 70.1692 52.6945 69.9283L53.7729 69.3794C53.8785 69.5867 54.2251 69.9878 54.8147 70.5799C55.4033 71.173 55.7471 71.5683 55.8489 71.767L55.8902 71.7459C55.7884 71.5453 55.6866 71.0252 55.5839 70.1846C55.483 69.3439 55.3784 68.8209 55.2737 68.6156L56.3434 68.0715C56.5393 68.4544 56.931 69.1184 57.5206 70.0598C58.1092 71.0012 58.4184 71.5021 58.4492 71.5616ZM51.6652 72.432C51.5231 72.0213 51.3032 71.7238 51.0046 71.5395C50.705 71.3562 50.4006 71.3179 50.0923 71.4244C49.8033 71.5232 49.6045 71.7363 49.4922 72.0635C49.3808 72.3898 49.3914 72.7506 49.5277 73.145C49.6689 73.5538 49.8897 73.8512 50.1903 74.0355C50.4899 74.2178 50.7933 74.2581 51.1015 74.1526C51.3886 74.0537 51.5884 73.8407 51.7007 73.5125C51.8121 73.1834 51.7996 72.8245 51.6652 72.432ZM52.4516 72.0654C52.66 72.67 52.6475 73.2352 52.4142 73.7611C52.1808 74.285 51.791 74.641 51.2456 74.8291C50.7251 75.0085 50.2277 74.975 49.7505 74.7312C49.2742 74.4865 48.9391 74.0825 48.7451 73.5202C48.5368 72.9156 48.5483 72.3504 48.7816 71.8255C49.0159 71.3006 49.4058 70.9446 49.9512 70.7565C50.4707 70.578 50.969 70.6087 51.4463 70.8534C51.9216 71.0972 52.2576 71.5012 52.4516 72.0654ZM48.1853 75.4874L47.3173 75.6563C47.2059 74.9769 47.1022 74.3877 47.0052 73.8906L45.4593 74.19C45.5457 74.6362 45.6696 75.2216 45.8318 75.9451L44.9638 76.1131C44.8591 75.4337 44.7372 74.7351 44.5979 74.0182C44.4568 73.2928 44.3195 72.6604 44.1879 72.122L45.056 71.9541C45.1434 72.5318 45.2346 73.0663 45.3296 73.5547L46.8881 73.2524C46.8036 72.8206 46.6874 72.2919 46.5405 71.6652L47.4085 71.4964C47.4815 72.0213 47.59 72.6585 47.736 73.4089C47.8886 74.191 48.0384 74.8848 48.1853 75.4874ZM40.1233 72.3725L40.0417 73.0385C39.6307 72.9713 39.2409 72.9214 38.8731 72.8897C38.8347 73.2812 38.7944 73.7179 38.7521 74.1996C38.6868 74.9452 38.6359 75.6525 38.6004 76.3203L37.7295 76.2445C37.813 75.5872 37.8889 74.8819 37.9551 74.1295C37.9964 73.6565 38.03 73.2189 38.0569 72.8177C37.765 72.7918 37.3617 72.7746 36.847 72.7621L36.9315 72.0932L40.1233 72.3725ZM35.0044 74.1228C34.8594 73.0001 34.796 72.3955 34.8123 72.3101L34.7634 72.3005C34.748 72.3802 34.4551 72.9156 33.8867 73.9059L35.0044 74.1228ZM36.0846 76.1303L35.1033 75.9394C35.1292 75.8041 35.11 75.4039 35.0466 74.7379L33.6284 74.4625C33.3163 75.045 33.1463 75.4077 33.1175 75.5536L32.1938 75.3742C32.2092 75.2945 32.575 74.6871 33.2923 73.5519C34.0086 72.4157 34.3783 71.7862 34.4023 71.6614L35.5632 71.8869C35.5411 72.003 35.6266 72.7112 35.8225 74.0125C36.0193 75.3137 36.1057 76.02 36.0846 76.1303ZM31.1865 75.1976L30.4568 74.9471C30.4846 74.8665 30.3598 74.3464 30.0842 73.3887C29.7971 72.3811 29.6655 71.7132 29.6895 71.387L29.6425 71.3706C29.5436 71.8188 29.4341 72.218 29.3141 72.5654C29.1461 73.0519 28.955 73.6497 28.7428 74.3579L28.0159 74.1075C28.255 73.5077 28.5017 72.8417 28.7533 72.1115C29.0001 71.3937 29.196 70.7776 29.34 70.2632L30.2177 70.5655C30.1821 70.6692 30.281 71.1691 30.5182 72.0644C30.7688 73.0164 30.885 73.644 30.8677 73.9453L30.9119 73.9607C31.0156 73.5058 31.128 73.1037 31.248 72.7554C31.4323 72.2218 31.6061 71.67 31.7723 71.1L32.5107 71.3534C32.3157 71.8322 32.0911 72.4387 31.8376 73.1728C31.5831 73.9127 31.3661 74.5882 31.1865 75.1976ZM26.6975 73.6286L25.8967 73.2553C26.1934 72.6824 26.5054 72.0443 26.8329 71.3447C27.1536 70.6567 27.4148 70.0646 27.6164 69.5704L28.4172 69.9447C28.1714 70.4081 27.8862 70.9878 27.5607 71.6844C27.2285 72.3955 26.9414 73.0442 26.6975 73.6286ZM24.6301 72.7726L23.8514 72.3043C24.0338 72.0011 24.3219 71.4781 24.7175 70.7354C25.1131 69.9936 25.3647 69.532 25.4694 69.3526L25.429 69.3286C25.3465 69.4245 25.1794 69.5944 24.9297 69.8372C24.6781 70.08 24.2787 70.4197 23.7285 70.8553C23.1783 71.291 22.87 71.5645 22.8028 71.6748L22.2113 71.3198C22.2795 71.2056 22.3822 70.8054 22.5205 70.1174C22.6578 69.4303 22.7635 68.9543 22.8374 68.6904C22.9113 68.4265 22.9958 68.1713 23.0928 67.9256L23.0525 67.9016C22.9171 68.1233 22.6069 68.5878 22.124 69.2969C21.641 70.0051 21.3298 70.4753 21.1897 70.7066L20.4829 70.2824C20.5156 70.2287 20.9035 69.7316 21.6448 68.7902C22.3871 67.8489 22.8288 67.2625 22.967 67.0313L24.005 67.654C23.885 67.8527 23.7285 68.3594 23.5374 69.1722C23.3463 69.9859 23.1936 70.4868 23.0784 70.6778L23.1187 70.7018C23.234 70.5089 23.6219 70.1481 24.2806 69.6155C24.9403 69.0839 25.3292 68.7183 25.4482 68.5206L26.4776 69.1376C26.2558 69.5071 25.9005 70.1903 25.4137 71.1893C24.9259 72.1873 24.6647 72.7151 24.6301 72.7726ZM21.9818 66.397C21.5353 66.9363 21.0984 67.4813 20.6673 68.0331C19.8156 69.1223 18.9418 69.318 18.0488 68.6213C17.6071 68.2759 17.3689 67.8959 17.3344 67.4804C17.2998 67.0658 17.5274 66.5447 18.0161 65.9191C18.4463 65.3682 18.864 64.8203 19.2644 64.2762L19.9625 64.8203C19.5073 65.3577 19.0781 65.8836 18.6748 66.3989C18.3224 66.8499 18.139 67.205 18.1237 67.4621C18.1064 67.7183 18.2187 67.941 18.4578 68.1281C18.7094 68.3239 18.9562 68.3824 19.1982 68.3037C19.4401 68.2231 19.7388 67.9563 20.096 67.5005C20.4877 66.9996 20.8929 66.4574 21.3145 65.8759L21.9818 66.397ZM16.5259 66.467L16.0102 66.9132L14.2386 65.0161C14.6688 64.6495 15.1959 64.1745 15.8211 63.593C16.3943 63.0585 16.8591 62.6084 17.2153 62.2428L17.8135 62.8848C17.4515 63.189 16.9695 63.6198 16.3693 64.1802C15.9104 64.6073 15.5359 64.9364 15.2488 65.1677C15.6415 65.588 16.0659 66.0217 16.5259 66.467ZM14.0898 63.8722L13.5367 64.2724L11.9379 62.2274C12.3979 61.8992 12.9644 61.4732 13.6385 60.9473C14.2559 60.4646 14.7571 60.0577 15.1441 59.7238L15.6847 60.4157C15.2977 60.6872 14.7802 61.0749 14.132 61.5797C13.6385 61.9655 13.2371 62.262 12.9308 62.4664C13.2851 62.9193 13.6702 63.3886 14.0898 63.8722ZM11.0929 61.1104L10.585 60.3859C11.1294 60.0385 11.719 59.6422 12.3518 59.1998C12.975 58.7642 13.4973 58.3822 13.9189 58.055L14.4258 58.7786C13.9803 59.0569 13.4426 59.4167 12.8127 59.8572C12.1693 60.3072 11.597 60.7256 11.0929 61.1104Z" fill="#141513"/>
<path d="M241.972 38.6757L238.628 28.9011L234.763 38.6757H241.972ZM250.517 48.0809H243.917V47.1971H244.344C244.551 47.1971 244.657 46.9956 244.657 46.5944C244.657 46.4687 244.633 46.3373 244.582 46.1866L242.373 39.7975H234.343C233.497 42.1745 233.076 43.943 233.076 45.1022C233.076 45.7413 233.277 46.2499 233.685 46.6319C234.086 47.009 234.607 47.1971 235.246 47.1971H236.219V48.0809H227.981V47.1971C229.368 47.127 230.616 45.6607 231.733 42.8078L239.262 24.6346H240.347L246.859 42.3875C247.311 43.7108 247.738 44.7011 248.127 45.3594C248.842 46.5503 249.638 47.1654 250.517 47.1971V48.0809ZM226.846 43.5976C222.962 46.9389 219.424 48.6135 216.225 48.6135C213.194 48.6135 210.722 47.485 208.796 45.2337C206.983 43.0899 206.08 40.4817 206.08 37.409C206.08 32.5562 208.15 28.7629 212.291 26.0232C214.261 24.7123 216.639 24.055 219.424 24.055C221.846 24.055 224.142 24.4369 226.294 25.196V30.7378H224.989C224.832 28.9634 224.023 27.5777 222.568 26.5692C221.256 25.6662 219.663 25.2142 217.787 25.2142C215.076 25.2142 212.938 26.2429 211.369 28.2994C209.95 30.1745 209.242 32.5063 209.242 35.2959C209.242 38.2247 210.039 40.688 211.626 42.7003C213.345 44.8643 215.628 45.9486 218.483 45.9486C221.193 45.9486 223.979 44.7952 226.846 42.4815V43.5976ZM203.633 48.0809H194.649V47.1971C195.741 47.1836 196.474 46.9706 196.864 46.557C197.247 46.1367 197.441 45.3777 197.441 44.2808V28.3742C197.441 27.2707 197.247 26.5183 196.864 26.1115C196.474 25.7094 195.741 25.4973 194.649 25.4714V24.5876H203.633V25.4714C202.535 25.4973 201.795 25.7094 201.412 26.1115C201.029 26.5183 200.841 27.2707 200.841 28.3742V44.2808C200.841 46.1617 201.776 47.1395 203.633 47.1971V48.0809ZM193.394 41.3588L192.045 48.0876L176.85 48.0809V47.1971C177.942 47.1836 178.683 46.9706 179.065 46.557C179.455 46.1367 179.649 45.3777 179.649 44.2808V28.3867C179.649 27.2899 179.455 26.5308 179.065 26.1239C178.683 25.7094 177.942 25.4973 176.85 25.4714V24.5876H185.878V25.4714C184.762 25.4973 184.016 25.7036 183.632 26.1047C183.256 26.5001 183.068 27.2649 183.068 28.3867V47.1971H185.458C189.166 47.1971 191.374 45.2529 192.07 41.3588H193.394ZM164.19 17.9039C164.19 18.2109 163.977 18.5996 163.544 19.0765L160.438 22.5311L159.667 21.9976L162.019 17.6285C162.315 17.0882 162.665 16.8185 163.067 16.8185C163.362 16.8185 163.619 16.926 163.851 17.1391C164.078 17.3521 164.19 17.6093 164.19 17.9039ZM171.173 38.4569C171.173 36.2056 170.709 34.0868 169.78 32.0985C168.745 29.9355 167.32 28.3243 165.495 27.2707C163.744 26.2679 162.107 25.7602 160.589 25.7602C158.173 25.7602 156.234 26.6124 154.78 28.3186C153.406 29.9355 152.722 31.9728 152.722 34.4313C152.722 37.7046 153.663 40.5565 155.551 42.9959C157.609 45.6473 160.232 46.9773 163.419 46.9773C165.708 46.9773 167.597 46.1242 169.076 44.4065C170.476 42.7637 171.173 40.7821 171.173 38.4569ZM174.278 35.2211C174.278 37.6479 173.594 39.9616 172.22 42.1553C170.847 44.3557 169.076 46.0052 166.913 47.1088C164.937 48.1116 162.872 48.6135 160.715 48.6135C157.578 48.6135 154.943 47.5473 152.809 45.416C150.682 43.2838 149.617 40.6506 149.617 37.5155C149.617 33.9419 150.933 30.8069 153.576 28.1046C156.216 25.4033 159.322 24.055 162.885 24.055C166.988 24.055 170.194 25.7228 172.497 29.0517C173.688 30.7637 174.278 32.8201 174.278 35.2211ZM148.104 30.7378H146.799C146.768 27.2275 144.905 25.4714 141.216 25.4714H140.225V44.2808C140.225 46.1741 141.152 47.1529 143.016 47.1971V48.0809H134.025V47.1971C135.117 47.1836 135.858 46.9706 136.241 46.557C136.63 46.1367 136.824 45.3777 136.824 44.2808V25.4714H135.55C132.156 25.4714 130.406 27.2275 130.299 30.7378H129.006L128.974 24.5847H148.104V30.7378ZM120.023 38.6757L116.679 28.9011L112.814 38.6757H120.023ZM128.568 48.0809H121.968V47.1971H122.394C122.601 47.1971 122.707 46.9956 122.707 46.5944C122.707 46.4687 122.683 46.3373 122.632 46.1866L120.424 39.7975H112.395C111.547 42.1745 111.127 43.943 111.127 45.1022C111.127 45.7413 111.327 46.2499 111.735 46.6319C112.136 47.009 112.658 47.1971 113.298 47.1971H114.27V48.0809H106.032V47.1971C107.419 47.127 108.667 45.6607 109.784 42.8078L117.194 24.5358H118.279L124.91 42.3875C125.361 43.7108 125.788 44.7011 126.178 45.3594C126.892 46.5503 127.689 47.1654 128.568 47.1971V48.0809ZM104.897 43.5976C101.013 46.9389 97.4746 48.6135 94.2751 48.6135C91.2447 48.6135 88.773 47.485 86.8468 45.2337C85.0339 43.0899 84.1304 40.4817 84.1304 37.409C84.1304 32.5562 86.2016 28.7629 90.3421 26.0232C92.3115 24.7123 94.689 24.055 97.4746 24.055C99.8972 24.055 102.192 24.4369 104.345 25.196V30.7378H103.04C102.883 28.9634 102.073 27.5777 100.618 26.5692C99.3067 25.6662 97.7127 25.2142 95.8374 25.2142C93.1277 25.2142 90.9873 26.2429 89.4193 28.2994C88.002 30.1745 87.2924 32.5063 87.2924 35.2959C87.2924 38.2247 88.0894 40.688 89.6766 42.7003C91.3954 44.8643 93.6798 45.9486 96.5336 45.9486C99.2443 45.9486 102.03 44.7952 104.897 42.4815V43.5976Z" stroke="#1C622B" stroke-width="0.619295"/>
<path d="M241.972 38.6757L238.628 28.9011L234.763 38.6757H241.972ZM250.517 48.0809H243.917V47.1971H244.344C244.551 47.1971 244.658 46.9956 244.658 46.5944C244.658 46.4687 244.633 46.3373 244.582 46.1866L242.373 39.7975H234.343C233.497 42.1745 233.076 43.943 233.076 45.1022C233.076 45.7413 233.277 46.2499 233.685 46.6319C234.086 47.009 234.607 47.1971 235.246 47.1971H236.219V48.0809H227.981V47.1971C229.368 47.127 230.616 45.6607 231.733 42.8078L239.262 24.6346H240.347L246.859 42.3875C247.311 43.7108 247.738 44.7011 248.127 45.3594C248.842 46.5503 249.638 47.1654 250.517 47.1971V48.0809ZM226.846 43.5976C222.962 46.9389 219.424 48.6135 216.225 48.6135C213.194 48.6135 210.722 47.485 208.796 45.2337C206.983 43.0899 206.08 40.4817 206.08 37.409C206.08 32.5562 208.15 28.7629 212.291 26.0232C214.261 24.7123 216.639 24.055 219.424 24.055C221.846 24.055 224.142 24.4369 226.294 25.196V30.7378H224.989C224.832 28.9634 224.023 27.5777 222.568 26.5692C221.256 25.6662 219.663 25.2142 217.787 25.2142C215.076 25.2142 212.938 26.2429 211.368 28.2994C209.95 30.1745 209.242 32.5063 209.242 35.2959C209.242 38.2247 210.039 40.688 211.626 42.7003C213.345 44.8643 215.628 45.9486 218.483 45.9486C221.193 45.9486 223.979 44.7952 226.846 42.4815V43.5976ZM203.633 48.0809H194.649V47.1971C195.741 47.1836 196.474 46.9706 196.864 46.557C197.247 46.1367 197.441 45.3777 197.441 44.2808V28.3742C197.441 27.2707 197.247 26.5183 196.864 26.1115C196.474 25.7094 195.741 25.4973 194.649 25.4714V24.5876H203.633V25.4714C202.535 25.4973 201.795 25.7094 201.412 26.1115C201.029 26.5183 200.841 27.2707 200.841 28.3742V44.2808C200.841 46.1617 201.776 47.1395 203.633 47.1971V48.0809ZM193.394 41.3588L192.045 48.0876L176.85 48.0809V47.1971C177.942 47.1836 178.683 46.9706 179.065 46.557C179.455 46.1367 179.649 45.3777 179.649 44.2808V28.3867C179.649 27.2899 179.455 26.5308 179.065 26.1239C178.683 25.7094 177.942 25.4973 176.85 25.4714V24.5876H185.878V25.4714C184.762 25.4973 184.016 25.7036 183.632 26.1047C183.256 26.5001 183.068 27.2649 183.068 28.3867V47.1971H185.458C189.166 47.1971 191.374 45.2529 192.07 41.3588H193.394ZM164.19 17.9039C164.19 18.2109 163.977 18.5996 163.544 19.0765L160.438 22.5311L159.667 21.9976L162.019 17.6285C162.315 17.0882 162.665 16.8185 163.067 16.8185C163.362 16.8185 163.619 16.926 163.851 17.1391C164.078 17.3521 164.19 17.6093 164.19 17.9039ZM171.173 38.4569C171.173 36.2056 170.709 34.0868 169.78 32.0985C168.745 29.9355 167.32 28.3243 165.495 27.2707C163.744 26.2679 162.107 25.7602 160.589 25.7602C158.173 25.7602 156.234 26.6124 154.78 28.3186C153.406 29.9355 152.722 31.9728 152.722 34.4313C152.722 37.7046 153.663 40.5565 155.551 42.9959C157.609 45.6473 160.232 46.9773 163.419 46.9773C165.708 46.9773 167.597 46.1242 169.076 44.4065C170.476 42.7637 171.173 40.7821 171.173 38.4569ZM174.278 35.2211C174.278 37.6479 173.594 39.9616 172.22 42.1553C170.847 44.3557 169.076 46.0052 166.913 47.1088C164.937 48.1116 162.872 48.6135 160.715 48.6135C157.578 48.6135 154.943 47.5473 152.809 45.416C150.682 43.2838 149.617 40.6506 149.617 37.5155C149.617 33.9419 150.933 30.8069 153.576 28.1046C156.216 25.4033 159.322 24.055 162.885 24.055C166.988 24.055 170.194 25.7228 172.497 29.0517C173.688 30.7637 174.278 32.8201 174.278 35.2211ZM148.104 30.7378H146.799C146.768 27.2275 144.905 25.4714 141.216 25.4714H140.225V44.2808C140.225 46.1741 141.152 47.1529 143.016 47.1971V48.0809H134.025V47.1971C135.117 47.1836 135.858 46.9706 136.241 46.557C136.63 46.1367 136.824 45.3777 136.824 44.2808V25.4714H135.55C132.156 25.4714 130.406 27.2275 130.299 30.7378H129.006L128.974 24.5847H148.104V30.7378ZM120.023 38.6757L116.679 28.9011L112.814 38.6757H120.023ZM128.568 48.0809H121.968V47.1971H122.394C122.601 47.1971 122.707 46.9956 122.707 46.5944C122.707 46.4687 122.683 46.3373 122.632 46.1866L120.424 39.7975H112.395C111.547 42.1745 111.127 43.943 111.127 45.1022C111.127 45.7413 111.327 46.2499 111.735 46.6319C112.136 47.009 112.658 47.1971 113.298 47.1971H114.27V48.0809H106.032V47.1971C107.419 47.127 108.667 45.6607 109.784 42.8078L117.194 24.5358H118.279L124.91 42.3875C125.361 43.7108 125.788 44.7011 126.178 45.3594C126.892 46.5503 127.689 47.1654 128.568 47.1971V48.0809ZM104.897 43.5976C101.013 46.9389 97.4746 48.6135 94.2751 48.6135C91.2447 48.6135 88.773 47.485 86.8468 45.2337C85.0339 43.0899 84.1304 40.4817 84.1304 37.409C84.1304 32.5562 86.2016 28.7629 90.3421 26.0232C92.3115 24.7123 94.689 24.055 97.4746 24.055C99.8972 24.055 102.192 24.4369 104.345 25.196V30.7378H103.04C102.883 28.9634 102.073 27.5777 100.618 26.5692C99.3067 25.6662 97.7127 25.2142 95.8374 25.2142C93.1277 25.2142 90.9873 26.2429 89.4193 28.2994C88.002 30.1745 87.2924 32.5063 87.2924 35.2959C87.2924 38.2247 88.0894 40.688 89.6766 42.7003C91.3954 44.8643 93.6798 45.9486 96.5336 45.9486C99.2443 45.9486 102.03 44.7952 104.897 42.4815V43.5976Z" fill="#1C622B"/>
<path d="M214.987 7.77852C214.513 6.86305 213.93 6.40627 213.243 6.40627C213.004 6.40627 212.809 6.4696 212.653 6.59819C212.417 6.80067 212.222 7.15189 212.07 7.65569C211.92 8.15949 211.844 8.93102 211.844 9.96836C211.844 11.1113 211.927 11.9567 212.096 12.5065C212.262 13.0564 212.49 13.4508 212.779 13.6955C212.928 13.8183 213.131 13.8817 213.385 13.8817C213.953 13.8817 214.487 13.4345 214.987 12.543V7.77852ZM217.713 1.61491V12.0728C217.713 12.7714 217.732 13.186 217.772 13.3145C217.821 13.5266 217.921 13.6859 218.067 13.7886C218.209 13.8913 218.465 13.9546 218.827 13.9815V14.3193L214.987 15.0543V13.6168C214.53 14.1734 214.122 14.5544 213.764 14.753C213.405 14.9545 213.001 15.0543 212.55 15.0543C211.397 15.0543 210.481 14.5371 209.811 13.5036C209.271 12.6658 208.999 11.6352 208.999 10.4127C208.999 9.43769 209.168 8.56348 209.503 7.79099C209.838 7.01946 210.295 6.43602 210.882 6.04161C211.466 5.64721 212.093 5.45241 212.762 5.45241C213.193 5.45241 213.578 5.53494 213.912 5.70383C214.247 5.87272 214.606 6.16445 214.987 6.58476V3.82202C214.987 3.1359 214.957 2.72135 214.901 2.57932C214.822 2.39412 214.706 2.25785 214.549 2.16861C214.393 2.07936 214.102 2.03234 213.674 2.03234V1.61491H217.713ZM203.966 12.7282V9.70639C203.184 10.167 202.6 10.6574 202.216 11.1813C201.963 11.5287 201.838 11.8838 201.838 12.2379C201.838 12.5363 201.943 12.7983 202.159 13.0228C202.322 13.1994 202.547 13.2848 202.839 13.2848C203.164 13.2848 203.538 13.0996 203.966 12.7282ZM203.966 13.4441C202.858 14.4248 201.861 14.9152 200.982 14.9152C200.462 14.9152 200.03 14.7463 199.686 14.4056C199.344 14.0669 199.171 13.6399 199.171 13.1293C199.171 12.4365 199.47 11.8137 200.067 11.261C200.663 10.7073 201.963 9.9722 203.966 9.05385V8.14221C203.966 7.45993 203.93 7.02906 203.853 6.85057C203.78 6.67496 203.638 6.51854 203.429 6.38612C203.22 6.25369 202.984 6.18748 202.726 6.18748C202.301 6.18748 201.954 6.28056 201.681 6.4696C201.513 6.58476 201.429 6.72102 201.429 6.87648C201.429 7.01275 201.519 7.17876 201.701 7.38028C201.947 7.65857 202.07 7.92726 202.07 8.1854C202.07 8.50015 201.954 8.77172 201.715 8.99435C201.479 9.21602 201.171 9.32926 200.79 9.32926C200.382 9.32926 200.04 9.20643 199.765 8.96077C199.49 8.71606 199.351 8.42722 199.351 8.09999C199.351 7.63266 199.536 7.18835 199.905 6.76421C200.275 6.34294 200.79 6.01858 201.45 5.7902C202.112 5.56469 202.799 5.45241 203.511 5.45241C204.374 5.45241 205.056 5.63474 205.557 5.99843C206.062 6.36309 206.386 6.75749 206.536 7.18548C206.625 7.45609 206.671 8.07984 206.671 9.05385V12.5699C206.671 12.9806 206.688 13.2416 206.721 13.3481C206.754 13.4537 206.801 13.5333 206.867 13.5871C206.933 13.636 207.006 13.6629 207.089 13.6629C207.262 13.6629 207.434 13.5468 207.613 13.3145L207.905 13.5401C207.58 14.0208 207.246 14.372 206.897 14.588C206.552 14.8058 206.158 14.9152 205.717 14.9152C205.199 14.9152 204.792 14.7933 204.499 14.5505C204.208 14.3058 204.033 13.9383 203.966 13.4441ZM193.976 7.77852C193.502 6.86305 192.918 6.40627 192.232 6.40627C191.993 6.40627 191.797 6.4696 191.642 6.59819C191.407 6.80067 191.211 7.15189 191.058 7.65569C190.909 8.15949 190.832 8.93102 190.832 9.96836C190.832 11.1113 190.916 11.9567 191.085 12.5065C191.25 13.0564 191.48 13.4508 191.768 13.6955C191.917 13.8183 192.119 13.8817 192.375 13.8817C192.942 13.8817 193.475 13.4345 193.976 12.543V7.77852ZM196.701 1.61491V12.0728C196.701 12.7714 196.721 13.186 196.761 13.3145C196.811 13.5266 196.911 13.6859 197.057 13.7886C197.199 13.8913 197.454 13.9546 197.815 13.9815V14.3193L193.976 15.0543V13.6168C193.518 14.1734 193.11 14.5544 192.753 14.753C192.394 14.9545 191.99 15.0543 191.539 15.0543C190.385 15.0543 189.47 14.5371 188.8 13.5036C188.26 12.6658 187.988 11.6352 187.988 10.4127C187.988 9.43769 188.157 8.56348 188.491 7.79099C188.827 7.01946 189.285 6.43602 189.871 6.04161C190.455 5.64721 191.081 5.45241 191.751 5.45241C192.182 5.45241 192.567 5.53494 192.902 5.70383C193.236 5.87272 193.595 6.16445 193.976 6.58476V3.82202C193.976 3.1359 193.946 2.72135 193.89 2.57932C193.81 2.39412 193.694 2.25785 193.538 2.16861C193.383 2.07936 193.091 2.03234 192.663 2.03234V1.61491H196.701ZM185.903 5.71055V12.9077C185.903 13.5535 185.979 13.968 186.128 14.1494C186.28 14.3289 186.576 14.4315 187.017 14.4584V14.7962H182.063V14.4584C182.475 14.445 182.779 14.3289 182.978 14.1033C183.11 13.9546 183.177 13.5535 183.177 12.9077V7.59907C183.177 6.95037 183.101 6.5387 182.948 6.35637C182.795 6.17788 182.501 6.0752 182.063 6.04833V5.71055H185.903ZM184.536 1.31647C184.958 1.31647 185.312 1.46233 185.604 1.75789C185.896 2.05249 186.042 2.40659 186.042 2.82115C186.042 3.23858 185.896 3.5898 185.601 3.88152C185.305 4.17324 184.951 4.3191 184.536 4.3191C184.119 4.3191 183.767 4.17324 183.475 3.88152C183.183 3.5898 183.037 3.23858 183.037 2.82115C183.037 2.40659 183.183 2.05249 183.475 1.75789C183.767 1.46233 184.119 1.31647 184.536 1.31647ZM180.349 5.4716L180.488 8.57308H180.15C179.759 7.65569 179.354 7.02906 178.933 6.69127C178.516 6.35637 178.098 6.18748 177.679 6.18748C177.418 6.18748 177.192 6.27672 177.006 6.45233C176.821 6.63178 176.728 6.83714 176.728 7.06936C176.728 7.24113 176.791 7.41003 176.921 7.5722C177.126 7.83801 177.703 8.28808 178.648 8.93102C179.596 9.57396 180.216 10.1209 180.518 10.5681C180.816 11.0153 180.965 11.5191 180.965 12.0728C180.965 12.5756 180.839 13.0698 180.588 13.5535C180.339 14.0371 179.984 14.4085 179.527 14.6666C179.069 14.9248 178.566 15.0543 178.012 15.0543C177.58 15.0543 177.003 14.919 176.284 14.6436C176.088 14.5745 175.959 14.5371 175.886 14.5371C175.673 14.5371 175.499 14.7031 175.356 15.0351H175.018L174.858 11.7744H175.196C175.484 12.6227 175.883 13.2589 176.39 13.683C176.894 14.1072 177.371 14.3193 177.822 14.3193C178.134 14.3193 178.386 14.2223 178.582 14.0343C178.778 13.8414 178.877 13.613 178.877 13.3414C178.877 13.0295 178.781 12.7647 178.588 12.5363C178.393 12.3108 177.962 11.9701 177.291 11.5124C176.304 10.8263 175.667 10.3061 175.376 9.94533C174.951 9.41467 174.739 8.83218 174.739 8.19211C174.739 7.49351 174.977 6.86305 175.458 6.30071C175.938 5.73358 176.636 5.45241 177.544 5.45241C178.035 5.45241 178.509 5.57428 178.966 5.81994C179.139 5.91878 179.281 5.96868 179.39 5.96868C179.507 5.96868 179.603 5.94278 179.673 5.89288C179.742 5.84298 179.855 5.70383 180.011 5.4716H180.349ZM169.55 5.71055L169.557 7.77852C170.153 6.84002 170.681 6.21722 171.132 5.91303C171.582 5.60403 172.017 5.45241 172.435 5.45241C172.796 5.45241 173.088 5.56469 173.304 5.78636C173.519 6.00899 173.628 6.32374 173.628 6.73062C173.628 7.16245 173.523 7.49927 173.313 7.73821C173.105 7.97716 172.852 8.09615 172.554 8.09615C172.213 8.09615 171.917 7.98675 171.669 7.76796C171.417 7.54629 171.268 7.42346 171.225 7.40043C171.158 7.36109 171.085 7.34093 171.002 7.34093C170.817 7.34093 170.637 7.41003 170.472 7.55301C170.207 7.77468 170.008 8.08944 169.872 8.49727C169.666 9.12294 169.564 9.81578 169.564 10.5748L169.57 12.6591V13.2051C169.57 13.5765 169.593 13.8155 169.639 13.922C169.716 14.0966 169.831 14.2262 169.984 14.3058C170.141 14.3884 170.399 14.4383 170.764 14.4584V14.7962H165.83V14.4584C166.228 14.4248 166.497 14.3154 166.636 14.1331C166.775 13.9479 166.844 13.4604 166.844 12.6687V7.63841C166.844 7.11159 166.818 6.77764 166.765 6.63178C166.702 6.44561 166.606 6.31319 166.483 6.22778C166.36 6.14141 166.141 6.08192 165.83 6.04833V5.71055H169.55ZM162.273 9.28895C162.273 8.24873 162.216 7.53286 162.104 7.14517C161.987 6.75749 161.812 6.46289 161.573 6.26329C161.437 6.14813 161.255 6.08864 161.025 6.08864C160.691 6.08864 160.415 6.25369 160.2 6.58188C159.819 7.15861 159.626 7.94741 159.626 8.95117V9.28895H162.273ZM164.66 9.92518H159.667C159.726 11.1285 160.048 12.0795 160.632 12.7781C161.079 13.3145 161.616 13.5832 162.246 13.5832C162.637 13.5832 162.989 13.4738 163.307 13.2589C163.626 13.043 163.967 12.6524 164.327 12.092L164.66 12.3108C164.169 13.3078 163.622 14.0179 163.028 14.4315C162.432 14.8461 161.742 15.0543 160.956 15.0543C159.61 15.0543 158.589 14.5371 157.896 13.5036C157.339 12.6726 157.06 11.6381 157.06 10.4031C157.06 8.89167 157.471 7.68928 158.291 6.79395C159.11 5.89959 160.071 5.45241 161.172 5.45241C162.09 5.45241 162.889 5.82666 163.565 6.579C164.242 7.33134 164.607 8.44737 164.66 9.92518ZM151.132 15.0543L148.055 8.0165C147.687 7.16245 147.399 6.61834 147.189 6.38996C147.041 6.22106 146.822 6.10783 146.53 6.04833V5.71055H151.357V6.04833C151.056 6.04833 150.847 6.10495 150.737 6.21435C150.582 6.36021 150.505 6.5291 150.505 6.7239C150.505 6.96668 150.648 7.42058 150.929 8.08655L152.431 11.4922L153.622 8.55389C153.964 7.70559 154.136 7.10583 154.136 6.75461C154.136 6.55213 154.063 6.38612 153.917 6.25753C153.771 6.13086 153.515 6.06177 153.145 6.04833V5.71055H156.109V6.04833C155.824 6.08864 155.591 6.19419 155.409 6.37364C155.23 6.54829 154.958 7.06936 154.593 7.93014L151.58 15.0543H151.132ZM145.028 5.71055V12.9077C145.028 13.5535 145.104 13.968 145.254 14.1494C145.406 14.3289 145.701 14.4315 146.142 14.4584V14.7962H141.189V14.4584C141.599 14.445 141.904 14.3289 142.104 14.1033C142.237 13.9546 142.303 13.5535 142.303 12.9077V7.59907C142.303 6.95037 142.226 6.5387 142.073 6.35637C141.922 6.17788 141.626 6.0752 141.189 6.04833V5.71055H145.028ZM143.662 1.31647C144.083 1.31647 144.437 1.46233 144.729 1.75789C145.021 2.05249 145.167 2.40659 145.167 2.82115C145.167 3.23858 145.021 3.5898 144.726 3.88152C144.432 4.17324 144.076 4.3191 143.662 4.3191C143.244 4.3191 142.892 4.17324 142.6 3.88152C142.31 3.5898 142.164 3.23858 142.164 2.82115C142.164 2.40659 142.31 2.05249 142.6 1.75789C142.892 1.46233 143.244 1.31647 143.662 1.31647ZM134.143 5.71055V6.8832C134.607 6.38324 135.054 6.02242 135.482 5.79308C135.91 5.56469 136.367 5.45241 136.858 5.45241C137.448 5.45241 137.936 5.61459 138.324 5.94278C138.712 6.27 138.97 6.67784 139.1 7.16245C139.202 7.53286 139.255 8.24201 139.255 9.28895V12.828C139.255 13.5266 139.318 13.9613 139.444 14.1331C139.57 14.3058 139.832 14.4114 140.23 14.4584V14.7962H135.634V14.4584C135.98 14.4114 136.225 14.2694 136.374 14.0304C136.477 13.8682 136.53 13.4671 136.53 12.828V8.78515C136.53 8.03953 136.5 7.56932 136.444 7.3774C136.384 7.18164 136.288 7.0329 136.149 6.9235C136.01 6.81698 135.857 6.76421 135.688 6.76421C135.134 6.76421 134.62 7.15573 134.143 7.93686V12.828C134.143 13.5074 134.205 13.9383 134.332 14.1168C134.458 14.2991 134.693 14.4114 135.038 14.4584V14.7962H130.443V14.4584C130.823 14.4181 131.092 14.2953 131.254 14.0909C131.364 13.9479 131.417 13.5266 131.417 12.828V7.67872C131.417 6.98588 131.354 6.55213 131.229 6.38324C131.103 6.21051 130.841 6.10111 130.443 6.04833V5.71055H134.143ZM115.837 1.61491H122.64V1.95269H122.299C121.785 1.95269 121.434 2.00643 121.241 2.11583C121.049 2.22139 120.913 2.37012 120.834 2.55917C120.751 2.74821 120.711 3.22226 120.711 3.98132V10.429C120.711 11.6083 120.801 12.3876 120.976 12.7685C121.156 13.1524 121.447 13.4671 121.855 13.7224C122.263 13.9748 122.78 14.1005 123.4 14.1005C124.112 14.1005 124.719 13.9412 125.22 13.6197C125.721 13.2982 126.095 12.8578 126.344 12.2945C126.593 11.7312 126.719 10.7504 126.719 9.35229V3.98132C126.719 3.38732 126.656 2.96029 126.533 2.70887C126.411 2.45361 126.255 2.278 126.065 2.1782C125.775 2.02946 125.363 1.95269 124.829 1.95269V1.61491H129.385V1.95269H129.113C128.744 1.95269 128.44 2.02946 128.194 2.1782C127.948 2.3279 127.77 2.55245 127.661 2.85473C127.578 3.06297 127.535 3.43722 127.535 3.98132V8.9838C127.535 10.5317 127.432 11.6477 127.229 12.3338C127.024 13.0228 126.53 13.6533 125.741 14.2291C124.949 14.8058 123.874 15.0937 122.508 15.0937C121.367 15.0937 120.489 14.942 119.869 14.6369C119.02 14.2223 118.42 13.6926 118.072 13.043C117.724 12.3971 117.548 11.5258 117.548 10.4328V3.98132C117.548 3.21555 117.505 2.7415 117.422 2.55629C117.336 2.37012 117.193 2.22139 116.985 2.10911C116.775 1.99971 116.394 1.94598 115.837 1.95269V1.61491Z" fill="#1C622B"/>
</svg>
