<svg width="268" height="97" viewBox="0 0 268 97" fill="none" xmlns="http://www.w3.org/2000/svg">
<rect x="43.2664" y="59.0078" width="207.734" height="28.316" fill="#1C622B"/>
<path d="M211.604 78.2615V74.852C210.722 75.3711 210.063 75.9249 209.629 76.516C209.346 76.9085 209.203 77.3077 209.203 77.7078C209.203 78.0446 209.323 78.3402 209.567 78.5935C209.749 78.7922 210.004 78.8891 210.333 78.8891C210.7 78.8891 211.122 78.6799 211.604 78.2615ZM211.604 79.0686C210.355 80.175 209.23 80.7287 208.239 80.7287C207.651 80.7287 207.164 80.5377 206.776 80.1529C206.39 79.772 206.196 79.2893 206.196 78.7135C206.196 77.9324 206.533 77.229 207.206 76.6052C207.879 75.9805 209.346 75.1514 211.604 74.115V73.0873C211.604 72.3177 211.564 71.8311 211.478 71.6296C211.395 71.431 211.235 71.2554 211 71.1057C210.763 70.9569 210.497 70.8821 210.205 70.8821C209.727 70.8821 209.335 70.9867 209.027 71.1997C208.837 71.3302 208.743 71.4838 208.743 71.6594C208.743 71.8129 208.845 72 209.05 72.2274C209.327 72.5422 209.465 72.8445 209.465 73.1362C209.465 73.4913 209.335 73.7974 209.065 74.0478C208.8 74.2983 208.451 74.4259 208.021 74.4259C207.562 74.4259 207.176 74.2877 206.866 74.0114C206.555 73.734 206.398 73.4097 206.398 73.0393C206.398 72.5115 206.607 72.0106 207.022 71.5327C207.442 71.0577 208.021 70.6911 208.766 70.433C209.514 70.1787 210.288 70.052 211.093 70.052C212.064 70.052 212.835 70.2574 213.4 70.669C213.969 71.0797 214.335 71.525 214.503 72.0067C214.605 72.3138 214.657 73.0163 214.657 74.115V78.0821C214.657 78.5456 214.676 78.8411 214.714 78.9601C214.751 79.0801 214.803 79.1703 214.878 79.2298C214.953 79.2854 215.035 79.3152 215.128 79.3152C215.323 79.3152 215.517 79.1847 215.72 78.9227L216.048 79.177C215.683 79.7192 215.304 80.1155 214.911 80.3583C214.523 80.6059 214.077 80.7287 213.58 80.7287C212.997 80.7287 212.536 80.5895 212.207 80.317C211.878 80.0406 211.679 79.6261 211.604 79.0686ZM200.23 70.3437L200.237 72.6766C200.91 71.6181 201.505 70.9157 202.014 70.5721C202.523 70.2238 203.012 70.052 203.484 70.052C203.892 70.052 204.22 70.1787 204.463 70.4301C204.707 70.6805 204.83 71.0346 204.83 71.4953C204.83 71.9808 204.711 72.3618 204.475 72.6315C204.24 72.9001 203.955 73.0354 203.618 73.0354C203.233 73.0354 202.9 72.9117 202.62 72.665C202.335 72.4146 202.167 72.2764 202.118 72.2505C202.044 72.2054 201.962 72.1833 201.868 72.1833C201.658 72.1833 201.457 72.261 201.27 72.4223C200.97 72.6727 200.746 73.0278 200.593 73.4874C200.36 74.1937 200.244 74.9748 200.244 75.8318L200.252 78.1828V78.7999C200.252 79.2182 200.278 79.4869 200.331 79.6069C200.417 79.8046 200.548 79.9514 200.719 80.0406C200.895 80.1337 201.187 80.1903 201.599 80.2124V80.5943H196.033V80.2124C196.481 80.175 196.784 80.0522 196.942 79.8468C197.098 79.6366 197.177 79.0877 197.177 78.1943V72.5192C197.177 71.9252 197.147 71.5471 197.087 71.383C197.016 71.1738 196.907 71.0241 196.769 70.9272C196.632 70.8293 196.384 70.7621 196.033 70.7247V70.3437H200.23ZM193.747 70.3437V78.463C193.747 79.1923 193.834 79.6597 194.002 79.865C194.174 80.0666 194.507 80.1827 195.004 80.2124V80.5943H189.416V80.2124C189.879 80.198 190.223 80.0666 190.448 79.8132C190.598 79.6443 190.673 79.1923 190.673 78.463V72.4741C190.673 71.7419 190.586 71.2784 190.414 71.073C190.242 70.8706 189.909 70.7544 189.416 70.7247V70.3437H193.747ZM192.206 65.3864C192.681 65.3864 193.081 65.5514 193.41 65.8844C193.74 66.2164 193.904 66.6166 193.904 67.0839C193.904 67.5551 193.74 67.9514 193.406 68.2806C193.073 68.6087 192.674 68.7738 192.206 68.7738C191.735 68.7738 191.338 68.6087 191.009 68.2806C190.68 67.9514 190.515 67.5551 190.515 67.0839C190.515 66.6166 190.68 66.2164 191.009 65.8844C191.338 65.5514 191.735 65.3864 192.206 65.3864ZM185.783 74.3808C185.783 73.2072 185.719 72.3992 185.592 71.9626C185.461 71.525 185.264 71.192 184.994 70.9675C184.841 70.837 184.635 70.7698 184.377 70.7698C183.999 70.7698 183.689 70.9569 183.445 71.3273C183.015 71.977 182.799 72.8666 182.799 73.9999V74.3808H185.783ZM188.477 75.0986H182.843C182.91 76.4555 183.273 77.5284 183.932 78.3172C184.437 78.9227 185.043 79.2259 185.753 79.2259C186.195 79.2259 186.592 79.1021 186.951 78.8594C187.309 78.6166 187.695 78.1751 188.102 77.5437L188.477 77.7903C187.923 78.915 187.306 79.7153 186.636 80.1827C185.963 80.65 185.185 80.8851 184.299 80.8851C182.78 80.8851 181.627 80.3026 180.846 79.1357C180.218 78.1972 179.903 77.0313 179.903 75.637C179.903 73.9327 180.367 72.5758 181.29 71.5663C182.215 70.5568 183.3 70.052 184.542 70.052C185.578 70.052 186.479 70.4742 187.243 71.3225C188.005 72.1718 188.417 73.4318 188.477 75.0986ZM174.476 70.3437L174.482 72.6766C175.156 71.6181 175.751 70.9157 176.26 70.5721C176.769 70.2238 177.258 70.052 177.73 70.052C178.138 70.052 178.466 70.1787 178.709 70.4301C178.953 70.6805 179.076 71.0346 179.076 71.4953C179.076 71.9808 178.957 72.3618 178.721 72.6315C178.485 72.9001 178.201 73.0354 177.864 73.0354C177.479 73.0354 177.146 72.9117 176.866 72.665C176.581 72.4146 176.413 72.2764 176.364 72.2505C176.289 72.2054 176.207 72.1833 176.114 72.1833C175.904 72.1833 175.703 72.261 175.515 72.4223C175.216 72.6727 174.991 73.0278 174.838 73.4874C174.606 74.1937 174.49 74.9748 174.49 75.8318L174.498 78.1828V78.7999C174.498 79.2182 174.524 79.4869 174.576 79.6069C174.662 79.8046 174.793 79.9514 174.965 80.0406C175.141 80.1337 175.433 80.1903 175.844 80.2124V80.5943H170.278V80.2124C170.727 80.175 171.03 80.0522 171.188 79.8468C171.344 79.6366 171.423 79.0877 171.423 78.1943V72.5192C171.423 71.9252 171.393 71.5471 171.333 71.383C171.262 71.1738 171.153 71.0241 171.015 70.9272C170.877 70.8293 170.63 70.7621 170.278 70.7247V70.3437H174.476ZM166.265 74.3808C166.265 73.2072 166.201 72.3992 166.074 71.9626C165.943 71.525 165.744 71.192 165.475 70.9675C165.322 70.837 165.116 70.7698 164.858 70.7698C164.48 70.7698 164.169 70.9569 163.927 71.3273C163.496 71.977 163.279 72.8666 163.279 73.9999V74.3808H166.265ZM168.958 75.0986H163.324C163.392 76.4555 163.755 77.5284 164.413 78.3172C164.918 78.9227 165.524 79.2259 166.234 79.2259C166.676 79.2259 167.072 79.1021 167.431 78.8594C167.79 78.6166 168.176 78.1751 168.584 77.5437L168.958 77.7903C168.404 78.915 167.787 79.7153 167.117 80.1827C166.444 80.65 165.666 80.8851 164.779 80.8851C163.261 80.8851 162.109 80.3026 161.327 79.1357C160.698 78.1972 160.384 77.0313 160.384 75.637C160.384 73.9327 160.848 72.5758 161.772 71.5663C162.696 70.5568 163.781 70.052 165.023 70.052C166.058 70.052 166.96 70.4742 167.723 71.3225C168.487 72.1718 168.898 73.4318 168.958 75.0986ZM151.859 66.5753V73.0124C152.102 73.0278 152.286 73.0354 152.409 73.0354C153.304 73.0354 153.995 72.7696 154.478 72.239C154.96 71.7083 155.204 70.8859 155.204 69.7718C155.204 68.6654 154.96 67.8574 154.478 67.3459C153.995 66.8335 153.269 66.5753 152.312 66.5753H151.859ZM151.859 73.8646V77.9919C151.859 78.8027 151.907 79.3113 152.009 79.5215C152.106 79.7297 152.282 79.8986 152.536 80.0253C152.787 80.1491 153.251 80.2124 153.924 80.2124V80.5943H146.36V80.2124C147.049 80.2124 147.516 80.1491 147.76 80.0186C148.007 79.8909 148.179 79.723 148.276 79.5176C148.377 79.3113 148.426 78.8027 148.426 77.9919V68.3247C148.426 67.5138 148.377 67.0052 148.276 66.796C148.179 66.5868 148.007 66.4179 147.755 66.2913C147.505 66.1684 147.041 66.1041 146.36 66.1041V65.7232H152.847C154.983 65.7232 156.517 66.1041 157.444 66.8632C158.375 67.6261 158.839 68.5752 158.839 69.7152C158.839 70.6834 158.54 71.5097 157.938 72.1977C157.339 72.8857 156.513 73.3531 155.458 73.6035C154.751 73.7792 153.55 73.8646 151.859 73.8646ZM136.983 74.3808C136.983 73.2072 136.919 72.3992 136.793 71.9626C136.661 71.525 136.463 71.192 136.193 70.9675C136.041 70.837 135.834 70.7698 135.576 70.7698C135.199 70.7698 134.888 70.9569 134.645 71.3273C134.215 71.977 133.998 72.8666 133.998 73.9999V74.3808H136.983ZM139.676 75.0986H134.042C134.111 76.4555 134.473 77.5284 135.131 78.3172C135.636 78.9227 136.242 79.2259 136.953 79.2259C137.395 79.2259 137.791 79.1021 138.15 78.8594C138.508 78.6166 138.895 78.1751 139.303 77.5437L139.676 77.7903C139.123 78.915 138.506 79.7153 137.835 80.1827C137.162 80.65 136.384 80.8851 135.497 80.8851C133.979 80.8851 132.827 80.3026 132.045 79.1357C131.416 78.1972 131.102 77.0313 131.102 75.637C131.102 73.9327 131.566 72.5758 132.49 71.5663C133.415 70.5568 134.499 70.052 135.741 70.052C136.777 70.052 137.679 70.4742 138.441 71.3225C139.205 72.1718 139.617 73.4318 139.676 75.0986ZM125.376 72.6766C124.841 71.644 124.182 71.1287 123.408 71.1287C123.139 71.1287 122.918 71.1997 122.743 71.3456C122.477 71.574 122.256 71.9703 122.084 72.5374C121.916 73.1065 121.829 73.9768 121.829 75.1476C121.829 76.4373 121.923 77.3902 122.114 78.0111C122.301 78.631 122.559 79.0762 122.885 79.3526C123.053 79.4917 123.281 79.5618 123.569 79.5618C124.209 79.5618 124.811 79.058 125.376 78.0523V72.6766ZM128.45 65.7232V77.5217C128.45 78.3095 128.472 78.7768 128.518 78.9227C128.574 79.1626 128.686 79.3411 128.851 79.4572C129.012 79.5733 129.3 79.6443 129.707 79.675V80.056L125.376 80.8851V79.2633C124.86 79.8909 124.399 80.3208 123.996 80.5454C123.591 80.7738 123.135 80.8851 122.626 80.8851C121.324 80.8851 120.292 80.3026 119.536 79.1357C118.927 78.1905 118.62 77.0275 118.62 75.6485C118.62 74.5488 118.811 73.5623 119.189 72.6909C119.567 71.8206 120.083 71.1623 120.745 70.717C121.403 70.2727 122.11 70.052 122.865 70.052C123.352 70.052 123.785 70.146 124.164 70.3361C124.541 70.527 124.945 70.8552 125.376 71.3302V68.2134C125.376 67.439 125.342 66.9716 125.279 66.8104C125.188 66.6012 125.058 66.4486 124.882 66.3469C124.706 66.2462 124.377 66.1934 123.895 66.1934V65.7232H128.45Z" fill="white"/>
<path d="M131.776 91.3842V96.5517H130.727L128.729 93.0616C128.732 93.1489 128.735 93.2074 128.737 93.2362C128.747 93.3235 128.752 93.3984 128.752 93.4589V96.5517H127.806V91.3842H129.117L130.861 94.4309C130.846 94.2803 130.838 94.1651 130.838 94.0864V91.3842H131.776ZM125.775 89.6098L126.062 90.2441L124.398 90.9504L124.209 90.5282L125.775 89.6098ZM124.825 92.291C124.192 92.291 123.875 92.8485 123.875 93.9655C123.875 95.0844 124.192 95.6449 124.825 95.6449C125.437 95.6449 125.744 95.0864 125.744 93.9694C125.744 92.8495 125.437 92.291 124.825 92.291ZM124.789 96.6294C124.095 96.6294 123.556 96.3684 123.175 95.8464C122.794 95.3234 122.604 94.692 122.604 93.9511C122.604 93.1969 122.796 92.5683 123.183 92.0636C123.569 91.5588 124.118 91.3074 124.833 91.3074C125.554 91.3074 126.097 91.5751 126.464 92.1135C126.832 92.6518 127.015 93.2688 127.015 93.9626C127.015 94.7121 126.826 95.3426 126.448 95.8569C126.069 96.3722 125.517 96.6294 124.789 96.6294ZM121.817 91.3842V96.5517H120.608V91.3842H121.817ZM119.906 93.3111L118.634 93.3907C118.616 92.6576 118.334 92.291 117.784 92.291C117.152 92.291 116.836 92.8524 116.836 93.977C116.836 94.6267 116.921 95.0672 117.093 95.2975C117.265 95.5287 117.504 95.6449 117.812 95.6449C118.312 95.6449 118.616 95.3195 118.728 94.6689L119.906 94.7409C119.83 95.357 119.599 95.8272 119.216 96.1477C118.831 96.4692 118.36 96.6294 117.803 96.6294C117.119 96.6294 116.563 96.3934 116.136 95.9212C115.709 95.4501 115.495 94.7985 115.495 93.9655C115.495 93.1873 115.702 92.5491 116.115 92.0521C116.529 91.555 117.094 91.3074 117.811 91.3074C119.051 91.3074 119.749 91.9743 119.906 93.3111ZM112.359 94.5298H113.452L112.911 92.719L112.359 94.5298ZM113.748 91.3842L115.357 96.5517H114.055L113.736 95.4827H112.069L111.743 96.5517H110.683L112.337 91.3842H113.748ZM110.553 93.3111L109.282 93.3907C109.264 92.6576 108.98 92.291 108.43 92.291C107.798 92.291 107.483 92.8524 107.483 93.977C107.483 94.6267 107.569 95.0672 107.741 95.2975C107.912 95.5287 108.151 95.6449 108.459 95.6449C108.958 95.6449 109.264 95.3195 109.375 94.6689L110.553 94.7409C110.477 95.357 110.247 95.8272 109.863 96.1477C109.478 96.4692 109.006 96.6294 108.449 96.6294C107.766 96.6294 107.211 96.3934 106.782 95.9212C106.355 95.4501 106.142 94.7985 106.142 93.9655C106.142 93.1873 106.348 92.5491 106.762 92.0521C107.175 91.555 107.742 91.3074 108.457 91.3074C109.698 91.3074 110.397 91.9743 110.553 93.3111ZM105.426 91.3842V94.6008C105.426 95.1209 105.367 95.5067 105.248 95.76C105.13 96.0143 104.911 96.2225 104.591 96.3847C104.272 96.5478 103.865 96.6294 103.368 96.6294C102.87 96.6294 102.475 96.5555 102.182 96.4097C101.887 96.2638 101.667 96.0556 101.521 95.785C101.375 95.5143 101.302 95.1209 101.302 94.6008V91.3842H102.612V94.6027C102.612 94.881 102.635 95.0864 102.682 95.2169C102.728 95.3483 102.822 95.4529 102.963 95.5307C103.102 95.6065 103.275 95.6449 103.479 95.6449C103.706 95.6449 103.891 95.6074 104.033 95.5316C104.175 95.4548 104.271 95.356 104.318 95.2313C104.365 95.1055 104.388 94.8963 104.388 94.6027V91.3842H105.426ZM97.5153 92.3371V95.5834H98.0127C98.4534 95.5834 98.7799 95.4184 98.9931 95.0883C99.2062 94.7591 99.3138 94.3724 99.3138 93.9281C99.3138 93.6153 99.2523 93.3245 99.1304 93.0587C99.0084 92.7929 98.8577 92.6058 98.6762 92.4992C98.4957 92.3918 98.2777 92.3371 98.0242 92.3371H97.5153ZM96.3294 91.3842H97.9051C98.5475 91.3842 99.0257 91.4734 99.3407 91.6509C99.6566 91.8294 99.9379 92.1096 100.187 92.4964C100.436 92.8812 100.561 93.3667 100.561 93.955C100.561 94.6939 100.343 95.3119 99.9082 95.808C99.4722 96.3041 98.8721 96.5517 98.1058 96.5517H96.3294V91.3842ZM95.6016 92.3678H93.1444V93.4291H95.0744V94.3974H93.1444V95.5287H95.6016V96.5517H91.9114V91.3842H95.6016V92.3678ZM90.8686 91.3842V96.5517H89.8201L87.8218 93.0616C87.8247 93.1489 87.8276 93.2074 87.8295 93.2362C87.8401 93.3235 87.8459 93.3984 87.8459 93.4589V96.5517H86.8991V91.3842H88.2098L89.9545 94.4309C89.9391 94.2803 89.9305 94.1651 89.9305 94.0864V91.3842H90.8686ZM85.8649 91.3842V96.5517H84.655V91.3842H85.8649ZM80.2649 96.5517L79.0051 92.3371V96.5517H77.9892V91.3842H79.876L80.7767 94.477L81.7292 91.3842H83.618V96.5517H82.4004V92.3371L81.1032 96.5517H80.2649ZM73.07 92.291C72.4362 92.291 72.1203 92.8485 72.1203 93.9655C72.1203 95.0844 72.4362 95.6449 73.07 95.6449C73.6816 95.6449 73.9879 95.0864 73.9879 93.9694C73.9879 92.8495 73.6816 92.291 73.07 92.291ZM73.0344 96.6294C72.3402 96.6294 71.8005 96.3684 71.4193 95.8464C71.0381 95.3234 70.849 94.692 70.849 93.9511C70.849 93.1969 71.041 92.5683 71.428 92.0636C71.814 91.5588 72.3632 91.3074 73.0776 91.3074C73.7988 91.3074 74.3422 91.5751 74.709 92.1135C75.0759 92.6518 75.2593 93.2688 75.2593 93.9626C75.2593 94.7121 75.0711 95.3426 74.6927 95.8569C74.3134 96.3722 73.7623 96.6294 73.0344 96.6294ZM67.2558 92.3371V95.5834H67.7532C68.1939 95.5834 68.5204 95.4184 68.7336 95.0883C68.9468 94.7591 69.0543 94.3724 69.0543 93.9281C69.0543 93.6153 68.9928 93.3245 68.8709 93.0587C68.7489 92.7929 68.5982 92.6058 68.4167 92.4992C68.2362 92.3918 68.0182 92.3371 67.7647 92.3371H67.2558ZM66.069 91.3842H67.6456C68.288 91.3842 68.7662 91.4734 69.0812 91.6509C69.3961 91.8294 69.6784 92.1096 69.9281 92.4964C70.1768 92.8812 70.3016 93.3667 70.3016 93.955C70.3016 94.6939 70.0837 95.3119 69.6487 95.808C69.2127 96.3041 68.6116 96.5517 67.8454 96.5517H66.069V91.3842ZM62.5152 94.5298H63.6079L63.0664 92.719L62.5152 94.5298ZM63.9037 91.3842L65.513 96.5517H64.2109L63.8921 95.4827H62.2252L61.8987 96.5517H60.8377L62.4931 91.3842H63.9037ZM58.6791 95.5287H60.733V96.5517H57.4538V91.3842H58.6791V95.5287ZM56.4187 91.3842V96.5517H55.2098V91.3842H56.4187ZM54.2553 93.7861V96.5517H53.7042C53.6648 96.3578 53.6062 96.1592 53.5304 95.9577C53.1617 96.4058 52.6921 96.6294 52.1208 96.6294C51.4467 96.6294 50.9215 96.3876 50.547 95.9059C50.1706 95.4241 49.9833 94.8023 49.9833 94.0375C49.9833 93.2151 50.184 92.5559 50.5844 92.0559C50.9839 91.5559 51.5274 91.3074 52.2139 91.3074C52.79 91.3074 53.2538 91.4686 53.6082 91.7901C53.9606 92.1125 54.1766 92.5415 54.2553 93.0769L53.1079 93.2276C53.0147 92.6029 52.7161 92.291 52.2149 92.291C51.8855 92.291 51.6378 92.4397 51.4697 92.7363C51.2998 93.0328 51.2162 93.4569 51.2162 94.0078C51.2162 94.5384 51.3075 94.9443 51.4899 95.2245C51.6723 95.5047 51.9316 95.6449 52.2677 95.6449C52.4866 95.6449 52.6796 95.5738 52.8515 95.4337C53.0224 95.2917 53.1079 95.0652 53.1079 94.7543H52.1313V93.7861H54.2553ZM49.1969 91.3842V96.5517H47.988V91.3842H49.1969ZM47.5175 91.3842L45.959 96.5517H44.656L43.1062 91.3842H44.3939L45.428 95.0796L46.5092 91.3842H47.5175Z" fill="#141513"/>
<path fill-rule="evenodd" clip-rule="evenodd" d="M0 46.4152C0 24.0945 18.1108 6 40.4513 6C62.7928 6 80.9036 24.0945 80.9036 46.4152C80.9036 63.1557 70.7166 77.5182 56.197 83.654C51.3575 85.699 46.0369 86.8294 40.4513 86.8294C18.1108 86.8294 0 68.7359 0 46.4152Z" fill="white"/>
<path fill-rule="evenodd" clip-rule="evenodd" d="M1.63818 46.4834C1.63818 25.0715 19.0115 7.71399 40.4437 7.71399C61.8749 7.71399 79.2472 25.0715 79.2472 46.4834C79.2472 62.5426 69.4751 76.3207 55.548 82.2061C50.9053 84.1675 45.8008 85.2528 40.4437 85.2528C19.0115 85.2528 1.63818 67.8953 1.63818 46.4834Z" fill="#040506"/>
<path fill-rule="evenodd" clip-rule="evenodd" d="M2.32397 46.4236C2.32397 25.4118 19.3718 8.37866 40.4035 8.37866C61.4334 8.37866 78.4812 25.4118 78.4812 46.4236C78.4812 67.4344 61.4334 84.4675 40.4035 84.4675C19.3718 84.4675 2.32397 67.4344 2.32397 46.4236Z" fill="#C30010"/>
<path fill-rule="evenodd" clip-rule="evenodd" d="M31.1861 35.412C30.971 35.0694 30.7568 34.6961 30.5245 34.3814C28.1518 31.1782 29.932 30.3951 29.4673 28.6582C28.8153 26.2285 24.7622 25.9214 26.8967 21.1598C26.9447 22.3824 28.4033 24.7257 30.3276 25.2017C31.767 25.5577 33.7383 26.5845 33.7835 28.7398C33.8411 31.468 35.2814 31.8211 36.3809 32.9017L34.3826 22.4956L37.8356 32.0399C37.8366 31.5486 37.8615 31.0352 37.8154 30.6255C37.3632 26.6661 39.298 26.8772 39.7637 25.1413C40.4157 22.7105 37.0597 20.4199 41.2905 17.3626C40.7201 18.446 40.8104 21.203 42.2382 22.5772C43.307 23.6049 44.5005 25.479 43.4616 27.3676C42.0375 29.9547 43.1495 30.9536 43.5249 32.5946L46.9721 22.5647L45.1093 32.9928C45.3359 32.5696 45.6499 32.1292 45.8314 31.7098C47.4215 28.0556 48.9915 29.2043 50.2638 27.9337C52.044 26.1546 50.2849 22.4956 55.4788 21.9611C54.4427 22.6146 53.1406 25.0472 53.6898 26.9501C54.1008 28.3732 54.1978 30.5928 52.3513 31.7098C49.9363 33.1704 50.2167 34.4265 49.7097 35.8976L57.8351 28.7561L50.9042 36.9819C51.3565 36.7641 51.9259 36.6039 52.2966 36.3294C55.5028 33.9592 56.2863 35.7383 58.0243 35.2738C60.4575 34.6223 60.7648 30.5736 65.5304 32.7059C64.3061 32.7539 61.9612 34.2106 61.484 36.1327C61.1277 37.5712 60.1003 39.5412 57.9436 39.5863C55.3117 39.641 54.9775 40.6179 53.9088 41.5977L64.1553 39.6996L54.4004 43.2281C54.796 43.1897 55.2137 43.1791 55.5796 43.1369C59.5424 42.6859 59.3302 44.6186 61.0682 45.084C63.5005 45.7346 65.7935 42.3827 68.8537 46.6098C67.7687 46.0398 65.009 46.13 63.6339 47.5569C62.6055 48.624 60.7302 49.8168 58.8395 48.7785C56.3237 47.3967 55.4279 48.41 53.9328 48.7718L64.0641 52.3646L53.5583 50.4914C53.9549 50.7409 54.3466 51.1219 54.7586 51.3004C58.4161 52.8895 57.2657 54.4575 58.538 55.728C60.3192 57.5072 63.9815 55.7491 64.5164 60.9388C63.8625 59.9043 61.4273 58.603 59.5223 59.1519C58.0982 59.5627 55.8763 59.6586 54.7586 57.8152C53.3067 55.42 52.1986 55.4162 50.7938 54.9728L57.8678 63.2169L50.0621 56.6512C50.2465 57.0293 50.427 57.4429 50.6652 57.7643C53.0379 60.9675 51.2566 61.7506 51.7224 63.4875C52.3743 65.9172 56.4265 66.2243 54.2919 70.9859C54.2439 69.7634 52.7863 67.42 50.862 66.944C49.4226 66.588 47.4503 65.5612 47.4052 63.4059C47.3476 60.6461 46.5131 60.3563 45.4444 59.2297L46.9145 69.2145L43.6517 60.2219C43.6546 60.5578 43.6574 60.8985 43.692 61.2036C44.1433 65.162 42.2094 64.9509 41.7437 66.6868C41.0927 69.1176 44.4477 71.4082 40.217 74.4655C40.7873 73.3811 40.6971 70.6241 39.2692 69.2509C38.2005 68.2232 37.006 66.3491 38.0459 64.4596C39.493 61.8293 38.5039 61.0078 38.2149 59.3467L34.5555 69.7586L36.3809 59.4533C36.2023 59.8189 35.991 60.1931 35.8393 60.5415C34.2492 64.1957 32.6802 63.047 31.4079 64.3176C29.6267 66.0967 31.3867 69.7567 26.1919 70.2912C27.228 69.6377 28.531 67.2041 27.9808 65.3021C27.5699 63.8781 27.4738 61.6585 29.3194 60.5415C31.6086 59.1567 31.4184 57.8795 31.8429 56.4583L23.534 63.5671L29.7476 55.492C29.4433 55.6398 29.1379 55.7933 28.8921 55.9756C25.6869 58.3459 24.9024 56.5667 23.1653 57.0322C20.7321 57.6828 20.4248 61.7314 15.6583 59.5991C16.8826 59.5511 19.2284 58.0944 19.7047 56.1723C20.0609 54.7339 21.0883 52.7638 23.246 52.7187C25.9269 52.663 26.7028 51.4069 27.784 50.3398L17.0544 52.3636L27.2904 48.6624C26.7402 48.7651 26.0431 48.7823 25.4506 48.8495C21.4878 49.3015 21.699 47.3688 19.962 46.9034C17.5288 46.2528 15.2367 49.6047 12.1765 45.3776C13.2606 45.9476 16.0212 45.8584 17.3953 44.4305C18.4237 43.3634 20.3 42.1696 22.1907 43.2089C24.5519 44.5063 25.5275 43.7031 27.0091 43.2751L17.1457 39.641L27.446 41.4797C27.059 41.2705 26.6567 41.0123 26.2716 40.8454C22.6141 39.2562 23.7645 37.6882 22.4922 36.4177C20.711 34.6386 17.0487 36.3966 16.5138 31.207C17.1678 32.2424 19.6029 33.5427 21.508 32.9938C22.932 32.584 25.1539 32.4871 26.2716 34.3315C27.6255 36.5655 28.7797 36.5904 30.1951 36.9762L23.5014 28.9471L31.1861 35.412Z" fill="#FFC900"/>
<path d="M73.7122 51.076C74.8232 50.8543 75.4224 50.7488 75.5088 50.7584L75.5155 50.7094C75.4349 50.6989 74.8799 50.4455 73.8515 49.9475L73.7122 51.076ZM71.7841 52.2928L71.906 51.3015C72.0424 51.3188 72.4409 51.2718 73.1006 51.1614L73.2772 49.7287C72.6742 49.4581 72.2997 49.3132 72.1528 49.2959L72.2671 48.3622C72.3477 48.3718 72.9796 48.6942 74.1635 49.3295C75.3475 49.9648 76.0014 50.2891 76.1281 50.3054L75.9841 51.4771C75.866 51.4627 75.165 51.598 73.8793 51.884C72.5945 52.1709 71.8945 52.3062 71.7841 52.2928ZM75.1631 46.7673C75.5779 46.7529 75.7748 46.4794 75.7565 45.9469C75.7498 45.752 75.7297 45.5793 75.6951 45.4306C75.3734 45.4642 74.9528 45.4901 74.4343 45.5083C74.4343 45.6225 74.4353 45.7204 74.4381 45.8C74.4612 46.4612 74.7032 46.7836 75.1631 46.7673ZM72.3305 48.0379L72.2978 47.1147C73.0266 46.847 73.475 46.6464 73.6431 46.5111C73.8111 46.3758 73.8908 46.1656 73.8803 45.8778C73.8764 45.7578 73.8707 45.6417 73.8659 45.5313C73.331 45.5505 72.7904 45.5793 72.245 45.6158L72.2152 44.7483C72.8451 44.754 73.5547 44.7425 74.3441 44.7157C75.1017 44.6888 75.7488 44.6523 76.2818 44.6072L76.301 45.1475C76.3029 45.2089 76.3106 45.3394 76.324 45.5381C76.3375 45.7367 76.3471 45.92 76.3528 46.0879C76.3865 47.0437 76.0753 47.5321 75.4214 47.5552C74.9039 47.5734 74.5323 47.3133 74.3104 46.776L74.2634 46.7779C74.2115 46.989 74.0541 47.179 73.79 47.346C73.5259 47.5149 73.0391 47.7452 72.3305 48.0379ZM72.1595 43.6447L72.0827 42.7648C72.728 42.735 73.4376 42.687 74.2067 42.6199C74.9644 42.5536 75.6077 42.4836 76.1368 42.4107L76.2136 43.2906C75.6884 43.3098 75.0431 43.352 74.2768 43.4192C73.4943 43.4883 72.7885 43.5632 72.1595 43.6447ZM72.6589 41.6785L71.979 41.785L71.4711 39.1768C72.0942 39.0827 72.7933 38.9609 73.5682 38.8102C74.3124 38.6662 74.9461 38.529 75.4656 38.4004L75.9495 40.8897L75.2716 40.9866C75.1852 40.3676 75.094 39.8072 74.997 39.3102C74.7157 39.385 74.3824 39.4608 73.9964 39.5357C74.079 39.9617 74.1799 40.4175 74.296 40.8993L73.6556 41.024C73.5826 40.5423 73.5039 40.0826 73.4193 39.647C73.0045 39.7276 72.6166 39.812 72.2584 39.8994C72.3669 40.4588 72.5004 41.0518 72.6589 41.6785ZM73.718 36.392C74.1097 36.2576 74.2183 35.9381 74.0445 35.4343C73.9811 35.25 73.9119 35.0898 73.8351 34.9583C73.5375 35.085 73.1428 35.2327 72.6521 35.4007C72.6857 35.5101 72.7146 35.6032 72.7414 35.678C72.9565 36.3046 73.282 36.5417 73.718 36.392ZM71.3808 38.435L71.0793 37.5617C71.6977 37.0925 72.0674 36.7691 72.1893 36.5906C72.3103 36.4131 72.3247 36.1885 72.2306 35.916C72.1912 35.8018 72.1528 35.6924 72.1163 35.5888C71.6093 35.7634 71.1014 35.9486 70.5905 36.1434L70.3082 35.3229C70.9113 35.1435 71.5872 34.9257 72.3333 34.6685C73.0506 34.4219 73.6585 34.1983 74.1549 33.9996L74.3316 34.5102C74.3517 34.5687 74.3969 34.6915 74.4679 34.8767C74.539 35.0639 74.6014 35.2356 74.6571 35.3949C74.9682 36.2989 74.8146 36.8574 74.1962 37.0694C73.7055 37.2383 73.2744 37.0982 72.9047 36.6491L72.8605 36.6645C72.873 36.8823 72.7779 37.1098 72.5734 37.3468C72.3708 37.5848 71.9733 37.9475 71.3808 38.435ZM70.6193 34.1839L69.9856 34.4516L68.8612 32.0439C69.4431 31.8021 70.0922 31.5152 70.8066 31.1812C71.4941 30.8617 72.076 30.5748 72.5484 30.3253L73.622 32.6236L72.9873 32.8817C72.753 32.3011 72.5283 31.78 72.3141 31.3204C72.0597 31.4615 71.7543 31.615 71.3981 31.781C71.5815 32.1754 71.7899 32.5928 72.0193 33.0323L71.4279 33.3078C71.2406 32.8587 71.0524 32.4316 70.8652 32.0295C70.482 32.208 70.1258 32.3827 69.7993 32.5545C70.0413 33.0707 70.313 33.6148 70.6193 34.1839ZM70.4763 29.0221C70.8508 28.7793 70.8767 28.4108 70.554 27.9147C70.4734 27.7909 70.3754 27.6681 70.2593 27.5481C69.9414 27.7804 69.5737 28.0328 69.156 28.3043C69.1819 28.3494 69.2126 28.4012 69.2501 28.4588C69.6649 29.097 70.073 29.2841 70.4763 29.0221ZM71.0591 29.6046C70.6424 29.8752 70.2333 29.9213 69.8329 29.7399C69.4325 29.5585 69.0849 29.2438 68.792 28.7928C68.7383 28.7112 68.7027 28.6517 68.6835 28.6143C68.3551 28.8283 67.9288 29.1181 67.4026 29.4866L66.9244 28.7505C67.4429 28.4463 68.0459 28.0711 68.7306 27.6268C69.3605 27.219 69.8953 26.8553 70.337 26.5367L70.6328 26.9925C70.675 27.0568 70.7586 27.1797 70.8824 27.3591C71.0073 27.5395 71.1129 27.6959 71.2003 27.8312C71.4163 28.1623 71.5229 28.4905 71.521 28.8168C71.5191 29.144 71.3664 29.406 71.0591 29.6046ZM65.2767 25.2882L64.7649 25.7489L62.9174 23.8373C63.3889 23.4189 63.9083 22.9362 64.4768 22.3883C65.0222 21.8624 65.4783 21.4028 65.8442 21.0122L67.6071 22.8374L67.0915 23.2865C66.6815 22.8144 66.2993 22.395 65.9459 22.0304C65.752 22.2463 65.5138 22.491 65.2306 22.7635C65.533 23.0763 65.8653 23.4036 66.2254 23.7442L65.7558 24.1981C65.4322 23.8335 65.1153 23.4909 64.8081 23.1713C64.5037 23.465 64.2243 23.7461 63.9708 24.0139C64.3673 24.4246 64.8023 24.8497 65.2767 25.2882ZM62.9087 21.0861C63.1661 20.78 63.2928 20.447 63.2909 20.0871C63.288 19.7273 63.1037 19.3943 62.7369 19.0863C62.6677 19.0287 62.5669 18.9567 62.4354 18.8703C62.1828 19.2033 61.9111 19.543 61.6192 19.8904C61.2994 20.2723 60.9902 20.6571 60.6916 21.0458C60.7771 21.1523 60.8721 21.2502 60.9758 21.3366C61.3196 21.6254 61.6633 21.731 62.0071 21.658C62.3518 21.5832 62.6524 21.3922 62.9087 21.0861ZM63.6491 21.5314C63.2688 21.9843 62.7916 22.2578 62.2164 22.3518C61.6422 22.4468 61.093 22.2751 60.5696 21.8356C60.3334 21.6369 60.0166 21.3548 59.6171 20.9882C60.0425 20.5238 60.5082 19.9893 61.0161 19.3847C61.5039 18.8041 61.9092 18.3003 62.2327 17.8733L62.6514 18.2255C62.7205 18.2831 62.8252 18.3665 62.9644 18.475C63.1046 18.5834 63.1949 18.6554 63.2362 18.6899C63.8123 19.1736 64.109 19.6668 64.1282 20.1706C64.1465 20.6763 63.9871 21.1293 63.6491 21.5314ZM56.2746 16.7678C56.4455 15.6489 56.5501 15.0511 56.5905 14.9733L56.5453 14.9503C56.5089 15.0223 56.0806 15.456 55.2606 16.2516L56.2746 16.7678ZM56.7595 18.9941L55.8684 18.5412C55.9308 18.4184 56.023 18.0288 56.1459 17.3714L54.8582 16.716C54.3973 17.1891 54.1333 17.4914 54.0661 17.6238L53.2278 17.1968C53.2643 17.1248 53.7837 16.6412 54.7862 15.7468C55.7877 14.8524 56.3178 14.3496 56.3754 14.2364L57.4288 14.7728C57.375 14.8783 57.2617 15.5827 57.0917 16.8868C56.9218 18.1929 56.8094 18.8953 56.7595 18.9941ZM53.054 16.3005L52.7822 16.9665C52.4788 16.9434 52.1907 16.8868 51.9171 16.7976C51.2372 16.5769 50.7802 16.2218 50.5459 15.7314C50.3135 15.2411 50.2837 14.7267 50.4585 14.1903C50.639 13.6337 50.9857 13.2105 51.4965 12.9217C52.0083 12.6319 52.5921 12.5945 53.2499 12.8085C53.4928 12.8871 53.7117 12.9879 53.9095 13.1136L53.5831 13.7671C53.3737 13.6145 53.1625 13.5051 52.9484 13.4351C52.5451 13.3046 52.2042 13.3353 51.9257 13.5262C51.6463 13.7162 51.4485 13.9936 51.3304 14.3582C51.2094 14.7296 51.2209 15.0914 51.364 15.4397C51.508 15.789 51.7903 16.0318 52.2099 16.1681C52.4567 16.2487 52.7371 16.2919 53.054 16.3005ZM48.9682 15.7362L48.1136 15.5069C48.3066 14.8908 48.5044 14.2085 48.7042 13.4629C48.901 12.7288 49.0546 12.1012 49.167 11.5801L50.0216 11.8085C49.8593 12.3085 49.6788 12.9294 49.48 13.6711C49.2765 14.4292 49.1065 15.1173 48.9682 15.7362ZM47.5529 14.6778L47.4098 15.3438L44.8518 14.8937C44.9747 14.3419 45.1101 13.6462 45.2589 12.8056C45.3952 12.0331 45.4941 11.3949 45.5585 10.8892L46.4236 11.0418C46.3171 11.5024 46.1922 12.1358 46.0492 12.9447C45.9406 13.5617 45.8408 14.0492 45.7505 14.4072C46.3171 14.507 46.9172 14.5981 47.5529 14.6778ZM43.2693 9.34232C43.2683 9.36727 43.1272 9.50545 42.8458 9.75591C42.5645 10.0083 42.4137 10.1494 42.3907 10.1839L41.8453 10.1743C41.8453 10.1398 41.9317 9.99678 42.1026 9.74248C42.2736 9.48914 42.359 9.34904 42.359 9.32697L43.2693 9.34232ZM43.1118 12.6002C43.1195 12.1655 43.0148 11.8105 42.7969 11.536C42.5779 11.2616 42.3052 11.1214 41.9788 11.1157C41.6744 11.1099 41.4132 11.2424 41.1962 11.5111C40.9792 11.7807 40.8668 12.1223 40.8591 12.5398C40.8524 12.9725 40.958 13.3266 41.177 13.6021C41.3959 13.8775 41.6677 14.0185 41.9932 14.0243C42.2976 14.0291 42.5578 13.8976 42.7757 13.627C42.9928 13.3574 43.1041 13.0148 43.1118 12.6002ZM43.977 12.5244C43.9655 13.1645 43.76 13.6903 43.3605 14.1049C42.962 14.5175 42.4742 14.719 41.8971 14.7085C41.3469 14.6999 40.8908 14.4983 40.5259 14.1068C40.1611 13.7134 39.9853 13.2192 39.9959 12.6252C40.0074 11.9851 40.211 11.4592 40.6104 11.0447C41.0099 10.6311 41.4977 10.4305 42.0748 10.4401C42.624 10.4497 43.0821 10.6493 43.446 11.0418C43.8099 11.4333 43.9866 11.9275 43.977 12.5244ZM39.1336 10.5294L39.1576 11.2001C38.7409 11.1982 38.3472 11.2088 37.9794 11.2347C38.0034 11.6291 38.0313 12.0667 38.0649 12.5474C38.1177 13.295 38.1782 14.0013 38.2473 14.6672L37.3745 14.7277C37.3553 14.0655 37.3188 13.3574 37.2669 12.6041C37.2343 12.13 37.1988 11.6924 37.1623 11.2923C36.8694 11.3124 36.468 11.3575 35.9591 11.4266L35.937 10.753L39.1336 10.5294ZM34.2816 13.39C33.7093 12.4131 33.4136 11.8824 33.3953 11.797L33.3473 11.8066C33.3636 11.8863 33.3041 12.4927 33.1678 13.627L34.2816 13.39ZM36.0599 14.816L35.0824 15.0232C35.0536 14.8889 34.8798 14.5281 34.5601 13.9398L33.1476 14.2402C33.0881 14.8975 33.0727 15.2987 33.1034 15.4436L32.1835 15.6393C32.1662 15.5606 32.2661 14.8582 32.4812 13.533C32.6963 12.2077 32.7914 11.4832 32.7654 11.3594L33.9215 11.1138C33.9465 11.2299 34.3018 11.8479 34.9912 12.9697C35.6807 14.0895 36.0369 14.7066 36.0599 14.816ZM31.5488 15.0559L31.7217 15.7545C31.4614 15.9138 31.1955 16.0376 30.9208 16.1258C30.242 16.3466 29.6629 16.3274 29.1848 16.0673C28.7085 15.8082 28.382 15.409 28.2072 14.8726C28.0267 14.316 28.0574 13.7709 28.3013 13.2364C28.5452 12.7019 28.9956 12.3286 29.6533 12.1156C29.8953 12.036 30.1325 11.9899 30.3668 11.9755L30.4868 12.6952C30.2276 12.6952 29.9923 12.7298 29.7782 12.7998C29.3749 12.9303 29.1175 13.1558 29.0042 13.4735C28.89 13.7921 28.8928 14.1327 29.0119 14.4964C29.1329 14.8687 29.3547 15.1538 29.6754 15.3514C29.9971 15.5491 30.3687 15.5798 30.7883 15.4445C31.0351 15.3639 31.2876 15.2344 31.5488 15.0559ZM23.8814 16.8695C23.6875 16.5202 23.4215 16.2823 23.0845 16.1556C22.7474 16.0289 22.3691 16.0827 21.9504 16.3139C21.8727 16.3581 21.7689 16.4262 21.6412 16.5174C21.8611 16.8724 22.082 17.2476 22.3019 17.6449C22.5438 18.0796 22.7925 18.5057 23.048 18.9241C23.1786 18.8819 23.3043 18.8281 23.4225 18.7629C23.8142 18.546 24.037 18.2629 24.0917 17.9155C24.1455 17.5681 24.0754 17.2188 23.8814 16.8695ZM24.5622 16.3389C24.8493 16.8561 24.9338 17.4002 24.8157 17.9693C24.6986 18.5393 24.3414 18.9893 23.7432 19.3204C23.4733 19.4691 23.096 19.6649 22.6101 19.9058C22.3278 19.3425 21.9965 18.7158 21.6134 18.0259C21.2456 17.3628 20.9191 16.8033 20.6368 16.3494L21.116 16.0846C21.1947 16.0414 21.309 15.9733 21.4607 15.8821C21.6124 15.7909 21.7123 15.7324 21.7593 15.7055C22.4171 15.3418 22.9855 15.242 23.4628 15.4052C23.941 15.5693 24.3078 15.8802 24.5622 16.3389ZM19.8427 19.8482C18.8998 19.2206 18.4005 18.8723 18.3467 18.8032L18.3073 18.8348C18.3573 18.8982 18.5704 19.4691 18.9459 20.5487L19.8427 19.8482ZM22.0666 20.3501L21.2792 20.9652C21.1947 20.8567 20.8798 20.6092 20.3344 20.2196L19.1965 21.1082C19.4318 21.7262 19.594 22.0927 19.6853 22.2098L18.944 22.7885C18.894 22.7251 18.6751 22.0505 18.2872 20.7646C17.8992 19.4797 17.6669 18.7869 17.5881 18.6871L18.5205 17.9597C18.5935 18.0527 19.185 18.4529 20.296 19.1592C21.4079 19.8645 21.9984 20.2627 22.0666 20.3501ZM16.5453 22.4094C16.2573 22.1321 15.9337 21.9824 15.5745 21.9584C15.2154 21.9363 14.8697 22.0985 14.5365 22.442C14.4741 22.5063 14.3954 22.6023 14.3003 22.727C14.6143 23.0015 14.935 23.2961 15.2615 23.6118C15.6197 23.9573 15.9826 24.2931 16.3494 24.6165C16.4628 24.5388 16.5665 24.4515 16.6606 24.3545C16.9717 24.0321 17.1023 23.6962 17.0523 23.3479C17.0024 23.0005 16.8324 22.6877 16.5453 22.4094ZM17.0418 21.7031C17.4671 22.1138 17.7062 22.609 17.761 23.1886C17.8157 23.7673 17.6054 24.3018 17.1301 24.794C16.916 25.0148 16.6116 25.3113 16.2179 25.6836C15.7829 25.2278 15.2826 24.7259 14.7142 24.178C14.1688 23.6511 13.6935 23.2116 13.2911 22.8595L13.6704 22.467C13.7328 22.4017 13.8241 22.3038 13.9422 22.1724C14.0603 22.0409 14.1381 21.9555 14.1755 21.9162C14.6979 21.3759 15.2116 21.1139 15.7167 21.1312C16.2217 21.1475 16.6634 21.3385 17.0418 21.7031ZM15.5649 26.5703L15.008 27.2564C14.5231 26.8304 13.9796 26.3726 13.3795 25.8871C12.788 25.4082 12.2771 25.0128 11.846 24.6981L12.4029 24.011C12.7937 24.3622 13.2873 24.7797 13.8846 25.2633C14.4953 25.7565 15.056 26.1922 15.5649 26.5703ZM13.511 27.4052C14.1947 27.8485 14.2168 28.5605 13.5792 29.5413C13.3622 29.8752 13.1221 30.1602 12.8552 30.3934L12.353 29.8858C12.6353 29.666 12.8571 29.4309 13.0213 29.1795C13.2018 28.9002 13.3065 28.6814 13.3315 28.525C13.3564 28.3677 13.3065 28.2467 13.1778 28.1642C13.0453 28.0779 12.8955 28.0635 12.7304 28.1201C12.5854 28.1661 12.3492 28.3005 12.0217 28.5212C11.7241 28.7198 11.4609 28.8407 11.2343 28.8849C10.9482 28.9396 10.6745 28.882 10.4162 28.7141C10.1157 28.5193 9.9534 28.2563 9.92747 27.9234C9.90347 27.5913 10.0264 27.2161 10.2981 26.7987C10.5209 26.4561 10.735 26.1874 10.9453 25.9926L11.4638 26.4676C11.2247 26.6471 11.0173 26.8745 10.8387 27.1489C10.5708 27.5616 10.5468 27.8379 10.7677 27.9809C10.8839 28.0577 11.0106 28.0711 11.146 28.0222C11.2631 27.979 11.4706 27.8543 11.7663 27.647C12.0813 27.4272 12.3597 27.289 12.6007 27.2353C12.9234 27.1633 13.2268 27.2209 13.511 27.4052ZM9.55491 30.5757C9.1881 30.3819 8.88083 30.5201 8.62925 30.9903C8.53803 31.1621 8.4689 31.3223 8.42473 31.4682C8.72047 31.5996 9.09784 31.7868 9.55587 32.0305C9.61252 31.9317 9.66053 31.8472 9.69798 31.7762C10.0091 31.1918 9.96012 30.7916 9.55491 30.5757ZM12.6439 30.8905L12.2099 31.7062C11.4446 31.5747 10.9559 31.5248 10.7427 31.5574C10.5286 31.59 10.3548 31.733 10.2203 31.9873C10.1627 32.0938 10.1099 32.1965 10.059 32.2944C10.5315 32.5449 11.0144 32.7905 11.5042 33.0304L11.097 33.7972C10.5535 33.4776 9.9342 33.1331 9.23707 32.7627C8.56684 32.4067 7.98878 32.115 7.50387 31.8885L7.75833 31.4106C7.78714 31.3569 7.84667 31.2388 7.93309 31.0613C8.02143 30.8818 8.10497 30.7187 8.18467 30.57C8.63309 29.7255 9.14681 29.4578 9.72487 29.7649C10.1819 30.0076 10.373 30.4184 10.2972 30.9951L10.3384 31.0172C10.4892 30.8588 10.7206 30.7734 11.0337 30.76C11.3467 30.7465 11.8825 30.7907 12.6439 30.8905ZM10.1493 34.4631L10.7917 34.7098L9.92651 37.223C9.33982 36.9927 8.67342 36.7489 7.92637 36.4918C7.20908 36.2451 6.59262 36.0475 6.0789 35.8987L6.90469 33.5016L7.54036 33.7559C7.3051 34.3355 7.10442 34.8662 6.93926 35.346C7.22061 35.4208 7.54708 35.5225 7.91869 35.6502C8.0608 35.2395 8.20099 34.7952 8.34119 34.3192L8.95861 34.5313C8.78097 34.9852 8.61869 35.4218 8.47466 35.8411C8.87411 35.9793 9.25244 36.1002 9.6058 36.2029C9.79112 35.6646 9.9726 35.084 10.1493 34.4631ZM5.8062 36.9648C5.97231 37.0032 6.57918 37.388 7.63062 38.1173C8.68014 38.8495 9.287 39.2334 9.44928 39.2698L9.25628 40.1066C9.09976 40.0702 8.38728 40.1316 7.11882 40.289C5.85133 40.4454 5.14268 40.5078 4.99481 40.4732L5.21854 39.5078C5.36545 39.5424 5.92334 39.528 6.88933 39.4637C7.85531 39.4013 8.3988 39.3831 8.52171 39.4119L8.53419 39.36C8.41512 39.3322 7.95325 39.0827 7.14475 38.6087C6.3372 38.1346 5.82444 37.8736 5.60743 37.8227L5.8062 36.9648ZM8.91828 42.1468L8.79441 43.0219C8.1597 42.9058 7.45778 42.7936 6.69248 42.6861C5.93967 42.5805 5.29728 42.5047 4.76531 42.4567L4.88822 41.5816C5.40482 41.6804 6.04241 41.785 6.80483 41.8915C7.58165 42.0009 8.28645 42.0854 8.91828 42.1468ZM8.67246 44.1476L8.64558 44.9172C8.56012 44.9143 8.09921 45.1849 7.26285 45.7281C6.38233 46.2971 5.78219 46.6186 5.46244 46.6906L5.46052 46.7414C5.91854 46.704 6.3324 46.6925 6.70016 46.7049C7.21484 46.7232 7.84283 46.7309 8.5822 46.727L8.55532 47.4957C7.91197 47.4419 7.20236 47.4007 6.43034 47.3738C5.66985 47.3479 5.02361 47.3412 4.48877 47.3527L4.52142 46.4267C4.63184 46.4305 5.08027 46.1896 5.86957 45.7012C6.70592 45.183 7.27246 44.8884 7.56628 44.8174L7.56821 44.7713C7.1025 44.8049 6.6848 44.8145 6.31607 44.802C5.75242 44.7819 5.17341 44.7771 4.57903 44.7848L4.60592 44.0046C5.12156 44.0516 5.76683 44.089 6.54461 44.1159C7.32623 44.1437 8.03583 44.1533 8.67246 44.1476ZM4.58959 49.056C5.28768 48.9898 5.98288 48.913 6.67712 48.8276C8.0512 48.6597 8.80689 49.1376 8.94517 50.2613C9.0143 50.8179 8.91252 51.2545 8.64365 51.5731C8.37383 51.8907 7.84475 52.0989 7.05737 52.1959C6.36217 52.2813 5.67945 52.3744 5.01017 52.4751L4.90263 51.5971C5.60455 51.5395 6.27959 51.4704 6.93062 51.3907C7.49907 51.3207 7.87932 51.1998 8.07232 51.029C8.26533 50.8601 8.34407 50.6231 8.30662 50.3217C8.26821 50.0051 8.13474 49.7901 7.90813 49.675C7.68055 49.5598 7.27918 49.5377 6.70497 49.6087C6.0741 49.6865 5.4029 49.7824 4.6933 49.8957L4.58959 49.056Z" fill="#040506"/>
<path d="M70.7458 66.0587L70.1869 66.7746C69.9075 66.5567 69.4226 66.2065 68.7331 65.7238C68.0447 65.2411 67.6164 64.9359 67.4512 64.8093L67.4224 64.8467C67.5079 64.9398 67.6558 65.126 67.867 65.4042C68.0773 65.6825 68.3663 66.1201 68.7322 66.7189C69.098 67.3177 69.3323 67.6574 69.4341 67.7371L69.0087 68.2802C68.904 68.1977 68.518 68.048 67.8517 67.8273C67.1862 67.6075 66.7253 67.4444 66.4728 67.3388C66.2193 67.2333 65.9763 67.1181 65.744 66.9924L65.7152 67.0298C65.9197 67.191 66.3431 67.5547 66.9874 68.1199C67.6327 68.6861 68.061 69.0517 68.2751 69.2187L67.7671 69.8674C67.7182 69.829 67.2707 69.3838 66.4257 68.5345C65.5817 67.6833 65.0526 67.1738 64.8404 67.0078L65.5855 66.0549C65.768 66.1988 66.2529 66.4157 67.0374 66.7036C67.8219 66.9914 68.3001 67.2054 68.4767 67.3427L68.5056 67.3052C68.3279 67.1671 68.0158 66.7381 67.5674 66.0203C67.12 65.3016 66.804 64.8707 66.6226 64.7287L67.361 63.7834C67.7009 64.0493 68.3366 64.4849 69.2689 65.0885C70.2013 65.694 70.6939 66.0174 70.7458 66.0587ZM66.5429 70.1659L67.0297 70.6533L65.2158 72.5966C64.7741 72.1484 64.2643 71.6542 63.6872 71.1159C63.1322 70.5996 62.6492 70.1687 62.2401 69.8233L63.9714 67.9693L64.4477 68.4597C63.9973 68.8944 63.5969 69.2974 63.2512 69.6688C63.4769 69.8511 63.7342 70.0766 64.0223 70.3443C64.319 70.0267 64.6282 69.6774 64.9508 69.3003L65.4281 69.7446C65.0804 70.0872 64.7549 70.4211 64.4525 70.7455C64.7617 71.0333 65.0574 71.2972 65.3378 71.5352C65.7276 71.1187 66.129 70.662 66.5429 70.1659ZM64.1269 73.4765L63.5268 73.9611C63.473 73.8949 62.966 73.7251 62.0068 73.4506C60.9995 73.1598 60.3629 72.918 60.0988 72.7242L60.0594 72.7559C60.3878 73.0773 60.6682 73.3806 60.8996 73.6665C61.2242 74.0667 61.6294 74.5455 62.1182 75.1012L61.5209 75.5848C61.1378 75.0637 60.7038 74.5024 60.2169 73.9026C59.7387 73.3115 59.3191 72.8192 58.96 72.4248L59.6811 71.8413C59.7503 71.9267 60.2275 72.1072 61.1128 72.3826C62.0538 72.6733 62.6482 72.9065 62.894 73.0821L62.9305 73.0524C62.5992 72.7232 62.3179 72.4152 62.0855 72.1283C61.7302 71.6907 61.3548 71.2502 60.9592 70.8078L61.566 70.3165C61.8685 70.7359 62.2632 71.2464 62.7529 71.8509C63.2464 72.4584 63.7035 73.0006 64.1269 73.4765ZM60.3168 76.3563L59.5745 76.8371C59.2452 76.2824 58.8697 75.6788 58.4492 75.0321C58.0343 74.3949 57.6714 73.8604 57.3583 73.4276L58.1006 72.9468C58.3637 73.4007 58.7036 73.9506 59.1232 74.5945C59.5505 75.2528 59.949 75.8401 60.3168 76.3563ZM58.4492 77.5616L57.6397 77.9742C57.4784 77.6585 57.1874 77.1375 56.7668 76.4091C56.3463 75.6798 56.088 75.223 55.991 75.0388L55.9497 75.0599C55.9871 75.1808 56.0428 75.4121 56.1158 75.7527C56.1898 76.0944 56.2666 76.6125 56.3443 77.3102C56.4231 78.0069 56.4913 78.4138 56.5498 78.5289L55.9343 78.8417C55.8748 78.7227 55.5886 78.4233 55.0778 77.9435C54.567 77.4628 54.2184 77.1202 54.034 76.9177C53.8497 76.7152 53.6778 76.508 53.5203 76.2959L53.479 76.3179C53.5952 76.5502 53.8257 77.0588 54.1704 77.8437C54.5161 78.6287 54.7504 79.1411 54.8733 79.382L54.1378 79.7562C54.1089 79.7006 53.8929 79.1085 53.4867 77.981C53.0815 76.8534 52.8174 76.1692 52.6945 75.9283L53.7729 75.3794C53.8785 75.5867 54.2251 75.9878 54.8147 76.5799C55.4033 77.173 55.7471 77.5683 55.8489 77.767L55.8902 77.7459C55.7884 77.5453 55.6866 77.0252 55.5839 76.1846C55.483 75.3439 55.3784 74.8209 55.2737 74.6156L56.3434 74.0715C56.5393 74.4544 56.931 75.1184 57.5206 76.0598C58.1092 77.0012 58.4184 77.5021 58.4492 77.5616ZM51.6652 78.432C51.5231 78.0213 51.3032 77.7238 51.0046 77.5395C50.705 77.3562 50.4006 77.3179 50.0923 77.4244C49.8033 77.5232 49.6045 77.7363 49.4922 78.0635C49.3808 78.3898 49.3914 78.7506 49.5277 79.145C49.6689 79.5538 49.8897 79.8512 50.1903 80.0355C50.4899 80.2178 50.7933 80.2581 51.1015 80.1526C51.3886 80.0537 51.5884 79.8407 51.7007 79.5125C51.8121 79.1834 51.7996 78.8245 51.6652 78.432ZM52.4516 78.0654C52.66 78.67 52.6475 79.2352 52.4142 79.7611C52.1808 80.285 51.791 80.641 51.2456 80.8291C50.7251 81.0085 50.2277 80.975 49.7505 80.7312C49.2742 80.4865 48.9391 80.0825 48.7451 79.5202C48.5368 78.9156 48.5483 78.3504 48.7816 77.8255C49.0159 77.3006 49.4058 76.9446 49.9512 76.7565C50.4707 76.578 50.969 76.6087 51.4463 76.8534C51.9216 77.0972 52.2576 77.5012 52.4516 78.0654ZM48.1853 81.4874L47.3173 81.6563C47.2059 80.9769 47.1022 80.3877 47.0052 79.8906L45.4593 80.19C45.5457 80.6362 45.6696 81.2216 45.8318 81.9451L44.9638 82.1131C44.8591 81.4337 44.7372 80.7351 44.5979 80.0182C44.4568 79.2928 44.3195 78.6604 44.1879 78.122L45.056 77.9541C45.1434 78.5318 45.2346 79.0663 45.3296 79.5547L46.8881 79.2524C46.8036 78.8206 46.6874 78.2919 46.5405 77.6652L47.4085 77.4964C47.4815 78.0213 47.59 78.6585 47.736 79.4089C47.8886 80.191 48.0384 80.8848 48.1853 81.4874ZM40.1233 78.3725L40.0417 79.0385C39.6307 78.9713 39.2409 78.9214 38.8731 78.8897C38.8347 79.2812 38.7944 79.7179 38.7521 80.1996C38.6868 80.9452 38.6359 81.6525 38.6004 82.3203L37.7295 82.2445C37.813 81.5872 37.8889 80.8819 37.9551 80.1295C37.9964 79.6565 38.03 79.2189 38.0569 78.8177C37.765 78.7918 37.3617 78.7746 36.847 78.7621L36.9315 78.0932L40.1233 78.3725ZM35.0044 80.1228C34.8594 79.0001 34.796 78.3955 34.8123 78.3101L34.7634 78.3005C34.748 78.3802 34.4551 78.9156 33.8867 79.9059L35.0044 80.1228ZM36.0846 82.1303L35.1033 81.9394C35.1292 81.8041 35.11 81.4039 35.0466 80.7379L33.6284 80.4625C33.3163 81.045 33.1463 81.4077 33.1175 81.5536L32.1938 81.3742C32.2092 81.2945 32.575 80.6871 33.2923 79.5519C34.0086 78.4157 34.3783 77.7862 34.4023 77.6614L35.5632 77.8869C35.5411 78.003 35.6266 78.7112 35.8225 80.0125C36.0193 81.3137 36.1057 82.02 36.0846 82.1303ZM31.1865 81.1976L30.4568 80.9471C30.4846 80.8665 30.3598 80.3464 30.0842 79.3887C29.7971 78.3811 29.6655 77.7132 29.6895 77.387L29.6425 77.3706C29.5436 77.8188 29.4341 78.218 29.3141 78.5654C29.1461 79.0519 28.955 79.6497 28.7428 80.3579L28.0159 80.1075C28.255 79.5077 28.5017 78.8417 28.7533 78.1115C29.0001 77.3937 29.196 76.7776 29.34 76.2632L30.2177 76.5655C30.1821 76.6692 30.281 77.1691 30.5182 78.0644C30.7688 79.0164 30.885 79.644 30.8677 79.9453L30.9119 79.9607C31.0156 79.5058 31.128 79.1037 31.248 78.7554C31.4323 78.2218 31.6061 77.67 31.7723 77.1L32.5107 77.3534C32.3157 77.8322 32.0911 78.4387 31.8376 79.1728C31.5831 79.9127 31.3661 80.5882 31.1865 81.1976ZM26.6975 79.6286L25.8967 79.2553C26.1934 78.6824 26.5054 78.0443 26.8329 77.3447C27.1536 76.6567 27.4148 76.0646 27.6164 75.5704L28.4172 75.9447C28.1714 76.4081 27.8862 76.9878 27.5607 77.6844C27.2285 78.3955 26.9414 79.0442 26.6975 79.6286ZM24.6301 78.7726L23.8514 78.3043C24.0338 78.0011 24.3219 77.4781 24.7175 76.7354C25.1131 75.9936 25.3647 75.532 25.4694 75.3526L25.429 75.3286C25.3465 75.4245 25.1794 75.5944 24.9297 75.8372C24.6781 76.08 24.2787 76.4197 23.7285 76.8553C23.1783 77.291 22.87 77.5645 22.8028 77.6748L22.2113 77.3198C22.2795 77.2056 22.3822 76.8054 22.5205 76.1174C22.6578 75.4303 22.7635 74.9543 22.8374 74.6904C22.9113 74.4265 22.9958 74.1713 23.0928 73.9256L23.0525 73.9016C22.9171 74.1233 22.6069 74.5878 22.124 75.2969C21.641 76.0051 21.3298 76.4753 21.1897 76.7066L20.4829 76.2824C20.5156 76.2287 20.9035 75.7316 21.6448 74.7902C22.3871 73.8489 22.8288 73.2625 22.967 73.0313L24.005 73.654C23.885 73.8527 23.7285 74.3594 23.5374 75.1722C23.3463 75.9859 23.1936 76.4868 23.0784 76.6778L23.1187 76.7018C23.234 76.5089 23.6219 76.1481 24.2806 75.6155C24.9403 75.0839 25.3292 74.7183 25.4482 74.5206L26.4776 75.1376C26.2558 75.5071 25.9005 76.1903 25.4137 77.1893C24.9259 78.1873 24.6647 78.7151 24.6301 78.7726ZM21.9818 72.397C21.5353 72.9363 21.0984 73.4813 20.6673 74.0331C19.8156 75.1223 18.9418 75.318 18.0488 74.6213C17.6071 74.2759 17.3689 73.8959 17.3344 73.4804C17.2998 73.0658 17.5274 72.5447 18.0161 71.9191C18.4463 71.3682 18.864 70.8203 19.2644 70.2762L19.9625 70.8203C19.5073 71.3577 19.0781 71.8836 18.6748 72.3989C18.3224 72.8499 18.139 73.205 18.1237 73.4621C18.1064 73.7183 18.2187 73.941 18.4578 74.1281C18.7094 74.3239 18.9562 74.3824 19.1982 74.3037C19.4401 74.2231 19.7388 73.9563 20.096 73.5005C20.4877 72.9996 20.8929 72.4574 21.3145 71.8759L21.9818 72.397ZM16.5259 72.467L16.0102 72.9132L14.2386 71.0161C14.6688 70.6495 15.1959 70.1745 15.8211 69.593C16.3943 69.0585 16.8591 68.6084 17.2153 68.2428L17.8135 68.8848C17.4515 69.189 16.9695 69.6198 16.3693 70.1802C15.9104 70.6073 15.5359 70.9364 15.2488 71.1677C15.6415 71.588 16.0659 72.0217 16.5259 72.467ZM14.0898 69.8722L13.5367 70.2724L11.9379 68.2274C12.3979 67.8992 12.9644 67.4732 13.6385 66.9473C14.2559 66.4646 14.7571 66.0577 15.1441 65.7238L15.6847 66.4157C15.2977 66.6872 14.7802 67.0749 14.132 67.5797C13.6385 67.9655 13.2371 68.262 12.9308 68.4664C13.2851 68.9193 13.6702 69.3886 14.0898 69.8722ZM11.0929 67.1104L10.585 66.3859C11.1294 66.0385 11.719 65.6422 12.3518 65.1998C12.975 64.7642 13.4973 64.3822 13.9189 64.055L14.4258 64.7786C13.9803 65.0569 13.4426 65.4167 12.8127 65.8572C12.1693 66.3072 11.597 66.7256 11.0929 67.1104Z" fill="#040506"/>
<path fill-rule="evenodd" clip-rule="evenodd" d="M41.0021 51.0242C44.0056 49.7172 46.9334 50.6566 47.8206 51.0031V50.8572V50.8486C47.8235 47.6751 47.8504 40.0596 47.8523 39.338C46.4542 38.6 44.5318 38.4666 42.813 38.7958C42.4702 38.862 42.1342 38.9465 41.8106 39.0482C41.5283 39.1384 41.2575 39.2411 41.0021 39.3562V51.0242ZM33.8196 51.0069C34.6972 50.6739 37.5856 49.7834 40.5834 51.0914V39.4224C40.328 39.3073 40.0582 39.2027 39.7778 39.1115C39.4571 39.0069 39.1229 38.9186 38.7839 38.8495C37.0738 38.5002 35.1697 38.6039 33.7716 39.3466C33.7773 40.3312 33.8148 47.4631 33.8196 50.7075V50.8543V50.8611V51.0069ZM33.3865 39.2046V39.1221L33.4854 39.0664C34.9747 38.2267 37.0287 38.1001 38.8608 38.4743C39.218 38.5473 39.5656 38.6384 39.8968 38.7469C40.182 38.8399 40.4586 38.9465 40.7207 39.0645L40.7265 39.0616C40.7409 39.0539 40.7246 39.0626 40.7351 39.0578C41.0386 38.9148 41.3602 38.7891 41.6953 38.6826C42.0295 38.576 42.38 38.4878 42.741 38.4196C44.5866 38.0655 46.6683 38.2277 48.1557 39.0664L48.2546 39.1221V39.2343L48.2537 39.2401L49.4367 40.7774C49.4482 40.7937 49.476 40.8743 49.476 40.8945C49.476 40.9204 49.4271 50.0329 49.4271 53.2956C49.4271 53.4299 49.2801 53.5249 49.1572 53.4702C49.1486 53.4664 46.3236 52.194 42.7141 52.9876V53.191C42.7141 53.287 42.6181 53.3829 42.5221 53.3829H39.1824C39.0864 53.3829 38.9904 53.287 38.9904 53.191L38.9914 52.8225C35.6527 52.0414 32.3457 53.333 32.336 53.3369C32.2151 53.3829 32.0758 53.2879 32.0758 53.1574C32.0758 49.8957 32.0269 40.7832 32.0269 40.7563C32.0269 40.7313 32.0605 40.645 32.0787 40.6258L33.3865 39.2046Z" fill="#0D0C0B"/>
<path fill-rule="evenodd" clip-rule="evenodd" d="M40.6128 39.489C40.3574 39.3738 40.0876 39.2692 39.8072 39.1781C39.4865 39.0735 39.1523 38.9852 38.8134 38.9161C37.1032 38.5668 35.1991 38.6704 33.801 39.4132C33.8068 40.4294 33.8471 47.996 33.849 51.0754C34.7267 50.7424 37.616 49.8528 40.6128 51.1589V39.489Z" fill="white"/>
<path fill-rule="evenodd" clip-rule="evenodd" d="M41.8605 39.1456C41.5782 39.2358 41.3074 39.3385 41.052 39.4537V51.1236C44.0546 49.8185 46.9833 50.756 47.8705 51.1024C47.8734 48.0211 47.9138 40.4593 47.9186 39.4441C46.5195 38.6985 44.5885 38.5631 42.863 38.8933C42.5202 38.9595 42.1841 39.0439 41.8605 39.1456Z" fill="white"/>
<path fill-rule="evenodd" clip-rule="evenodd" d="M38.5519 42.3224C37.9143 42.5287 37.7684 42.6909 36.7198 42.8876L36.6459 43.1054C36.9954 43.1054 37.6579 42.9519 37.173 44.3808L36.2935 46.9746C36.1965 47.2587 36.2733 47.9342 36.9781 47.9774C38.0766 48.0542 38.5663 46.964 38.7132 46.6915H38.5058C38.4002 46.8441 38.2264 47.3239 37.8221 47.4218C37.5341 47.4986 37.1855 47.5014 37.0856 47.251C36.9704 46.9784 37.1193 46.679 37.2191 46.3844L38.5519 42.3224Z" fill="#0D0C0B"/>
<path fill-rule="evenodd" clip-rule="evenodd" d="M46.3235 41.5529L44.6076 43.9702L44.4924 42.3158C44.4732 41.9492 44.2897 41.5529 43.9844 41.4234C43.7424 41.3245 43.3881 41.3053 43.0837 41.5923C42.617 42.0183 42.4039 42.7716 42.2954 43.1286H42.474C42.571 42.9002 42.6478 42.6133 42.9608 42.335C43.2066 42.1076 43.5609 42.0682 43.849 42.3053C44.0939 42.5039 44.138 42.8407 44.1601 43.1286L44.2571 44.4759L41.4321 48.4497H42.4442L44.356 45.7445H44.3762C44.3762 46.5276 44.3474 46.8845 44.4319 47.5774C44.4732 47.9344 44.5596 48.1925 44.7535 48.4007C45.0733 48.7472 45.539 48.5687 45.7781 48.4401C46.3763 48.1224 46.674 47.0918 46.7508 46.8049H46.5626C46.4579 47.0227 46.3197 47.4987 45.7848 47.6772C45.3335 47.8259 45.0234 47.5975 44.9437 47.1811C44.8716 46.8346 44.7727 46.4086 44.7017 45.2685L47.3337 41.5625L46.3235 41.5529Z" fill="#0D0C0B"/>
<path d="M73.7122 51.076C74.8232 50.8543 75.4224 50.7488 75.5088 50.7584L75.5155 50.7094C75.4349 50.6989 74.8799 50.4455 73.8515 49.9475L73.7122 51.076ZM71.7841 52.2928L71.906 51.3015C72.0424 51.3188 72.4409 51.2718 73.1006 51.1614L73.2772 49.7287C72.6742 49.4581 72.2997 49.3132 72.1528 49.2959L72.2671 48.3622C72.3477 48.3718 72.9796 48.6942 74.1635 49.3295C75.3475 49.9648 76.0014 50.2891 76.1281 50.3054L75.9841 51.4771C75.866 51.4627 75.165 51.598 73.8793 51.884C72.5945 52.1709 71.8945 52.3062 71.7841 52.2928ZM75.1631 46.7673C75.5779 46.7529 75.7748 46.4794 75.7565 45.9469C75.7498 45.752 75.7297 45.5793 75.6951 45.4306C75.3734 45.4642 74.9528 45.4901 74.4343 45.5083C74.4343 45.6225 74.4353 45.7204 74.4381 45.8C74.4612 46.4612 74.7032 46.7836 75.1631 46.7673ZM72.3305 48.0379L72.2978 47.1147C73.0266 46.847 73.475 46.6464 73.6431 46.5111C73.8111 46.3758 73.8908 46.1656 73.8803 45.8778C73.8764 45.7578 73.8707 45.6417 73.8659 45.5313C73.331 45.5505 72.7904 45.5793 72.245 45.6158L72.2152 44.7483C72.8451 44.754 73.5547 44.7425 74.3441 44.7157C75.1017 44.6888 75.7488 44.6523 76.2818 44.6072L76.301 45.1475C76.3029 45.2089 76.3106 45.3394 76.324 45.5381C76.3375 45.7367 76.3471 45.92 76.3528 46.0879C76.3865 47.0437 76.0753 47.5321 75.4214 47.5552C74.9039 47.5734 74.5323 47.3133 74.3104 46.776L74.2634 46.7779C74.2115 46.989 74.0541 47.179 73.79 47.346C73.5259 47.5149 73.0391 47.7452 72.3305 48.0379ZM72.1595 43.6447L72.0827 42.7648C72.728 42.735 73.4376 42.687 74.2067 42.6199C74.9644 42.5536 75.6077 42.4836 76.1368 42.4107L76.2136 43.2906C75.6884 43.3098 75.0431 43.352 74.2768 43.4192C73.4943 43.4883 72.7885 43.5632 72.1595 43.6447ZM72.6589 41.6785L71.979 41.785L71.4711 39.1768C72.0942 39.0827 72.7933 38.9609 73.5682 38.8102C74.3124 38.6662 74.9461 38.529 75.4656 38.4004L75.9495 40.8897L75.2716 40.9866C75.1852 40.3676 75.094 39.8072 74.997 39.3102C74.7157 39.385 74.3824 39.4608 73.9964 39.5357C74.079 39.9617 74.1799 40.4175 74.296 40.8993L73.6556 41.024C73.5826 40.5423 73.5039 40.0826 73.4193 39.647C73.0045 39.7276 72.6166 39.812 72.2584 39.8994C72.3669 40.4588 72.5004 41.0518 72.6589 41.6785ZM73.718 36.392C74.1097 36.2576 74.2183 35.9381 74.0445 35.4343C73.9811 35.25 73.9119 35.0898 73.8351 34.9583C73.5375 35.085 73.1428 35.2327 72.6521 35.4007C72.6857 35.5101 72.7146 35.6032 72.7414 35.678C72.9565 36.3046 73.282 36.5417 73.718 36.392ZM71.3808 38.435L71.0793 37.5617C71.6977 37.0925 72.0674 36.7691 72.1893 36.5906C72.3103 36.4131 72.3247 36.1885 72.2306 35.916C72.1912 35.8018 72.1528 35.6924 72.1163 35.5888C71.6093 35.7634 71.1014 35.9486 70.5905 36.1434L70.3082 35.3229C70.9113 35.1435 71.5872 34.9257 72.3333 34.6685C73.0506 34.4219 73.6585 34.1983 74.1549 33.9996L74.3316 34.5102C74.3517 34.5687 74.3969 34.6915 74.4679 34.8767C74.539 35.0639 74.6014 35.2356 74.6571 35.3949C74.9682 36.2989 74.8146 36.8574 74.1962 37.0694C73.7055 37.2383 73.2744 37.0982 72.9047 36.6491L72.8605 36.6645C72.873 36.8823 72.7779 37.1098 72.5734 37.3468C72.3708 37.5848 71.9733 37.9475 71.3808 38.435ZM70.6193 34.1839L69.9856 34.4516L68.8612 32.0439C69.4431 31.8021 70.0922 31.5152 70.8066 31.1812C71.4941 30.8617 72.076 30.5748 72.5484 30.3253L73.622 32.6236L72.9873 32.8817C72.753 32.3011 72.5283 31.78 72.3141 31.3204C72.0597 31.4615 71.7543 31.615 71.3981 31.781C71.5815 32.1754 71.7899 32.5928 72.0193 33.0323L71.4279 33.3078C71.2406 32.8587 71.0524 32.4316 70.8652 32.0295C70.482 32.208 70.1258 32.3827 69.7993 32.5545C70.0413 33.0707 70.313 33.6148 70.6193 34.1839ZM70.4763 29.0221C70.8508 28.7793 70.8767 28.4108 70.554 27.9147C70.4734 27.7909 70.3754 27.6681 70.2593 27.5481C69.9414 27.7804 69.5737 28.0328 69.156 28.3043C69.1819 28.3494 69.2126 28.4012 69.2501 28.4588C69.6649 29.097 70.073 29.2841 70.4763 29.0221ZM71.0591 29.6046C70.6424 29.8752 70.2333 29.9213 69.8329 29.7399C69.4325 29.5585 69.0849 29.2438 68.792 28.7928C68.7383 28.7112 68.7027 28.6517 68.6835 28.6143C68.3551 28.8283 67.9288 29.1181 67.4026 29.4866L66.9244 28.7505C67.4429 28.4463 68.0459 28.0711 68.7306 27.6268C69.3605 27.219 69.8953 26.8553 70.337 26.5367L70.6328 26.9925C70.675 27.0568 70.7586 27.1797 70.8824 27.3591C71.0073 27.5395 71.1129 27.6959 71.2003 27.8312C71.4163 28.1623 71.5229 28.4905 71.521 28.8168C71.5191 29.144 71.3664 29.406 71.0591 29.6046ZM65.2767 25.2882L64.7649 25.7489L62.9174 23.8373C63.3889 23.4189 63.9083 22.9362 64.4768 22.3883C65.0222 21.8624 65.4783 21.4028 65.8442 21.0122L67.6071 22.8374L67.0915 23.2865C66.6815 22.8144 66.2993 22.395 65.9459 22.0304C65.752 22.2463 65.5138 22.491 65.2306 22.7635C65.533 23.0763 65.8653 23.4036 66.2254 23.7442L65.7558 24.1981C65.4322 23.8335 65.1153 23.4909 64.8081 23.1713C64.5037 23.465 64.2243 23.7461 63.9708 24.0139C64.3673 24.4246 64.8023 24.8497 65.2767 25.2882ZM62.9087 21.0861C63.1661 20.78 63.2928 20.447 63.2909 20.0871C63.288 19.7273 63.1037 19.3943 62.7369 19.0863C62.6677 19.0287 62.5669 18.9567 62.4354 18.8703C62.1828 19.2033 61.9111 19.543 61.6192 19.8904C61.2994 20.2723 60.9902 20.6571 60.6916 21.0458C60.7771 21.1523 60.8721 21.2502 60.9758 21.3366C61.3196 21.6254 61.6633 21.731 62.0071 21.658C62.3518 21.5832 62.6524 21.3922 62.9087 21.0861ZM63.6491 21.5314C63.2688 21.9843 62.7916 22.2578 62.2164 22.3518C61.6422 22.4468 61.093 22.2751 60.5696 21.8356C60.3334 21.6369 60.0166 21.3548 59.6171 20.9882C60.0425 20.5238 60.5082 19.9893 61.0161 19.3847C61.5039 18.8041 61.9092 18.3003 62.2327 17.8733L62.6514 18.2255C62.7205 18.2831 62.8252 18.3665 62.9644 18.475C63.1046 18.5834 63.1949 18.6554 63.2362 18.6899C63.8123 19.1736 64.109 19.6668 64.1282 20.1706C64.1465 20.6763 63.9871 21.1293 63.6491 21.5314ZM56.2746 16.7678C56.4455 15.6489 56.5501 15.0511 56.5905 14.9733L56.5453 14.9503C56.5089 15.0223 56.0806 15.456 55.2606 16.2516L56.2746 16.7678ZM56.7595 18.9941L55.8684 18.5412C55.9308 18.4184 56.023 18.0288 56.1459 17.3714L54.8582 16.716C54.3973 17.1891 54.1333 17.4914 54.0661 17.6238L53.2278 17.1968C53.2643 17.1248 53.7837 16.6412 54.7862 15.7468C55.7877 14.8524 56.3178 14.3496 56.3754 14.2364L57.4288 14.7728C57.375 14.8783 57.2617 15.5827 57.0917 16.8868C56.9218 18.1929 56.8094 18.8953 56.7595 18.9941ZM53.054 16.3005L52.7822 16.9665C52.4788 16.9434 52.1907 16.8868 51.9171 16.7976C51.2372 16.5769 50.7802 16.2218 50.5459 15.7314C50.3135 15.2411 50.2837 14.7267 50.4585 14.1903C50.639 13.6337 50.9857 13.2105 51.4965 12.9217C52.0083 12.6319 52.5921 12.5945 53.2499 12.8085C53.4928 12.8871 53.7117 12.9879 53.9095 13.1136L53.5831 13.7671C53.3737 13.6145 53.1625 13.5051 52.9484 13.4351C52.5451 13.3046 52.2042 13.3353 51.9257 13.5262C51.6463 13.7162 51.4485 13.9936 51.3304 14.3582C51.2094 14.7296 51.2209 15.0914 51.364 15.4397C51.508 15.789 51.7903 16.0318 52.2099 16.1681C52.4567 16.2487 52.7371 16.2919 53.054 16.3005ZM48.9682 15.7362L48.1136 15.5069C48.3066 14.8908 48.5044 14.2085 48.7042 13.4629C48.901 12.7288 49.0546 12.1012 49.167 11.5801L50.0216 11.8085C49.8593 12.3085 49.6788 12.9294 49.48 13.6711C49.2765 14.4292 49.1065 15.1173 48.9682 15.7362ZM47.5529 14.6778L47.4098 15.3438L44.8518 14.8937C44.9747 14.3419 45.1101 13.6462 45.2589 12.8056C45.3952 12.0331 45.4941 11.3949 45.5585 10.8892L46.4236 11.0418C46.3171 11.5024 46.1922 12.1358 46.0492 12.9447C45.9406 13.5617 45.8408 14.0492 45.7505 14.4072C46.3171 14.507 46.9172 14.5981 47.5529 14.6778ZM43.2693 9.34232C43.2683 9.36727 43.1272 9.50545 42.8458 9.75591C42.5645 10.0083 42.4137 10.1494 42.3907 10.1839L41.8453 10.1743C41.8453 10.1398 41.9317 9.99678 42.1026 9.74248C42.2736 9.48914 42.359 9.34904 42.359 9.32697L43.2693 9.34232ZM43.1118 12.6002C43.1195 12.1655 43.0148 11.8105 42.7969 11.536C42.5779 11.2616 42.3052 11.1214 41.9788 11.1157C41.6744 11.1099 41.4132 11.2424 41.1962 11.5111C40.9792 11.7807 40.8668 12.1223 40.8591 12.5398C40.8524 12.9725 40.958 13.3266 41.177 13.6021C41.3959 13.8775 41.6677 14.0185 41.9932 14.0243C42.2976 14.0291 42.5578 13.8976 42.7757 13.627C42.9928 13.3574 43.1041 13.0148 43.1118 12.6002ZM43.977 12.5244C43.9655 13.1645 43.76 13.6903 43.3605 14.1049C42.962 14.5175 42.4742 14.719 41.8971 14.7085C41.3469 14.6999 40.8908 14.4983 40.5259 14.1068C40.1611 13.7134 39.9853 13.2192 39.9959 12.6252C40.0074 11.9851 40.211 11.4592 40.6104 11.0447C41.0099 10.6311 41.4977 10.4305 42.0748 10.4401C42.624 10.4497 43.0821 10.6493 43.446 11.0418C43.8099 11.4333 43.9866 11.9275 43.977 12.5244ZM39.1336 10.5294L39.1576 11.2001C38.7409 11.1982 38.3472 11.2088 37.9794 11.2347C38.0034 11.6291 38.0313 12.0667 38.0649 12.5474C38.1177 13.295 38.1782 14.0013 38.2473 14.6672L37.3745 14.7277C37.3553 14.0655 37.3188 13.3574 37.2669 12.6041C37.2343 12.13 37.1988 11.6924 37.1623 11.2923C36.8694 11.3124 36.468 11.3575 35.9591 11.4266L35.937 10.753L39.1336 10.5294ZM34.2816 13.39C33.7093 12.4131 33.4136 11.8824 33.3953 11.797L33.3473 11.8066C33.3636 11.8863 33.3041 12.4927 33.1678 13.627L34.2816 13.39ZM36.0599 14.816L35.0824 15.0232C35.0536 14.8889 34.8798 14.5281 34.5601 13.9398L33.1476 14.2402C33.0881 14.8975 33.0727 15.2987 33.1034 15.4436L32.1835 15.6393C32.1662 15.5606 32.2661 14.8582 32.4812 13.533C32.6963 12.2077 32.7914 11.4832 32.7654 11.3594L33.9215 11.1138C33.9465 11.2299 34.3018 11.8479 34.9912 12.9697C35.6807 14.0895 36.0369 14.7066 36.0599 14.816ZM31.5488 15.0559L31.7217 15.7545C31.4614 15.9138 31.1955 16.0376 30.9208 16.1258C30.242 16.3466 29.6629 16.3274 29.1848 16.0673C28.7085 15.8082 28.382 15.409 28.2072 14.8726C28.0267 14.316 28.0574 13.7709 28.3013 13.2364C28.5452 12.7019 28.9956 12.3286 29.6533 12.1156C29.8953 12.036 30.1325 11.9899 30.3668 11.9755L30.4868 12.6952C30.2276 12.6952 29.9923 12.7298 29.7782 12.7998C29.3749 12.9303 29.1175 13.1558 29.0042 13.4735C28.89 13.7921 28.8928 14.1327 29.0119 14.4964C29.1329 14.8687 29.3547 15.1538 29.6754 15.3514C29.9971 15.5491 30.3687 15.5798 30.7883 15.4445C31.0351 15.3639 31.2876 15.2344 31.5488 15.0559ZM23.8814 16.8695C23.6875 16.5202 23.4215 16.2823 23.0845 16.1556C22.7474 16.0289 22.3691 16.0827 21.9504 16.3139C21.8727 16.3581 21.7689 16.4262 21.6412 16.5174C21.8611 16.8724 22.082 17.2476 22.3019 17.6449C22.5438 18.0796 22.7925 18.5057 23.048 18.9241C23.1786 18.8819 23.3043 18.8281 23.4225 18.7629C23.8142 18.546 24.037 18.2629 24.0917 17.9155C24.1455 17.5681 24.0754 17.2188 23.8814 16.8695ZM24.5622 16.3389C24.8493 16.8561 24.9338 17.4002 24.8157 17.9693C24.6986 18.5393 24.3414 18.9893 23.7432 19.3204C23.4733 19.4691 23.096 19.6649 22.6101 19.9058C22.3278 19.3425 21.9965 18.7158 21.6134 18.0259C21.2456 17.3628 20.9191 16.8033 20.6368 16.3494L21.116 16.0846C21.1947 16.0414 21.309 15.9733 21.4607 15.8821C21.6124 15.7909 21.7123 15.7324 21.7593 15.7055C22.4171 15.3418 22.9855 15.242 23.4628 15.4052C23.941 15.5693 24.3078 15.8802 24.5622 16.3389ZM19.8427 19.8482C18.8998 19.2206 18.4005 18.8723 18.3467 18.8032L18.3073 18.8348C18.3573 18.8982 18.5704 19.4691 18.9459 20.5487L19.8427 19.8482ZM22.0666 20.3501L21.2792 20.9652C21.1947 20.8567 20.8798 20.6092 20.3344 20.2196L19.1965 21.1082C19.4318 21.7262 19.594 22.0927 19.6853 22.2098L18.944 22.7885C18.894 22.7251 18.6751 22.0505 18.2872 20.7646C17.8992 19.4797 17.6669 18.7869 17.5881 18.6871L18.5205 17.9597C18.5935 18.0527 19.185 18.4529 20.296 19.1592C21.4079 19.8645 21.9984 20.2627 22.0666 20.3501ZM16.5453 22.4094C16.2573 22.1321 15.9337 21.9824 15.5745 21.9584C15.2154 21.9363 14.8697 22.0985 14.5365 22.442C14.4741 22.5063 14.3954 22.6023 14.3003 22.727C14.6143 23.0015 14.935 23.2961 15.2615 23.6118C15.6197 23.9573 15.9826 24.2931 16.3494 24.6165C16.4628 24.5388 16.5665 24.4515 16.6606 24.3545C16.9717 24.0321 17.1023 23.6962 17.0523 23.3479C17.0024 23.0005 16.8324 22.6877 16.5453 22.4094ZM17.0418 21.7031C17.4671 22.1138 17.7062 22.609 17.761 23.1886C17.8157 23.7673 17.6054 24.3018 17.1301 24.794C16.916 25.0148 16.6116 25.3113 16.2179 25.6836C15.7829 25.2278 15.2826 24.7259 14.7142 24.178C14.1688 23.6511 13.6935 23.2116 13.2911 22.8595L13.6704 22.467C13.7328 22.4017 13.8241 22.3038 13.9422 22.1724C14.0603 22.0409 14.1381 21.9555 14.1755 21.9162C14.6979 21.3759 15.2116 21.1139 15.7167 21.1312C16.2217 21.1475 16.6634 21.3385 17.0418 21.7031ZM15.5649 26.5703L15.008 27.2564C14.5231 26.8304 13.9796 26.3726 13.3795 25.8871C12.788 25.4082 12.2771 25.0128 11.846 24.6981L12.4029 24.011C12.7937 24.3622 13.2873 24.7797 13.8846 25.2633C14.4953 25.7565 15.056 26.1922 15.5649 26.5703ZM13.511 27.4052C14.1947 27.8485 14.2168 28.5605 13.5792 29.5413C13.3622 29.8752 13.1221 30.1602 12.8552 30.3934L12.353 29.8858C12.6353 29.666 12.8571 29.4309 13.0213 29.1795C13.2018 28.9002 13.3065 28.6814 13.3315 28.525C13.3564 28.3677 13.3065 28.2467 13.1778 28.1642C13.0453 28.0779 12.8955 28.0635 12.7304 28.1201C12.5854 28.1661 12.3492 28.3005 12.0217 28.5212C11.7241 28.7198 11.4609 28.8407 11.2343 28.8849C10.9482 28.9396 10.6745 28.882 10.4162 28.7141C10.1157 28.5193 9.9534 28.2563 9.92747 27.9234C9.90347 27.5913 10.0264 27.2161 10.2981 26.7987C10.5209 26.4561 10.735 26.1874 10.9453 25.9926L11.4638 26.4676C11.2247 26.6471 11.0173 26.8745 10.8387 27.1489C10.5708 27.5616 10.5468 27.8379 10.7677 27.9809C10.8839 28.0577 11.0106 28.0711 11.146 28.0222C11.2631 27.979 11.4706 27.8543 11.7663 27.647C12.0813 27.4272 12.3597 27.289 12.6007 27.2353C12.9234 27.1633 13.2268 27.2209 13.511 27.4052ZM9.55491 30.5757C9.1881 30.3819 8.88083 30.5201 8.62925 30.9903C8.53803 31.1621 8.4689 31.3223 8.42473 31.4682C8.72047 31.5996 9.09784 31.7868 9.55587 32.0305C9.61252 31.9317 9.66053 31.8472 9.69798 31.7762C10.0091 31.1918 9.96012 30.7916 9.55491 30.5757ZM12.6439 30.8905L12.2099 31.7062C11.4446 31.5747 10.9559 31.5248 10.7427 31.5574C10.5286 31.59 10.3548 31.733 10.2203 31.9873C10.1627 32.0938 10.1099 32.1965 10.059 32.2944C10.5315 32.5449 11.0144 32.7905 11.5042 33.0304L11.097 33.7972C10.5535 33.4776 9.9342 33.1331 9.23707 32.7627C8.56684 32.4067 7.98878 32.115 7.50387 31.8885L7.75833 31.4106C7.78714 31.3569 7.84667 31.2388 7.93309 31.0613C8.02143 30.8818 8.10497 30.7187 8.18467 30.57C8.63309 29.7255 9.14681 29.4578 9.72487 29.7649C10.1819 30.0076 10.373 30.4184 10.2972 30.9951L10.3384 31.0172C10.4892 30.8588 10.7206 30.7734 11.0337 30.76C11.3467 30.7465 11.8825 30.7907 12.6439 30.8905ZM10.1493 34.4631L10.7917 34.7098L9.92651 37.223C9.33982 36.9927 8.67342 36.7489 7.92637 36.4918C7.20908 36.2451 6.59262 36.0475 6.0789 35.8987L6.90469 33.5016L7.54036 33.7559C7.3051 34.3355 7.10442 34.8662 6.93926 35.346C7.22061 35.4208 7.54708 35.5225 7.91869 35.6502C8.0608 35.2395 8.20099 34.7952 8.34119 34.3192L8.95861 34.5313C8.78097 34.9852 8.61869 35.4218 8.47466 35.8411C8.87411 35.9793 9.25244 36.1002 9.6058 36.2029C9.79112 35.6646 9.9726 35.084 10.1493 34.4631ZM5.8062 36.9648C5.97231 37.0032 6.57918 37.388 7.63062 38.1173C8.68014 38.8495 9.287 39.2334 9.44928 39.2698L9.25628 40.1066C9.09976 40.0702 8.38728 40.1316 7.11882 40.289C5.85133 40.4454 5.14268 40.5078 4.99481 40.4732L5.21854 39.5078C5.36545 39.5424 5.92334 39.528 6.88933 39.4637C7.85531 39.4013 8.3988 39.3831 8.52171 39.4119L8.53419 39.36C8.41512 39.3322 7.95325 39.0827 7.14475 38.6087C6.3372 38.1346 5.82444 37.8736 5.60743 37.8227L5.8062 36.9648ZM8.91828 42.1468L8.79441 43.0219C8.1597 42.9058 7.45778 42.7936 6.69248 42.6861C5.93967 42.5805 5.29728 42.5047 4.76531 42.4567L4.88822 41.5816C5.40482 41.6804 6.04241 41.785 6.80483 41.8915C7.58165 42.0009 8.28645 42.0854 8.91828 42.1468ZM8.67246 44.1476L8.64558 44.9172C8.56012 44.9143 8.09921 45.1849 7.26285 45.7281C6.38233 46.2971 5.78219 46.6186 5.46244 46.6906L5.46052 46.7414C5.91854 46.704 6.3324 46.6925 6.70016 46.7049C7.21484 46.7232 7.84283 46.7309 8.5822 46.727L8.55532 47.4957C7.91197 47.4419 7.20236 47.4007 6.43034 47.3738C5.66985 47.3479 5.02361 47.3412 4.48877 47.3527L4.52142 46.4267C4.63184 46.4305 5.08027 46.1896 5.86957 45.7012C6.70592 45.183 7.27246 44.8884 7.56628 44.8174L7.56821 44.7713C7.1025 44.8049 6.6848 44.8145 6.31607 44.802C5.75242 44.7819 5.17341 44.7771 4.57903 44.7848L4.60592 44.0046C5.12156 44.0516 5.76683 44.089 6.54461 44.1159C7.32623 44.1437 8.03583 44.1533 8.67246 44.1476ZM4.58959 49.056C5.28768 48.9898 5.98288 48.913 6.67712 48.8276C8.0512 48.6597 8.80689 49.1376 8.94517 50.2613C9.0143 50.8179 8.91252 51.2545 8.64365 51.5731C8.37383 51.8907 7.84475 52.0989 7.05737 52.1959C6.36217 52.2813 5.67945 52.3744 5.01017 52.4751L4.90263 51.5971C5.60455 51.5395 6.27959 51.4704 6.93062 51.3907C7.49907 51.3207 7.87932 51.1998 8.07232 51.029C8.26533 50.8601 8.34407 50.6231 8.30662 50.3217C8.26821 50.0051 8.13474 49.7901 7.90813 49.675C7.68055 49.5598 7.27918 49.5377 6.70497 49.6087C6.0741 49.6865 5.4029 49.7824 4.6933 49.8957L4.58959 49.056Z" fill="#141513"/>
<path d="M70.7458 66.0587L70.1869 66.7746C69.9075 66.5567 69.4226 66.2065 68.7331 65.7238C68.0447 65.2411 67.6164 64.9359 67.4512 64.8093L67.4224 64.8467C67.5079 64.9398 67.6558 65.126 67.867 65.4042C68.0773 65.6825 68.3663 66.1201 68.7322 66.7189C69.098 67.3177 69.3323 67.6574 69.4341 67.7371L69.0087 68.2802C68.904 68.1977 68.518 68.048 67.8517 67.8273C67.1862 67.6075 66.7253 67.4444 66.4728 67.3388C66.2193 67.2333 65.9763 67.1181 65.744 66.9924L65.7152 67.0298C65.9197 67.191 66.3431 67.5547 66.9874 68.1199C67.6327 68.6861 68.061 69.0517 68.2751 69.2187L67.7671 69.8674C67.7182 69.829 67.2707 69.3838 66.4257 68.5345C65.5817 67.6833 65.0526 67.1738 64.8404 67.0078L65.5855 66.0549C65.768 66.1988 66.2529 66.4157 67.0374 66.7036C67.8219 66.9914 68.3001 67.2054 68.4767 67.3427L68.5056 67.3052C68.3279 67.1671 68.0158 66.7381 67.5674 66.0203C67.12 65.3016 66.804 64.8707 66.6226 64.7287L67.361 63.7834C67.7009 64.0493 68.3366 64.4849 69.2689 65.0885C70.2013 65.694 70.6939 66.0174 70.7458 66.0587ZM66.5429 70.1659L67.0297 70.6533L65.2158 72.5966C64.7741 72.1484 64.2643 71.6542 63.6872 71.1159C63.1322 70.5996 62.6492 70.1687 62.2401 69.8233L63.9714 67.9693L64.4477 68.4597C63.9973 68.8944 63.5969 69.2974 63.2512 69.6688C63.4769 69.8511 63.7342 70.0766 64.0223 70.3443C64.319 70.0267 64.6282 69.6774 64.9508 69.3003L65.4281 69.7446C65.0804 70.0872 64.7549 70.4211 64.4525 70.7455C64.7617 71.0333 65.0574 71.2972 65.3378 71.5352C65.7276 71.1187 66.129 70.662 66.5429 70.1659ZM64.1269 73.4765L63.5268 73.9611C63.473 73.8949 62.966 73.7251 62.0068 73.4506C60.9995 73.1598 60.3629 72.918 60.0988 72.7242L60.0594 72.7559C60.3878 73.0773 60.6682 73.3806 60.8996 73.6665C61.2242 74.0667 61.6294 74.5455 62.1182 75.1012L61.5209 75.5848C61.1378 75.0637 60.7038 74.5024 60.2169 73.9026C59.7387 73.3115 59.3191 72.8192 58.96 72.4248L59.6811 71.8413C59.7503 71.9267 60.2275 72.1072 61.1128 72.3826C62.0538 72.6733 62.6482 72.9065 62.894 73.0821L62.9305 73.0524C62.5992 72.7232 62.3179 72.4152 62.0855 72.1283C61.7302 71.6907 61.3548 71.2502 60.9592 70.8078L61.566 70.3165C61.8685 70.7359 62.2632 71.2464 62.7529 71.8509C63.2464 72.4584 63.7035 73.0006 64.1269 73.4765ZM60.3168 76.3563L59.5745 76.8371C59.2452 76.2824 58.8697 75.6788 58.4492 75.0321C58.0343 74.3949 57.6714 73.8604 57.3583 73.4276L58.1006 72.9468C58.3637 73.4007 58.7036 73.9506 59.1232 74.5945C59.5505 75.2528 59.949 75.8401 60.3168 76.3563ZM58.4492 77.5616L57.6397 77.9742C57.4784 77.6585 57.1874 77.1375 56.7668 76.4091C56.3463 75.6798 56.088 75.223 55.991 75.0388L55.9497 75.0599C55.9871 75.1808 56.0428 75.4121 56.1158 75.7527C56.1898 76.0944 56.2666 76.6125 56.3443 77.3102C56.4231 78.0069 56.4913 78.4138 56.5498 78.5289L55.9343 78.8417C55.8748 78.7227 55.5886 78.4233 55.0778 77.9435C54.567 77.4628 54.2184 77.1202 54.034 76.9177C53.8497 76.7152 53.6778 76.508 53.5203 76.2959L53.479 76.3179C53.5952 76.5502 53.8257 77.0588 54.1704 77.8437C54.5161 78.6287 54.7504 79.1411 54.8733 79.382L54.1378 79.7562C54.1089 79.7006 53.8929 79.1085 53.4867 77.981C53.0815 76.8534 52.8174 76.1692 52.6945 75.9283L53.7729 75.3794C53.8785 75.5867 54.2251 75.9878 54.8147 76.5799C55.4033 77.173 55.7471 77.5683 55.8489 77.767L55.8902 77.7459C55.7884 77.5453 55.6866 77.0252 55.5839 76.1846C55.483 75.3439 55.3784 74.8209 55.2737 74.6156L56.3434 74.0715C56.5393 74.4544 56.931 75.1184 57.5206 76.0598C58.1092 77.0012 58.4184 77.5021 58.4492 77.5616ZM51.6652 78.432C51.5231 78.0213 51.3032 77.7238 51.0046 77.5395C50.705 77.3562 50.4006 77.3179 50.0923 77.4244C49.8033 77.5232 49.6045 77.7363 49.4922 78.0635C49.3808 78.3898 49.3914 78.7506 49.5277 79.145C49.6689 79.5538 49.8897 79.8512 50.1903 80.0355C50.4899 80.2178 50.7933 80.2581 51.1015 80.1526C51.3886 80.0537 51.5884 79.8407 51.7007 79.5125C51.8121 79.1834 51.7996 78.8245 51.6652 78.432ZM52.4516 78.0654C52.66 78.67 52.6475 79.2352 52.4142 79.7611C52.1808 80.285 51.791 80.641 51.2456 80.8291C50.7251 81.0085 50.2277 80.975 49.7505 80.7312C49.2742 80.4865 48.9391 80.0825 48.7451 79.5202C48.5368 78.9156 48.5483 78.3504 48.7816 77.8255C49.0159 77.3006 49.4058 76.9446 49.9512 76.7565C50.4707 76.578 50.969 76.6087 51.4463 76.8534C51.9216 77.0972 52.2576 77.5012 52.4516 78.0654ZM48.1853 81.4874L47.3173 81.6563C47.2059 80.9769 47.1022 80.3877 47.0052 79.8906L45.4593 80.19C45.5457 80.6362 45.6696 81.2216 45.8318 81.9451L44.9638 82.1131C44.8591 81.4337 44.7372 80.7351 44.5979 80.0182C44.4568 79.2928 44.3195 78.6604 44.1879 78.122L45.056 77.9541C45.1434 78.5318 45.2346 79.0663 45.3296 79.5547L46.8881 79.2524C46.8036 78.8206 46.6874 78.2919 46.5405 77.6652L47.4085 77.4964C47.4815 78.0213 47.59 78.6585 47.736 79.4089C47.8886 80.191 48.0384 80.8848 48.1853 81.4874ZM40.1233 78.3725L40.0417 79.0385C39.6307 78.9713 39.2409 78.9214 38.8731 78.8897C38.8347 79.2812 38.7944 79.7179 38.7521 80.1996C38.6868 80.9452 38.6359 81.6525 38.6004 82.3203L37.7295 82.2445C37.813 81.5872 37.8889 80.8819 37.9551 80.1295C37.9964 79.6565 38.03 79.2189 38.0569 78.8177C37.765 78.7918 37.3617 78.7746 36.847 78.7621L36.9315 78.0932L40.1233 78.3725ZM35.0044 80.1228C34.8594 79.0001 34.796 78.3955 34.8123 78.3101L34.7634 78.3005C34.748 78.3802 34.4551 78.9156 33.8867 79.9059L35.0044 80.1228ZM36.0846 82.1303L35.1033 81.9394C35.1292 81.8041 35.11 81.4039 35.0466 80.7379L33.6284 80.4625C33.3163 81.045 33.1463 81.4077 33.1175 81.5536L32.1938 81.3742C32.2092 81.2945 32.575 80.6871 33.2923 79.5519C34.0086 78.4157 34.3783 77.7862 34.4023 77.6614L35.5632 77.8869C35.5411 78.003 35.6266 78.7112 35.8225 80.0125C36.0193 81.3137 36.1057 82.02 36.0846 82.1303ZM31.1865 81.1976L30.4568 80.9471C30.4846 80.8665 30.3598 80.3464 30.0842 79.3887C29.7971 78.3811 29.6655 77.7132 29.6895 77.387L29.6425 77.3706C29.5436 77.8188 29.4341 78.218 29.3141 78.5654C29.1461 79.0519 28.955 79.6497 28.7428 80.3579L28.0159 80.1075C28.255 79.5077 28.5017 78.8417 28.7533 78.1115C29.0001 77.3937 29.196 76.7776 29.34 76.2632L30.2177 76.5655C30.1821 76.6692 30.281 77.1691 30.5182 78.0644C30.7688 79.0164 30.885 79.644 30.8677 79.9453L30.9119 79.9607C31.0156 79.5058 31.128 79.1037 31.248 78.7554C31.4323 78.2218 31.6061 77.67 31.7723 77.1L32.5107 77.3534C32.3157 77.8322 32.0911 78.4387 31.8376 79.1728C31.5831 79.9127 31.3661 80.5882 31.1865 81.1976ZM26.6975 79.6286L25.8967 79.2553C26.1934 78.6824 26.5054 78.0443 26.8329 77.3447C27.1536 76.6567 27.4148 76.0646 27.6164 75.5704L28.4172 75.9447C28.1714 76.4081 27.8862 76.9878 27.5607 77.6844C27.2285 78.3955 26.9414 79.0442 26.6975 79.6286ZM24.6301 78.7726L23.8514 78.3043C24.0338 78.0011 24.3219 77.4781 24.7175 76.7354C25.1131 75.9936 25.3647 75.532 25.4694 75.3526L25.429 75.3286C25.3465 75.4245 25.1794 75.5944 24.9297 75.8372C24.6781 76.08 24.2787 76.4197 23.7285 76.8553C23.1783 77.291 22.87 77.5645 22.8028 77.6748L22.2113 77.3198C22.2795 77.2056 22.3822 76.8054 22.5205 76.1174C22.6578 75.4303 22.7635 74.9543 22.8374 74.6904C22.9113 74.4265 22.9958 74.1713 23.0928 73.9256L23.0525 73.9016C22.9171 74.1233 22.6069 74.5878 22.124 75.2969C21.641 76.0051 21.3298 76.4753 21.1897 76.7066L20.4829 76.2824C20.5156 76.2287 20.9035 75.7316 21.6448 74.7902C22.3871 73.8489 22.8288 73.2625 22.967 73.0313L24.005 73.654C23.885 73.8527 23.7285 74.3594 23.5374 75.1722C23.3463 75.9859 23.1936 76.4868 23.0784 76.6778L23.1187 76.7018C23.234 76.5089 23.6219 76.1481 24.2806 75.6155C24.9403 75.0839 25.3292 74.7183 25.4482 74.5206L26.4776 75.1376C26.2558 75.5071 25.9005 76.1903 25.4137 77.1893C24.9259 78.1873 24.6647 78.7151 24.6301 78.7726ZM21.9818 72.397C21.5353 72.9363 21.0984 73.4813 20.6673 74.0331C19.8156 75.1223 18.9418 75.318 18.0488 74.6213C17.6071 74.2759 17.3689 73.8959 17.3344 73.4804C17.2998 73.0658 17.5274 72.5447 18.0161 71.9191C18.4463 71.3682 18.864 70.8203 19.2644 70.2762L19.9625 70.8203C19.5073 71.3577 19.0781 71.8836 18.6748 72.3989C18.3224 72.8499 18.139 73.205 18.1237 73.4621C18.1064 73.7183 18.2187 73.941 18.4578 74.1281C18.7094 74.3239 18.9562 74.3824 19.1982 74.3037C19.4401 74.2231 19.7388 73.9563 20.096 73.5005C20.4877 72.9996 20.8929 72.4574 21.3145 71.8759L21.9818 72.397ZM16.5259 72.467L16.0102 72.9132L14.2386 71.0161C14.6688 70.6495 15.1959 70.1745 15.8211 69.593C16.3943 69.0585 16.8591 68.6084 17.2153 68.2428L17.8135 68.8848C17.4515 69.189 16.9695 69.6198 16.3693 70.1802C15.9104 70.6073 15.5359 70.9364 15.2488 71.1677C15.6415 71.588 16.0659 72.0217 16.5259 72.467ZM14.0898 69.8722L13.5367 70.2724L11.9379 68.2274C12.3979 67.8992 12.9644 67.4732 13.6385 66.9473C14.2559 66.4646 14.7571 66.0577 15.1441 65.7238L15.6847 66.4157C15.2977 66.6872 14.7802 67.0749 14.132 67.5797C13.6385 67.9655 13.2371 68.262 12.9308 68.4664C13.2851 68.9193 13.6702 69.3886 14.0898 69.8722ZM11.0929 67.1104L10.585 66.3859C11.1294 66.0385 11.719 65.6422 12.3518 65.1998C12.975 64.7642 13.4973 64.3822 13.9189 64.055L14.4258 64.7786C13.9803 65.0569 13.4426 65.4167 12.8127 65.8572C12.1693 66.3072 11.597 66.7256 11.0929 67.1104Z" fill="#141513"/>
<path d="M241.972 44.6757L238.628 34.9011L234.763 44.6757H241.972ZM250.517 54.0809H243.917V53.1971H244.344C244.551 53.1971 244.657 52.9956 244.657 52.5944C244.657 52.4687 244.633 52.3373 244.582 52.1866L242.373 45.7975H234.343C233.497 48.1745 233.076 49.943 233.076 51.1022C233.076 51.7413 233.277 52.2499 233.685 52.6319C234.086 53.009 234.607 53.1971 235.246 53.1971H236.219V54.0809H227.981V53.1971C229.368 53.127 230.616 51.6607 231.733 48.8078L239.262 30.6346H240.347L246.859 48.3875C247.311 49.7108 247.738 50.7011 248.127 51.3594C248.842 52.5503 249.638 53.1654 250.517 53.1971V54.0809ZM226.846 49.5976C222.962 52.9389 219.424 54.6135 216.225 54.6135C213.194 54.6135 210.722 53.485 208.796 51.2337C206.983 49.0899 206.08 46.4817 206.08 43.409C206.08 38.5562 208.15 34.7629 212.291 32.0232C214.261 30.7123 216.639 30.055 219.424 30.055C221.846 30.055 224.142 30.4369 226.294 31.196V36.7378H224.989C224.832 34.9634 224.023 33.5777 222.568 32.5692C221.256 31.6662 219.663 31.2142 217.787 31.2142C215.076 31.2142 212.938 32.2429 211.369 34.2994C209.95 36.1745 209.242 38.5063 209.242 41.2959C209.242 44.2247 210.039 46.688 211.626 48.7003C213.345 50.8643 215.628 51.9486 218.483 51.9486C221.193 51.9486 223.979 50.7952 226.846 48.4815V49.5976ZM203.633 54.0809H194.649V53.1971C195.741 53.1836 196.474 52.9706 196.864 52.557C197.247 52.1367 197.441 51.3777 197.441 50.2808V34.3742C197.441 33.2707 197.247 32.5183 196.864 32.1115C196.474 31.7094 195.741 31.4973 194.649 31.4714V30.5876H203.633V31.4714C202.535 31.4973 201.795 31.7094 201.412 32.1115C201.029 32.5183 200.841 33.2707 200.841 34.3742V50.2808C200.841 52.1617 201.776 53.1395 203.633 53.1971V54.0809ZM193.394 47.3588L192.045 54.0876L176.85 54.0809V53.1971C177.942 53.1836 178.683 52.9706 179.065 52.557C179.455 52.1367 179.649 51.3777 179.649 50.2808V34.3867C179.649 33.2899 179.455 32.5308 179.065 32.1239C178.683 31.7094 177.942 31.4973 176.85 31.4714V30.5876H185.878V31.4714C184.762 31.4973 184.016 31.7036 183.632 32.1047C183.256 32.5001 183.068 33.2649 183.068 34.3867V53.1971H185.458C189.166 53.1971 191.374 51.2529 192.07 47.3588H193.394ZM164.19 23.9039C164.19 24.2109 163.977 24.5996 163.544 25.0765L160.438 28.5311L159.667 27.9976L162.019 23.6285C162.315 23.0882 162.665 22.8185 163.067 22.8185C163.362 22.8185 163.619 22.926 163.851 23.1391C164.078 23.3521 164.19 23.6093 164.19 23.9039ZM171.173 44.4569C171.173 42.2056 170.709 40.0868 169.78 38.0985C168.745 35.9355 167.32 34.3243 165.495 33.2707C163.744 32.2679 162.107 31.7602 160.589 31.7602C158.173 31.7602 156.234 32.6124 154.78 34.3186C153.406 35.9355 152.722 37.9728 152.722 40.4313C152.722 43.7046 153.663 46.5565 155.551 48.9959C157.609 51.6473 160.232 52.9773 163.419 52.9773C165.708 52.9773 167.597 52.1242 169.076 50.4065C170.476 48.7637 171.173 46.7821 171.173 44.4569ZM174.278 41.2211C174.278 43.6479 173.594 45.9616 172.22 48.1553C170.847 50.3557 169.076 52.0052 166.913 53.1088C164.937 54.1116 162.872 54.6135 160.715 54.6135C157.578 54.6135 154.943 53.5473 152.809 51.416C150.682 49.2838 149.617 46.6506 149.617 43.5155C149.617 39.9419 150.933 36.8069 153.576 34.1046C156.216 31.4033 159.322 30.055 162.885 30.055C166.988 30.055 170.194 31.7228 172.497 35.0517C173.688 36.7637 174.278 38.8201 174.278 41.2211ZM148.104 36.7378H146.799C146.768 33.2275 144.905 31.4714 141.216 31.4714H140.225V50.2808C140.225 52.1741 141.152 53.1529 143.016 53.1971V54.0809H134.025V53.1971C135.117 53.1836 135.858 52.9706 136.241 52.557C136.63 52.1367 136.824 51.3777 136.824 50.2808V31.4714H135.55C132.156 31.4714 130.406 33.2275 130.299 36.7378H129.006L128.974 30.5847H148.104V36.7378ZM120.023 44.6757L116.679 34.9011L112.814 44.6757H120.023ZM128.568 54.0809H121.968V53.1971H122.394C122.601 53.1971 122.707 52.9956 122.707 52.5944C122.707 52.4687 122.683 52.3373 122.632 52.1866L120.424 45.7975H112.395C111.547 48.1745 111.127 49.943 111.127 51.1022C111.127 51.7413 111.327 52.2499 111.735 52.6319C112.136 53.009 112.658 53.1971 113.298 53.1971H114.27V54.0809H106.032V53.1971C107.419 53.127 108.667 51.6607 109.784 48.8078L117.194 30.5358H118.279L124.91 48.3875C125.361 49.7108 125.788 50.7011 126.178 51.3594C126.892 52.5503 127.689 53.1654 128.568 53.1971V54.0809ZM104.897 49.5976C101.013 52.9389 97.4746 54.6135 94.2751 54.6135C91.2447 54.6135 88.773 53.485 86.8468 51.2337C85.0339 49.0899 84.1304 46.4817 84.1304 43.409C84.1304 38.5562 86.2016 34.7629 90.3421 32.0232C92.3115 30.7123 94.689 30.055 97.4746 30.055C99.8972 30.055 102.192 30.4369 104.345 31.196V36.7378H103.04C102.883 34.9634 102.073 33.5777 100.618 32.5692C99.3067 31.6662 97.7127 31.2142 95.8374 31.2142C93.1277 31.2142 90.9873 32.2429 89.4193 34.2994C88.002 36.1745 87.2924 38.5063 87.2924 41.2959C87.2924 44.2247 88.0894 46.688 89.6766 48.7003C91.3954 50.8643 93.6798 51.9486 96.5336 51.9486C99.2443 51.9486 102.03 50.7952 104.897 48.4815V49.5976Z" stroke="#1C622B" stroke-width="0.619295"/>
<path d="M241.972 44.6757L238.628 34.9011L234.763 44.6757H241.972ZM250.517 54.0809H243.917V53.1971H244.344C244.551 53.1971 244.658 52.9956 244.658 52.5944C244.658 52.4687 244.633 52.3373 244.582 52.1866L242.373 45.7975H234.343C233.497 48.1745 233.076 49.943 233.076 51.1022C233.076 51.7413 233.277 52.2499 233.685 52.6319C234.086 53.009 234.607 53.1971 235.246 53.1971H236.219V54.0809H227.981V53.1971C229.368 53.127 230.616 51.6607 231.733 48.8078L239.262 30.6346H240.347L246.859 48.3875C247.311 49.7108 247.738 50.7011 248.127 51.3594C248.842 52.5503 249.638 53.1654 250.517 53.1971V54.0809ZM226.846 49.5976C222.962 52.9389 219.424 54.6135 216.225 54.6135C213.194 54.6135 210.722 53.485 208.796 51.2337C206.983 49.0899 206.08 46.4817 206.08 43.409C206.08 38.5562 208.15 34.7629 212.291 32.0232C214.261 30.7123 216.639 30.055 219.424 30.055C221.846 30.055 224.142 30.4369 226.294 31.196V36.7378H224.989C224.832 34.9634 224.023 33.5777 222.568 32.5692C221.256 31.6662 219.663 31.2142 217.787 31.2142C215.076 31.2142 212.938 32.2429 211.368 34.2994C209.95 36.1745 209.242 38.5063 209.242 41.2959C209.242 44.2247 210.039 46.688 211.626 48.7003C213.345 50.8643 215.628 51.9486 218.483 51.9486C221.193 51.9486 223.979 50.7952 226.846 48.4815V49.5976ZM203.633 54.0809H194.649V53.1971C195.741 53.1836 196.474 52.9706 196.864 52.557C197.247 52.1367 197.441 51.3777 197.441 50.2808V34.3742C197.441 33.2707 197.247 32.5183 196.864 32.1115C196.474 31.7094 195.741 31.4973 194.649 31.4714V30.5876H203.633V31.4714C202.535 31.4973 201.795 31.7094 201.412 32.1115C201.029 32.5183 200.841 33.2707 200.841 34.3742V50.2808C200.841 52.1617 201.776 53.1395 203.633 53.1971V54.0809ZM193.394 47.3588L192.045 54.0876L176.85 54.0809V53.1971C177.942 53.1836 178.683 52.9706 179.065 52.557C179.455 52.1367 179.649 51.3777 179.649 50.2808V34.3867C179.649 33.2899 179.455 32.5308 179.065 32.1239C178.683 31.7094 177.942 31.4973 176.85 31.4714V30.5876H185.878V31.4714C184.762 31.4973 184.016 31.7036 183.632 32.1047C183.256 32.5001 183.068 33.2649 183.068 34.3867V53.1971H185.458C189.166 53.1971 191.374 51.2529 192.07 47.3588H193.394ZM164.19 23.9039C164.19 24.2109 163.977 24.5996 163.544 25.0765L160.438 28.5311L159.667 27.9976L162.019 23.6285C162.315 23.0882 162.665 22.8185 163.067 22.8185C163.362 22.8185 163.619 22.926 163.851 23.1391C164.078 23.3521 164.19 23.6093 164.19 23.9039ZM171.173 44.4569C171.173 42.2056 170.709 40.0868 169.78 38.0985C168.745 35.9355 167.32 34.3243 165.495 33.2707C163.744 32.2679 162.107 31.7602 160.589 31.7602C158.173 31.7602 156.234 32.6124 154.78 34.3186C153.406 35.9355 152.722 37.9728 152.722 40.4313C152.722 43.7046 153.663 46.5565 155.551 48.9959C157.609 51.6473 160.232 52.9773 163.419 52.9773C165.708 52.9773 167.597 52.1242 169.076 50.4065C170.476 48.7637 171.173 46.7821 171.173 44.4569ZM174.278 41.2211C174.278 43.6479 173.594 45.9616 172.22 48.1553C170.847 50.3557 169.076 52.0052 166.913 53.1088C164.937 54.1116 162.872 54.6135 160.715 54.6135C157.578 54.6135 154.943 53.5473 152.809 51.416C150.682 49.2838 149.617 46.6506 149.617 43.5155C149.617 39.9419 150.933 36.8069 153.576 34.1046C156.216 31.4033 159.322 30.055 162.885 30.055C166.988 30.055 170.194 31.7228 172.497 35.0517C173.688 36.7637 174.278 38.8201 174.278 41.2211ZM148.104 36.7378H146.799C146.768 33.2275 144.905 31.4714 141.216 31.4714H140.225V50.2808C140.225 52.1741 141.152 53.1529 143.016 53.1971V54.0809H134.025V53.1971C135.117 53.1836 135.858 52.9706 136.241 52.557C136.63 52.1367 136.824 51.3777 136.824 50.2808V31.4714H135.55C132.156 31.4714 130.406 33.2275 130.299 36.7378H129.006L128.974 30.5847H148.104V36.7378ZM120.023 44.6757L116.679 34.9011L112.814 44.6757H120.023ZM128.568 54.0809H121.968V53.1971H122.394C122.601 53.1971 122.707 52.9956 122.707 52.5944C122.707 52.4687 122.683 52.3373 122.632 52.1866L120.424 45.7975H112.395C111.547 48.1745 111.127 49.943 111.127 51.1022C111.127 51.7413 111.327 52.2499 111.735 52.6319C112.136 53.009 112.658 53.1971 113.298 53.1971H114.27V54.0809H106.032V53.1971C107.419 53.127 108.667 51.6607 109.784 48.8078L117.194 30.5358H118.279L124.91 48.3875C125.361 49.7108 125.788 50.7011 126.178 51.3594C126.892 52.5503 127.689 53.1654 128.568 53.1971V54.0809ZM104.897 49.5976C101.013 52.9389 97.4746 54.6135 94.2751 54.6135C91.2447 54.6135 88.773 53.485 86.8468 51.2337C85.0339 49.0899 84.1304 46.4817 84.1304 43.409C84.1304 38.5562 86.2016 34.7629 90.3421 32.0232C92.3115 30.7123 94.689 30.055 97.4746 30.055C99.8972 30.055 102.192 30.4369 104.345 31.196V36.7378H103.04C102.883 34.9634 102.073 33.5777 100.618 32.5692C99.3067 31.6662 97.7127 31.2142 95.8374 31.2142C93.1277 31.2142 90.9873 32.2429 89.4193 34.2994C88.002 36.1745 87.2924 38.5063 87.2924 41.2959C87.2924 44.2247 88.0894 46.688 89.6766 48.7003C91.3954 50.8643 93.6798 51.9486 96.5336 51.9486C99.2443 51.9486 102.03 50.7952 104.897 48.4815V49.5976Z" fill="#1C622B"/>
<path d="M214.987 13.7785C214.513 12.863 213.93 12.4063 213.243 12.4063C213.004 12.4063 212.809 12.4696 212.653 12.5982C212.417 12.8007 212.222 13.1519 212.07 13.6557C211.92 14.1595 211.844 14.931 211.844 15.9684C211.844 17.1113 211.927 17.9567 212.096 18.5065C212.262 19.0564 212.49 19.4508 212.779 19.6955C212.928 19.8183 213.131 19.8817 213.385 19.8817C213.953 19.8817 214.487 19.4345 214.987 18.543V13.7785ZM217.713 7.61491V18.0728C217.713 18.7714 217.732 19.186 217.772 19.3145C217.821 19.5266 217.921 19.6859 218.067 19.7886C218.209 19.8913 218.465 19.9546 218.827 19.9815V20.3193L214.987 21.0543V19.6168C214.53 20.1734 214.122 20.5544 213.764 20.753C213.405 20.9545 213.001 21.0543 212.55 21.0543C211.397 21.0543 210.481 20.5371 209.811 19.5036C209.271 18.6658 208.999 17.6352 208.999 16.4127C208.999 15.4377 209.168 14.5635 209.503 13.791C209.838 13.0195 210.295 12.436 210.882 12.0416C211.466 11.6472 212.093 11.4524 212.762 11.4524C213.193 11.4524 213.578 11.5349 213.912 11.7038C214.247 11.8727 214.606 12.1644 214.987 12.5848V9.82202C214.987 9.1359 214.957 8.72135 214.901 8.57932C214.822 8.39412 214.706 8.25785 214.549 8.16861C214.393 8.07936 214.102 8.03234 213.674 8.03234V7.61491H217.713ZM203.966 18.7282V15.7064C203.184 16.167 202.6 16.6574 202.216 17.1813C201.963 17.5287 201.838 17.8838 201.838 18.2379C201.838 18.5363 201.943 18.7983 202.159 19.0228C202.322 19.1994 202.547 19.2848 202.839 19.2848C203.164 19.2848 203.538 19.0996 203.966 18.7282ZM203.966 19.4441C202.858 20.4248 201.861 20.9152 200.982 20.9152C200.462 20.9152 200.03 20.7463 199.686 20.4056C199.344 20.0669 199.171 19.6399 199.171 19.1293C199.171 18.4365 199.47 17.8137 200.067 17.261C200.663 16.7073 201.963 15.9722 203.966 15.0538V14.1422C203.966 13.4599 203.93 13.0291 203.853 12.8506C203.78 12.675 203.638 12.5185 203.429 12.3861C203.22 12.2537 202.984 12.1875 202.726 12.1875C202.301 12.1875 201.954 12.2806 201.681 12.4696C201.513 12.5848 201.429 12.721 201.429 12.8765C201.429 13.0127 201.519 13.1788 201.701 13.3803C201.947 13.6586 202.07 13.9273 202.07 14.1854C202.07 14.5002 201.954 14.7717 201.715 14.9944C201.479 15.216 201.171 15.3293 200.79 15.3293C200.382 15.3293 200.04 15.2064 199.765 14.9608C199.49 14.7161 199.351 14.4272 199.351 14.1C199.351 13.6327 199.536 13.1884 199.905 12.7642C200.275 12.3429 200.79 12.0186 201.45 11.7902C202.112 11.5647 202.799 11.4524 203.511 11.4524C204.374 11.4524 205.056 11.6347 205.557 11.9984C206.062 12.3631 206.386 12.7575 206.536 13.1855C206.625 13.4561 206.671 14.0798 206.671 15.0538V18.5699C206.671 18.9806 206.688 19.2416 206.721 19.3481C206.754 19.4537 206.801 19.5333 206.867 19.5871C206.933 19.636 207.006 19.6629 207.089 19.6629C207.262 19.6629 207.434 19.5468 207.613 19.3145L207.905 19.5401C207.58 20.0208 207.246 20.372 206.897 20.588C206.552 20.8058 206.158 20.9152 205.717 20.9152C205.199 20.9152 204.792 20.7933 204.499 20.5505C204.208 20.3058 204.033 19.9383 203.966 19.4441ZM193.976 13.7785C193.502 12.863 192.918 12.4063 192.232 12.4063C191.993 12.4063 191.797 12.4696 191.642 12.5982C191.407 12.8007 191.211 13.1519 191.058 13.6557C190.909 14.1595 190.832 14.931 190.832 15.9684C190.832 17.1113 190.916 17.9567 191.085 18.5065C191.25 19.0564 191.48 19.4508 191.768 19.6955C191.917 19.8183 192.119 19.8817 192.375 19.8817C192.942 19.8817 193.475 19.4345 193.976 18.543V13.7785ZM196.701 7.61491V18.0728C196.701 18.7714 196.721 19.186 196.761 19.3145C196.811 19.5266 196.911 19.6859 197.057 19.7886C197.199 19.8913 197.454 19.9546 197.815 19.9815V20.3193L193.976 21.0543V19.6168C193.518 20.1734 193.11 20.5544 192.753 20.753C192.394 20.9545 191.99 21.0543 191.539 21.0543C190.385 21.0543 189.47 20.5371 188.8 19.5036C188.26 18.6658 187.988 17.6352 187.988 16.4127C187.988 15.4377 188.157 14.5635 188.491 13.791C188.827 13.0195 189.285 12.436 189.871 12.0416C190.455 11.6472 191.081 11.4524 191.751 11.4524C192.182 11.4524 192.567 11.5349 192.902 11.7038C193.236 11.8727 193.595 12.1644 193.976 12.5848V9.82202C193.976 9.1359 193.946 8.72135 193.89 8.57932C193.81 8.39412 193.694 8.25785 193.538 8.16861C193.383 8.07936 193.091 8.03234 192.663 8.03234V7.61491H196.701ZM185.903 11.7105V18.9077C185.903 19.5535 185.979 19.968 186.128 20.1494C186.28 20.3289 186.576 20.4315 187.017 20.4584V20.7962H182.063V20.4584C182.475 20.445 182.779 20.3289 182.978 20.1033C183.11 19.9546 183.177 19.5535 183.177 18.9077V13.5991C183.177 12.9504 183.101 12.5387 182.948 12.3564C182.795 12.1779 182.501 12.0752 182.063 12.0483V11.7105H185.903ZM184.536 7.31647C184.958 7.31647 185.312 7.46233 185.604 7.75789C185.896 8.05249 186.042 8.40659 186.042 8.82115C186.042 9.23858 185.896 9.5898 185.601 9.88152C185.305 10.1732 184.951 10.3191 184.536 10.3191C184.119 10.3191 183.767 10.1732 183.475 9.88152C183.183 9.5898 183.037 9.23858 183.037 8.82115C183.037 8.40659 183.183 8.05249 183.475 7.75789C183.767 7.46233 184.119 7.31647 184.536 7.31647ZM180.349 11.4716L180.488 14.5731H180.15C179.759 13.6557 179.354 13.0291 178.933 12.6913C178.516 12.3564 178.098 12.1875 177.679 12.1875C177.418 12.1875 177.192 12.2767 177.006 12.4523C176.821 12.6318 176.728 12.8371 176.728 13.0694C176.728 13.2411 176.791 13.41 176.921 13.5722C177.126 13.838 177.703 14.2881 178.648 14.931C179.596 15.574 180.216 16.1209 180.518 16.5681C180.816 17.0153 180.965 17.5191 180.965 18.0728C180.965 18.5756 180.839 19.0698 180.588 19.5535C180.339 20.0371 179.984 20.4085 179.527 20.6666C179.069 20.9248 178.566 21.0543 178.012 21.0543C177.58 21.0543 177.003 20.919 176.284 20.6436C176.088 20.5745 175.959 20.5371 175.886 20.5371C175.673 20.5371 175.499 20.7031 175.356 21.0351H175.018L174.858 17.7744H175.196C175.484 18.6227 175.883 19.2589 176.39 19.683C176.894 20.1072 177.371 20.3193 177.822 20.3193C178.134 20.3193 178.386 20.2223 178.582 20.0343C178.778 19.8414 178.877 19.613 178.877 19.3414C178.877 19.0295 178.781 18.7647 178.588 18.5363C178.393 18.3108 177.962 17.9701 177.291 17.5124C176.304 16.8263 175.667 16.3061 175.376 15.9453C174.951 15.4147 174.739 14.8322 174.739 14.1921C174.739 13.4935 174.977 12.863 175.458 12.3007C175.938 11.7336 176.636 11.4524 177.544 11.4524C178.035 11.4524 178.509 11.5743 178.966 11.8199C179.139 11.9188 179.281 11.9687 179.39 11.9687C179.507 11.9687 179.603 11.9428 179.673 11.8929C179.742 11.843 179.855 11.7038 180.011 11.4716H180.349ZM169.55 11.7105L169.557 13.7785C170.153 12.84 170.681 12.2172 171.132 11.913C171.582 11.604 172.017 11.4524 172.435 11.4524C172.796 11.4524 173.088 11.5647 173.304 11.7864C173.519 12.009 173.628 12.3237 173.628 12.7306C173.628 13.1624 173.523 13.4993 173.313 13.7382C173.105 13.9772 172.852 14.0962 172.554 14.0962C172.213 14.0962 171.917 13.9868 171.669 13.768C171.417 13.5463 171.268 13.4235 171.225 13.4004C171.158 13.3611 171.085 13.3409 171.002 13.3409C170.817 13.3409 170.637 13.41 170.472 13.553C170.207 13.7747 170.008 14.0894 169.872 14.4973C169.666 15.1229 169.564 15.8158 169.564 16.5748L169.57 18.6591V19.2051C169.57 19.5765 169.593 19.8155 169.639 19.922C169.716 20.0966 169.831 20.2262 169.984 20.3058C170.141 20.3884 170.399 20.4383 170.764 20.4584V20.7962H165.83V20.4584C166.228 20.4248 166.497 20.3154 166.636 20.1331C166.775 19.9479 166.844 19.4604 166.844 18.6687V13.6384C166.844 13.1116 166.818 12.7776 166.765 12.6318C166.702 12.4456 166.606 12.3132 166.483 12.2278C166.36 12.1414 166.141 12.0819 165.83 12.0483V11.7105H169.55ZM162.273 15.289C162.273 14.2487 162.216 13.5329 162.104 13.1452C161.987 12.7575 161.812 12.4629 161.573 12.2633C161.437 12.1481 161.255 12.0886 161.025 12.0886C160.691 12.0886 160.415 12.2537 160.2 12.5819C159.819 13.1586 159.626 13.9474 159.626 14.9512V15.289H162.273ZM164.66 15.9252H159.667C159.726 17.1285 160.048 18.0795 160.632 18.7781C161.079 19.3145 161.616 19.5832 162.246 19.5832C162.637 19.5832 162.989 19.4738 163.307 19.2589C163.626 19.043 163.967 18.6524 164.327 18.092L164.66 18.3108C164.169 19.3078 163.622 20.0179 163.028 20.4315C162.432 20.8461 161.742 21.0543 160.956 21.0543C159.61 21.0543 158.589 20.5371 157.896 19.5036C157.339 18.6726 157.06 17.6381 157.06 16.4031C157.06 14.8917 157.471 13.6893 158.291 12.794C159.11 11.8996 160.071 11.4524 161.172 11.4524C162.09 11.4524 162.889 11.8267 163.565 12.579C164.242 13.3313 164.607 14.4474 164.66 15.9252ZM151.132 21.0543L148.055 14.0165C147.687 13.1624 147.399 12.6183 147.189 12.39C147.041 12.2211 146.822 12.1078 146.53 12.0483V11.7105H151.357V12.0483C151.056 12.0483 150.847 12.1049 150.737 12.2143C150.582 12.3602 150.505 12.5291 150.505 12.7239C150.505 12.9667 150.648 13.4206 150.929 14.0866L152.431 17.4922L153.622 14.5539C153.964 13.7056 154.136 13.1058 154.136 12.7546C154.136 12.5521 154.063 12.3861 153.917 12.2575C153.771 12.1309 153.515 12.0618 153.145 12.0483V11.7105H156.109V12.0483C155.824 12.0886 155.591 12.1942 155.409 12.3736C155.23 12.5483 154.958 13.0694 154.593 13.9301L151.58 21.0543H151.132ZM145.028 11.7105V18.9077C145.028 19.5535 145.104 19.968 145.254 20.1494C145.406 20.3289 145.701 20.4315 146.142 20.4584V20.7962H141.189V20.4584C141.599 20.445 141.904 20.3289 142.104 20.1033C142.237 19.9546 142.303 19.5535 142.303 18.9077V13.5991C142.303 12.9504 142.226 12.5387 142.073 12.3564C141.922 12.1779 141.626 12.0752 141.189 12.0483V11.7105H145.028ZM143.662 7.31647C144.083 7.31647 144.437 7.46233 144.729 7.75789C145.021 8.05249 145.167 8.40659 145.167 8.82115C145.167 9.23858 145.021 9.5898 144.726 9.88152C144.432 10.1732 144.076 10.3191 143.662 10.3191C143.244 10.3191 142.892 10.1732 142.6 9.88152C142.31 9.5898 142.164 9.23858 142.164 8.82115C142.164 8.40659 142.31 8.05249 142.6 7.75789C142.892 7.46233 143.244 7.31647 143.662 7.31647ZM134.143 11.7105V12.8832C134.607 12.3832 135.054 12.0224 135.482 11.7931C135.91 11.5647 136.367 11.4524 136.858 11.4524C137.448 11.4524 137.936 11.6146 138.324 11.9428C138.712 12.27 138.97 12.6778 139.1 13.1624C139.202 13.5329 139.255 14.242 139.255 15.289V18.828C139.255 19.5266 139.318 19.9613 139.444 20.1331C139.57 20.3058 139.832 20.4114 140.23 20.4584V20.7962H135.634V20.4584C135.98 20.4114 136.225 20.2694 136.374 20.0304C136.477 19.8682 136.53 19.4671 136.53 18.828V14.7852C136.53 14.0395 136.5 13.5693 136.444 13.3774C136.384 13.1816 136.288 13.0329 136.149 12.9235C136.01 12.817 135.857 12.7642 135.688 12.7642C135.134 12.7642 134.62 13.1557 134.143 13.9369V18.828C134.143 19.5074 134.205 19.9383 134.332 20.1168C134.458 20.2991 134.693 20.4114 135.038 20.4584V20.7962H130.443V20.4584C130.823 20.4181 131.092 20.2953 131.254 20.0909C131.364 19.9479 131.417 19.5266 131.417 18.828V13.6787C131.417 12.9859 131.354 12.5521 131.229 12.3832C131.103 12.2105 130.841 12.1011 130.443 12.0483V11.7105H134.143ZM115.837 7.61491H122.64V7.95269H122.299C121.785 7.95269 121.434 8.00643 121.241 8.11583C121.049 8.22139 120.913 8.37012 120.834 8.55917C120.751 8.74821 120.711 9.22226 120.711 9.98132V16.429C120.711 17.6083 120.801 18.3876 120.976 18.7685C121.156 19.1524 121.447 19.4671 121.855 19.7224C122.263 19.9748 122.78 20.1005 123.4 20.1005C124.112 20.1005 124.719 19.9412 125.22 19.6197C125.721 19.2982 126.095 18.8578 126.344 18.2945C126.593 17.7312 126.719 16.7504 126.719 15.3523V9.98132C126.719 9.38732 126.656 8.96029 126.533 8.70887C126.411 8.45361 126.255 8.278 126.065 8.1782C125.775 8.02946 125.363 7.95269 124.829 7.95269V7.61491H129.385V7.95269H129.113C128.744 7.95269 128.44 8.02946 128.194 8.1782C127.948 8.3279 127.77 8.55245 127.661 8.85473C127.578 9.06297 127.535 9.43722 127.535 9.98132V14.9838C127.535 16.5317 127.432 17.6477 127.229 18.3338C127.024 19.0228 126.53 19.6533 125.741 20.2291C124.949 20.8058 123.874 21.0937 122.508 21.0937C121.367 21.0937 120.489 20.942 119.869 20.6369C119.02 20.2223 118.42 19.6926 118.072 19.043C117.724 18.3971 117.548 17.5258 117.548 16.4328V9.98132C117.548 9.21555 117.505 8.7415 117.422 8.55629C117.336 8.37012 117.193 8.22139 116.985 8.10911C116.775 7.99971 116.394 7.94598 115.837 7.95269V7.61491Z" fill="#1C622B"/>
<path d="M267 0L267 93" stroke="black"/>
</svg>
