<svg width="245" height="98" viewBox="0 0 245 98" fill="none" xmlns="http://www.w3.org/2000/svg">
<path d="M158.258 53.7215C152.879 51.5236 149.817 48.1644 150.607 42.3938C150.691 41.7713 150.544 40.8438 150.899 40.577C155.493 37.1136 154.833 31.432 156.919 26.9446C159.371 21.6644 164.75 21.4027 168.608 21.1969C171.072 17.6623 172.45 14.0084 175.097 12.2145C182.756 7.02322 191.939 12.1001 192.038 21.4001C192.213 37.6167 192.183 53.8384 192.013 70.055C191.967 74.362 190.737 78.6004 186.245 80.529C181.155 82.7142 176.5 81.5632 172.18 78.143C169.134 75.7291 165.967 73.3609 162.555 71.5237C155.087 67.5013 153.852 64.5639 157.069 56.7885C157.422 55.9322 157.74 55.0606 158.258 53.7241V53.7215ZM159.46 36.143C158.408 36.7528 157.755 37.1492 157.089 37.5151C153.57 39.4539 151.674 42.1905 153.133 46.2739C154.63 50.464 157.717 51.2949 161.859 50.3624C163.172 50.0651 164.771 51.0078 166.237 51.3838C165.185 52.5501 164.356 54.1586 163.045 54.8116C156.706 57.9726 155.974 64.8028 161.683 68.9878C167.98 73.6048 177.371 70.1668 179.239 62.6607C179.506 61.5859 180.438 60.4857 181.376 59.8555C181.762 59.5963 183.541 60.412 183.678 60.9786C183.925 61.995 183.678 63.3417 183.165 64.2921C180.53 69.1479 176.551 72.159 170.785 72.38C172.721 77.739 176.945 80.6687 181.457 79.9268C186.826 79.045 189.55 75.5918 189.566 69.5799C189.583 61.6952 189.746 53.8029 189.456 45.9283C189.37 43.6135 188.509 40.9022 187.06 39.1363C181.925 32.8727 175.57 31.0305 168.722 38.1986C166.847 40.1603 164.974 40.8743 162.745 38.0157C171.179 29.605 180.045 31.7496 189.555 36.9408C189.555 30.6138 189.393 25.2752 189.611 19.9543C189.769 16.0869 187.538 13.8636 184.499 12.8853C181.025 11.7647 177.199 11.78 174.401 14.8825C171.453 18.1528 171.842 21.0774 175.273 23.9589C176.073 24.6297 176.708 25.4988 177.417 26.2738C177.252 26.7667 177.084 27.2571 176.919 27.7501C175.176 27.2876 172.945 27.3486 171.779 26.2687C168.102 22.8663 164.323 22.9374 160.677 25.608C157.044 28.2684 157.226 32.0062 159.457 36.1404L159.46 36.143Z" fill="#008BC9"/>
<path d="M196.147 78.8216C197.639 78.2905 199.095 77.4876 200.632 77.2741C212.785 75.5666 221.12 68.9626 225.546 57.706C230.036 46.2893 227.421 35.7213 219.966 26.5204C214.874 20.2365 207.8 16.8519 199.524 16.2243C198.431 16.1405 197.41 15.1266 196.358 14.5447C197.433 14.0314 198.586 12.9515 199.567 13.0887C215.179 15.3045 226.446 24.9856 229.586 40.041C233.4 58.3234 222.116 75.869 203.77 79.6677C201.394 80.1607 198.94 80.2725 196.523 80.5622C196.399 79.9828 196.271 79.4035 196.147 78.8241V78.8216Z" fill="#008BC9"/>
<path d="M202.22 86.7368H182.276C182.271 86.2565 182.263 85.7763 182.258 85.296C188.89 84.2695 195.555 84.6735 202.217 85.1029C202.217 85.6467 202.217 86.193 202.22 86.7368Z" fill="#008BC9"/>
<path d="M202.182 92.3675H182.233C182.233 91.9508 182.23 91.5341 182.228 91.1173H202.248L202.182 92.3675Z" fill="#008BC9"/>
<path d="M182.222 96.7533H202.294C202.294 97.1573 202.289 97.5639 202.286 97.9679H182.215C182.215 97.5639 182.22 97.1573 182.222 96.7533Z" fill="#008BC9"/>
<path d="M236.844 44.2666C237.367 43.9286 237.929 43.2578 238.404 43.3137C240.617 43.578 242.805 44.0455 245 44.4394C244.789 44.9831 244.599 45.9868 244.365 45.997C241.857 46.1113 239.344 46.0681 236.831 46.0681C236.836 45.4685 236.838 44.8688 236.844 44.2666Z" fill="#008BC9"/>
<path d="M230.791 14.2853C230.595 14.7554 230.531 15.3881 230.183 15.665C228.45 17.0321 226.644 18.3026 224.863 19.6087C224.586 19.0852 223.978 18.1883 224.082 18.0968C225.953 16.4578 227.907 14.918 229.845 13.3553C230.16 13.6653 230.476 13.9753 230.791 14.2853Z" fill="#008BC9"/>
<path d="M225.145 71.0333C227.246 72.812 229.345 74.5933 231.446 76.3719C230.933 76.964 230.42 77.5586 229.904 78.1506C227.82 76.2906 225.737 74.4281 223.653 72.5681C224.151 72.0573 224.647 71.5441 225.145 71.0333Z" fill="#008BC9"/>
<path d="M197.041 0.172787V8.18453C196.716 8.1642 196.391 8.14387 196.065 8.12355V0C196.391 0.0584428 196.716 0.114345 197.041 0.172787Z" fill="#008BC9"/>
<path d="M174.576 56.6057C174.795 54.3645 174.381 51.7829 175.369 49.9533C177.077 46.7924 179.163 43.3239 184.55 44.7748C176.858 45.6616 176.324 51.107 176.655 57.1113C175.961 56.9411 175.267 56.7734 174.574 56.6031L174.576 56.6057Z" fill="#008BC9"/>
<path d="M183.127 31.2059C187.434 27.8239 187.642 24.0683 184.738 20.023C185.269 19.9163 185.797 19.807 186.328 19.7003C186.964 21.5247 188.28 23.4356 188.064 25.1533C187.774 27.4656 186.3 29.633 185.335 31.8615C184.598 31.643 183.864 31.4244 183.127 31.2059Z" fill="#008BC9"/>
<g clip-path="url(#clip0_444_438)">
<path d="M84.0191 76.3501C84.5454 75.8356 84.3509 75.1746 84.3681 74.5825C84.6541 65.3511 84.4224 56.1196 84.371 46.8852C84.3595 44.5428 84.308 42.1919 84.7542 39.8754C84.8515 39.3666 85.0117 38.8551 85.2291 38.3837C85.5409 37.7112 86.133 37.4382 86.8624 37.4382C87.6318 37.4382 88.0666 37.8606 88.3727 38.5332C89.3996 40.7864 89.3481 43.2265 89.3738 45.5861C89.4739 55.4413 89.4797 65.2993 89.3795 75.1545C89.3481 78.1521 89.1965 81.1814 88.3612 84.1101C88.0981 85.0326 87.8292 85.9466 87.3572 86.7858C86.1473 88.9442 83.6816 89.4271 81.7708 87.8578C80.375 86.714 79.4711 85.1907 78.6415 83.6215C75.6724 78.0084 73.939 71.9327 72.0912 65.9029C70.6352 61.152 69.1964 56.3955 67.4916 51.7251C67.3057 51.2164 67.197 50.3312 66.5992 50.4433C65.9699 50.5611 66.2616 51.4233 66.2588 51.9493C66.2273 57.6917 66.2273 63.4341 66.213 69.1736C66.1987 74.6745 66.11 80.1726 65.7954 85.6678C65.7639 86.2311 65.6324 86.8002 65.4693 87.3434C65.2433 88.1021 64.7113 88.5304 63.8961 88.5792C63.0523 88.6281 62.3972 88.3234 62.0225 87.5446C61.4733 86.4064 61.2988 85.1821 61.1873 83.9347C60.8869 80.5922 61.0471 77.2525 61.11 73.9043C61.2388 67.0151 61.1615 60.1231 61.2702 53.234C61.3274 49.5581 61.4161 45.8707 62.2971 42.2608C62.5603 41.1831 62.9121 40.1513 63.4441 39.1856C64.4767 37.3146 66.2388 36.7398 68.1781 37.6566C69.6112 38.3349 70.6009 39.5046 71.4075 40.8181C73.5214 44.2669 74.9745 48.009 76.0243 51.8976C78.141 59.7466 80.4093 67.5411 83.3355 75.1315C83.4985 75.554 83.5214 76.0771 84.022 76.3386L84.0191 76.3501Z" fill="#008BC9"/>
<path d="M34.8341 65.2361C34.8341 70.9296 34.8484 76.6231 34.8256 82.3195C34.8198 83.8514 34.6139 85.3746 34.202 86.8548C33.9131 87.8923 33.3725 88.6856 32.1196 88.6338C30.8639 88.5821 30.6093 87.6078 30.369 86.6852C30.0201 85.3344 30.0172 83.9405 30.0029 82.5523C29.8942 72.8408 29.8055 63.1294 29.6511 53.4208C29.6024 50.4576 29.3708 47.5002 29.2048 44.54C29.1762 44.0341 29.2306 43.3875 28.587 43.2294C28.0349 43.0943 27.7432 43.6203 27.4915 43.9996C26.25 45.8706 25.0515 47.7675 23.8158 49.6414C23.4497 50.199 23.0635 50.7508 22.6144 51.2423C21.3215 52.6534 20.3118 52.777 18.7071 51.7682C16.9108 50.6387 15.512 49.058 14.0218 47.5807C13.75 47.3106 13.4897 47.0289 13.2008 46.7817C12.4199 46.1149 11.6819 45.0199 10.5292 45.5861C9.48799 46.0977 9.46511 47.3307 9.47655 48.3883C9.55664 57.1427 9.68822 65.8971 9.73685 74.6544C9.75687 78.0889 10.1144 81.5406 9.49085 84.9608C9.45653 85.1476 9.44509 85.343 9.40218 85.527C8.92449 87.5474 7.90618 88.6597 6.44451 88.7718C5.04004 88.8781 4.02746 88.0044 3.31521 85.9351C2.50285 83.5669 2.12814 81.0894 2.09381 78.6062C1.95365 68.2711 1.81635 57.936 2.07379 47.6008C2.13672 45.0659 2.49713 42.5482 3.21796 40.1053C3.96453 37.5818 5.31464 36.7857 7.85755 37.4468C11.5275 38.401 14.1104 40.9819 16.6648 43.5714C17.4686 44.3848 18.2409 45.2383 18.9617 46.1264C19.7969 47.1553 20.4005 46.9254 21.0069 45.908C22.3255 43.6921 23.6785 41.5078 25.3862 39.5477C28.2437 36.2684 31.742 36.7283 33.464 40.7232C34.4623 43.0368 34.7884 45.5229 34.8141 48.0147C34.8742 53.7571 34.8341 59.4995 34.8341 65.239V65.2361Z" fill="#008BC9"/>
<path d="M118.367 60.4766C118.353 54.1652 118.444 47.8595 118.968 41.5653C119.179 39.0304 119.897 38.2256 122.346 37.6767C123.241 37.4755 124.142 37.4726 125.043 37.4726C128.232 37.4697 131.425 37.4726 134.614 37.4927C135.232 37.4956 135.855 37.5157 136.465 37.6106C138.195 37.8721 138.968 38.6797 138.839 40.0564C138.69 41.6515 137.457 41.6917 136.307 41.7435C134.025 41.8469 131.742 41.8814 129.46 41.9619C127.437 42.0338 127.011 42.3672 126.851 44.3618C126.385 50.1357 126.605 55.9241 126.722 61.7038C126.765 63.8077 127.492 64.3595 129.597 64.4285C131.499 64.4917 133.404 64.4773 135.309 64.5176C135.924 64.5291 136.542 64.5894 137.154 64.6613C138.367 64.7992 138.907 65.5206 138.845 66.7162C138.782 67.8745 138.21 68.5815 137.028 68.7367C134.471 69.0729 131.897 68.9724 129.328 69.0327C127.417 69.0787 126.874 69.6018 126.857 71.5331C126.828 74.8326 126.814 78.132 126.828 81.4314C126.839 84.1014 127.343 84.5641 130.049 84.5555C132.334 84.5498 134.62 84.5498 136.905 84.5268C137.869 84.5182 138.624 84.8027 138.805 85.8489C138.982 86.8605 138.539 87.6451 137.663 88.1165C136.897 88.5304 136.027 88.5907 135.163 88.5993C131.119 88.6511 127.074 88.7258 123.029 88.7603C120.661 88.7804 119.966 88.151 119.379 85.8086C118.85 83.6991 118.81 81.532 118.77 79.4023C118.647 73.0966 118.727 66.7852 118.727 60.4738C118.607 60.4738 118.49 60.4738 118.37 60.4738L118.367 60.4766Z" fill="#008BC9"/>
<path d="M48.999 37.441C51.5305 37.579 53.9676 37.2657 56.3789 37.7198C57.3028 37.8923 57.9664 38.3004 58.0923 39.3437C58.2868 40.979 57.812 41.6257 56.0757 41.7205C53.6043 41.8556 51.1272 41.9533 48.6529 41.9447C47.0997 41.9389 46.3674 42.6575 46.2101 44.1204C46.1386 44.7843 46.0471 45.4511 46.0471 46.1178C46.0328 51.0928 46.0242 56.0678 46.0471 61.0457C46.0585 63.6611 46.7593 64.3768 49.328 64.4457C51.4704 64.5061 53.6157 64.4515 55.7582 64.5463C57.6461 64.6297 58.1037 65.1355 58.118 66.676C58.1323 68.0584 57.4315 68.6419 56.13 68.7712C53.6615 69.0184 51.1844 68.9868 48.7101 69.0327C46.8537 69.0672 46.2788 69.5702 46.233 71.3952C46.1472 74.6946 46.0871 77.9941 46.0928 81.2935C46.0986 83.8802 46.8509 84.5613 49.4395 84.5556C51.725 84.5498 54.0133 84.5412 56.2988 84.5354C57.1026 84.5354 57.8835 84.6418 58.0608 85.6132C58.2525 86.6737 58.0665 87.6452 56.9767 88.1625C56.1873 88.539 55.3263 88.5936 54.4624 88.6051C50.5122 88.6568 46.5591 88.7287 42.6089 88.7661C39.9344 88.7891 39.082 87.9958 38.6186 85.3143C38.2181 82.9949 38.1924 80.644 38.1151 78.3131C37.8205 69.5644 37.6432 60.81 37.8405 52.0585C37.9206 48.5723 38.1294 45.086 38.3297 41.6027C38.4727 39.0908 39.2507 38.2084 41.6964 37.7083C44.1478 37.2054 46.6392 37.6164 48.999 37.4439V37.441Z" fill="#008BC9"/>
<path d="M100.401 63.6985C100.401 57.5739 100.401 51.4521 100.401 45.3275C100.401 42.8414 99.7885 42.1947 97.2999 42.097C95.6352 42.0338 93.9647 42.1315 92.3228 41.7406C91.3274 41.505 90.4836 41.0652 90.4578 39.8955C90.4349 38.7746 91.1443 38.1596 92.1512 37.8722C92.6518 37.7285 93.1724 37.5761 93.6872 37.5646C100.687 37.4037 107.686 37.2255 114.68 37.7198C115.1 37.7486 115.535 37.8377 115.93 37.9814C116.762 38.286 117.497 38.6999 117.52 39.7662C117.546 40.9043 116.799 41.3814 115.896 41.6688C114.199 42.2091 112.426 42.212 110.67 42.2896C108.518 42.3873 108.075 42.8127 108.138 44.9768C108.49 56.7892 108.361 68.6045 108.37 80.4198C108.37 82.4862 108.238 84.5354 107.386 86.4582C106.654 88.1136 105.587 88.8695 104.142 88.7776C102.494 88.6712 101.779 87.5532 101.316 86.1478C100.755 84.4435 100.627 82.6817 100.624 80.9084C100.612 75.1689 100.621 69.4294 100.621 63.6927C100.547 63.6927 100.472 63.6927 100.398 63.6927L100.401 63.6985Z" fill="#008BC9"/>
<path d="M53.8816 26.968C53.8816 24.4072 53.8616 21.8435 53.8959 19.2827C53.9045 18.7079 53.547 17.8371 54.285 17.6215C55.3204 17.3169 56.4532 17.3542 57.5172 17.6302C57.8891 17.7279 57.7918 18.2021 57.7918 18.5211C57.8004 23.4473 57.789 28.3734 57.809 33.2995C57.8119 34.1014 57.5115 34.3285 56.722 34.3917C55.2775 34.5038 54.2564 34.1158 53.3353 32.8771C51.456 30.3536 49.3822 27.9739 47.3742 25.5482C47.1568 25.2838 46.9737 24.7837 46.5075 25.0194C46.1585 25.1947 46.3244 25.6258 46.3216 25.9419C46.3073 28.2843 46.2729 30.6295 46.333 32.9719C46.3587 34.0181 46.0498 34.4176 44.96 34.3831C42.0424 34.2882 42.4371 34.7107 42.4228 31.8855C42.4028 27.7727 42.3942 23.6599 42.44 19.5472C42.4485 18.866 41.9566 17.7394 42.9606 17.5842C44.0847 17.4117 45.3805 17.0266 46.3702 18.2912C48.4869 20.9986 50.698 23.6283 52.8748 26.2868C53.0836 26.5426 53.3124 26.784 53.5298 27.0312C53.6442 27.0111 53.7615 26.991 53.8759 26.9709L53.8816 26.968Z" fill="#008BC9"/>
<path d="M26.4418 25.9304C26.4418 23.4932 26.4675 21.056 26.4275 18.6217C26.4132 17.7508 26.7135 17.4634 27.586 17.4721C31.0585 17.5123 34.531 17.5295 38.0036 17.4663C39.3766 17.4404 39.0991 18.34 39.0963 19.1016C39.0906 19.8547 39.3938 20.7945 38.015 20.7514C35.8754 20.6853 33.733 20.7715 31.5934 20.7169C30.6924 20.6939 30.2376 20.941 30.3377 21.9096C30.3806 22.335 30.3663 22.7689 30.3377 23.1972C30.2862 24.0019 30.6323 24.2836 31.4332 24.2635C33.241 24.2175 35.0516 24.3209 36.8537 24.2261C38.2296 24.1542 38.0923 25.0021 38.118 25.8873C38.1466 26.807 38.0694 27.4537 36.8537 27.3933C35.0516 27.3042 33.2381 27.4019 31.4332 27.356C30.6352 27.3358 30.3634 27.6089 30.3234 28.4136C30.1889 31.1583 30.1603 31.1583 32.8892 31.1583C34.697 31.1583 36.5076 31.2158 38.3125 31.1411C39.6827 31.0836 39.3995 32.0062 39.4052 32.7736C39.4109 33.5467 39.6655 34.4118 38.3011 34.3859C34.7341 34.3169 31.1643 34.3284 27.5974 34.3859C26.5791 34.4032 26.416 33.9548 26.4303 33.0983C26.4647 30.71 26.4418 28.3216 26.4418 25.9333V25.9304Z" fill="#008BC9"/>
<path d="M131.808 17.5612C133.37 17.0639 133.982 17.9808 134.525 19.2482C136.508 23.8467 138.544 28.4222 140.609 32.9863C141.101 34.0755 140.904 34.4923 139.703 34.3716C139.374 34.3399 139.031 34.3256 138.704 34.3716C137.48 34.5584 136.679 34.1416 136.419 32.8627C136.079 31.19 135.117 30.5404 133.384 30.7416C131.977 30.9054 130.532 30.8278 129.108 30.756C128.201 30.71 127.652 31.006 127.423 31.8912C127.363 32.1212 127.257 32.3396 127.168 32.558C126.51 34.1589 124.568 34.9866 122.952 34.3486C122.271 34.0813 122.683 33.6674 122.841 33.3082C123.807 31.075 124.777 28.8447 125.755 26.6173C126.831 24.1715 127.984 21.7602 128.976 19.2827C129.525 17.9118 130.203 17.0352 131.805 17.5583L131.808 17.5612ZM131.92 21.9154C131.799 21.9154 131.676 21.9154 131.556 21.9182C130.861 23.5794 130.169 25.2378 129.474 26.899C129.282 27.356 129.214 27.7497 129.903 27.7526C131.133 27.7583 132.366 27.7583 133.596 27.7555C134.156 27.7555 134.222 27.4278 134.045 26.9996C133.344 25.301 132.632 23.6111 131.922 21.9154H131.92Z" fill="#008BC9"/>
<path d="M9.6395 34.6647C4.91981 34.6532 1.50734 32.2563 0.386053 28.5372C-0.726649 24.8498 0.620607 20.8865 3.70414 18.7712C6.91639 16.5667 11.9021 16.6702 14.8455 19.0039C16.0869 19.9898 16.0211 20.1248 14.9656 21.2975C14.0417 22.3206 13.4238 22.4614 12.2282 21.5216C10.1887 19.9208 6.8649 20.4783 5.2316 22.4068C3.5697 24.3698 3.66981 27.8158 5.44327 29.6638C7.25106 31.5464 10.3317 31.7619 12.5028 30.207C12.8889 29.9311 13.1979 29.1753 13.7499 29.5288C14.5394 30.0289 15.3146 30.6468 15.7436 31.5176C15.9753 31.989 15.4776 32.285 15.1658 32.558C13.4267 34.0727 11.3529 34.6331 9.64236 34.6647H9.6395Z" fill="#008BC9"/>
<path d="M116.001 17.1962C117.723 17.2335 119.743 17.7854 121.462 19.254C122.209 19.892 122.26 20.372 121.508 21.0991C120.547 22.0303 119.88 22.5793 118.487 21.4958C116.382 19.8576 113.058 20.5243 111.416 22.5735C109.88 24.4877 110.012 27.7842 111.694 29.5949C113.479 31.5148 116.539 31.7878 118.739 30.2674C119.165 29.9743 119.5 29.1868 120.158 29.6035C120.913 30.0806 121.651 30.687 122.051 31.4946C122.34 32.0752 121.671 32.4 121.287 32.719C118.318 35.1792 113.358 35.3315 110.043 33.084C106.9 30.9543 105.564 26.9824 106.716 23.203C107.838 19.5357 111.285 17.1818 115.999 17.1962H116.001Z" fill="#008BC9"/>
<path d="M84.2708 25.8902C84.2708 23.5018 84.2994 21.1135 84.2565 18.728C84.2393 17.8169 84.5282 17.4548 85.4779 17.4663C88.9476 17.5094 92.423 17.5324 95.8927 17.4606C97.3944 17.429 96.9625 18.4349 97.0025 19.2022C97.0426 20.0127 97.1799 20.8261 95.8412 20.7629C93.7073 20.6594 91.562 20.7657 89.4224 20.7226C88.5757 20.7054 88.2325 20.9497 88.2525 21.8493C88.3383 25.7637 87.7891 24.9303 91.2388 25.0194C92.4745 25.051 93.713 25.0538 94.9487 25.0194C96.3503 24.9791 95.9213 26.0167 95.9642 26.7352C96.0071 27.4795 96.153 28.3188 94.9115 28.2814C93.058 28.2297 91.2016 28.2929 89.348 28.2584C88.5557 28.244 88.2325 28.5228 88.2582 29.3362C88.2983 30.6726 88.2468 32.0119 88.2754 33.3484C88.2897 34.0755 88.0065 34.383 87.2714 34.3773C83.6015 34.3457 84.3309 34.7107 84.2794 31.6268C84.2479 29.7184 84.2737 27.8072 84.2737 25.8959L84.2708 25.8902Z" fill="#008BC9"/>
<path d="M67.1453 17.4864C69.1934 17.4864 71.2443 17.5583 73.2866 17.4634C74.7369 17.3944 74.448 18.3371 74.468 19.1534C74.4909 20.0213 74.6396 20.941 73.2323 20.7916C72.2912 20.691 71.3244 20.8318 70.3776 20.76C69.3421 20.6824 69.0789 21.1336 69.0904 22.0993C69.1304 25.6861 69.0618 29.2729 69.1304 32.8598C69.1533 34.041 68.8215 34.4405 67.6087 34.3916C64.7912 34.2738 65.1602 34.6934 65.1459 31.9602C65.1287 28.6608 65.1116 25.3585 65.1573 22.059C65.1716 21.0646 64.8627 20.6766 63.8501 20.7571C62.9033 20.8347 61.9422 20.714 60.9954 20.7858C59.5023 20.9008 59.8999 19.8259 59.8684 19.0528C59.8369 18.2624 59.651 17.4031 61.004 17.4634C63.0463 17.5554 65.0973 17.4864 67.1453 17.4893V17.4864Z" fill="#008BC9"/>
<path d="M103.513 25.8816C103.513 28.2728 103.473 30.6669 103.533 33.0581C103.556 34.0295 103.298 34.4147 102.266 34.3802C99.0678 34.271 99.5826 34.8285 99.5598 31.6412C99.5283 27.4307 99.5884 23.2202 99.5283 19.0097C99.5111 17.8486 99.8 17.4146 101.03 17.4548C103.51 17.5324 103.513 17.4634 103.513 19.9955C103.513 21.9585 103.513 23.9186 103.513 25.8816Z" fill="#008BC9"/>
<path d="M22.5543 25.9649C22.5543 28.3015 22.5143 30.6381 22.5744 32.9747C22.6001 34.0094 22.3083 34.4232 21.2157 34.3859C18.2723 34.2824 18.6241 34.7969 18.6127 31.828C18.5955 27.583 18.6441 23.338 18.5869 19.0959C18.5698 17.9003 18.8387 17.2651 20.1544 17.472C20.5263 17.5324 20.9182 17.518 21.2929 17.4749C22.3198 17.3599 22.5944 17.8485 22.5744 18.8113C22.5257 21.1939 22.5572 23.5794 22.5601 25.9649H22.5543Z" fill="#008BC9"/>
<path d="M80.3177 17.6703C80.3434 23.1167 80.3692 28.5659 80.3949 34.0123C79.1707 34.5555 77.8778 34.1359 76.6249 34.2738C76.562 34.202 76.5019 34.1272 76.439 34.0554C76.4618 29.7242 76.4905 25.393 76.5019 21.0617C76.5095 18.5345 77.7815 17.404 80.3177 17.6703Z" fill="#008BC9"/>
<path d="M76.559 15.9258C77.2569 14.8538 78.2581 14.0577 79.0905 13.1064C79.6883 12.4223 80.4806 12.7097 81.2015 12.6551C81.7135 12.6178 82.2284 12.6206 82.7432 12.6034C82.789 12.8419 82.8348 13.0805 82.8805 13.3219C82.7861 13.411 82.6946 13.4972 82.6002 13.5863C82.2541 13.6064 82.0253 13.776 81.928 14.1152C81.7764 14.2359 81.6248 14.3594 81.4732 14.4802C81.1271 14.4888 80.9097 14.667 80.7981 14.9889C80.5464 15.1987 80.2919 15.4085 80.0401 15.6212C79.6597 15.8281 79.2821 16.0379 78.9017 16.2448C78.2352 16.2362 77.5687 16.2276 76.8994 16.2218C76.8651 16.0293 76.7564 15.9229 76.5562 15.9258H76.559Z" fill="#008BC9"/>
</g>
<defs>
<clipPath id="clip0_444_438">
<rect width="140.861" height="76.1857" fill="white" transform="translate(0 12.6063)"/>
</clipPath>
</defs>
</svg>
